M48
; DRILL file {KiCad 8.0.2-1} date 2024-05-25T15:23:05-0400
; FORMAT={-:-/ absolute / inch / decimal}
; #@! TF.CreationDate,2024-05-25T15:23:05-04:00
; #@! TF.GenerationSoftware,Kicad,Pcbnew,8.0.2-1
; #@! TF.FileFunction,Plated,1,4,PTH
FMAT,2
INCH
; #@! TA.AperFunction,Plated,PTH,ViaDrill
T1C0.0157
; #@! TA.AperFunction,Plated,PTH,ComponentDrill
T2C0.0197
; #@! TA.AperFunction,Plated,PTH,ViaDrill
T3C0.0236
; #@! TA.AperFunction,Plated,PTH,ComponentDrill
T4C0.0394
; #@! TA.AperFunction,Plated,PTH,ComponentDrill
T5C0.0433
; #@! TA.AperFunction,Plated,PTH,ComponentDrill
T6C0.0591
; #@! TA.AperFunction,Plated,PTH,ComponentDrill
T7C0.0669
; #@! TA.AperFunction,Plated,PTH,ComponentDrill
T8C0.0709
; #@! TA.AperFunction,Plated,PTH,ComponentDrill
T9C0.1063
%
G90
G05
T1
X4.0354Y-4.2323
X4.0354Y-4.3307
X4.0354Y-4.5276
X4.0354Y-4.626
X4.0354Y-4.7244
X4.0354Y-4.8228
X4.0354Y-4.9213
X4.1339Y-4.2323
X4.1339Y-4.3307
X4.1339Y-4.4291
X4.1339Y-4.7244
X4.1339Y-4.8228
X4.1339Y-4.9213
X4.2323Y-4.2323
X4.2323Y-4.7244
X4.2323Y-4.8228
X4.2323Y-4.9213
X4.4291Y-4.3307
X4.4291Y-4.4291
X4.4291Y-5.0197
X4.5276Y-5.1181
X4.5276Y-5.2165
X4.5276Y-5.315
X4.5276Y-5.4134
X4.5866Y-4.7244
X4.626Y-4.3307
X4.626Y-4.4291
X4.626Y-4.8228
X4.626Y-5.1181
X4.626Y-5.2165
X4.626Y-5.315
X4.626Y-5.4134
X4.6654Y-4.7244
X4.7244Y-4.3307
X4.7244Y-4.4291
X4.7244Y-4.5276
X4.7244Y-5.315
X4.8228Y-4.3012
X4.8228Y-5.2165
X4.8228Y-5.315
X4.8228Y-5.8071
X4.8622Y-4.6752
X4.8622Y-4.7539
X4.8622Y-4.8327
X4.8622Y-4.9114
X4.8622Y-4.9902
X4.8622Y-5.0689
X4.9213Y-5.1181
X4.9213Y-5.2165
X4.9213Y-5.315
X4.9213Y-5.8071
X5.0197Y-5.0197
X5.0197Y-5.1181
X5.0197Y-5.2165
X5.0197Y-5.315
X5.0197Y-5.4134
X5.0197Y-5.8071
X5.0591Y-4.2717
X5.1181Y-5.4134
X5.1181Y-5.8071
X5.2165Y-5.8071
X5.245Y-4.232
X5.315Y-5.4134
X5.315Y-5.5118
X5.315Y-5.6102
X5.4134Y-4.626
X5.4134Y-5.315
X5.4134Y-5.4134
X5.4134Y-5.5118
X5.4134Y-5.8071
X5.5118Y-4.2323
X5.5118Y-4.3307
X5.5118Y-4.4291
X5.5118Y-4.5276
X5.5118Y-4.626
X5.5118Y-5.7087
X5.5118Y-5.8071
X5.6102Y-4.2323
X5.6102Y-4.3307
X5.6102Y-4.4291
X5.6102Y-4.5276
X5.6102Y-4.626
X5.6102Y-5.7087
X5.6102Y-5.8071
X5.6693Y-4.5472
X5.7087Y-4.9213
X5.7087Y-5.0197
X5.7087Y-5.1083
X5.7087Y-5.2165
X5.7087Y-5.7087
X5.7677Y-4.2323
X5.7677Y-4.5472
X5.8071Y-4.9213
X5.8071Y-5.0197
X5.8071Y-5.1181
X5.8071Y-5.7087
X5.8071Y-5.8071
X5.9055Y-4.5276
X5.9055Y-4.626
X5.9055Y-4.7244
X5.9055Y-4.9213
X5.9055Y-5.0197
X5.9055Y-5.1181
X5.9055Y-5.2165
X5.9646Y-4.2323
X6.0039Y-5.1181
X6.0039Y-5.2165
X6.0039Y-5.7087
X6.0039Y-5.8071
X6.0335Y-4.498
X6.0617Y-5.4035
X6.063Y-4.4252
X6.0827Y-4.6752
X6.0827Y-4.7539
X6.0827Y-4.9114
X6.0925Y-5.0394
X6.0925Y-5.0787
X6.0925Y-5.1181
X6.0925Y-5.1575
X6.0925Y-5.1969
X6.1024Y-5.7087
X6.1024Y-5.8071
X6.1122Y-5.3642
X6.1319Y-5.1969
X6.1319Y-5.2362
X6.1319Y-5.2756
X6.1319Y-5.3346
X6.2008Y-5.1969
X6.2008Y-5.2362
X6.2008Y-5.2756
X6.2008Y-5.3346
X6.2008Y-5.7087
X6.2205Y-5.3642
X6.2402Y-5.0394
X6.2402Y-5.0787
X6.2402Y-5.1181
X6.2402Y-5.1575
X6.2402Y-5.1969
X6.2586Y-5.4035
X6.2992Y-4.2323
X6.2992Y-4.3307
X6.2992Y-4.4291
X6.2992Y-4.5276
X6.2992Y-4.626
X6.2992Y-5.0787
X6.378Y-4.7047
X6.378Y-4.8819
X6.378Y-5.1575
X6.378Y-5.2756
X6.378Y-5.3937
X6.378Y-5.5118
X6.3976Y-4.2323
X6.3976Y-4.3307
X6.3976Y-4.4291
X6.3976Y-4.5276
X6.3976Y-4.626
T2
X3.9951Y-4.0748
X3.9951Y-6.0039
X4.0184Y-4.0184
X4.0184Y-4.1312
X4.0184Y-5.9476
X4.0184Y-6.0603
X4.0748Y-3.9951
X4.0748Y-4.1545
X4.0748Y-5.9242
X4.0748Y-6.0837
X4.1312Y-4.0184
X4.1312Y-4.1312
X4.1312Y-5.9476
X4.1312Y-6.0603
X4.1545Y-4.0748
X4.1545Y-6.0039
X6.2785Y-4.0748
X6.2785Y-6.0039
X6.3019Y-4.0184
X6.3019Y-4.1312
X6.3019Y-5.9476
X6.3019Y-6.0603
X6.3583Y-3.9951
X6.3583Y-4.1545
X6.3583Y-5.9242
X6.3583Y-6.0837
X6.4146Y-4.0184
X6.4146Y-4.1312
X6.4146Y-5.9476
X6.4146Y-6.0603
X6.438Y-4.0748
X6.438Y-6.0039
T3
X4.7034Y-5.1476
X4.9311Y-4.4587
X5.0Y-5.4921
X5.2972Y-5.8091
X5.3924Y-4.7343
X5.3924Y-4.872
X5.5512Y-5.748
X5.5893Y-4.7343
X5.5893Y-4.872
X5.7861Y-4.7343
X5.7861Y-4.872
T4
X4.0551Y-5.0787
X4.0551Y-5.2756
X4.0551Y-5.4724
X4.2677Y-4.0256
X4.2677Y-4.1256
X4.3677Y-4.0256
X4.3677Y-4.1256
X4.4677Y-4.0256
X4.4677Y-4.1256
X4.5677Y-4.0256
X4.5677Y-4.1256
X4.6677Y-4.0256
X4.6677Y-4.1256
X4.7677Y-4.0256
X4.7677Y-4.1256
X4.8677Y-4.0256
X4.8677Y-4.1256
X4.9677Y-4.0256
X4.9677Y-4.1256
X5.0677Y-4.0256
X5.0677Y-4.1256
X5.1378Y-5.3524
X5.1677Y-4.0256
X5.1677Y-4.1256
X5.2362Y-5.3524
X5.2677Y-4.0256
X5.2677Y-4.1256
X5.3346Y-5.3524
X5.3677Y-4.0256
X5.3677Y-4.1256
X5.4677Y-4.0256
X5.4677Y-4.1256
X5.5677Y-4.0256
X5.5677Y-4.1256
X5.6677Y-4.0256
X5.6677Y-4.1256
X5.7677Y-4.0256
X5.7677Y-4.1256
X5.8677Y-4.0256
X5.8677Y-4.1256
X5.9677Y-4.0256
X5.9677Y-4.1256
X6.0677Y-4.0256
X6.0677Y-4.1256
X6.1677Y-4.0256
X6.1677Y-4.1256
X6.3976Y-5.0
T5
X5.7Y-6.0
X5.8Y-6.0
X5.9Y-6.0
X6.0Y-6.0
T6
X6.1641Y-5.4035
T7
X6.0641Y-5.3035
X6.0641Y-5.5035
X6.2641Y-5.3035
X6.2641Y-5.5035
T9
X4.0748Y-4.0748
X4.0748Y-6.0039
X6.3583Y-4.0748
X6.3583Y-6.0039
T4
G00X4.0157Y-4.3819
M15
G01X4.0157Y-4.4606
M16
G05
G00X4.0945Y-4.6063
M15
G01X4.1732Y-4.6063
M16
G05
G00X4.252Y-4.3819
M15
G01X4.252Y-4.4606
M16
G05
T8
G00X5.063Y-5.622
M15
G01X5.063Y-5.6339
M16
G05
G00X5.4094Y-5.622
M15
G01X5.4094Y-5.6339
M16
G05
M30
