%TF.GenerationSoftware,KiCad,Pcbnew,8.0.2-1*%
%TF.CreationDate,2024-05-25T15:23:03-04:00*%
%TF.ProjectId,Radio HAT,52616469-6f20-4484-9154-2e6b69636164,v1.1*%
%TF.SameCoordinates,Original*%
%TF.FileFunction,Legend,Top*%
%TF.FilePolarity,Positive*%
%FSLAX46Y46*%
G04 Gerber Fmt 4.6, Leading zero omitted, Abs format (unit mm)*
G04 Created by KiCad (PCBNEW 8.0.2-1) date 2024-05-25 15:23:03*
%MOMM*%
%LPD*%
G01*
G04 APERTURE LIST*
G04 Aperture macros list*
%AMRoundRect*
0 Rectangle with rounded corners*
0 $1 Rounding radius*
0 $2 $3 $4 $5 $6 $7 $8 $9 X,Y pos of 4 corners*
0 Add a 4 corners polygon primitive as box body*
4,1,4,$2,$3,$4,$5,$6,$7,$8,$9,$2,$3,0*
0 Add four circle primitives for the rounded corners*
1,1,$1+$1,$2,$3*
1,1,$1+$1,$4,$5*
1,1,$1+$1,$6,$7*
1,1,$1+$1,$8,$9*
0 Add four rect primitives between the rounded corners*
20,1,$1+$1,$2,$3,$4,$5,0*
20,1,$1+$1,$4,$5,$6,$7,0*
20,1,$1+$1,$6,$7,$8,$9,0*
20,1,$1+$1,$8,$9,$2,$3,0*%
G04 Aperture macros list end*
%ADD10C,0.150000*%
%ADD11C,0.140000*%
%ADD12C,0.200000*%
%ADD13C,0.120000*%
%ADD14C,0.127000*%
%ADD15C,0.000000*%
%ADD16RoundRect,0.250000X0.350000X0.450000X-0.350000X0.450000X-0.350000X-0.450000X0.350000X-0.450000X0*%
%ADD17R,2.100000X2.100000*%
%ADD18C,2.100000*%
%ADD19RoundRect,0.250000X-0.400000X-1.075000X0.400000X-1.075000X0.400000X1.075000X-0.400000X1.075000X0*%
%ADD20RoundRect,0.150000X-0.512500X-0.150000X0.512500X-0.150000X0.512500X0.150000X-0.512500X0.150000X0*%
%ADD21RoundRect,0.250000X-0.450000X0.350000X-0.450000X-0.350000X0.450000X-0.350000X0.450000X0.350000X0*%
%ADD22C,0.800000*%
%ADD23C,5.400000*%
%ADD24C,2.000000*%
%ADD25RoundRect,0.250000X0.450000X-0.350000X0.450000X0.350000X-0.450000X0.350000X-0.450000X-0.350000X0*%
%ADD26R,1.800000X1.800000*%
%ADD27C,1.800000*%
%ADD28RoundRect,0.750000X-0.750000X1.250000X-0.750000X-1.250000X0.750000X-1.250000X0.750000X1.250000X0*%
%ADD29RoundRect,0.250000X-0.475000X0.337500X-0.475000X-0.337500X0.475000X-0.337500X0.475000X0.337500X0*%
%ADD30RoundRect,0.237500X-0.300000X-0.237500X0.300000X-0.237500X0.300000X0.237500X-0.300000X0.237500X0*%
%ADD31C,2.050000*%
%ADD32C,2.250000*%
%ADD33RoundRect,0.250000X-0.350000X-0.450000X0.350000X-0.450000X0.350000X0.450000X-0.350000X0.450000X0*%
%ADD34RoundRect,0.250000X0.475000X-0.337500X0.475000X0.337500X-0.475000X0.337500X-0.475000X-0.337500X0*%
%ADD35R,1.700000X1.700000*%
%ADD36O,1.700000X1.700000*%
%ADD37RoundRect,0.250000X-0.350000X0.850000X-0.350000X-0.850000X0.350000X-0.850000X0.350000X0.850000X0*%
%ADD38RoundRect,0.249997X-2.650003X2.950003X-2.650003X-2.950003X2.650003X-2.950003X2.650003X2.950003X0*%
%ADD39RoundRect,0.063500X-1.000000X-0.650000X1.000000X-0.650000X1.000000X0.650000X-1.000000X0.650000X0*%
%ADD40RoundRect,0.063500X-5.750000X-2.350000X5.750000X-2.350000X5.750000X2.350000X-5.750000X2.350000X0*%
%ADD41R,3.500000X3.500000*%
%ADD42RoundRect,0.750000X-0.750000X-1.000000X0.750000X-1.000000X0.750000X1.000000X-0.750000X1.000000X0*%
%ADD43RoundRect,0.875000X-0.875000X-0.875000X0.875000X-0.875000X0.875000X0.875000X-0.875000X0.875000X0*%
%ADD44RoundRect,0.250000X-0.325000X-0.450000X0.325000X-0.450000X0.325000X0.450000X-0.325000X0.450000X0*%
%ADD45RoundRect,0.237500X-0.237500X0.300000X-0.237500X-0.300000X0.237500X-0.300000X0.237500X0.300000X0*%
G04 APERTURE END LIST*
D10*
X141000000Y-145000000D02*
X141000000Y-141000000D01*
X141000000Y-145000000D02*
X163500000Y-145000000D01*
X131714286Y-142454819D02*
X131714286Y-141454819D01*
X131714286Y-141454819D02*
X131952381Y-141454819D01*
X131952381Y-141454819D02*
X132095238Y-141502438D01*
X132095238Y-141502438D02*
X132190476Y-141597676D01*
X132190476Y-141597676D02*
X132238095Y-141692914D01*
X132238095Y-141692914D02*
X132285714Y-141883390D01*
X132285714Y-141883390D02*
X132285714Y-142026247D01*
X132285714Y-142026247D02*
X132238095Y-142216723D01*
X132238095Y-142216723D02*
X132190476Y-142311961D01*
X132190476Y-142311961D02*
X132095238Y-142407200D01*
X132095238Y-142407200D02*
X131952381Y-142454819D01*
X131952381Y-142454819D02*
X131714286Y-142454819D01*
X132714286Y-142454819D02*
X132714286Y-141454819D01*
X132714286Y-141454819D02*
X133285714Y-142454819D01*
X133285714Y-142454819D02*
X133285714Y-141454819D01*
X133761905Y-142454819D02*
X133761905Y-141454819D01*
X133761905Y-141454819D02*
X134142857Y-141454819D01*
X134142857Y-141454819D02*
X134238095Y-141502438D01*
X134238095Y-141502438D02*
X134285714Y-141550057D01*
X134285714Y-141550057D02*
X134333333Y-141645295D01*
X134333333Y-141645295D02*
X134333333Y-141788152D01*
X134333333Y-141788152D02*
X134285714Y-141883390D01*
X134285714Y-141883390D02*
X134238095Y-141931009D01*
X134238095Y-141931009D02*
X134142857Y-141978628D01*
X134142857Y-141978628D02*
X133761905Y-141978628D01*
X123836779Y-140954819D02*
X123836779Y-139954819D01*
X123836779Y-139954819D02*
X124217731Y-139954819D01*
X124217731Y-139954819D02*
X124312969Y-140002438D01*
X124312969Y-140002438D02*
X124360588Y-140050057D01*
X124360588Y-140050057D02*
X124408207Y-140145295D01*
X124408207Y-140145295D02*
X124408207Y-140288152D01*
X124408207Y-140288152D02*
X124360588Y-140383390D01*
X124360588Y-140383390D02*
X124312969Y-140431009D01*
X124312969Y-140431009D02*
X124217731Y-140478628D01*
X124217731Y-140478628D02*
X123836779Y-140478628D01*
X125027255Y-139954819D02*
X125217731Y-139954819D01*
X125217731Y-139954819D02*
X125312969Y-140002438D01*
X125312969Y-140002438D02*
X125408207Y-140097676D01*
X125408207Y-140097676D02*
X125455826Y-140288152D01*
X125455826Y-140288152D02*
X125455826Y-140621485D01*
X125455826Y-140621485D02*
X125408207Y-140811961D01*
X125408207Y-140811961D02*
X125312969Y-140907200D01*
X125312969Y-140907200D02*
X125217731Y-140954819D01*
X125217731Y-140954819D02*
X125027255Y-140954819D01*
X125027255Y-140954819D02*
X124932017Y-140907200D01*
X124932017Y-140907200D02*
X124836779Y-140811961D01*
X124836779Y-140811961D02*
X124789160Y-140621485D01*
X124789160Y-140621485D02*
X124789160Y-140288152D01*
X124789160Y-140288152D02*
X124836779Y-140097676D01*
X124836779Y-140097676D02*
X124932017Y-140002438D01*
X124932017Y-140002438D02*
X125027255Y-139954819D01*
X125789160Y-139954819D02*
X126027255Y-140954819D01*
X126027255Y-140954819D02*
X126217731Y-140240533D01*
X126217731Y-140240533D02*
X126408207Y-140954819D01*
X126408207Y-140954819D02*
X126646303Y-139954819D01*
X121875707Y-134119819D02*
X121542374Y-133643628D01*
X121304279Y-134119819D02*
X121304279Y-133119819D01*
X121304279Y-133119819D02*
X121685231Y-133119819D01*
X121685231Y-133119819D02*
X121780469Y-133167438D01*
X121780469Y-133167438D02*
X121828088Y-133215057D01*
X121828088Y-133215057D02*
X121875707Y-133310295D01*
X121875707Y-133310295D02*
X121875707Y-133453152D01*
X121875707Y-133453152D02*
X121828088Y-133548390D01*
X121828088Y-133548390D02*
X121780469Y-133596009D01*
X121780469Y-133596009D02*
X121685231Y-133643628D01*
X121685231Y-133643628D02*
X121304279Y-133643628D01*
X122637612Y-133596009D02*
X122304279Y-133596009D01*
X122304279Y-134119819D02*
X122304279Y-133119819D01*
X122304279Y-133119819D02*
X122780469Y-133119819D01*
X123161422Y-134119819D02*
X123161422Y-133119819D01*
X123161422Y-133119819D02*
X123494755Y-133834104D01*
X123494755Y-133834104D02*
X123828088Y-133119819D01*
X123828088Y-133119819D02*
X123828088Y-134119819D01*
X124351898Y-134119819D02*
X124542374Y-134119819D01*
X124542374Y-134119819D02*
X124637612Y-134072200D01*
X124637612Y-134072200D02*
X124685231Y-134024580D01*
X124685231Y-134024580D02*
X124780469Y-133881723D01*
X124780469Y-133881723D02*
X124828088Y-133691247D01*
X124828088Y-133691247D02*
X124828088Y-133310295D01*
X124828088Y-133310295D02*
X124780469Y-133215057D01*
X124780469Y-133215057D02*
X124732850Y-133167438D01*
X124732850Y-133167438D02*
X124637612Y-133119819D01*
X124637612Y-133119819D02*
X124447136Y-133119819D01*
X124447136Y-133119819D02*
X124351898Y-133167438D01*
X124351898Y-133167438D02*
X124304279Y-133215057D01*
X124304279Y-133215057D02*
X124256660Y-133310295D01*
X124256660Y-133310295D02*
X124256660Y-133548390D01*
X124256660Y-133548390D02*
X124304279Y-133643628D01*
X124304279Y-133643628D02*
X124351898Y-133691247D01*
X124351898Y-133691247D02*
X124447136Y-133738866D01*
X124447136Y-133738866D02*
X124637612Y-133738866D01*
X124637612Y-133738866D02*
X124732850Y-133691247D01*
X124732850Y-133691247D02*
X124780469Y-133643628D01*
X124780469Y-133643628D02*
X124828088Y-133548390D01*
X125399517Y-133548390D02*
X125304279Y-133500771D01*
X125304279Y-133500771D02*
X125256660Y-133453152D01*
X125256660Y-133453152D02*
X125209041Y-133357914D01*
X125209041Y-133357914D02*
X125209041Y-133310295D01*
X125209041Y-133310295D02*
X125256660Y-133215057D01*
X125256660Y-133215057D02*
X125304279Y-133167438D01*
X125304279Y-133167438D02*
X125399517Y-133119819D01*
X125399517Y-133119819D02*
X125589993Y-133119819D01*
X125589993Y-133119819D02*
X125685231Y-133167438D01*
X125685231Y-133167438D02*
X125732850Y-133215057D01*
X125732850Y-133215057D02*
X125780469Y-133310295D01*
X125780469Y-133310295D02*
X125780469Y-133357914D01*
X125780469Y-133357914D02*
X125732850Y-133453152D01*
X125732850Y-133453152D02*
X125685231Y-133500771D01*
X125685231Y-133500771D02*
X125589993Y-133548390D01*
X125589993Y-133548390D02*
X125399517Y-133548390D01*
X125399517Y-133548390D02*
X125304279Y-133596009D01*
X125304279Y-133596009D02*
X125256660Y-133643628D01*
X125256660Y-133643628D02*
X125209041Y-133738866D01*
X125209041Y-133738866D02*
X125209041Y-133929342D01*
X125209041Y-133929342D02*
X125256660Y-134024580D01*
X125256660Y-134024580D02*
X125304279Y-134072200D01*
X125304279Y-134072200D02*
X125399517Y-134119819D01*
X125399517Y-134119819D02*
X125589993Y-134119819D01*
X125589993Y-134119819D02*
X125685231Y-134072200D01*
X125685231Y-134072200D02*
X125732850Y-134024580D01*
X125732850Y-134024580D02*
X125780469Y-133929342D01*
X125780469Y-133929342D02*
X125780469Y-133738866D01*
X125780469Y-133738866D02*
X125732850Y-133643628D01*
X125732850Y-133643628D02*
X125685231Y-133596009D01*
X125685231Y-133596009D02*
X125589993Y-133548390D01*
X126209041Y-134119819D02*
X126209041Y-133119819D01*
X126209041Y-133119819D02*
X126589993Y-133119819D01*
X126589993Y-133119819D02*
X126685231Y-133167438D01*
X126685231Y-133167438D02*
X126732850Y-133215057D01*
X126732850Y-133215057D02*
X126780469Y-133310295D01*
X126780469Y-133310295D02*
X126780469Y-133453152D01*
X126780469Y-133453152D02*
X126732850Y-133548390D01*
X126732850Y-133548390D02*
X126685231Y-133596009D01*
X126685231Y-133596009D02*
X126589993Y-133643628D01*
X126589993Y-133643628D02*
X126209041Y-133643628D01*
X127113803Y-133119819D02*
X127351898Y-134119819D01*
X127351898Y-134119819D02*
X127542374Y-133405533D01*
X127542374Y-133405533D02*
X127732850Y-134119819D01*
X127732850Y-134119819D02*
X127970946Y-133119819D01*
X131959041Y-126369819D02*
X132197136Y-127369819D01*
X132197136Y-127369819D02*
X132387612Y-126655533D01*
X132387612Y-126655533D02*
X132578088Y-127369819D01*
X132578088Y-127369819D02*
X132816184Y-126369819D01*
X133149517Y-127084104D02*
X133625707Y-127084104D01*
X133054279Y-127369819D02*
X133387612Y-126369819D01*
X133387612Y-126369819D02*
X133720945Y-127369819D01*
X134244755Y-126893628D02*
X134244755Y-127369819D01*
X133911422Y-126369819D02*
X134244755Y-126893628D01*
X134244755Y-126893628D02*
X134578088Y-126369819D01*
X134816184Y-126369819D02*
X135054279Y-127369819D01*
X135054279Y-127369819D02*
X135244755Y-126655533D01*
X135244755Y-126655533D02*
X135435231Y-127369819D01*
X135435231Y-127369819D02*
X135673327Y-126369819D01*
X136006660Y-127084104D02*
X136482850Y-127084104D01*
X135911422Y-127369819D02*
X136244755Y-126369819D01*
X136244755Y-126369819D02*
X136578088Y-127369819D01*
X137101898Y-126893628D02*
X137101898Y-127369819D01*
X136768565Y-126369819D02*
X137101898Y-126893628D01*
X137101898Y-126893628D02*
X137435231Y-126369819D01*
X137673327Y-126369819D02*
X137911422Y-127369819D01*
X137911422Y-127369819D02*
X138101898Y-126655533D01*
X138101898Y-126655533D02*
X138292374Y-127369819D01*
X138292374Y-127369819D02*
X138530470Y-126369819D01*
X138863803Y-127084104D02*
X139339993Y-127084104D01*
X138768565Y-127369819D02*
X139101898Y-126369819D01*
X139101898Y-126369819D02*
X139435231Y-127369819D01*
X139959041Y-126893628D02*
X139959041Y-127369819D01*
X139625708Y-126369819D02*
X139959041Y-126893628D01*
X139959041Y-126893628D02*
X140292374Y-126369819D01*
X145761905Y-113454819D02*
X145761905Y-112454819D01*
X145761905Y-112454819D02*
X146000000Y-112454819D01*
X146000000Y-112454819D02*
X146142857Y-112502438D01*
X146142857Y-112502438D02*
X146238095Y-112597676D01*
X146238095Y-112597676D02*
X146285714Y-112692914D01*
X146285714Y-112692914D02*
X146333333Y-112883390D01*
X146333333Y-112883390D02*
X146333333Y-113026247D01*
X146333333Y-113026247D02*
X146285714Y-113216723D01*
X146285714Y-113216723D02*
X146238095Y-113311961D01*
X146238095Y-113311961D02*
X146142857Y-113407200D01*
X146142857Y-113407200D02*
X146000000Y-113454819D01*
X146000000Y-113454819D02*
X145761905Y-113454819D01*
X147190476Y-112788152D02*
X147190476Y-113454819D01*
X146952381Y-112407200D02*
X146714286Y-113121485D01*
X146714286Y-113121485D02*
X147333333Y-113121485D01*
X105454819Y-130333332D02*
X106454819Y-129999999D01*
X106454819Y-129999999D02*
X105454819Y-129666666D01*
X106359580Y-128761904D02*
X106407200Y-128809523D01*
X106407200Y-128809523D02*
X106454819Y-128952380D01*
X106454819Y-128952380D02*
X106454819Y-129047618D01*
X106454819Y-129047618D02*
X106407200Y-129190475D01*
X106407200Y-129190475D02*
X106311961Y-129285713D01*
X106311961Y-129285713D02*
X106216723Y-129333332D01*
X106216723Y-129333332D02*
X106026247Y-129380951D01*
X106026247Y-129380951D02*
X105883390Y-129380951D01*
X105883390Y-129380951D02*
X105692914Y-129333332D01*
X105692914Y-129333332D02*
X105597676Y-129285713D01*
X105597676Y-129285713D02*
X105502438Y-129190475D01*
X105502438Y-129190475D02*
X105454819Y-129047618D01*
X105454819Y-129047618D02*
X105454819Y-128952380D01*
X105454819Y-128952380D02*
X105502438Y-128809523D01*
X105502438Y-128809523D02*
X105550057Y-128761904D01*
X106359580Y-127761904D02*
X106407200Y-127809523D01*
X106407200Y-127809523D02*
X106454819Y-127952380D01*
X106454819Y-127952380D02*
X106454819Y-128047618D01*
X106454819Y-128047618D02*
X106407200Y-128190475D01*
X106407200Y-128190475D02*
X106311961Y-128285713D01*
X106311961Y-128285713D02*
X106216723Y-128333332D01*
X106216723Y-128333332D02*
X106026247Y-128380951D01*
X106026247Y-128380951D02*
X105883390Y-128380951D01*
X105883390Y-128380951D02*
X105692914Y-128333332D01*
X105692914Y-128333332D02*
X105597676Y-128285713D01*
X105597676Y-128285713D02*
X105502438Y-128190475D01*
X105502438Y-128190475D02*
X105454819Y-128047618D01*
X105454819Y-128047618D02*
X105454819Y-127952380D01*
X105454819Y-127952380D02*
X105502438Y-127809523D01*
X105502438Y-127809523D02*
X105550057Y-127761904D01*
X143261905Y-113454819D02*
X143261905Y-112454819D01*
X143261905Y-112454819D02*
X143500000Y-112454819D01*
X143500000Y-112454819D02*
X143642857Y-112502438D01*
X143642857Y-112502438D02*
X143738095Y-112597676D01*
X143738095Y-112597676D02*
X143785714Y-112692914D01*
X143785714Y-112692914D02*
X143833333Y-112883390D01*
X143833333Y-112883390D02*
X143833333Y-113026247D01*
X143833333Y-113026247D02*
X143785714Y-113216723D01*
X143785714Y-113216723D02*
X143738095Y-113311961D01*
X143738095Y-113311961D02*
X143642857Y-113407200D01*
X143642857Y-113407200D02*
X143500000Y-113454819D01*
X143500000Y-113454819D02*
X143261905Y-113454819D01*
X144738095Y-112454819D02*
X144261905Y-112454819D01*
X144261905Y-112454819D02*
X144214286Y-112931009D01*
X144214286Y-112931009D02*
X144261905Y-112883390D01*
X144261905Y-112883390D02*
X144357143Y-112835771D01*
X144357143Y-112835771D02*
X144595238Y-112835771D01*
X144595238Y-112835771D02*
X144690476Y-112883390D01*
X144690476Y-112883390D02*
X144738095Y-112931009D01*
X144738095Y-112931009D02*
X144785714Y-113026247D01*
X144785714Y-113026247D02*
X144785714Y-113264342D01*
X144785714Y-113264342D02*
X144738095Y-113359580D01*
X144738095Y-113359580D02*
X144690476Y-113407200D01*
X144690476Y-113407200D02*
X144595238Y-113454819D01*
X144595238Y-113454819D02*
X144357143Y-113454819D01*
X144357143Y-113454819D02*
X144261905Y-113407200D01*
X144261905Y-113407200D02*
X144214286Y-113359580D01*
X105502438Y-134761904D02*
X105454819Y-134857142D01*
X105454819Y-134857142D02*
X105454819Y-134999999D01*
X105454819Y-134999999D02*
X105502438Y-135142856D01*
X105502438Y-135142856D02*
X105597676Y-135238094D01*
X105597676Y-135238094D02*
X105692914Y-135285713D01*
X105692914Y-135285713D02*
X105883390Y-135333332D01*
X105883390Y-135333332D02*
X106026247Y-135333332D01*
X106026247Y-135333332D02*
X106216723Y-135285713D01*
X106216723Y-135285713D02*
X106311961Y-135238094D01*
X106311961Y-135238094D02*
X106407200Y-135142856D01*
X106407200Y-135142856D02*
X106454819Y-134999999D01*
X106454819Y-134999999D02*
X106454819Y-134904761D01*
X106454819Y-134904761D02*
X106407200Y-134761904D01*
X106407200Y-134761904D02*
X106359580Y-134714285D01*
X106359580Y-134714285D02*
X106026247Y-134714285D01*
X106026247Y-134714285D02*
X106026247Y-134904761D01*
X106454819Y-134285713D02*
X105454819Y-134285713D01*
X105454819Y-134285713D02*
X106454819Y-133714285D01*
X106454819Y-133714285D02*
X105454819Y-133714285D01*
X106454819Y-133238094D02*
X105454819Y-133238094D01*
X105454819Y-133238094D02*
X105454819Y-132999999D01*
X105454819Y-132999999D02*
X105502438Y-132857142D01*
X105502438Y-132857142D02*
X105597676Y-132761904D01*
X105597676Y-132761904D02*
X105692914Y-132714285D01*
X105692914Y-132714285D02*
X105883390Y-132666666D01*
X105883390Y-132666666D02*
X106026247Y-132666666D01*
X106026247Y-132666666D02*
X106216723Y-132714285D01*
X106216723Y-132714285D02*
X106311961Y-132761904D01*
X106311961Y-132761904D02*
X106407200Y-132857142D01*
X106407200Y-132857142D02*
X106454819Y-132999999D01*
X106454819Y-132999999D02*
X106454819Y-133238094D01*
X144018095Y-147754819D02*
X144589523Y-147754819D01*
X144303809Y-148754819D02*
X144303809Y-147754819D01*
X144827619Y-147754819D02*
X145494285Y-148754819D01*
X145494285Y-147754819D02*
X144827619Y-148754819D01*
X148261905Y-113454819D02*
X148261905Y-112454819D01*
X148261905Y-112454819D02*
X148500000Y-112454819D01*
X148500000Y-112454819D02*
X148642857Y-112502438D01*
X148642857Y-112502438D02*
X148738095Y-112597676D01*
X148738095Y-112597676D02*
X148785714Y-112692914D01*
X148785714Y-112692914D02*
X148833333Y-112883390D01*
X148833333Y-112883390D02*
X148833333Y-113026247D01*
X148833333Y-113026247D02*
X148785714Y-113216723D01*
X148785714Y-113216723D02*
X148738095Y-113311961D01*
X148738095Y-113311961D02*
X148642857Y-113407200D01*
X148642857Y-113407200D02*
X148500000Y-113454819D01*
X148500000Y-113454819D02*
X148261905Y-113454819D01*
X149166667Y-112454819D02*
X149785714Y-112454819D01*
X149785714Y-112454819D02*
X149452381Y-112835771D01*
X149452381Y-112835771D02*
X149595238Y-112835771D01*
X149595238Y-112835771D02*
X149690476Y-112883390D01*
X149690476Y-112883390D02*
X149738095Y-112931009D01*
X149738095Y-112931009D02*
X149785714Y-113026247D01*
X149785714Y-113026247D02*
X149785714Y-113264342D01*
X149785714Y-113264342D02*
X149738095Y-113359580D01*
X149738095Y-113359580D02*
X149690476Y-113407200D01*
X149690476Y-113407200D02*
X149595238Y-113454819D01*
X149595238Y-113454819D02*
X149309524Y-113454819D01*
X149309524Y-113454819D02*
X149214286Y-113407200D01*
X149214286Y-113407200D02*
X149166667Y-113359580D01*
X111289160Y-140084104D02*
X111765350Y-140084104D01*
X111193922Y-140369819D02*
X111527255Y-139369819D01*
X111527255Y-139369819D02*
X111860588Y-140369819D01*
X112098684Y-139369819D02*
X112765350Y-139369819D01*
X112765350Y-139369819D02*
X112098684Y-140369819D01*
X112098684Y-140369819D02*
X112765350Y-140369819D01*
X113098684Y-139465057D02*
X113146303Y-139417438D01*
X113146303Y-139417438D02*
X113241541Y-139369819D01*
X113241541Y-139369819D02*
X113479636Y-139369819D01*
X113479636Y-139369819D02*
X113574874Y-139417438D01*
X113574874Y-139417438D02*
X113622493Y-139465057D01*
X113622493Y-139465057D02*
X113670112Y-139560295D01*
X113670112Y-139560295D02*
X113670112Y-139655533D01*
X113670112Y-139655533D02*
X113622493Y-139798390D01*
X113622493Y-139798390D02*
X113051065Y-140369819D01*
X113051065Y-140369819D02*
X113670112Y-140369819D01*
X114622493Y-140369819D02*
X114051065Y-140369819D01*
X114336779Y-140369819D02*
X114336779Y-139369819D01*
X114336779Y-139369819D02*
X114241541Y-139512676D01*
X114241541Y-139512676D02*
X114146303Y-139607914D01*
X114146303Y-139607914D02*
X114051065Y-139655533D01*
X115193922Y-139798390D02*
X115098684Y-139750771D01*
X115098684Y-139750771D02*
X115051065Y-139703152D01*
X115051065Y-139703152D02*
X115003446Y-139607914D01*
X115003446Y-139607914D02*
X115003446Y-139560295D01*
X115003446Y-139560295D02*
X115051065Y-139465057D01*
X115051065Y-139465057D02*
X115098684Y-139417438D01*
X115098684Y-139417438D02*
X115193922Y-139369819D01*
X115193922Y-139369819D02*
X115384398Y-139369819D01*
X115384398Y-139369819D02*
X115479636Y-139417438D01*
X115479636Y-139417438D02*
X115527255Y-139465057D01*
X115527255Y-139465057D02*
X115574874Y-139560295D01*
X115574874Y-139560295D02*
X115574874Y-139607914D01*
X115574874Y-139607914D02*
X115527255Y-139703152D01*
X115527255Y-139703152D02*
X115479636Y-139750771D01*
X115479636Y-139750771D02*
X115384398Y-139798390D01*
X115384398Y-139798390D02*
X115193922Y-139798390D01*
X115193922Y-139798390D02*
X115098684Y-139846009D01*
X115098684Y-139846009D02*
X115051065Y-139893628D01*
X115051065Y-139893628D02*
X115003446Y-139988866D01*
X115003446Y-139988866D02*
X115003446Y-140179342D01*
X115003446Y-140179342D02*
X115051065Y-140274580D01*
X115051065Y-140274580D02*
X115098684Y-140322200D01*
X115098684Y-140322200D02*
X115193922Y-140369819D01*
X115193922Y-140369819D02*
X115384398Y-140369819D01*
X115384398Y-140369819D02*
X115479636Y-140322200D01*
X115479636Y-140322200D02*
X115527255Y-140274580D01*
X115527255Y-140274580D02*
X115574874Y-140179342D01*
X115574874Y-140179342D02*
X115574874Y-139988866D01*
X115574874Y-139988866D02*
X115527255Y-139893628D01*
X115527255Y-139893628D02*
X115479636Y-139846009D01*
X115479636Y-139846009D02*
X115384398Y-139798390D01*
X116479636Y-139369819D02*
X116003446Y-139369819D01*
X116003446Y-139369819D02*
X115955827Y-139846009D01*
X115955827Y-139846009D02*
X116003446Y-139798390D01*
X116003446Y-139798390D02*
X116098684Y-139750771D01*
X116098684Y-139750771D02*
X116336779Y-139750771D01*
X116336779Y-139750771D02*
X116432017Y-139798390D01*
X116432017Y-139798390D02*
X116479636Y-139846009D01*
X116479636Y-139846009D02*
X116527255Y-139941247D01*
X116527255Y-139941247D02*
X116527255Y-140179342D01*
X116527255Y-140179342D02*
X116479636Y-140274580D01*
X116479636Y-140274580D02*
X116432017Y-140322200D01*
X116432017Y-140322200D02*
X116336779Y-140369819D01*
X116336779Y-140369819D02*
X116098684Y-140369819D01*
X116098684Y-140369819D02*
X116003446Y-140322200D01*
X116003446Y-140322200D02*
X115955827Y-140274580D01*
D11*
X146710476Y-147900910D02*
X146634286Y-147862815D01*
X146634286Y-147862815D02*
X146520000Y-147862815D01*
X146520000Y-147862815D02*
X146405714Y-147900910D01*
X146405714Y-147900910D02*
X146329524Y-147977100D01*
X146329524Y-147977100D02*
X146291429Y-148053291D01*
X146291429Y-148053291D02*
X146253333Y-148205672D01*
X146253333Y-148205672D02*
X146253333Y-148319958D01*
X146253333Y-148319958D02*
X146291429Y-148472339D01*
X146291429Y-148472339D02*
X146329524Y-148548529D01*
X146329524Y-148548529D02*
X146405714Y-148624720D01*
X146405714Y-148624720D02*
X146520000Y-148662815D01*
X146520000Y-148662815D02*
X146596191Y-148662815D01*
X146596191Y-148662815D02*
X146710476Y-148624720D01*
X146710476Y-148624720D02*
X146748572Y-148586624D01*
X146748572Y-148586624D02*
X146748572Y-148319958D01*
X146748572Y-148319958D02*
X146596191Y-148319958D01*
X147091429Y-148662815D02*
X147091429Y-147862815D01*
X147091429Y-147862815D02*
X147548572Y-148662815D01*
X147548572Y-148662815D02*
X147548572Y-147862815D01*
X147929524Y-148662815D02*
X147929524Y-147862815D01*
X147929524Y-147862815D02*
X148120000Y-147862815D01*
X148120000Y-147862815D02*
X148234286Y-147900910D01*
X148234286Y-147900910D02*
X148310476Y-147977100D01*
X148310476Y-147977100D02*
X148348571Y-148053291D01*
X148348571Y-148053291D02*
X148386667Y-148205672D01*
X148386667Y-148205672D02*
X148386667Y-148319958D01*
X148386667Y-148319958D02*
X148348571Y-148472339D01*
X148348571Y-148472339D02*
X148310476Y-148548529D01*
X148310476Y-148548529D02*
X148234286Y-148624720D01*
X148234286Y-148624720D02*
X148120000Y-148662815D01*
X148120000Y-148662815D02*
X147929524Y-148662815D01*
D10*
X153261905Y-113454819D02*
X153261905Y-112454819D01*
X153261905Y-112454819D02*
X153500000Y-112454819D01*
X153500000Y-112454819D02*
X153642857Y-112502438D01*
X153642857Y-112502438D02*
X153738095Y-112597676D01*
X153738095Y-112597676D02*
X153785714Y-112692914D01*
X153785714Y-112692914D02*
X153833333Y-112883390D01*
X153833333Y-112883390D02*
X153833333Y-113026247D01*
X153833333Y-113026247D02*
X153785714Y-113216723D01*
X153785714Y-113216723D02*
X153738095Y-113311961D01*
X153738095Y-113311961D02*
X153642857Y-113407200D01*
X153642857Y-113407200D02*
X153500000Y-113454819D01*
X153500000Y-113454819D02*
X153261905Y-113454819D01*
X154785714Y-113454819D02*
X154214286Y-113454819D01*
X154500000Y-113454819D02*
X154500000Y-112454819D01*
X154500000Y-112454819D02*
X154404762Y-112597676D01*
X154404762Y-112597676D02*
X154309524Y-112692914D01*
X154309524Y-112692914D02*
X154214286Y-112740533D01*
X149693333Y-148754819D02*
X149360000Y-148278628D01*
X149121905Y-148754819D02*
X149121905Y-147754819D01*
X149121905Y-147754819D02*
X149502857Y-147754819D01*
X149502857Y-147754819D02*
X149598095Y-147802438D01*
X149598095Y-147802438D02*
X149645714Y-147850057D01*
X149645714Y-147850057D02*
X149693333Y-147945295D01*
X149693333Y-147945295D02*
X149693333Y-148088152D01*
X149693333Y-148088152D02*
X149645714Y-148183390D01*
X149645714Y-148183390D02*
X149598095Y-148231009D01*
X149598095Y-148231009D02*
X149502857Y-148278628D01*
X149502857Y-148278628D02*
X149121905Y-148278628D01*
X150026667Y-147754819D02*
X150693333Y-148754819D01*
X150693333Y-147754819D02*
X150026667Y-148754819D01*
X150761905Y-113454819D02*
X150761905Y-112454819D01*
X150761905Y-112454819D02*
X151000000Y-112454819D01*
X151000000Y-112454819D02*
X151142857Y-112502438D01*
X151142857Y-112502438D02*
X151238095Y-112597676D01*
X151238095Y-112597676D02*
X151285714Y-112692914D01*
X151285714Y-112692914D02*
X151333333Y-112883390D01*
X151333333Y-112883390D02*
X151333333Y-113026247D01*
X151333333Y-113026247D02*
X151285714Y-113216723D01*
X151285714Y-113216723D02*
X151238095Y-113311961D01*
X151238095Y-113311961D02*
X151142857Y-113407200D01*
X151142857Y-113407200D02*
X151000000Y-113454819D01*
X151000000Y-113454819D02*
X150761905Y-113454819D01*
X151714286Y-112550057D02*
X151761905Y-112502438D01*
X151761905Y-112502438D02*
X151857143Y-112454819D01*
X151857143Y-112454819D02*
X152095238Y-112454819D01*
X152095238Y-112454819D02*
X152190476Y-112502438D01*
X152190476Y-112502438D02*
X152238095Y-112550057D01*
X152238095Y-112550057D02*
X152285714Y-112645295D01*
X152285714Y-112645295D02*
X152285714Y-112740533D01*
X152285714Y-112740533D02*
X152238095Y-112883390D01*
X152238095Y-112883390D02*
X151666667Y-113454819D01*
X151666667Y-113454819D02*
X152285714Y-113454819D01*
D12*
X141860149Y-142499885D02*
X142431578Y-142499885D01*
X141745863Y-142842742D02*
X142145863Y-141642742D01*
X142145863Y-141642742D02*
X142545863Y-142842742D01*
X142945863Y-142842742D02*
X142945863Y-142042742D01*
X142945863Y-142271314D02*
X143003006Y-142157028D01*
X143003006Y-142157028D02*
X143060149Y-142099885D01*
X143060149Y-142099885D02*
X143174434Y-142042742D01*
X143174434Y-142042742D02*
X143288720Y-142042742D01*
X144203006Y-142042742D02*
X144203006Y-143014171D01*
X144203006Y-143014171D02*
X144145863Y-143128457D01*
X144145863Y-143128457D02*
X144088720Y-143185600D01*
X144088720Y-143185600D02*
X143974434Y-143242742D01*
X143974434Y-143242742D02*
X143803006Y-143242742D01*
X143803006Y-143242742D02*
X143688720Y-143185600D01*
X144203006Y-142785600D02*
X144088720Y-142842742D01*
X144088720Y-142842742D02*
X143860148Y-142842742D01*
X143860148Y-142842742D02*
X143745863Y-142785600D01*
X143745863Y-142785600D02*
X143688720Y-142728457D01*
X143688720Y-142728457D02*
X143631577Y-142614171D01*
X143631577Y-142614171D02*
X143631577Y-142271314D01*
X143631577Y-142271314D02*
X143688720Y-142157028D01*
X143688720Y-142157028D02*
X143745863Y-142099885D01*
X143745863Y-142099885D02*
X143860148Y-142042742D01*
X143860148Y-142042742D02*
X144088720Y-142042742D01*
X144088720Y-142042742D02*
X144203006Y-142099885D01*
X145288720Y-142042742D02*
X145288720Y-142842742D01*
X144774434Y-142042742D02*
X144774434Y-142671314D01*
X144774434Y-142671314D02*
X144831577Y-142785600D01*
X144831577Y-142785600D02*
X144945862Y-142842742D01*
X144945862Y-142842742D02*
X145117291Y-142842742D01*
X145117291Y-142842742D02*
X145231577Y-142785600D01*
X145231577Y-142785600D02*
X145288720Y-142728457D01*
X145803005Y-142785600D02*
X145917291Y-142842742D01*
X145917291Y-142842742D02*
X146145862Y-142842742D01*
X146145862Y-142842742D02*
X146260148Y-142785600D01*
X146260148Y-142785600D02*
X146317291Y-142671314D01*
X146317291Y-142671314D02*
X146317291Y-142614171D01*
X146317291Y-142614171D02*
X146260148Y-142499885D01*
X146260148Y-142499885D02*
X146145862Y-142442742D01*
X146145862Y-142442742D02*
X145974434Y-142442742D01*
X145974434Y-142442742D02*
X145860148Y-142385600D01*
X145860148Y-142385600D02*
X145803005Y-142271314D01*
X145803005Y-142271314D02*
X145803005Y-142214171D01*
X145803005Y-142214171D02*
X145860148Y-142099885D01*
X145860148Y-142099885D02*
X145974434Y-142042742D01*
X145974434Y-142042742D02*
X146145862Y-142042742D01*
X146145862Y-142042742D02*
X146260148Y-142099885D01*
X146831577Y-142385600D02*
X147745863Y-142385600D01*
X148945862Y-142842742D02*
X148260148Y-142842742D01*
X148603005Y-142842742D02*
X148603005Y-141642742D01*
X148603005Y-141642742D02*
X148488719Y-141814171D01*
X148488719Y-141814171D02*
X148374434Y-141928457D01*
X148374434Y-141928457D02*
X148260148Y-141985600D01*
X151003005Y-141699885D02*
X150888720Y-141642742D01*
X150888720Y-141642742D02*
X150717291Y-141642742D01*
X150717291Y-141642742D02*
X150545862Y-141699885D01*
X150545862Y-141699885D02*
X150431577Y-141814171D01*
X150431577Y-141814171D02*
X150374434Y-141928457D01*
X150374434Y-141928457D02*
X150317291Y-142157028D01*
X150317291Y-142157028D02*
X150317291Y-142328457D01*
X150317291Y-142328457D02*
X150374434Y-142557028D01*
X150374434Y-142557028D02*
X150431577Y-142671314D01*
X150431577Y-142671314D02*
X150545862Y-142785600D01*
X150545862Y-142785600D02*
X150717291Y-142842742D01*
X150717291Y-142842742D02*
X150831577Y-142842742D01*
X150831577Y-142842742D02*
X151003005Y-142785600D01*
X151003005Y-142785600D02*
X151060148Y-142728457D01*
X151060148Y-142728457D02*
X151060148Y-142328457D01*
X151060148Y-142328457D02*
X150831577Y-142328457D01*
X151574434Y-142842742D02*
X151574434Y-142042742D01*
X151574434Y-142271314D02*
X151631577Y-142157028D01*
X151631577Y-142157028D02*
X151688720Y-142099885D01*
X151688720Y-142099885D02*
X151803005Y-142042742D01*
X151803005Y-142042742D02*
X151917291Y-142042742D01*
X152488719Y-142842742D02*
X152374434Y-142785600D01*
X152374434Y-142785600D02*
X152317291Y-142728457D01*
X152317291Y-142728457D02*
X152260148Y-142614171D01*
X152260148Y-142614171D02*
X152260148Y-142271314D01*
X152260148Y-142271314D02*
X152317291Y-142157028D01*
X152317291Y-142157028D02*
X152374434Y-142099885D01*
X152374434Y-142099885D02*
X152488719Y-142042742D01*
X152488719Y-142042742D02*
X152660148Y-142042742D01*
X152660148Y-142042742D02*
X152774434Y-142099885D01*
X152774434Y-142099885D02*
X152831577Y-142157028D01*
X152831577Y-142157028D02*
X152888719Y-142271314D01*
X152888719Y-142271314D02*
X152888719Y-142614171D01*
X152888719Y-142614171D02*
X152831577Y-142728457D01*
X152831577Y-142728457D02*
X152774434Y-142785600D01*
X152774434Y-142785600D02*
X152660148Y-142842742D01*
X152660148Y-142842742D02*
X152488719Y-142842742D01*
X153917291Y-142042742D02*
X153917291Y-142842742D01*
X153403005Y-142042742D02*
X153403005Y-142671314D01*
X153403005Y-142671314D02*
X153460148Y-142785600D01*
X153460148Y-142785600D02*
X153574433Y-142842742D01*
X153574433Y-142842742D02*
X153745862Y-142842742D01*
X153745862Y-142842742D02*
X153860148Y-142785600D01*
X153860148Y-142785600D02*
X153917291Y-142728457D01*
X154488719Y-142042742D02*
X154488719Y-142842742D01*
X154488719Y-142157028D02*
X154545862Y-142099885D01*
X154545862Y-142099885D02*
X154660147Y-142042742D01*
X154660147Y-142042742D02*
X154831576Y-142042742D01*
X154831576Y-142042742D02*
X154945862Y-142099885D01*
X154945862Y-142099885D02*
X155003005Y-142214171D01*
X155003005Y-142214171D02*
X155003005Y-142842742D01*
X156088719Y-142842742D02*
X156088719Y-141642742D01*
X156088719Y-142785600D02*
X155974433Y-142842742D01*
X155974433Y-142842742D02*
X155745861Y-142842742D01*
X155745861Y-142842742D02*
X155631576Y-142785600D01*
X155631576Y-142785600D02*
X155574433Y-142728457D01*
X155574433Y-142728457D02*
X155517290Y-142614171D01*
X155517290Y-142614171D02*
X155517290Y-142271314D01*
X155517290Y-142271314D02*
X155574433Y-142157028D01*
X155574433Y-142157028D02*
X155631576Y-142099885D01*
X155631576Y-142099885D02*
X155745861Y-142042742D01*
X155745861Y-142042742D02*
X155974433Y-142042742D01*
X155974433Y-142042742D02*
X156088719Y-142099885D01*
X157517290Y-142785600D02*
X157688719Y-142842742D01*
X157688719Y-142842742D02*
X157974433Y-142842742D01*
X157974433Y-142842742D02*
X158088719Y-142785600D01*
X158088719Y-142785600D02*
X158145861Y-142728457D01*
X158145861Y-142728457D02*
X158203004Y-142614171D01*
X158203004Y-142614171D02*
X158203004Y-142499885D01*
X158203004Y-142499885D02*
X158145861Y-142385600D01*
X158145861Y-142385600D02*
X158088719Y-142328457D01*
X158088719Y-142328457D02*
X157974433Y-142271314D01*
X157974433Y-142271314D02*
X157745861Y-142214171D01*
X157745861Y-142214171D02*
X157631576Y-142157028D01*
X157631576Y-142157028D02*
X157574433Y-142099885D01*
X157574433Y-142099885D02*
X157517290Y-141985600D01*
X157517290Y-141985600D02*
X157517290Y-141871314D01*
X157517290Y-141871314D02*
X157574433Y-141757028D01*
X157574433Y-141757028D02*
X157631576Y-141699885D01*
X157631576Y-141699885D02*
X157745861Y-141642742D01*
X157745861Y-141642742D02*
X158031576Y-141642742D01*
X158031576Y-141642742D02*
X158203004Y-141699885D01*
X158545861Y-142042742D02*
X159003004Y-142042742D01*
X158717290Y-141642742D02*
X158717290Y-142671314D01*
X158717290Y-142671314D02*
X158774433Y-142785600D01*
X158774433Y-142785600D02*
X158888718Y-142842742D01*
X158888718Y-142842742D02*
X159003004Y-142842742D01*
X159917290Y-142842742D02*
X159917290Y-142214171D01*
X159917290Y-142214171D02*
X159860147Y-142099885D01*
X159860147Y-142099885D02*
X159745861Y-142042742D01*
X159745861Y-142042742D02*
X159517290Y-142042742D01*
X159517290Y-142042742D02*
X159403004Y-142099885D01*
X159917290Y-142785600D02*
X159803004Y-142842742D01*
X159803004Y-142842742D02*
X159517290Y-142842742D01*
X159517290Y-142842742D02*
X159403004Y-142785600D01*
X159403004Y-142785600D02*
X159345861Y-142671314D01*
X159345861Y-142671314D02*
X159345861Y-142557028D01*
X159345861Y-142557028D02*
X159403004Y-142442742D01*
X159403004Y-142442742D02*
X159517290Y-142385600D01*
X159517290Y-142385600D02*
X159803004Y-142385600D01*
X159803004Y-142385600D02*
X159917290Y-142328457D01*
X160317289Y-142042742D02*
X160774432Y-142042742D01*
X160488718Y-141642742D02*
X160488718Y-142671314D01*
X160488718Y-142671314D02*
X160545861Y-142785600D01*
X160545861Y-142785600D02*
X160660146Y-142842742D01*
X160660146Y-142842742D02*
X160774432Y-142842742D01*
X161174432Y-142842742D02*
X161174432Y-142042742D01*
X161174432Y-141642742D02*
X161117289Y-141699885D01*
X161117289Y-141699885D02*
X161174432Y-141757028D01*
X161174432Y-141757028D02*
X161231575Y-141699885D01*
X161231575Y-141699885D02*
X161174432Y-141642742D01*
X161174432Y-141642742D02*
X161174432Y-141757028D01*
X161917289Y-142842742D02*
X161803004Y-142785600D01*
X161803004Y-142785600D02*
X161745861Y-142728457D01*
X161745861Y-142728457D02*
X161688718Y-142614171D01*
X161688718Y-142614171D02*
X161688718Y-142271314D01*
X161688718Y-142271314D02*
X161745861Y-142157028D01*
X161745861Y-142157028D02*
X161803004Y-142099885D01*
X161803004Y-142099885D02*
X161917289Y-142042742D01*
X161917289Y-142042742D02*
X162088718Y-142042742D01*
X162088718Y-142042742D02*
X162203004Y-142099885D01*
X162203004Y-142099885D02*
X162260147Y-142157028D01*
X162260147Y-142157028D02*
X162317289Y-142271314D01*
X162317289Y-142271314D02*
X162317289Y-142614171D01*
X162317289Y-142614171D02*
X162260147Y-142728457D01*
X162260147Y-142728457D02*
X162203004Y-142785600D01*
X162203004Y-142785600D02*
X162088718Y-142842742D01*
X162088718Y-142842742D02*
X161917289Y-142842742D01*
X162831575Y-142042742D02*
X162831575Y-142842742D01*
X162831575Y-142157028D02*
X162888718Y-142099885D01*
X162888718Y-142099885D02*
X163003003Y-142042742D01*
X163003003Y-142042742D02*
X163174432Y-142042742D01*
X163174432Y-142042742D02*
X163288718Y-142099885D01*
X163288718Y-142099885D02*
X163345861Y-142214171D01*
X163345861Y-142214171D02*
X163345861Y-142842742D01*
D10*
X142408207Y-144274580D02*
X142360588Y-144322200D01*
X142360588Y-144322200D02*
X142217731Y-144369819D01*
X142217731Y-144369819D02*
X142122493Y-144369819D01*
X142122493Y-144369819D02*
X141979636Y-144322200D01*
X141979636Y-144322200D02*
X141884398Y-144226961D01*
X141884398Y-144226961D02*
X141836779Y-144131723D01*
X141836779Y-144131723D02*
X141789160Y-143941247D01*
X141789160Y-143941247D02*
X141789160Y-143798390D01*
X141789160Y-143798390D02*
X141836779Y-143607914D01*
X141836779Y-143607914D02*
X141884398Y-143512676D01*
X141884398Y-143512676D02*
X141979636Y-143417438D01*
X141979636Y-143417438D02*
X142122493Y-143369819D01*
X142122493Y-143369819D02*
X142217731Y-143369819D01*
X142217731Y-143369819D02*
X142360588Y-143417438D01*
X142360588Y-143417438D02*
X142408207Y-143465057D01*
X143265350Y-144369819D02*
X143265350Y-143846009D01*
X143265350Y-143846009D02*
X143217731Y-143750771D01*
X143217731Y-143750771D02*
X143122493Y-143703152D01*
X143122493Y-143703152D02*
X142932017Y-143703152D01*
X142932017Y-143703152D02*
X142836779Y-143750771D01*
X143265350Y-144322200D02*
X143170112Y-144369819D01*
X143170112Y-144369819D02*
X142932017Y-144369819D01*
X142932017Y-144369819D02*
X142836779Y-144322200D01*
X142836779Y-144322200D02*
X142789160Y-144226961D01*
X142789160Y-144226961D02*
X142789160Y-144131723D01*
X142789160Y-144131723D02*
X142836779Y-144036485D01*
X142836779Y-144036485D02*
X142932017Y-143988866D01*
X142932017Y-143988866D02*
X143170112Y-143988866D01*
X143170112Y-143988866D02*
X143265350Y-143941247D01*
X143741541Y-144369819D02*
X143741541Y-143703152D01*
X143741541Y-143893628D02*
X143789160Y-143798390D01*
X143789160Y-143798390D02*
X143836779Y-143750771D01*
X143836779Y-143750771D02*
X143932017Y-143703152D01*
X143932017Y-143703152D02*
X144027255Y-143703152D01*
X144360589Y-143703152D02*
X144360589Y-144369819D01*
X144360589Y-143798390D02*
X144408208Y-143750771D01*
X144408208Y-143750771D02*
X144503446Y-143703152D01*
X144503446Y-143703152D02*
X144646303Y-143703152D01*
X144646303Y-143703152D02*
X144741541Y-143750771D01*
X144741541Y-143750771D02*
X144789160Y-143846009D01*
X144789160Y-143846009D02*
X144789160Y-144369819D01*
X145646303Y-144322200D02*
X145551065Y-144369819D01*
X145551065Y-144369819D02*
X145360589Y-144369819D01*
X145360589Y-144369819D02*
X145265351Y-144322200D01*
X145265351Y-144322200D02*
X145217732Y-144226961D01*
X145217732Y-144226961D02*
X145217732Y-143846009D01*
X145217732Y-143846009D02*
X145265351Y-143750771D01*
X145265351Y-143750771D02*
X145360589Y-143703152D01*
X145360589Y-143703152D02*
X145551065Y-143703152D01*
X145551065Y-143703152D02*
X145646303Y-143750771D01*
X145646303Y-143750771D02*
X145693922Y-143846009D01*
X145693922Y-143846009D02*
X145693922Y-143941247D01*
X145693922Y-143941247D02*
X145217732Y-144036485D01*
X146551065Y-143703152D02*
X146551065Y-144512676D01*
X146551065Y-144512676D02*
X146503446Y-144607914D01*
X146503446Y-144607914D02*
X146455827Y-144655533D01*
X146455827Y-144655533D02*
X146360589Y-144703152D01*
X146360589Y-144703152D02*
X146217732Y-144703152D01*
X146217732Y-144703152D02*
X146122494Y-144655533D01*
X146551065Y-144322200D02*
X146455827Y-144369819D01*
X146455827Y-144369819D02*
X146265351Y-144369819D01*
X146265351Y-144369819D02*
X146170113Y-144322200D01*
X146170113Y-144322200D02*
X146122494Y-144274580D01*
X146122494Y-144274580D02*
X146074875Y-144179342D01*
X146074875Y-144179342D02*
X146074875Y-143893628D01*
X146074875Y-143893628D02*
X146122494Y-143798390D01*
X146122494Y-143798390D02*
X146170113Y-143750771D01*
X146170113Y-143750771D02*
X146265351Y-143703152D01*
X146265351Y-143703152D02*
X146455827Y-143703152D01*
X146455827Y-143703152D02*
X146551065Y-143750771D01*
X147027256Y-144369819D02*
X147027256Y-143703152D01*
X147027256Y-143369819D02*
X146979637Y-143417438D01*
X146979637Y-143417438D02*
X147027256Y-143465057D01*
X147027256Y-143465057D02*
X147074875Y-143417438D01*
X147074875Y-143417438D02*
X147027256Y-143369819D01*
X147027256Y-143369819D02*
X147027256Y-143465057D01*
X147884398Y-144322200D02*
X147789160Y-144369819D01*
X147789160Y-144369819D02*
X147598684Y-144369819D01*
X147598684Y-144369819D02*
X147503446Y-144322200D01*
X147503446Y-144322200D02*
X147455827Y-144226961D01*
X147455827Y-144226961D02*
X147455827Y-143846009D01*
X147455827Y-143846009D02*
X147503446Y-143750771D01*
X147503446Y-143750771D02*
X147598684Y-143703152D01*
X147598684Y-143703152D02*
X147789160Y-143703152D01*
X147789160Y-143703152D02*
X147884398Y-143750771D01*
X147884398Y-143750771D02*
X147932017Y-143846009D01*
X147932017Y-143846009D02*
X147932017Y-143941247D01*
X147932017Y-143941247D02*
X147455827Y-144036485D01*
X149122494Y-144369819D02*
X149122494Y-143369819D01*
X149122494Y-143369819D02*
X149455827Y-144084104D01*
X149455827Y-144084104D02*
X149789160Y-143369819D01*
X149789160Y-143369819D02*
X149789160Y-144369819D01*
X150646303Y-144322200D02*
X150551065Y-144369819D01*
X150551065Y-144369819D02*
X150360589Y-144369819D01*
X150360589Y-144369819D02*
X150265351Y-144322200D01*
X150265351Y-144322200D02*
X150217732Y-144226961D01*
X150217732Y-144226961D02*
X150217732Y-143846009D01*
X150217732Y-143846009D02*
X150265351Y-143750771D01*
X150265351Y-143750771D02*
X150360589Y-143703152D01*
X150360589Y-143703152D02*
X150551065Y-143703152D01*
X150551065Y-143703152D02*
X150646303Y-143750771D01*
X150646303Y-143750771D02*
X150693922Y-143846009D01*
X150693922Y-143846009D02*
X150693922Y-143941247D01*
X150693922Y-143941247D02*
X150217732Y-144036485D01*
X151265351Y-144369819D02*
X151170113Y-144322200D01*
X151170113Y-144322200D02*
X151122494Y-144226961D01*
X151122494Y-144226961D02*
X151122494Y-143369819D01*
X151789161Y-144369819D02*
X151693923Y-144322200D01*
X151693923Y-144322200D02*
X151646304Y-144226961D01*
X151646304Y-144226961D02*
X151646304Y-143369819D01*
X152312971Y-144369819D02*
X152217733Y-144322200D01*
X152217733Y-144322200D02*
X152170114Y-144274580D01*
X152170114Y-144274580D02*
X152122495Y-144179342D01*
X152122495Y-144179342D02*
X152122495Y-143893628D01*
X152122495Y-143893628D02*
X152170114Y-143798390D01*
X152170114Y-143798390D02*
X152217733Y-143750771D01*
X152217733Y-143750771D02*
X152312971Y-143703152D01*
X152312971Y-143703152D02*
X152455828Y-143703152D01*
X152455828Y-143703152D02*
X152551066Y-143750771D01*
X152551066Y-143750771D02*
X152598685Y-143798390D01*
X152598685Y-143798390D02*
X152646304Y-143893628D01*
X152646304Y-143893628D02*
X152646304Y-144179342D01*
X152646304Y-144179342D02*
X152598685Y-144274580D01*
X152598685Y-144274580D02*
X152551066Y-144322200D01*
X152551066Y-144322200D02*
X152455828Y-144369819D01*
X152455828Y-144369819D02*
X152312971Y-144369819D01*
X153074876Y-143703152D02*
X153074876Y-144369819D01*
X153074876Y-143798390D02*
X153122495Y-143750771D01*
X153122495Y-143750771D02*
X153217733Y-143703152D01*
X153217733Y-143703152D02*
X153360590Y-143703152D01*
X153360590Y-143703152D02*
X153455828Y-143750771D01*
X153455828Y-143750771D02*
X153503447Y-143846009D01*
X153503447Y-143846009D02*
X153503447Y-144369819D01*
X154741543Y-143369819D02*
X154741543Y-144179342D01*
X154741543Y-144179342D02*
X154789162Y-144274580D01*
X154789162Y-144274580D02*
X154836781Y-144322200D01*
X154836781Y-144322200D02*
X154932019Y-144369819D01*
X154932019Y-144369819D02*
X155122495Y-144369819D01*
X155122495Y-144369819D02*
X155217733Y-144322200D01*
X155217733Y-144322200D02*
X155265352Y-144274580D01*
X155265352Y-144274580D02*
X155312971Y-144179342D01*
X155312971Y-144179342D02*
X155312971Y-143369819D01*
X155789162Y-143703152D02*
X155789162Y-144369819D01*
X155789162Y-143798390D02*
X155836781Y-143750771D01*
X155836781Y-143750771D02*
X155932019Y-143703152D01*
X155932019Y-143703152D02*
X156074876Y-143703152D01*
X156074876Y-143703152D02*
X156170114Y-143750771D01*
X156170114Y-143750771D02*
X156217733Y-143846009D01*
X156217733Y-143846009D02*
X156217733Y-144369819D01*
X156693924Y-144369819D02*
X156693924Y-143703152D01*
X156693924Y-143369819D02*
X156646305Y-143417438D01*
X156646305Y-143417438D02*
X156693924Y-143465057D01*
X156693924Y-143465057D02*
X156741543Y-143417438D01*
X156741543Y-143417438D02*
X156693924Y-143369819D01*
X156693924Y-143369819D02*
X156693924Y-143465057D01*
X157074876Y-143703152D02*
X157312971Y-144369819D01*
X157312971Y-144369819D02*
X157551066Y-143703152D01*
X158312971Y-144322200D02*
X158217733Y-144369819D01*
X158217733Y-144369819D02*
X158027257Y-144369819D01*
X158027257Y-144369819D02*
X157932019Y-144322200D01*
X157932019Y-144322200D02*
X157884400Y-144226961D01*
X157884400Y-144226961D02*
X157884400Y-143846009D01*
X157884400Y-143846009D02*
X157932019Y-143750771D01*
X157932019Y-143750771D02*
X158027257Y-143703152D01*
X158027257Y-143703152D02*
X158217733Y-143703152D01*
X158217733Y-143703152D02*
X158312971Y-143750771D01*
X158312971Y-143750771D02*
X158360590Y-143846009D01*
X158360590Y-143846009D02*
X158360590Y-143941247D01*
X158360590Y-143941247D02*
X157884400Y-144036485D01*
X158789162Y-144369819D02*
X158789162Y-143703152D01*
X158789162Y-143893628D02*
X158836781Y-143798390D01*
X158836781Y-143798390D02*
X158884400Y-143750771D01*
X158884400Y-143750771D02*
X158979638Y-143703152D01*
X158979638Y-143703152D02*
X159074876Y-143703152D01*
X159360591Y-144322200D02*
X159455829Y-144369819D01*
X159455829Y-144369819D02*
X159646305Y-144369819D01*
X159646305Y-144369819D02*
X159741543Y-144322200D01*
X159741543Y-144322200D02*
X159789162Y-144226961D01*
X159789162Y-144226961D02*
X159789162Y-144179342D01*
X159789162Y-144179342D02*
X159741543Y-144084104D01*
X159741543Y-144084104D02*
X159646305Y-144036485D01*
X159646305Y-144036485D02*
X159503448Y-144036485D01*
X159503448Y-144036485D02*
X159408210Y-143988866D01*
X159408210Y-143988866D02*
X159360591Y-143893628D01*
X159360591Y-143893628D02*
X159360591Y-143846009D01*
X159360591Y-143846009D02*
X159408210Y-143750771D01*
X159408210Y-143750771D02*
X159503448Y-143703152D01*
X159503448Y-143703152D02*
X159646305Y-143703152D01*
X159646305Y-143703152D02*
X159741543Y-143750771D01*
X160217734Y-144369819D02*
X160217734Y-143703152D01*
X160217734Y-143369819D02*
X160170115Y-143417438D01*
X160170115Y-143417438D02*
X160217734Y-143465057D01*
X160217734Y-143465057D02*
X160265353Y-143417438D01*
X160265353Y-143417438D02*
X160217734Y-143369819D01*
X160217734Y-143369819D02*
X160217734Y-143465057D01*
X160551067Y-143703152D02*
X160932019Y-143703152D01*
X160693924Y-143369819D02*
X160693924Y-144226961D01*
X160693924Y-144226961D02*
X160741543Y-144322200D01*
X160741543Y-144322200D02*
X160836781Y-144369819D01*
X160836781Y-144369819D02*
X160932019Y-144369819D01*
X161170115Y-143703152D02*
X161408210Y-144369819D01*
X161646305Y-143703152D02*
X161408210Y-144369819D01*
X161408210Y-144369819D02*
X161312972Y-144607914D01*
X161312972Y-144607914D02*
X161265353Y-144655533D01*
X161265353Y-144655533D02*
X161170115Y-144703152D01*
X155761905Y-113454819D02*
X155761905Y-112454819D01*
X155761905Y-112454819D02*
X156000000Y-112454819D01*
X156000000Y-112454819D02*
X156142857Y-112502438D01*
X156142857Y-112502438D02*
X156238095Y-112597676D01*
X156238095Y-112597676D02*
X156285714Y-112692914D01*
X156285714Y-112692914D02*
X156333333Y-112883390D01*
X156333333Y-112883390D02*
X156333333Y-113026247D01*
X156333333Y-113026247D02*
X156285714Y-113216723D01*
X156285714Y-113216723D02*
X156238095Y-113311961D01*
X156238095Y-113311961D02*
X156142857Y-113407200D01*
X156142857Y-113407200D02*
X156000000Y-113454819D01*
X156000000Y-113454819D02*
X155761905Y-113454819D01*
X156952381Y-112454819D02*
X157047619Y-112454819D01*
X157047619Y-112454819D02*
X157142857Y-112502438D01*
X157142857Y-112502438D02*
X157190476Y-112550057D01*
X157190476Y-112550057D02*
X157238095Y-112645295D01*
X157238095Y-112645295D02*
X157285714Y-112835771D01*
X157285714Y-112835771D02*
X157285714Y-113073866D01*
X157285714Y-113073866D02*
X157238095Y-113264342D01*
X157238095Y-113264342D02*
X157190476Y-113359580D01*
X157190476Y-113359580D02*
X157142857Y-113407200D01*
X157142857Y-113407200D02*
X157047619Y-113454819D01*
X157047619Y-113454819D02*
X156952381Y-113454819D01*
X156952381Y-113454819D02*
X156857143Y-113407200D01*
X156857143Y-113407200D02*
X156809524Y-113359580D01*
X156809524Y-113359580D02*
X156761905Y-113264342D01*
X156761905Y-113264342D02*
X156714286Y-113073866D01*
X156714286Y-113073866D02*
X156714286Y-112835771D01*
X156714286Y-112835771D02*
X156761905Y-112645295D01*
X156761905Y-112645295D02*
X156809524Y-112550057D01*
X156809524Y-112550057D02*
X156857143Y-112502438D01*
X156857143Y-112502438D02*
X156952381Y-112454819D01*
D11*
X151790476Y-147900910D02*
X151714286Y-147862815D01*
X151714286Y-147862815D02*
X151600000Y-147862815D01*
X151600000Y-147862815D02*
X151485714Y-147900910D01*
X151485714Y-147900910D02*
X151409524Y-147977100D01*
X151409524Y-147977100D02*
X151371429Y-148053291D01*
X151371429Y-148053291D02*
X151333333Y-148205672D01*
X151333333Y-148205672D02*
X151333333Y-148319958D01*
X151333333Y-148319958D02*
X151371429Y-148472339D01*
X151371429Y-148472339D02*
X151409524Y-148548529D01*
X151409524Y-148548529D02*
X151485714Y-148624720D01*
X151485714Y-148624720D02*
X151600000Y-148662815D01*
X151600000Y-148662815D02*
X151676191Y-148662815D01*
X151676191Y-148662815D02*
X151790476Y-148624720D01*
X151790476Y-148624720D02*
X151828572Y-148586624D01*
X151828572Y-148586624D02*
X151828572Y-148319958D01*
X151828572Y-148319958D02*
X151676191Y-148319958D01*
X152171429Y-148662815D02*
X152171429Y-147862815D01*
X152171429Y-147862815D02*
X152628572Y-148662815D01*
X152628572Y-148662815D02*
X152628572Y-147862815D01*
X153009524Y-148662815D02*
X153009524Y-147862815D01*
X153009524Y-147862815D02*
X153200000Y-147862815D01*
X153200000Y-147862815D02*
X153314286Y-147900910D01*
X153314286Y-147900910D02*
X153390476Y-147977100D01*
X153390476Y-147977100D02*
X153428571Y-148053291D01*
X153428571Y-148053291D02*
X153466667Y-148205672D01*
X153466667Y-148205672D02*
X153466667Y-148319958D01*
X153466667Y-148319958D02*
X153428571Y-148472339D01*
X153428571Y-148472339D02*
X153390476Y-148548529D01*
X153390476Y-148548529D02*
X153314286Y-148624720D01*
X153314286Y-148624720D02*
X153200000Y-148662815D01*
X153200000Y-148662815D02*
X153009524Y-148662815D01*
D10*
X105454819Y-139238095D02*
X105454819Y-139428571D01*
X105454819Y-139428571D02*
X105502438Y-139523809D01*
X105502438Y-139523809D02*
X105550057Y-139571428D01*
X105550057Y-139571428D02*
X105692914Y-139666666D01*
X105692914Y-139666666D02*
X105883390Y-139714285D01*
X105883390Y-139714285D02*
X106264342Y-139714285D01*
X106264342Y-139714285D02*
X106359580Y-139666666D01*
X106359580Y-139666666D02*
X106407200Y-139619047D01*
X106407200Y-139619047D02*
X106454819Y-139523809D01*
X106454819Y-139523809D02*
X106454819Y-139333333D01*
X106454819Y-139333333D02*
X106407200Y-139238095D01*
X106407200Y-139238095D02*
X106359580Y-139190476D01*
X106359580Y-139190476D02*
X106264342Y-139142857D01*
X106264342Y-139142857D02*
X106026247Y-139142857D01*
X106026247Y-139142857D02*
X105931009Y-139190476D01*
X105931009Y-139190476D02*
X105883390Y-139238095D01*
X105883390Y-139238095D02*
X105835771Y-139333333D01*
X105835771Y-139333333D02*
X105835771Y-139523809D01*
X105835771Y-139523809D02*
X105883390Y-139619047D01*
X105883390Y-139619047D02*
X105931009Y-139666666D01*
X105931009Y-139666666D02*
X106026247Y-139714285D01*
X105454819Y-138857142D02*
X106454819Y-138523809D01*
X106454819Y-138523809D02*
X105454819Y-138190476D01*
X124333333Y-138454819D02*
X124000000Y-137978628D01*
X123761905Y-138454819D02*
X123761905Y-137454819D01*
X123761905Y-137454819D02*
X124142857Y-137454819D01*
X124142857Y-137454819D02*
X124238095Y-137502438D01*
X124238095Y-137502438D02*
X124285714Y-137550057D01*
X124285714Y-137550057D02*
X124333333Y-137645295D01*
X124333333Y-137645295D02*
X124333333Y-137788152D01*
X124333333Y-137788152D02*
X124285714Y-137883390D01*
X124285714Y-137883390D02*
X124238095Y-137931009D01*
X124238095Y-137931009D02*
X124142857Y-137978628D01*
X124142857Y-137978628D02*
X123761905Y-137978628D01*
X124904762Y-137883390D02*
X124809524Y-137835771D01*
X124809524Y-137835771D02*
X124761905Y-137788152D01*
X124761905Y-137788152D02*
X124714286Y-137692914D01*
X124714286Y-137692914D02*
X124714286Y-137645295D01*
X124714286Y-137645295D02*
X124761905Y-137550057D01*
X124761905Y-137550057D02*
X124809524Y-137502438D01*
X124809524Y-137502438D02*
X124904762Y-137454819D01*
X124904762Y-137454819D02*
X125095238Y-137454819D01*
X125095238Y-137454819D02*
X125190476Y-137502438D01*
X125190476Y-137502438D02*
X125238095Y-137550057D01*
X125238095Y-137550057D02*
X125285714Y-137645295D01*
X125285714Y-137645295D02*
X125285714Y-137692914D01*
X125285714Y-137692914D02*
X125238095Y-137788152D01*
X125238095Y-137788152D02*
X125190476Y-137835771D01*
X125190476Y-137835771D02*
X125095238Y-137883390D01*
X125095238Y-137883390D02*
X124904762Y-137883390D01*
X124904762Y-137883390D02*
X124809524Y-137931009D01*
X124809524Y-137931009D02*
X124761905Y-137978628D01*
X124761905Y-137978628D02*
X124714286Y-138073866D01*
X124714286Y-138073866D02*
X124714286Y-138264342D01*
X124714286Y-138264342D02*
X124761905Y-138359580D01*
X124761905Y-138359580D02*
X124809524Y-138407200D01*
X124809524Y-138407200D02*
X124904762Y-138454819D01*
X124904762Y-138454819D02*
X125095238Y-138454819D01*
X125095238Y-138454819D02*
X125190476Y-138407200D01*
X125190476Y-138407200D02*
X125238095Y-138359580D01*
X125238095Y-138359580D02*
X125285714Y-138264342D01*
X125285714Y-138264342D02*
X125285714Y-138073866D01*
X125285714Y-138073866D02*
X125238095Y-137978628D01*
X125238095Y-137978628D02*
X125190476Y-137931009D01*
X125190476Y-137931009D02*
X125095238Y-137883390D01*
X132833333Y-150674819D02*
X132500000Y-150198628D01*
X132261905Y-150674819D02*
X132261905Y-149674819D01*
X132261905Y-149674819D02*
X132642857Y-149674819D01*
X132642857Y-149674819D02*
X132738095Y-149722438D01*
X132738095Y-149722438D02*
X132785714Y-149770057D01*
X132785714Y-149770057D02*
X132833333Y-149865295D01*
X132833333Y-149865295D02*
X132833333Y-150008152D01*
X132833333Y-150008152D02*
X132785714Y-150103390D01*
X132785714Y-150103390D02*
X132738095Y-150151009D01*
X132738095Y-150151009D02*
X132642857Y-150198628D01*
X132642857Y-150198628D02*
X132261905Y-150198628D01*
X133738095Y-149674819D02*
X133261905Y-149674819D01*
X133261905Y-149674819D02*
X133214286Y-150151009D01*
X133214286Y-150151009D02*
X133261905Y-150103390D01*
X133261905Y-150103390D02*
X133357143Y-150055771D01*
X133357143Y-150055771D02*
X133595238Y-150055771D01*
X133595238Y-150055771D02*
X133690476Y-150103390D01*
X133690476Y-150103390D02*
X133738095Y-150151009D01*
X133738095Y-150151009D02*
X133785714Y-150246247D01*
X133785714Y-150246247D02*
X133785714Y-150484342D01*
X133785714Y-150484342D02*
X133738095Y-150579580D01*
X133738095Y-150579580D02*
X133690476Y-150627200D01*
X133690476Y-150627200D02*
X133595238Y-150674819D01*
X133595238Y-150674819D02*
X133357143Y-150674819D01*
X133357143Y-150674819D02*
X133261905Y-150627200D01*
X133261905Y-150627200D02*
X133214286Y-150579580D01*
X123904761Y-110064057D02*
X123809523Y-110016438D01*
X123809523Y-110016438D02*
X123714285Y-109921200D01*
X123714285Y-109921200D02*
X123571428Y-109778342D01*
X123571428Y-109778342D02*
X123476190Y-109730723D01*
X123476190Y-109730723D02*
X123380952Y-109730723D01*
X123428571Y-109968819D02*
X123333333Y-109921200D01*
X123333333Y-109921200D02*
X123238095Y-109825961D01*
X123238095Y-109825961D02*
X123190476Y-109635485D01*
X123190476Y-109635485D02*
X123190476Y-109302152D01*
X123190476Y-109302152D02*
X123238095Y-109111676D01*
X123238095Y-109111676D02*
X123333333Y-109016438D01*
X123333333Y-109016438D02*
X123428571Y-108968819D01*
X123428571Y-108968819D02*
X123619047Y-108968819D01*
X123619047Y-108968819D02*
X123714285Y-109016438D01*
X123714285Y-109016438D02*
X123809523Y-109111676D01*
X123809523Y-109111676D02*
X123857142Y-109302152D01*
X123857142Y-109302152D02*
X123857142Y-109635485D01*
X123857142Y-109635485D02*
X123809523Y-109825961D01*
X123809523Y-109825961D02*
X123714285Y-109921200D01*
X123714285Y-109921200D02*
X123619047Y-109968819D01*
X123619047Y-109968819D02*
X123428571Y-109968819D01*
X124809523Y-109968819D02*
X124238095Y-109968819D01*
X124523809Y-109968819D02*
X124523809Y-108968819D01*
X124523809Y-108968819D02*
X124428571Y-109111676D01*
X124428571Y-109111676D02*
X124333333Y-109206914D01*
X124333333Y-109206914D02*
X124238095Y-109254533D01*
X134973219Y-109278657D02*
X134497028Y-109611990D01*
X134973219Y-109850085D02*
X133973219Y-109850085D01*
X133973219Y-109850085D02*
X133973219Y-109469133D01*
X133973219Y-109469133D02*
X134020838Y-109373895D01*
X134020838Y-109373895D02*
X134068457Y-109326276D01*
X134068457Y-109326276D02*
X134163695Y-109278657D01*
X134163695Y-109278657D02*
X134306552Y-109278657D01*
X134306552Y-109278657D02*
X134401790Y-109326276D01*
X134401790Y-109326276D02*
X134449409Y-109373895D01*
X134449409Y-109373895D02*
X134497028Y-109469133D01*
X134497028Y-109469133D02*
X134497028Y-109850085D01*
X134973219Y-108326276D02*
X134973219Y-108897704D01*
X134973219Y-108611990D02*
X133973219Y-108611990D01*
X133973219Y-108611990D02*
X134116076Y-108707228D01*
X134116076Y-108707228D02*
X134211314Y-108802466D01*
X134211314Y-108802466D02*
X134258933Y-108897704D01*
X133973219Y-107469133D02*
X133973219Y-107659609D01*
X133973219Y-107659609D02*
X134020838Y-107754847D01*
X134020838Y-107754847D02*
X134068457Y-107802466D01*
X134068457Y-107802466D02*
X134211314Y-107897704D01*
X134211314Y-107897704D02*
X134401790Y-107945323D01*
X134401790Y-107945323D02*
X134782742Y-107945323D01*
X134782742Y-107945323D02*
X134877980Y-107897704D01*
X134877980Y-107897704D02*
X134925600Y-107850085D01*
X134925600Y-107850085D02*
X134973219Y-107754847D01*
X134973219Y-107754847D02*
X134973219Y-107564371D01*
X134973219Y-107564371D02*
X134925600Y-107469133D01*
X134925600Y-107469133D02*
X134877980Y-107421514D01*
X134877980Y-107421514D02*
X134782742Y-107373895D01*
X134782742Y-107373895D02*
X134544647Y-107373895D01*
X134544647Y-107373895D02*
X134449409Y-107421514D01*
X134449409Y-107421514D02*
X134401790Y-107469133D01*
X134401790Y-107469133D02*
X134354171Y-107564371D01*
X134354171Y-107564371D02*
X134354171Y-107754847D01*
X134354171Y-107754847D02*
X134401790Y-107850085D01*
X134401790Y-107850085D02*
X134449409Y-107897704D01*
X134449409Y-107897704D02*
X134544647Y-107945323D01*
X121704819Y-148666666D02*
X121228628Y-148999999D01*
X121704819Y-149238094D02*
X120704819Y-149238094D01*
X120704819Y-149238094D02*
X120704819Y-148857142D01*
X120704819Y-148857142D02*
X120752438Y-148761904D01*
X120752438Y-148761904D02*
X120800057Y-148714285D01*
X120800057Y-148714285D02*
X120895295Y-148666666D01*
X120895295Y-148666666D02*
X121038152Y-148666666D01*
X121038152Y-148666666D02*
X121133390Y-148714285D01*
X121133390Y-148714285D02*
X121181009Y-148761904D01*
X121181009Y-148761904D02*
X121228628Y-148857142D01*
X121228628Y-148857142D02*
X121228628Y-149238094D01*
X120704819Y-148333332D02*
X120704819Y-147714285D01*
X120704819Y-147714285D02*
X121085771Y-148047618D01*
X121085771Y-148047618D02*
X121085771Y-147904761D01*
X121085771Y-147904761D02*
X121133390Y-147809523D01*
X121133390Y-147809523D02*
X121181009Y-147761904D01*
X121181009Y-147761904D02*
X121276247Y-147714285D01*
X121276247Y-147714285D02*
X121514342Y-147714285D01*
X121514342Y-147714285D02*
X121609580Y-147761904D01*
X121609580Y-147761904D02*
X121657200Y-147809523D01*
X121657200Y-147809523D02*
X121704819Y-147904761D01*
X121704819Y-147904761D02*
X121704819Y-148190475D01*
X121704819Y-148190475D02*
X121657200Y-148285713D01*
X121657200Y-148285713D02*
X121609580Y-148333332D01*
X132484019Y-109278657D02*
X132007828Y-109611990D01*
X132484019Y-109850085D02*
X131484019Y-109850085D01*
X131484019Y-109850085D02*
X131484019Y-109469133D01*
X131484019Y-109469133D02*
X131531638Y-109373895D01*
X131531638Y-109373895D02*
X131579257Y-109326276D01*
X131579257Y-109326276D02*
X131674495Y-109278657D01*
X131674495Y-109278657D02*
X131817352Y-109278657D01*
X131817352Y-109278657D02*
X131912590Y-109326276D01*
X131912590Y-109326276D02*
X131960209Y-109373895D01*
X131960209Y-109373895D02*
X132007828Y-109469133D01*
X132007828Y-109469133D02*
X132007828Y-109850085D01*
X132484019Y-108326276D02*
X132484019Y-108897704D01*
X132484019Y-108611990D02*
X131484019Y-108611990D01*
X131484019Y-108611990D02*
X131626876Y-108707228D01*
X131626876Y-108707228D02*
X131722114Y-108802466D01*
X131722114Y-108802466D02*
X131769733Y-108897704D01*
X131912590Y-107754847D02*
X131864971Y-107850085D01*
X131864971Y-107850085D02*
X131817352Y-107897704D01*
X131817352Y-107897704D02*
X131722114Y-107945323D01*
X131722114Y-107945323D02*
X131674495Y-107945323D01*
X131674495Y-107945323D02*
X131579257Y-107897704D01*
X131579257Y-107897704D02*
X131531638Y-107850085D01*
X131531638Y-107850085D02*
X131484019Y-107754847D01*
X131484019Y-107754847D02*
X131484019Y-107564371D01*
X131484019Y-107564371D02*
X131531638Y-107469133D01*
X131531638Y-107469133D02*
X131579257Y-107421514D01*
X131579257Y-107421514D02*
X131674495Y-107373895D01*
X131674495Y-107373895D02*
X131722114Y-107373895D01*
X131722114Y-107373895D02*
X131817352Y-107421514D01*
X131817352Y-107421514D02*
X131864971Y-107469133D01*
X131864971Y-107469133D02*
X131912590Y-107564371D01*
X131912590Y-107564371D02*
X131912590Y-107754847D01*
X131912590Y-107754847D02*
X131960209Y-107850085D01*
X131960209Y-107850085D02*
X132007828Y-107897704D01*
X132007828Y-107897704D02*
X132103066Y-107945323D01*
X132103066Y-107945323D02*
X132293542Y-107945323D01*
X132293542Y-107945323D02*
X132388780Y-107897704D01*
X132388780Y-107897704D02*
X132436400Y-107850085D01*
X132436400Y-107850085D02*
X132484019Y-107754847D01*
X132484019Y-107754847D02*
X132484019Y-107564371D01*
X132484019Y-107564371D02*
X132436400Y-107469133D01*
X132436400Y-107469133D02*
X132388780Y-107421514D01*
X132388780Y-107421514D02*
X132293542Y-107373895D01*
X132293542Y-107373895D02*
X132103066Y-107373895D01*
X132103066Y-107373895D02*
X132007828Y-107421514D01*
X132007828Y-107421514D02*
X131960209Y-107469133D01*
X131960209Y-107469133D02*
X131912590Y-107564371D01*
X132404761Y-143954819D02*
X132071428Y-143478628D01*
X131833333Y-143954819D02*
X131833333Y-142954819D01*
X131833333Y-142954819D02*
X132214285Y-142954819D01*
X132214285Y-142954819D02*
X132309523Y-143002438D01*
X132309523Y-143002438D02*
X132357142Y-143050057D01*
X132357142Y-143050057D02*
X132404761Y-143145295D01*
X132404761Y-143145295D02*
X132404761Y-143288152D01*
X132404761Y-143288152D02*
X132357142Y-143383390D01*
X132357142Y-143383390D02*
X132309523Y-143431009D01*
X132309523Y-143431009D02*
X132214285Y-143478628D01*
X132214285Y-143478628D02*
X131833333Y-143478628D01*
X132690476Y-142954819D02*
X133023809Y-143954819D01*
X133023809Y-143954819D02*
X133357142Y-142954819D01*
X134214285Y-143954819D02*
X133642857Y-143954819D01*
X133928571Y-143954819D02*
X133928571Y-142954819D01*
X133928571Y-142954819D02*
X133833333Y-143097676D01*
X133833333Y-143097676D02*
X133738095Y-143192914D01*
X133738095Y-143192914D02*
X133642857Y-143240533D01*
X109359580Y-139666666D02*
X109407200Y-139714285D01*
X109407200Y-139714285D02*
X109454819Y-139857142D01*
X109454819Y-139857142D02*
X109454819Y-139952380D01*
X109454819Y-139952380D02*
X109407200Y-140095237D01*
X109407200Y-140095237D02*
X109311961Y-140190475D01*
X109311961Y-140190475D02*
X109216723Y-140238094D01*
X109216723Y-140238094D02*
X109026247Y-140285713D01*
X109026247Y-140285713D02*
X108883390Y-140285713D01*
X108883390Y-140285713D02*
X108692914Y-140238094D01*
X108692914Y-140238094D02*
X108597676Y-140190475D01*
X108597676Y-140190475D02*
X108502438Y-140095237D01*
X108502438Y-140095237D02*
X108454819Y-139952380D01*
X108454819Y-139952380D02*
X108454819Y-139857142D01*
X108454819Y-139857142D02*
X108502438Y-139714285D01*
X108502438Y-139714285D02*
X108550057Y-139666666D01*
X108454819Y-139333332D02*
X108454819Y-138714285D01*
X108454819Y-138714285D02*
X108835771Y-139047618D01*
X108835771Y-139047618D02*
X108835771Y-138904761D01*
X108835771Y-138904761D02*
X108883390Y-138809523D01*
X108883390Y-138809523D02*
X108931009Y-138761904D01*
X108931009Y-138761904D02*
X109026247Y-138714285D01*
X109026247Y-138714285D02*
X109264342Y-138714285D01*
X109264342Y-138714285D02*
X109359580Y-138761904D01*
X109359580Y-138761904D02*
X109407200Y-138809523D01*
X109407200Y-138809523D02*
X109454819Y-138904761D01*
X109454819Y-138904761D02*
X109454819Y-139190475D01*
X109454819Y-139190475D02*
X109407200Y-139285713D01*
X109407200Y-139285713D02*
X109359580Y-139333332D01*
X127505619Y-109227857D02*
X127029428Y-109561190D01*
X127505619Y-109799285D02*
X126505619Y-109799285D01*
X126505619Y-109799285D02*
X126505619Y-109418333D01*
X126505619Y-109418333D02*
X126553238Y-109323095D01*
X126553238Y-109323095D02*
X126600857Y-109275476D01*
X126600857Y-109275476D02*
X126696095Y-109227857D01*
X126696095Y-109227857D02*
X126838952Y-109227857D01*
X126838952Y-109227857D02*
X126934190Y-109275476D01*
X126934190Y-109275476D02*
X126981809Y-109323095D01*
X126981809Y-109323095D02*
X127029428Y-109418333D01*
X127029428Y-109418333D02*
X127029428Y-109799285D01*
X127505619Y-108275476D02*
X127505619Y-108846904D01*
X127505619Y-108561190D02*
X126505619Y-108561190D01*
X126505619Y-108561190D02*
X126648476Y-108656428D01*
X126648476Y-108656428D02*
X126743714Y-108751666D01*
X126743714Y-108751666D02*
X126791333Y-108846904D01*
X126505619Y-107942142D02*
X126505619Y-107275476D01*
X126505619Y-107275476D02*
X127505619Y-107704047D01*
X163300833Y-121109580D02*
X163253214Y-121157200D01*
X163253214Y-121157200D02*
X163110357Y-121204819D01*
X163110357Y-121204819D02*
X163015119Y-121204819D01*
X163015119Y-121204819D02*
X162872262Y-121157200D01*
X162872262Y-121157200D02*
X162777024Y-121061961D01*
X162777024Y-121061961D02*
X162729405Y-120966723D01*
X162729405Y-120966723D02*
X162681786Y-120776247D01*
X162681786Y-120776247D02*
X162681786Y-120633390D01*
X162681786Y-120633390D02*
X162729405Y-120442914D01*
X162729405Y-120442914D02*
X162777024Y-120347676D01*
X162777024Y-120347676D02*
X162872262Y-120252438D01*
X162872262Y-120252438D02*
X163015119Y-120204819D01*
X163015119Y-120204819D02*
X163110357Y-120204819D01*
X163110357Y-120204819D02*
X163253214Y-120252438D01*
X163253214Y-120252438D02*
X163300833Y-120300057D01*
X163681786Y-120300057D02*
X163729405Y-120252438D01*
X163729405Y-120252438D02*
X163824643Y-120204819D01*
X163824643Y-120204819D02*
X164062738Y-120204819D01*
X164062738Y-120204819D02*
X164157976Y-120252438D01*
X164157976Y-120252438D02*
X164205595Y-120300057D01*
X164205595Y-120300057D02*
X164253214Y-120395295D01*
X164253214Y-120395295D02*
X164253214Y-120490533D01*
X164253214Y-120490533D02*
X164205595Y-120633390D01*
X164205595Y-120633390D02*
X163634167Y-121204819D01*
X163634167Y-121204819D02*
X164253214Y-121204819D01*
X115954819Y-120666666D02*
X115478628Y-120999999D01*
X115954819Y-121238094D02*
X114954819Y-121238094D01*
X114954819Y-121238094D02*
X114954819Y-120857142D01*
X114954819Y-120857142D02*
X115002438Y-120761904D01*
X115002438Y-120761904D02*
X115050057Y-120714285D01*
X115050057Y-120714285D02*
X115145295Y-120666666D01*
X115145295Y-120666666D02*
X115288152Y-120666666D01*
X115288152Y-120666666D02*
X115383390Y-120714285D01*
X115383390Y-120714285D02*
X115431009Y-120761904D01*
X115431009Y-120761904D02*
X115478628Y-120857142D01*
X115478628Y-120857142D02*
X115478628Y-121238094D01*
X115050057Y-120285713D02*
X115002438Y-120238094D01*
X115002438Y-120238094D02*
X114954819Y-120142856D01*
X114954819Y-120142856D02*
X114954819Y-119904761D01*
X114954819Y-119904761D02*
X115002438Y-119809523D01*
X115002438Y-119809523D02*
X115050057Y-119761904D01*
X115050057Y-119761904D02*
X115145295Y-119714285D01*
X115145295Y-119714285D02*
X115240533Y-119714285D01*
X115240533Y-119714285D02*
X115383390Y-119761904D01*
X115383390Y-119761904D02*
X115954819Y-120333332D01*
X115954819Y-120333332D02*
X115954819Y-119714285D01*
X114833333Y-108804819D02*
X114500000Y-108328628D01*
X114261905Y-108804819D02*
X114261905Y-107804819D01*
X114261905Y-107804819D02*
X114642857Y-107804819D01*
X114642857Y-107804819D02*
X114738095Y-107852438D01*
X114738095Y-107852438D02*
X114785714Y-107900057D01*
X114785714Y-107900057D02*
X114833333Y-107995295D01*
X114833333Y-107995295D02*
X114833333Y-108138152D01*
X114833333Y-108138152D02*
X114785714Y-108233390D01*
X114785714Y-108233390D02*
X114738095Y-108281009D01*
X114738095Y-108281009D02*
X114642857Y-108328628D01*
X114642857Y-108328628D02*
X114261905Y-108328628D01*
X115166667Y-107804819D02*
X115833333Y-107804819D01*
X115833333Y-107804819D02*
X115404762Y-108804819D01*
X109359580Y-145666666D02*
X109407200Y-145714285D01*
X109407200Y-145714285D02*
X109454819Y-145857142D01*
X109454819Y-145857142D02*
X109454819Y-145952380D01*
X109454819Y-145952380D02*
X109407200Y-146095237D01*
X109407200Y-146095237D02*
X109311961Y-146190475D01*
X109311961Y-146190475D02*
X109216723Y-146238094D01*
X109216723Y-146238094D02*
X109026247Y-146285713D01*
X109026247Y-146285713D02*
X108883390Y-146285713D01*
X108883390Y-146285713D02*
X108692914Y-146238094D01*
X108692914Y-146238094D02*
X108597676Y-146190475D01*
X108597676Y-146190475D02*
X108502438Y-146095237D01*
X108502438Y-146095237D02*
X108454819Y-145952380D01*
X108454819Y-145952380D02*
X108454819Y-145857142D01*
X108454819Y-145857142D02*
X108502438Y-145714285D01*
X108502438Y-145714285D02*
X108550057Y-145666666D01*
X108788152Y-144809523D02*
X109454819Y-144809523D01*
X108407200Y-145047618D02*
X109121485Y-145285713D01*
X109121485Y-145285713D02*
X109121485Y-144666666D01*
X137462419Y-109278657D02*
X136986228Y-109611990D01*
X137462419Y-109850085D02*
X136462419Y-109850085D01*
X136462419Y-109850085D02*
X136462419Y-109469133D01*
X136462419Y-109469133D02*
X136510038Y-109373895D01*
X136510038Y-109373895D02*
X136557657Y-109326276D01*
X136557657Y-109326276D02*
X136652895Y-109278657D01*
X136652895Y-109278657D02*
X136795752Y-109278657D01*
X136795752Y-109278657D02*
X136890990Y-109326276D01*
X136890990Y-109326276D02*
X136938609Y-109373895D01*
X136938609Y-109373895D02*
X136986228Y-109469133D01*
X136986228Y-109469133D02*
X136986228Y-109850085D01*
X137462419Y-108326276D02*
X137462419Y-108897704D01*
X137462419Y-108611990D02*
X136462419Y-108611990D01*
X136462419Y-108611990D02*
X136605276Y-108707228D01*
X136605276Y-108707228D02*
X136700514Y-108802466D01*
X136700514Y-108802466D02*
X136748133Y-108897704D01*
X137462419Y-107850085D02*
X137462419Y-107659609D01*
X137462419Y-107659609D02*
X137414800Y-107564371D01*
X137414800Y-107564371D02*
X137367180Y-107516752D01*
X137367180Y-107516752D02*
X137224323Y-107421514D01*
X137224323Y-107421514D02*
X137033847Y-107373895D01*
X137033847Y-107373895D02*
X136652895Y-107373895D01*
X136652895Y-107373895D02*
X136557657Y-107421514D01*
X136557657Y-107421514D02*
X136510038Y-107469133D01*
X136510038Y-107469133D02*
X136462419Y-107564371D01*
X136462419Y-107564371D02*
X136462419Y-107754847D01*
X136462419Y-107754847D02*
X136510038Y-107850085D01*
X136510038Y-107850085D02*
X136557657Y-107897704D01*
X136557657Y-107897704D02*
X136652895Y-107945323D01*
X136652895Y-107945323D02*
X136890990Y-107945323D01*
X136890990Y-107945323D02*
X136986228Y-107897704D01*
X136986228Y-107897704D02*
X137033847Y-107850085D01*
X137033847Y-107850085D02*
X137081466Y-107754847D01*
X137081466Y-107754847D02*
X137081466Y-107564371D01*
X137081466Y-107564371D02*
X137033847Y-107469133D01*
X137033847Y-107469133D02*
X136986228Y-107421514D01*
X136986228Y-107421514D02*
X136890990Y-107373895D01*
X114454819Y-114642857D02*
X113978628Y-114976190D01*
X114454819Y-115214285D02*
X113454819Y-115214285D01*
X113454819Y-115214285D02*
X113454819Y-114833333D01*
X113454819Y-114833333D02*
X113502438Y-114738095D01*
X113502438Y-114738095D02*
X113550057Y-114690476D01*
X113550057Y-114690476D02*
X113645295Y-114642857D01*
X113645295Y-114642857D02*
X113788152Y-114642857D01*
X113788152Y-114642857D02*
X113883390Y-114690476D01*
X113883390Y-114690476D02*
X113931009Y-114738095D01*
X113931009Y-114738095D02*
X113978628Y-114833333D01*
X113978628Y-114833333D02*
X113978628Y-115214285D01*
X114454819Y-113690476D02*
X114454819Y-114261904D01*
X114454819Y-113976190D02*
X113454819Y-113976190D01*
X113454819Y-113976190D02*
X113597676Y-114071428D01*
X113597676Y-114071428D02*
X113692914Y-114166666D01*
X113692914Y-114166666D02*
X113740533Y-114261904D01*
X113454819Y-112785714D02*
X113454819Y-113261904D01*
X113454819Y-113261904D02*
X113931009Y-113309523D01*
X113931009Y-113309523D02*
X113883390Y-113261904D01*
X113883390Y-113261904D02*
X113835771Y-113166666D01*
X113835771Y-113166666D02*
X113835771Y-112928571D01*
X113835771Y-112928571D02*
X113883390Y-112833333D01*
X113883390Y-112833333D02*
X113931009Y-112785714D01*
X113931009Y-112785714D02*
X114026247Y-112738095D01*
X114026247Y-112738095D02*
X114264342Y-112738095D01*
X114264342Y-112738095D02*
X114359580Y-112785714D01*
X114359580Y-112785714D02*
X114407200Y-112833333D01*
X114407200Y-112833333D02*
X114454819Y-112928571D01*
X114454819Y-112928571D02*
X114454819Y-113166666D01*
X114454819Y-113166666D02*
X114407200Y-113261904D01*
X114407200Y-113261904D02*
X114359580Y-113309523D01*
X112454819Y-120666666D02*
X111978628Y-120999999D01*
X112454819Y-121238094D02*
X111454819Y-121238094D01*
X111454819Y-121238094D02*
X111454819Y-120857142D01*
X111454819Y-120857142D02*
X111502438Y-120761904D01*
X111502438Y-120761904D02*
X111550057Y-120714285D01*
X111550057Y-120714285D02*
X111645295Y-120666666D01*
X111645295Y-120666666D02*
X111788152Y-120666666D01*
X111788152Y-120666666D02*
X111883390Y-120714285D01*
X111883390Y-120714285D02*
X111931009Y-120761904D01*
X111931009Y-120761904D02*
X111978628Y-120857142D01*
X111978628Y-120857142D02*
X111978628Y-121238094D01*
X112454819Y-119714285D02*
X112454819Y-120285713D01*
X112454819Y-119999999D02*
X111454819Y-119999999D01*
X111454819Y-119999999D02*
X111597676Y-120095237D01*
X111597676Y-120095237D02*
X111692914Y-120190475D01*
X111692914Y-120190475D02*
X111740533Y-120285713D01*
X163300833Y-123109580D02*
X163253214Y-123157200D01*
X163253214Y-123157200D02*
X163110357Y-123204819D01*
X163110357Y-123204819D02*
X163015119Y-123204819D01*
X163015119Y-123204819D02*
X162872262Y-123157200D01*
X162872262Y-123157200D02*
X162777024Y-123061961D01*
X162777024Y-123061961D02*
X162729405Y-122966723D01*
X162729405Y-122966723D02*
X162681786Y-122776247D01*
X162681786Y-122776247D02*
X162681786Y-122633390D01*
X162681786Y-122633390D02*
X162729405Y-122442914D01*
X162729405Y-122442914D02*
X162777024Y-122347676D01*
X162777024Y-122347676D02*
X162872262Y-122252438D01*
X162872262Y-122252438D02*
X163015119Y-122204819D01*
X163015119Y-122204819D02*
X163110357Y-122204819D01*
X163110357Y-122204819D02*
X163253214Y-122252438D01*
X163253214Y-122252438D02*
X163300833Y-122300057D01*
X164253214Y-123204819D02*
X163681786Y-123204819D01*
X163967500Y-123204819D02*
X163967500Y-122204819D01*
X163967500Y-122204819D02*
X163872262Y-122347676D01*
X163872262Y-122347676D02*
X163777024Y-122442914D01*
X163777024Y-122442914D02*
X163681786Y-122490533D01*
X116859580Y-114666666D02*
X116907200Y-114714285D01*
X116907200Y-114714285D02*
X116954819Y-114857142D01*
X116954819Y-114857142D02*
X116954819Y-114952380D01*
X116954819Y-114952380D02*
X116907200Y-115095237D01*
X116907200Y-115095237D02*
X116811961Y-115190475D01*
X116811961Y-115190475D02*
X116716723Y-115238094D01*
X116716723Y-115238094D02*
X116526247Y-115285713D01*
X116526247Y-115285713D02*
X116383390Y-115285713D01*
X116383390Y-115285713D02*
X116192914Y-115238094D01*
X116192914Y-115238094D02*
X116097676Y-115190475D01*
X116097676Y-115190475D02*
X116002438Y-115095237D01*
X116002438Y-115095237D02*
X115954819Y-114952380D01*
X115954819Y-114952380D02*
X115954819Y-114857142D01*
X115954819Y-114857142D02*
X116002438Y-114714285D01*
X116002438Y-114714285D02*
X116050057Y-114666666D01*
X115954819Y-113761904D02*
X115954819Y-114238094D01*
X115954819Y-114238094D02*
X116431009Y-114285713D01*
X116431009Y-114285713D02*
X116383390Y-114238094D01*
X116383390Y-114238094D02*
X116335771Y-114142856D01*
X116335771Y-114142856D02*
X116335771Y-113904761D01*
X116335771Y-113904761D02*
X116383390Y-113809523D01*
X116383390Y-113809523D02*
X116431009Y-113761904D01*
X116431009Y-113761904D02*
X116526247Y-113714285D01*
X116526247Y-113714285D02*
X116764342Y-113714285D01*
X116764342Y-113714285D02*
X116859580Y-113761904D01*
X116859580Y-113761904D02*
X116907200Y-113809523D01*
X116907200Y-113809523D02*
X116954819Y-113904761D01*
X116954819Y-113904761D02*
X116954819Y-114142856D01*
X116954819Y-114142856D02*
X116907200Y-114238094D01*
X116907200Y-114238094D02*
X116859580Y-114285713D01*
X124333333Y-143454819D02*
X124000000Y-142978628D01*
X123761905Y-143454819D02*
X123761905Y-142454819D01*
X123761905Y-142454819D02*
X124142857Y-142454819D01*
X124142857Y-142454819D02*
X124238095Y-142502438D01*
X124238095Y-142502438D02*
X124285714Y-142550057D01*
X124285714Y-142550057D02*
X124333333Y-142645295D01*
X124333333Y-142645295D02*
X124333333Y-142788152D01*
X124333333Y-142788152D02*
X124285714Y-142883390D01*
X124285714Y-142883390D02*
X124238095Y-142931009D01*
X124238095Y-142931009D02*
X124142857Y-142978628D01*
X124142857Y-142978628D02*
X123761905Y-142978628D01*
X125190476Y-142454819D02*
X125000000Y-142454819D01*
X125000000Y-142454819D02*
X124904762Y-142502438D01*
X124904762Y-142502438D02*
X124857143Y-142550057D01*
X124857143Y-142550057D02*
X124761905Y-142692914D01*
X124761905Y-142692914D02*
X124714286Y-142883390D01*
X124714286Y-142883390D02*
X124714286Y-143264342D01*
X124714286Y-143264342D02*
X124761905Y-143359580D01*
X124761905Y-143359580D02*
X124809524Y-143407200D01*
X124809524Y-143407200D02*
X124904762Y-143454819D01*
X124904762Y-143454819D02*
X125095238Y-143454819D01*
X125095238Y-143454819D02*
X125190476Y-143407200D01*
X125190476Y-143407200D02*
X125238095Y-143359580D01*
X125238095Y-143359580D02*
X125285714Y-143264342D01*
X125285714Y-143264342D02*
X125285714Y-143026247D01*
X125285714Y-143026247D02*
X125238095Y-142931009D01*
X125238095Y-142931009D02*
X125190476Y-142883390D01*
X125190476Y-142883390D02*
X125095238Y-142835771D01*
X125095238Y-142835771D02*
X124904762Y-142835771D01*
X124904762Y-142835771D02*
X124809524Y-142883390D01*
X124809524Y-142883390D02*
X124761905Y-142931009D01*
X124761905Y-142931009D02*
X124714286Y-143026247D01*
X124333333Y-145954819D02*
X124000000Y-145478628D01*
X123761905Y-145954819D02*
X123761905Y-144954819D01*
X123761905Y-144954819D02*
X124142857Y-144954819D01*
X124142857Y-144954819D02*
X124238095Y-145002438D01*
X124238095Y-145002438D02*
X124285714Y-145050057D01*
X124285714Y-145050057D02*
X124333333Y-145145295D01*
X124333333Y-145145295D02*
X124333333Y-145288152D01*
X124333333Y-145288152D02*
X124285714Y-145383390D01*
X124285714Y-145383390D02*
X124238095Y-145431009D01*
X124238095Y-145431009D02*
X124142857Y-145478628D01*
X124142857Y-145478628D02*
X123761905Y-145478628D01*
X125190476Y-145288152D02*
X125190476Y-145954819D01*
X124952381Y-144907200D02*
X124714286Y-145621485D01*
X124714286Y-145621485D02*
X125333333Y-145621485D01*
X118859580Y-114666666D02*
X118907200Y-114714285D01*
X118907200Y-114714285D02*
X118954819Y-114857142D01*
X118954819Y-114857142D02*
X118954819Y-114952380D01*
X118954819Y-114952380D02*
X118907200Y-115095237D01*
X118907200Y-115095237D02*
X118811961Y-115190475D01*
X118811961Y-115190475D02*
X118716723Y-115238094D01*
X118716723Y-115238094D02*
X118526247Y-115285713D01*
X118526247Y-115285713D02*
X118383390Y-115285713D01*
X118383390Y-115285713D02*
X118192914Y-115238094D01*
X118192914Y-115238094D02*
X118097676Y-115190475D01*
X118097676Y-115190475D02*
X118002438Y-115095237D01*
X118002438Y-115095237D02*
X117954819Y-114952380D01*
X117954819Y-114952380D02*
X117954819Y-114857142D01*
X117954819Y-114857142D02*
X118002438Y-114714285D01*
X118002438Y-114714285D02*
X118050057Y-114666666D01*
X117954819Y-113809523D02*
X117954819Y-113999999D01*
X117954819Y-113999999D02*
X118002438Y-114095237D01*
X118002438Y-114095237D02*
X118050057Y-114142856D01*
X118050057Y-114142856D02*
X118192914Y-114238094D01*
X118192914Y-114238094D02*
X118383390Y-114285713D01*
X118383390Y-114285713D02*
X118764342Y-114285713D01*
X118764342Y-114285713D02*
X118859580Y-114238094D01*
X118859580Y-114238094D02*
X118907200Y-114190475D01*
X118907200Y-114190475D02*
X118954819Y-114095237D01*
X118954819Y-114095237D02*
X118954819Y-113904761D01*
X118954819Y-113904761D02*
X118907200Y-113809523D01*
X118907200Y-113809523D02*
X118859580Y-113761904D01*
X118859580Y-113761904D02*
X118764342Y-113714285D01*
X118764342Y-113714285D02*
X118526247Y-113714285D01*
X118526247Y-113714285D02*
X118431009Y-113761904D01*
X118431009Y-113761904D02*
X118383390Y-113809523D01*
X118383390Y-113809523D02*
X118335771Y-113904761D01*
X118335771Y-113904761D02*
X118335771Y-114095237D01*
X118335771Y-114095237D02*
X118383390Y-114190475D01*
X118383390Y-114190475D02*
X118431009Y-114238094D01*
X118431009Y-114238094D02*
X118526247Y-114285713D01*
X129994819Y-109278657D02*
X129518628Y-109611990D01*
X129994819Y-109850085D02*
X128994819Y-109850085D01*
X128994819Y-109850085D02*
X128994819Y-109469133D01*
X128994819Y-109469133D02*
X129042438Y-109373895D01*
X129042438Y-109373895D02*
X129090057Y-109326276D01*
X129090057Y-109326276D02*
X129185295Y-109278657D01*
X129185295Y-109278657D02*
X129328152Y-109278657D01*
X129328152Y-109278657D02*
X129423390Y-109326276D01*
X129423390Y-109326276D02*
X129471009Y-109373895D01*
X129471009Y-109373895D02*
X129518628Y-109469133D01*
X129518628Y-109469133D02*
X129518628Y-109850085D01*
X129090057Y-108897704D02*
X129042438Y-108850085D01*
X129042438Y-108850085D02*
X128994819Y-108754847D01*
X128994819Y-108754847D02*
X128994819Y-108516752D01*
X128994819Y-108516752D02*
X129042438Y-108421514D01*
X129042438Y-108421514D02*
X129090057Y-108373895D01*
X129090057Y-108373895D02*
X129185295Y-108326276D01*
X129185295Y-108326276D02*
X129280533Y-108326276D01*
X129280533Y-108326276D02*
X129423390Y-108373895D01*
X129423390Y-108373895D02*
X129994819Y-108945323D01*
X129994819Y-108945323D02*
X129994819Y-108326276D01*
X128994819Y-107707228D02*
X128994819Y-107611990D01*
X128994819Y-107611990D02*
X129042438Y-107516752D01*
X129042438Y-107516752D02*
X129090057Y-107469133D01*
X129090057Y-107469133D02*
X129185295Y-107421514D01*
X129185295Y-107421514D02*
X129375771Y-107373895D01*
X129375771Y-107373895D02*
X129613866Y-107373895D01*
X129613866Y-107373895D02*
X129804342Y-107421514D01*
X129804342Y-107421514D02*
X129899580Y-107469133D01*
X129899580Y-107469133D02*
X129947200Y-107516752D01*
X129947200Y-107516752D02*
X129994819Y-107611990D01*
X129994819Y-107611990D02*
X129994819Y-107707228D01*
X129994819Y-107707228D02*
X129947200Y-107802466D01*
X129947200Y-107802466D02*
X129899580Y-107850085D01*
X129899580Y-107850085D02*
X129804342Y-107897704D01*
X129804342Y-107897704D02*
X129613866Y-107945323D01*
X129613866Y-107945323D02*
X129375771Y-107945323D01*
X129375771Y-107945323D02*
X129185295Y-107897704D01*
X129185295Y-107897704D02*
X129090057Y-107850085D01*
X129090057Y-107850085D02*
X129042438Y-107802466D01*
X129042438Y-107802466D02*
X128994819Y-107707228D01*
D13*
X121727064Y-137265000D02*
X121272936Y-137265000D01*
X121727064Y-138735000D02*
X121272936Y-138735000D01*
X142920000Y-155370000D02*
X142920000Y-156010000D01*
X142920000Y-156010000D02*
X143320000Y-156010000D01*
X143160000Y-149030000D02*
X143160000Y-155770000D01*
X143160000Y-149030000D02*
X154021000Y-149030000D01*
X143160000Y-150150000D02*
X154021000Y-150150000D01*
X143160000Y-155250000D02*
X154021000Y-155250000D01*
X143160000Y-155770000D02*
X154021000Y-155770000D01*
X154021000Y-149030000D02*
X154021000Y-155770000D01*
X132276263Y-151145000D02*
X133723737Y-151145000D01*
X132276263Y-153855000D02*
X133723737Y-153855000D01*
X124000000Y-110454000D02*
X122200000Y-110454000D01*
X124000000Y-110454000D02*
X124800000Y-110454000D01*
X124000000Y-113574000D02*
X123200000Y-113574000D01*
X124000000Y-113574000D02*
X124800000Y-113574000D01*
X133783400Y-111786936D02*
X133783400Y-112241064D01*
X135253400Y-111786936D02*
X135253400Y-112241064D01*
X104500000Y-139000000D02*
G75*
G02*
X101500000Y-139000000I-1500000J0D01*
G01*
X101500000Y-139000000D02*
G75*
G02*
X104500000Y-139000000I1500000J0D01*
G01*
X104500000Y-134000000D02*
G75*
G02*
X101500000Y-134000000I-1500000J0D01*
G01*
X101500000Y-134000000D02*
G75*
G02*
X104500000Y-134000000I1500000J0D01*
G01*
X118765000Y-148727064D02*
X118765000Y-148272936D01*
X120235000Y-148727064D02*
X120235000Y-148272936D01*
X131294200Y-111786936D02*
X131294200Y-112241064D01*
X132764200Y-111786936D02*
X132764200Y-112241064D01*
X127980000Y-136830000D02*
X127980000Y-140767000D01*
X127980000Y-145134000D02*
X127980000Y-149070000D01*
X129630000Y-136830000D02*
X127980000Y-136830000D01*
X132129000Y-136830000D02*
X131370000Y-136830000D01*
X134250000Y-136830000D02*
X133870000Y-136830000D01*
X138021000Y-136830000D02*
X136700000Y-136830000D01*
X138021000Y-136830000D02*
X138021000Y-140767000D01*
X138021000Y-145134000D02*
X138021000Y-149070000D01*
X138021000Y-149070000D02*
X127980000Y-149070000D01*
X108265000Y-142238748D02*
X108265000Y-142761252D01*
X109735000Y-142238748D02*
X109735000Y-142761252D01*
X143265000Y-110227064D02*
X143265000Y-109772936D01*
X144735000Y-110227064D02*
X144735000Y-109772936D01*
X126315800Y-111786936D02*
X126315800Y-112241064D01*
X127785800Y-111786936D02*
X127785800Y-112241064D01*
X160321233Y-120240000D02*
X160613767Y-120240000D01*
X160321233Y-121260000D02*
X160613767Y-121260000D01*
X114765000Y-123727064D02*
X114765000Y-123272936D01*
X116235000Y-123727064D02*
X116235000Y-123272936D01*
X155765000Y-110227064D02*
X155765000Y-109772936D01*
X157235000Y-110227064D02*
X157235000Y-109772936D01*
X153212500Y-135800000D02*
X153212500Y-138700000D01*
X155117500Y-133895000D02*
X158017500Y-133895000D01*
X155117500Y-140605000D02*
X158017500Y-140605000D01*
X159922500Y-135800000D02*
X159922500Y-138700000D01*
X150765000Y-110227064D02*
X150765000Y-109772936D01*
X152235000Y-110227064D02*
X152235000Y-109772936D01*
X145765000Y-110227064D02*
X145765000Y-109772936D01*
X147235000Y-110227064D02*
X147235000Y-109772936D01*
X114772936Y-109265000D02*
X115227064Y-109265000D01*
X114772936Y-110735000D02*
X115227064Y-110735000D01*
X108265000Y-148761252D02*
X108265000Y-148238748D01*
X109735000Y-148761252D02*
X109735000Y-148238748D01*
X136272600Y-111786936D02*
X136272600Y-112241064D01*
X137742600Y-111786936D02*
X137742600Y-112241064D01*
X107070000Y-100920000D02*
X107070000Y-103520000D01*
X107070000Y-100920000D02*
X157990000Y-100920000D01*
X107070000Y-103520000D02*
X109670000Y-103520000D01*
X107070000Y-104790000D02*
X107070000Y-106120000D01*
X107070000Y-106120000D02*
X108400000Y-106120000D01*
X109670000Y-103520000D02*
X109670000Y-106120000D01*
X109670000Y-106120000D02*
X157990000Y-106120000D01*
X157990000Y-100920000D02*
X157990000Y-106120000D01*
X110830000Y-143730000D02*
X111100000Y-143730000D01*
X110830000Y-150150000D02*
X110830000Y-143730000D01*
X111100000Y-143730000D02*
X111100000Y-142630000D01*
X117460000Y-143730000D02*
X117460000Y-140900000D01*
X117730000Y-143730000D02*
X117460000Y-143730000D01*
X117730000Y-150150000D02*
X117730000Y-143730000D01*
X153265000Y-110227064D02*
X153265000Y-109772936D01*
X154735000Y-110227064D02*
X154735000Y-109772936D01*
D14*
X121267500Y-114750000D02*
X156667500Y-114750000D01*
X121267500Y-132750000D02*
X121267500Y-114750000D01*
X121267500Y-132750000D02*
X156667500Y-132750000D01*
X156667500Y-132750000D02*
X156667500Y-114750000D01*
D13*
X164000000Y-127000000D02*
G75*
G02*
X161000000Y-127000000I-1500000J0D01*
G01*
X161000000Y-127000000D02*
G75*
G02*
X164000000Y-127000000I1500000J0D01*
G01*
X94200000Y-107700000D02*
X108900000Y-107700000D01*
X94200000Y-116900000D02*
X94200000Y-107700000D01*
X103000000Y-116900000D02*
X94200000Y-116900000D01*
X108050000Y-107500000D02*
X109100000Y-107500000D01*
X108900000Y-107700000D02*
X108900000Y-110300000D01*
X108900000Y-114200000D02*
X108900000Y-116900000D01*
X108900000Y-116900000D02*
X107000000Y-116900000D01*
X109100000Y-108550000D02*
X109100000Y-107500000D01*
X113265000Y-117727064D02*
X113265000Y-117272936D01*
X114735000Y-117727064D02*
X114735000Y-117272936D01*
X119640000Y-139540000D02*
X119640000Y-141460000D01*
X119640000Y-141460000D02*
X122500000Y-141460000D01*
X122500000Y-139540000D02*
X119640000Y-139540000D01*
X111265000Y-123727064D02*
X111265000Y-123272936D01*
X112735000Y-123727064D02*
X112735000Y-123272936D01*
X160321233Y-122240000D02*
X160613767Y-122240000D01*
X160321233Y-123260000D02*
X160613767Y-123260000D01*
X115990000Y-117353733D02*
X115990000Y-117646267D01*
X117010000Y-117353733D02*
X117010000Y-117646267D01*
X121272936Y-142265000D02*
X121727064Y-142265000D01*
X121272936Y-143735000D02*
X121727064Y-143735000D01*
X121272936Y-144765000D02*
X121727064Y-144765000D01*
X121272936Y-146235000D02*
X121727064Y-146235000D01*
X117990000Y-117353733D02*
X117990000Y-117646267D01*
X119010000Y-117353733D02*
X119010000Y-117646267D01*
X148265000Y-110227064D02*
X148265000Y-109772936D01*
X149735000Y-110227064D02*
X149735000Y-109772936D01*
X128805000Y-111786936D02*
X128805000Y-112241064D01*
X130275000Y-111786936D02*
X130275000Y-112241064D01*
X104500000Y-129000000D02*
G75*
G02*
X101500000Y-129000000I-1500000J0D01*
G01*
X101500000Y-129000000D02*
G75*
G02*
X104500000Y-129000000I1500000J0D01*
G01*
D15*
G36*
X147344498Y-134753657D02*
G01*
X147445478Y-134761715D01*
X147532761Y-134774981D01*
X147565485Y-134782624D01*
X147736420Y-134841218D01*
X147892374Y-134919786D01*
X148032539Y-135016397D01*
X148156106Y-135129119D01*
X148262266Y-135256019D01*
X148350212Y-135395166D01*
X148419134Y-135544628D01*
X148468225Y-135702471D01*
X148496674Y-135866766D01*
X148503674Y-136035578D01*
X148488417Y-136206976D01*
X148450093Y-136379029D01*
X148387894Y-136549803D01*
X148343560Y-136641828D01*
X148312759Y-136694761D01*
X148280482Y-136740989D01*
X148252214Y-136772822D01*
X148247040Y-136777158D01*
X148196280Y-136803730D01*
X148138690Y-136815255D01*
X148084296Y-136810478D01*
X148059676Y-136800619D01*
X148031543Y-136775993D01*
X148006251Y-136740204D01*
X148002729Y-136733299D01*
X147988922Y-136679225D01*
X147998629Y-136622443D01*
X148032402Y-136560666D01*
X148049906Y-136537569D01*
X148087713Y-136481946D01*
X148126677Y-136409901D01*
X148162464Y-136330519D01*
X148190740Y-136252887D01*
X148198568Y-136225911D01*
X148211497Y-136154651D01*
X148218403Y-136067163D01*
X148219270Y-135972606D01*
X148214084Y-135880143D01*
X148202830Y-135798934D01*
X148199276Y-135782357D01*
X148183671Y-135729514D01*
X148159688Y-135664340D01*
X148131377Y-135597447D01*
X148117077Y-135567103D01*
X148087751Y-135510302D01*
X148059449Y-135463784D01*
X148026961Y-135420590D01*
X147985077Y-135373759D01*
X147931507Y-135319234D01*
X147813511Y-135214880D01*
X147693060Y-135135205D01*
X147566871Y-135078812D01*
X147431661Y-135044301D01*
X147284147Y-135030274D01*
X147252197Y-135029801D01*
X147109958Y-135037786D01*
X146981778Y-135063801D01*
X146861135Y-135109844D01*
X146741505Y-135177913D01*
X146719019Y-135193042D01*
X146647614Y-135233350D01*
X146585834Y-135249413D01*
X146533663Y-135241231D01*
X146491088Y-135208806D01*
X146486367Y-135202953D01*
X146469557Y-135160978D01*
X146472584Y-135109804D01*
X146493461Y-135054531D01*
X146530200Y-135000259D01*
X146580813Y-134952085D01*
X146585577Y-134948518D01*
X146652777Y-134905526D01*
X146735976Y-134861729D01*
X146825609Y-134821548D01*
X146912113Y-134789402D01*
X146960263Y-134775374D01*
X147037704Y-134761665D01*
X147132778Y-134753538D01*
X147237654Y-134750900D01*
X147344498Y-134753657D01*
G37*
G36*
X147374164Y-133919169D02*
G01*
X147479229Y-133924698D01*
X147570222Y-133933513D01*
X147617668Y-133940819D01*
X147811684Y-133988148D01*
X148008802Y-134057366D01*
X148202925Y-134145942D01*
X148387959Y-134251349D01*
X148427053Y-134276685D01*
X148518662Y-134344222D01*
X148617841Y-134429039D01*
X148719268Y-134525732D01*
X148817624Y-134628897D01*
X148907587Y-134733131D01*
X148983836Y-134833028D01*
X149004388Y-134863071D01*
X149122042Y-135060579D01*
X149216053Y-135263319D01*
X149288869Y-135476901D01*
X149314311Y-135573626D01*
X149322255Y-135609813D01*
X149328378Y-135647082D01*
X149332904Y-135689431D01*
X149336062Y-135740857D01*
X149338077Y-135805360D01*
X149339177Y-135886936D01*
X149339588Y-135989584D01*
X149339610Y-136019588D01*
X149339161Y-136140024D01*
X149337645Y-136237660D01*
X149334913Y-136315770D01*
X149330820Y-136377630D01*
X149325216Y-136426514D01*
X149319937Y-136456620D01*
X149270837Y-136641821D01*
X149201130Y-136828797D01*
X149114360Y-137009446D01*
X149014070Y-137175671D01*
X148990399Y-137209703D01*
X148948427Y-137266679D01*
X148915385Y-137306348D01*
X148886427Y-137333560D01*
X148856707Y-137353169D01*
X148837442Y-137362862D01*
X148764157Y-137387852D01*
X148701271Y-137389452D01*
X148665515Y-137377995D01*
X148640072Y-137356210D01*
X148621254Y-137326019D01*
X148612893Y-137285558D01*
X148620618Y-137239262D01*
X148645626Y-137183847D01*
X148689111Y-137116031D01*
X148706502Y-137092015D01*
X148768616Y-136999432D01*
X148831137Y-136890989D01*
X148889054Y-136776349D01*
X148937352Y-136665172D01*
X148959653Y-136604078D01*
X149017049Y-136392460D01*
X149049456Y-136180485D01*
X149057575Y-135969926D01*
X149042106Y-135762555D01*
X149003750Y-135560143D01*
X148943207Y-135364463D01*
X148861179Y-135177286D01*
X148758365Y-135000386D01*
X148635467Y-134835533D01*
X148493186Y-134684500D01*
X148332221Y-134549059D01*
X148153274Y-134430982D01*
X148085644Y-134393622D01*
X147896830Y-134308790D01*
X147699364Y-134247250D01*
X147495910Y-134208787D01*
X147289129Y-134193184D01*
X147081684Y-134200224D01*
X146876237Y-134229691D01*
X146675452Y-134281367D01*
X146481989Y-134355037D01*
X146298513Y-134450483D01*
X146148862Y-134551233D01*
X146076234Y-134600761D01*
X146015685Y-134629354D01*
X145964252Y-134637392D01*
X145918970Y-134625257D01*
X145876874Y-134593331D01*
X145870795Y-134587014D01*
X145847293Y-134545010D01*
X145848480Y-134496675D01*
X145873885Y-134442587D01*
X145923036Y-134383326D01*
X145995464Y-134319471D01*
X146090697Y-134251599D01*
X146195907Y-134187335D01*
X146385397Y-134091102D01*
X146585410Y-134014420D01*
X146800373Y-133955672D01*
X146870823Y-133940832D01*
X146946362Y-133929926D01*
X147041125Y-133922307D01*
X147148452Y-133917974D01*
X147261685Y-133916928D01*
X147374164Y-133919169D01*
G37*
G36*
X144206389Y-135464047D02*
G01*
X144329946Y-135588694D01*
X144465917Y-135725836D01*
X144610009Y-135871143D01*
X144757927Y-136020287D01*
X144905379Y-136168939D01*
X145048070Y-136312769D01*
X145181706Y-136447450D01*
X145301995Y-136568651D01*
X145320595Y-136587389D01*
X145418804Y-136686426D01*
X145511616Y-136780217D01*
X145597381Y-136867081D01*
X145674448Y-136945339D01*
X145741169Y-137013309D01*
X145795893Y-137069312D01*
X145836971Y-137111667D01*
X145862753Y-137138695D01*
X145871487Y-137148478D01*
X145881043Y-137145423D01*
X145904694Y-137127340D01*
X145942994Y-137093703D01*
X145996499Y-137043986D01*
X146065763Y-136977662D01*
X146151342Y-136894206D01*
X146253790Y-136793091D01*
X146373664Y-136673791D01*
X146397837Y-136649643D01*
X146913666Y-136134084D01*
X146892427Y-136071752D01*
X146878535Y-136004279D01*
X146877359Y-135960479D01*
X147161068Y-135960479D01*
X147172133Y-136014228D01*
X147201635Y-136055281D01*
X147244037Y-136081231D01*
X147293798Y-136089673D01*
X147345380Y-136078199D01*
X147380885Y-136055964D01*
X147417992Y-136010602D01*
X147429924Y-135958499D01*
X147417227Y-135901986D01*
X147386534Y-135855670D01*
X147345122Y-135828761D01*
X147298268Y-135820055D01*
X147251250Y-135828347D01*
X147209344Y-135852432D01*
X147177829Y-135891104D01*
X147161980Y-135943160D01*
X147161068Y-135960479D01*
X146877359Y-135960479D01*
X146876450Y-135926615D01*
X146885609Y-135849958D01*
X146905452Y-135785509D01*
X146906931Y-135782357D01*
X146940245Y-135730874D01*
X146989624Y-135675892D01*
X147047406Y-135624771D01*
X147105933Y-135584874D01*
X147120331Y-135577247D01*
X147156835Y-135561869D01*
X147194944Y-135552786D01*
X147243241Y-135548574D01*
X147298048Y-135547758D01*
X147381070Y-135552161D01*
X147447513Y-135567373D01*
X147505731Y-135596932D01*
X147564073Y-135644381D01*
X147592780Y-135672704D01*
X147655342Y-135753926D01*
X147694260Y-135842602D01*
X147709701Y-135935526D01*
X147701836Y-136029490D01*
X147670832Y-136121286D01*
X147616859Y-136207707D01*
X147561491Y-136266990D01*
X147478115Y-136327731D01*
X147388332Y-136364703D01*
X147294984Y-136377249D01*
X147200913Y-136364714D01*
X147174114Y-136356368D01*
X147140102Y-136344635D01*
X147118394Y-136337650D01*
X147114890Y-136336800D01*
X147105340Y-136345861D01*
X147079244Y-136371916D01*
X147038267Y-136413272D01*
X146984073Y-136468238D01*
X146918327Y-136535121D01*
X146842692Y-136612230D01*
X146758833Y-136697872D01*
X146668413Y-136790354D01*
X146612778Y-136847324D01*
X146114428Y-137357849D01*
X147241112Y-138485481D01*
X148367796Y-139613112D01*
X148263431Y-139711892D01*
X148137380Y-139822559D01*
X147992863Y-139934680D01*
X147836780Y-140043598D01*
X147676031Y-140144657D01*
X147517514Y-140233202D01*
X147418563Y-140282016D01*
X147147573Y-140393703D01*
X146867147Y-140481480D01*
X146576373Y-140545604D01*
X146365622Y-140576619D01*
X146301129Y-140581952D01*
X146216485Y-140585572D01*
X146117571Y-140587535D01*
X146010269Y-140587897D01*
X145900459Y-140586714D01*
X145794021Y-140584042D01*
X145696837Y-140579937D01*
X145614787Y-140574455D01*
X145562968Y-140568977D01*
X145269031Y-140516411D01*
X144984805Y-140439678D01*
X144710809Y-140339030D01*
X144447561Y-140214719D01*
X144195581Y-140066996D01*
X143955387Y-139896114D01*
X143727498Y-139702325D01*
X143674653Y-139652396D01*
X143470436Y-139437778D01*
X143287781Y-139208725D01*
X143127134Y-138966130D01*
X142988940Y-138710885D01*
X142873646Y-138443882D01*
X142781698Y-138166015D01*
X142713543Y-137878174D01*
X142678900Y-137660944D01*
X142669152Y-137558150D01*
X142663208Y-137437094D01*
X142660936Y-137304156D01*
X142661788Y-137211081D01*
X143221742Y-137211081D01*
X143224624Y-137381284D01*
X143235279Y-137548586D01*
X143253454Y-137704198D01*
X143265938Y-137778351D01*
X143328960Y-138042168D01*
X143415571Y-138294864D01*
X143525645Y-138536197D01*
X143659054Y-138765922D01*
X143815672Y-138983797D01*
X143995373Y-139189578D01*
X144008176Y-139202867D01*
X144198280Y-139380397D01*
X144405085Y-139538570D01*
X144626939Y-139676574D01*
X144862191Y-139793599D01*
X145109190Y-139888832D01*
X145366285Y-139961464D01*
X145631824Y-140010683D01*
X145660811Y-140014548D01*
X145731899Y-140020962D01*
X145822242Y-140025046D01*
X145925117Y-140026856D01*
X146033795Y-140026448D01*
X146141553Y-140023878D01*
X146241663Y-140019202D01*
X146327400Y-140012477D01*
X146360095Y-140008719D01*
X146626985Y-139961156D01*
X146885950Y-139889752D01*
X147134433Y-139795253D01*
X147210275Y-139760751D01*
X147275343Y-139728938D01*
X147343466Y-139693966D01*
X147408845Y-139658976D01*
X147465683Y-139627110D01*
X147508183Y-139601510D01*
X147524126Y-139590661D01*
X147515461Y-139581268D01*
X147489189Y-139554289D01*
X147446162Y-139510577D01*
X147387230Y-139450989D01*
X147313245Y-139376377D01*
X147225059Y-139287597D01*
X147123522Y-139185503D01*
X147009485Y-139070950D01*
X146883800Y-138944791D01*
X146747319Y-138807882D01*
X146600891Y-138661077D01*
X146445369Y-138505230D01*
X146281604Y-138341197D01*
X146110447Y-138169830D01*
X145932749Y-137991986D01*
X145749362Y-137808518D01*
X145595429Y-137654571D01*
X145407978Y-137467166D01*
X145225452Y-137284753D01*
X145048704Y-137108182D01*
X144878589Y-136938305D01*
X144715962Y-136775972D01*
X144561678Y-136622035D01*
X144416590Y-136477346D01*
X144281553Y-136342755D01*
X144157423Y-136219113D01*
X144045052Y-136107273D01*
X143945296Y-136008084D01*
X143859010Y-135922398D01*
X143787047Y-135851067D01*
X143730263Y-135794941D01*
X143689511Y-135754872D01*
X143665647Y-135731711D01*
X143659280Y-135725932D01*
X143631258Y-135768840D01*
X143596025Y-135830617D01*
X143556189Y-135905958D01*
X143514357Y-135989556D01*
X143473136Y-136076108D01*
X143435133Y-136160308D01*
X143402954Y-136236851D01*
X143384722Y-136284617D01*
X143347893Y-136398469D01*
X143312470Y-136528683D01*
X143280744Y-136665542D01*
X143255004Y-136799331D01*
X143240326Y-136897126D01*
X143226891Y-137046766D01*
X143221742Y-137211081D01*
X142661788Y-137211081D01*
X142662204Y-137165714D01*
X142666881Y-137028148D01*
X142674834Y-136897838D01*
X142685932Y-136781163D01*
X142698921Y-136690709D01*
X142762810Y-136402295D01*
X142850012Y-136122674D01*
X142959705Y-135853517D01*
X143091069Y-135596495D01*
X143243281Y-135353276D01*
X143415519Y-135125533D01*
X143536505Y-134988002D01*
X143632553Y-134885070D01*
X144206389Y-135464047D01*
G37*
%LPC*%
D16*
X122500000Y-138000000D03*
X120500000Y-138000000D03*
D17*
X144780000Y-152400000D03*
D18*
X147320000Y-152400000D03*
X149860000Y-152400000D03*
X152400000Y-152400000D03*
D19*
X131450000Y-152500000D03*
X134550000Y-152500000D03*
D20*
X122862500Y-111064000D03*
X122862500Y-112964000D03*
X125137500Y-112014000D03*
D21*
X134518400Y-111014000D03*
X134518400Y-113014000D03*
D22*
X159475000Y-152500000D03*
X160068109Y-151068109D03*
X160068109Y-153931891D03*
X161500000Y-150475000D03*
D23*
X161500000Y-152500000D03*
D22*
X161500000Y-154525000D03*
X162931891Y-151068109D03*
X162931891Y-153931891D03*
X163525000Y-152500000D03*
D24*
X103000000Y-139000000D03*
X103000000Y-134000000D03*
D22*
X101475000Y-152500000D03*
X102068109Y-151068109D03*
X102068109Y-153931891D03*
X103500000Y-150475000D03*
D23*
X103500000Y-152500000D03*
D22*
X103500000Y-154525000D03*
X104931891Y-151068109D03*
X104931891Y-153931891D03*
X105525000Y-152500000D03*
D25*
X119500000Y-149500000D03*
X119500000Y-147500000D03*
D21*
X132029200Y-111014000D03*
X132029200Y-113014000D03*
D26*
X135500000Y-135950000D03*
D27*
X133000000Y-135950000D03*
X130500000Y-135950000D03*
D28*
X137400000Y-142950000D03*
X128600000Y-142950000D03*
D29*
X109000000Y-141462500D03*
X109000000Y-143537500D03*
D25*
X144000000Y-111000000D03*
X144000000Y-109000000D03*
D21*
X127050800Y-111014000D03*
X127050800Y-113014000D03*
D30*
X159605000Y-120750000D03*
X161330000Y-120750000D03*
D25*
X115500000Y-124500000D03*
X115500000Y-122500000D03*
X156500000Y-111000000D03*
X156500000Y-109000000D03*
D31*
X156567500Y-137250000D03*
D32*
X154027500Y-134710000D03*
X154027500Y-139790000D03*
X159107500Y-134710000D03*
X159107500Y-139790000D03*
D25*
X151500000Y-111000000D03*
X151500000Y-109000000D03*
X146500000Y-111000000D03*
X146500000Y-109000000D03*
D33*
X114000000Y-110000000D03*
X116000000Y-110000000D03*
D34*
X109000000Y-149537500D03*
X109000000Y-147462500D03*
D22*
X159475000Y-103500000D03*
X160068109Y-102068109D03*
X160068109Y-104931891D03*
X161500000Y-101475000D03*
D23*
X161500000Y-103500000D03*
D22*
X161500000Y-105525000D03*
X162931891Y-102068109D03*
X162931891Y-104931891D03*
X163525000Y-103500000D03*
D21*
X137007600Y-111014000D03*
X137007600Y-113014000D03*
D35*
X108400000Y-104790000D03*
D36*
X108400000Y-102250000D03*
X110940000Y-104790000D03*
X110940000Y-102250000D03*
X113480000Y-104790000D03*
X113480000Y-102250000D03*
X116020000Y-104790000D03*
X116020000Y-102250000D03*
X118560000Y-104790000D03*
X118560000Y-102250000D03*
X121100000Y-104790000D03*
X121100000Y-102250000D03*
X123640000Y-104790000D03*
X123640000Y-102250000D03*
X126180000Y-104790000D03*
X126180000Y-102250000D03*
X128720000Y-104790000D03*
X128720000Y-102250000D03*
X131260000Y-104790000D03*
X131260000Y-102250000D03*
X133800000Y-104790000D03*
X133800000Y-102250000D03*
X136340000Y-104790000D03*
X136340000Y-102250000D03*
X138880000Y-104790000D03*
X138880000Y-102250000D03*
X141420000Y-104790000D03*
X141420000Y-102250000D03*
X143960000Y-104790000D03*
X143960000Y-102250000D03*
X146500000Y-104790000D03*
X146500000Y-102250000D03*
X149040000Y-104790000D03*
X149040000Y-102250000D03*
X151580000Y-104790000D03*
X151580000Y-102250000D03*
X154120000Y-104790000D03*
X154120000Y-102250000D03*
X156660000Y-104790000D03*
X156660000Y-102250000D03*
D37*
X116560000Y-142000000D03*
D38*
X114280000Y-148300000D03*
D37*
X112000000Y-142000000D03*
D25*
X154000000Y-111000000D03*
X154000000Y-109000000D03*
D39*
X156567500Y-130750000D03*
X156567500Y-128750000D03*
X156567500Y-126750000D03*
X156567500Y-124750000D03*
X156567500Y-122750000D03*
X156567500Y-120750000D03*
X156567500Y-118750000D03*
X156567500Y-116750000D03*
X121567500Y-116750000D03*
X121567500Y-118750000D03*
X121567500Y-120750000D03*
X121567500Y-122750000D03*
X121567500Y-124750000D03*
X121567500Y-126750000D03*
X121567500Y-128750000D03*
X121567500Y-130750000D03*
D40*
X142000000Y-122000000D03*
D24*
X162500000Y-127000000D03*
D41*
X108000000Y-112300000D03*
D42*
X102000000Y-112300000D03*
D43*
X105000000Y-117000000D03*
D25*
X114000000Y-118500000D03*
X114000000Y-116500000D03*
D44*
X120475000Y-140500000D03*
X122525000Y-140500000D03*
D25*
X112000000Y-124500000D03*
X112000000Y-122500000D03*
D30*
X159605000Y-122750000D03*
X161330000Y-122750000D03*
D45*
X116500000Y-116637500D03*
X116500000Y-118362500D03*
D33*
X120500000Y-143000000D03*
X122500000Y-143000000D03*
X120500000Y-145500000D03*
X122500000Y-145500000D03*
D45*
X118500000Y-116637500D03*
X118500000Y-118362500D03*
D25*
X149000000Y-111000000D03*
X149000000Y-109000000D03*
D21*
X129540000Y-111014000D03*
X129540000Y-113014000D03*
D24*
X103000000Y-129000000D03*
D22*
X101475000Y-103500000D03*
X102068109Y-102068109D03*
X102068109Y-104931891D03*
X103500000Y-101475000D03*
D23*
X103500000Y-103500000D03*
D22*
X103500000Y-105525000D03*
X104931891Y-102068109D03*
X104931891Y-104931891D03*
X105525000Y-103500000D03*
%LPD*%
M02*
