%TF.GenerationSoftware,KiCad,Pcbnew,8.0.2-1*%
%TF.CreationDate,2024-05-25T15:23:03-04:00*%
%TF.ProjectId,Radio HAT,52616469-6f20-4484-9154-2e6b69636164,v1.1*%
%TF.SameCoordinates,Original*%
%TF.FileFunction,Soldermask,Top*%
%TF.FilePolarity,Negative*%
%FSLAX46Y46*%
G04 Gerber Fmt 4.6, Leading zero omitted, Abs format (unit mm)*
G04 Created by KiCad (PCBNEW 8.0.2-1) date 2024-05-25 15:23:03*
%MOMM*%
%LPD*%
G01*
G04 APERTURE LIST*
G04 Aperture macros list*
%AMRoundRect*
0 Rectangle with rounded corners*
0 $1 Rounding radius*
0 $2 $3 $4 $5 $6 $7 $8 $9 X,Y pos of 4 corners*
0 Add a 4 corners polygon primitive as box body*
4,1,4,$2,$3,$4,$5,$6,$7,$8,$9,$2,$3,0*
0 Add four circle primitives for the rounded corners*
1,1,$1+$1,$2,$3*
1,1,$1+$1,$4,$5*
1,1,$1+$1,$6,$7*
1,1,$1+$1,$8,$9*
0 Add four rect primitives between the rounded corners*
20,1,$1+$1,$2,$3,$4,$5,0*
20,1,$1+$1,$4,$5,$6,$7,0*
20,1,$1+$1,$6,$7,$8,$9,0*
20,1,$1+$1,$8,$9,$2,$3,0*%
G04 Aperture macros list end*
%ADD10RoundRect,0.250000X0.350000X0.450000X-0.350000X0.450000X-0.350000X-0.450000X0.350000X-0.450000X0*%
%ADD11R,2.100000X2.100000*%
%ADD12C,2.100000*%
%ADD13RoundRect,0.250000X-0.400000X-1.075000X0.400000X-1.075000X0.400000X1.075000X-0.400000X1.075000X0*%
%ADD14RoundRect,0.150000X-0.512500X-0.150000X0.512500X-0.150000X0.512500X0.150000X-0.512500X0.150000X0*%
%ADD15RoundRect,0.250000X-0.450000X0.350000X-0.450000X-0.350000X0.450000X-0.350000X0.450000X0.350000X0*%
%ADD16C,0.800000*%
%ADD17C,5.400000*%
%ADD18C,2.000000*%
%ADD19RoundRect,0.250000X0.450000X-0.350000X0.450000X0.350000X-0.450000X0.350000X-0.450000X-0.350000X0*%
%ADD20R,1.800000X1.800000*%
%ADD21C,1.800000*%
%ADD22RoundRect,0.750000X-0.750000X1.250000X-0.750000X-1.250000X0.750000X-1.250000X0.750000X1.250000X0*%
%ADD23RoundRect,0.250000X-0.475000X0.337500X-0.475000X-0.337500X0.475000X-0.337500X0.475000X0.337500X0*%
%ADD24RoundRect,0.237500X-0.300000X-0.237500X0.300000X-0.237500X0.300000X0.237500X-0.300000X0.237500X0*%
%ADD25C,2.050000*%
%ADD26C,2.250000*%
%ADD27RoundRect,0.250000X-0.350000X-0.450000X0.350000X-0.450000X0.350000X0.450000X-0.350000X0.450000X0*%
%ADD28RoundRect,0.250000X0.475000X-0.337500X0.475000X0.337500X-0.475000X0.337500X-0.475000X-0.337500X0*%
%ADD29R,1.700000X1.700000*%
%ADD30O,1.700000X1.700000*%
%ADD31RoundRect,0.250000X-0.350000X0.850000X-0.350000X-0.850000X0.350000X-0.850000X0.350000X0.850000X0*%
%ADD32RoundRect,0.249997X-2.650003X2.950003X-2.650003X-2.950003X2.650003X-2.950003X2.650003X2.950003X0*%
%ADD33RoundRect,0.063500X-1.000000X-0.650000X1.000000X-0.650000X1.000000X0.650000X-1.000000X0.650000X0*%
%ADD34RoundRect,0.063500X-5.750000X-2.350000X5.750000X-2.350000X5.750000X2.350000X-5.750000X2.350000X0*%
%ADD35R,3.500000X3.500000*%
%ADD36RoundRect,0.750000X-0.750000X-1.000000X0.750000X-1.000000X0.750000X1.000000X-0.750000X1.000000X0*%
%ADD37RoundRect,0.875000X-0.875000X-0.875000X0.875000X-0.875000X0.875000X0.875000X-0.875000X0.875000X0*%
%ADD38RoundRect,0.250000X-0.325000X-0.450000X0.325000X-0.450000X0.325000X0.450000X-0.325000X0.450000X0*%
%ADD39RoundRect,0.237500X-0.237500X0.300000X-0.237500X-0.300000X0.237500X-0.300000X0.237500X0.300000X0*%
G04 APERTURE END LIST*
D10*
X122500000Y-138000000D03*
X120500000Y-138000000D03*
D11*
X144780000Y-152400000D03*
D12*
X147320000Y-152400000D03*
X149860000Y-152400000D03*
X152400000Y-152400000D03*
D13*
X131450000Y-152500000D03*
X134550000Y-152500000D03*
D14*
X122862500Y-111064000D03*
X122862500Y-112964000D03*
X125137500Y-112014000D03*
D15*
X134518400Y-111014000D03*
X134518400Y-113014000D03*
D16*
X159475000Y-152500000D03*
X160068109Y-151068109D03*
X160068109Y-153931891D03*
X161500000Y-150475000D03*
D17*
X161500000Y-152500000D03*
D16*
X161500000Y-154525000D03*
X162931891Y-151068109D03*
X162931891Y-153931891D03*
X163525000Y-152500000D03*
D18*
X103000000Y-139000000D03*
X103000000Y-134000000D03*
D16*
X101475000Y-152500000D03*
X102068109Y-151068109D03*
X102068109Y-153931891D03*
X103500000Y-150475000D03*
D17*
X103500000Y-152500000D03*
D16*
X103500000Y-154525000D03*
X104931891Y-151068109D03*
X104931891Y-153931891D03*
X105525000Y-152500000D03*
D19*
X119500000Y-149500000D03*
X119500000Y-147500000D03*
D15*
X132029200Y-111014000D03*
X132029200Y-113014000D03*
D20*
X135500000Y-135950000D03*
D21*
X133000000Y-135950000D03*
X130500000Y-135950000D03*
D22*
X137400000Y-142950000D03*
X128600000Y-142950000D03*
D23*
X109000000Y-141462500D03*
X109000000Y-143537500D03*
D19*
X144000000Y-111000000D03*
X144000000Y-109000000D03*
D15*
X127050800Y-111014000D03*
X127050800Y-113014000D03*
D24*
X159605000Y-120750000D03*
X161330000Y-120750000D03*
D19*
X115500000Y-124500000D03*
X115500000Y-122500000D03*
X156500000Y-111000000D03*
X156500000Y-109000000D03*
D25*
X156567500Y-137250000D03*
D26*
X154027500Y-134710000D03*
X154027500Y-139790000D03*
X159107500Y-134710000D03*
X159107500Y-139790000D03*
D19*
X151500000Y-111000000D03*
X151500000Y-109000000D03*
X146500000Y-111000000D03*
X146500000Y-109000000D03*
D27*
X114000000Y-110000000D03*
X116000000Y-110000000D03*
D28*
X109000000Y-149537500D03*
X109000000Y-147462500D03*
D16*
X159475000Y-103500000D03*
X160068109Y-102068109D03*
X160068109Y-104931891D03*
X161500000Y-101475000D03*
D17*
X161500000Y-103500000D03*
D16*
X161500000Y-105525000D03*
X162931891Y-102068109D03*
X162931891Y-104931891D03*
X163525000Y-103500000D03*
D15*
X137007600Y-111014000D03*
X137007600Y-113014000D03*
D29*
X108400000Y-104790000D03*
D30*
X108400000Y-102250000D03*
X110940000Y-104790000D03*
X110940000Y-102250000D03*
X113480000Y-104790000D03*
X113480000Y-102250000D03*
X116020000Y-104790000D03*
X116020000Y-102250000D03*
X118560000Y-104790000D03*
X118560000Y-102250000D03*
X121100000Y-104790000D03*
X121100000Y-102250000D03*
X123640000Y-104790000D03*
X123640000Y-102250000D03*
X126180000Y-104790000D03*
X126180000Y-102250000D03*
X128720000Y-104790000D03*
X128720000Y-102250000D03*
X131260000Y-104790000D03*
X131260000Y-102250000D03*
X133800000Y-104790000D03*
X133800000Y-102250000D03*
X136340000Y-104790000D03*
X136340000Y-102250000D03*
X138880000Y-104790000D03*
X138880000Y-102250000D03*
X141420000Y-104790000D03*
X141420000Y-102250000D03*
X143960000Y-104790000D03*
X143960000Y-102250000D03*
X146500000Y-104790000D03*
X146500000Y-102250000D03*
X149040000Y-104790000D03*
X149040000Y-102250000D03*
X151580000Y-104790000D03*
X151580000Y-102250000D03*
X154120000Y-104790000D03*
X154120000Y-102250000D03*
X156660000Y-104790000D03*
X156660000Y-102250000D03*
D31*
X116560000Y-142000000D03*
D32*
X114280000Y-148300000D03*
D31*
X112000000Y-142000000D03*
D19*
X154000000Y-111000000D03*
X154000000Y-109000000D03*
D33*
X156567500Y-130750000D03*
X156567500Y-128750000D03*
X156567500Y-126750000D03*
X156567500Y-124750000D03*
X156567500Y-122750000D03*
X156567500Y-120750000D03*
X156567500Y-118750000D03*
X156567500Y-116750000D03*
X121567500Y-116750000D03*
X121567500Y-118750000D03*
X121567500Y-120750000D03*
X121567500Y-122750000D03*
X121567500Y-124750000D03*
X121567500Y-126750000D03*
X121567500Y-128750000D03*
X121567500Y-130750000D03*
D34*
X142000000Y-122000000D03*
D18*
X162500000Y-127000000D03*
D35*
X108000000Y-112300000D03*
D36*
X102000000Y-112300000D03*
D37*
X105000000Y-117000000D03*
D19*
X114000000Y-118500000D03*
X114000000Y-116500000D03*
D38*
X120475000Y-140500000D03*
X122525000Y-140500000D03*
D19*
X112000000Y-124500000D03*
X112000000Y-122500000D03*
D24*
X159605000Y-122750000D03*
X161330000Y-122750000D03*
D39*
X116500000Y-116637500D03*
X116500000Y-118362500D03*
D27*
X120500000Y-143000000D03*
X122500000Y-143000000D03*
X120500000Y-145500000D03*
X122500000Y-145500000D03*
D39*
X118500000Y-116637500D03*
X118500000Y-118362500D03*
D19*
X149000000Y-111000000D03*
X149000000Y-109000000D03*
D15*
X129540000Y-111014000D03*
X129540000Y-113014000D03*
D18*
X103000000Y-129000000D03*
D16*
X101475000Y-103500000D03*
X102068109Y-102068109D03*
X102068109Y-104931891D03*
X103500000Y-101475000D03*
D17*
X103500000Y-103500000D03*
D16*
X103500000Y-105525000D03*
X104931891Y-102068109D03*
X104931891Y-104931891D03*
X105525000Y-103500000D03*
M02*
