%TF.GenerationSoftware,KiCad,Pcbnew,8.0.2-1*%
%TF.CreationDate,2024-05-25T15:23:03-04:00*%
%TF.ProjectId,Radio HAT,52616469-6f20-4484-9154-2e6b69636164,v1.1*%
%TF.SameCoordinates,Original*%
%TF.FileFunction,Copper,L1,Top*%
%TF.FilePolarity,Positive*%
%FSLAX46Y46*%
G04 Gerber Fmt 4.6, Leading zero omitted, Abs format (unit mm)*
G04 Created by KiCad (PCBNEW 8.0.2-1) date 2024-05-25 15:23:03*
%MOMM*%
%LPD*%
G01*
G04 APERTURE LIST*
G04 Aperture macros list*
%AMRoundRect*
0 Rectangle with rounded corners*
0 $1 Rounding radius*
0 $2 $3 $4 $5 $6 $7 $8 $9 X,Y pos of 4 corners*
0 Add a 4 corners polygon primitive as box body*
4,1,4,$2,$3,$4,$5,$6,$7,$8,$9,$2,$3,0*
0 Add four circle primitives for the rounded corners*
1,1,$1+$1,$2,$3*
1,1,$1+$1,$4,$5*
1,1,$1+$1,$6,$7*
1,1,$1+$1,$8,$9*
0 Add four rect primitives between the rounded corners*
20,1,$1+$1,$2,$3,$4,$5,0*
20,1,$1+$1,$4,$5,$6,$7,0*
20,1,$1+$1,$6,$7,$8,$9,0*
20,1,$1+$1,$8,$9,$2,$3,0*%
G04 Aperture macros list end*
%TA.AperFunction,SMDPad,CuDef*%
%ADD10RoundRect,0.250000X0.350000X0.450000X-0.350000X0.450000X-0.350000X-0.450000X0.350000X-0.450000X0*%
%TD*%
%TA.AperFunction,ComponentPad*%
%ADD11R,2.100000X2.100000*%
%TD*%
%TA.AperFunction,ComponentPad*%
%ADD12C,2.100000*%
%TD*%
%TA.AperFunction,SMDPad,CuDef*%
%ADD13RoundRect,0.250000X-0.400000X-1.075000X0.400000X-1.075000X0.400000X1.075000X-0.400000X1.075000X0*%
%TD*%
%TA.AperFunction,SMDPad,CuDef*%
%ADD14RoundRect,0.150000X-0.512500X-0.150000X0.512500X-0.150000X0.512500X0.150000X-0.512500X0.150000X0*%
%TD*%
%TA.AperFunction,SMDPad,CuDef*%
%ADD15RoundRect,0.250000X-0.450000X0.350000X-0.450000X-0.350000X0.450000X-0.350000X0.450000X0.350000X0*%
%TD*%
%TA.AperFunction,ComponentPad*%
%ADD16C,0.800000*%
%TD*%
%TA.AperFunction,ComponentPad*%
%ADD17C,5.400000*%
%TD*%
%TA.AperFunction,ComponentPad*%
%ADD18C,2.000000*%
%TD*%
%TA.AperFunction,SMDPad,CuDef*%
%ADD19RoundRect,0.250000X0.450000X-0.350000X0.450000X0.350000X-0.450000X0.350000X-0.450000X-0.350000X0*%
%TD*%
%TA.AperFunction,ComponentPad*%
%ADD20R,1.800000X1.800000*%
%TD*%
%TA.AperFunction,ComponentPad*%
%ADD21C,1.800000*%
%TD*%
%TA.AperFunction,ComponentPad*%
%ADD22RoundRect,0.750000X-0.750000X1.250000X-0.750000X-1.250000X0.750000X-1.250000X0.750000X1.250000X0*%
%TD*%
%TA.AperFunction,SMDPad,CuDef*%
%ADD23RoundRect,0.250000X-0.475000X0.337500X-0.475000X-0.337500X0.475000X-0.337500X0.475000X0.337500X0*%
%TD*%
%TA.AperFunction,SMDPad,CuDef*%
%ADD24RoundRect,0.237500X-0.300000X-0.237500X0.300000X-0.237500X0.300000X0.237500X-0.300000X0.237500X0*%
%TD*%
%TA.AperFunction,ComponentPad*%
%ADD25C,2.050000*%
%TD*%
%TA.AperFunction,ComponentPad*%
%ADD26C,2.250000*%
%TD*%
%TA.AperFunction,SMDPad,CuDef*%
%ADD27RoundRect,0.250000X-0.350000X-0.450000X0.350000X-0.450000X0.350000X0.450000X-0.350000X0.450000X0*%
%TD*%
%TA.AperFunction,SMDPad,CuDef*%
%ADD28RoundRect,0.250000X0.475000X-0.337500X0.475000X0.337500X-0.475000X0.337500X-0.475000X-0.337500X0*%
%TD*%
%TA.AperFunction,ComponentPad*%
%ADD29R,1.700000X1.700000*%
%TD*%
%TA.AperFunction,ComponentPad*%
%ADD30O,1.700000X1.700000*%
%TD*%
%TA.AperFunction,SMDPad,CuDef*%
%ADD31RoundRect,0.250000X-0.350000X0.850000X-0.350000X-0.850000X0.350000X-0.850000X0.350000X0.850000X0*%
%TD*%
%TA.AperFunction,SMDPad,CuDef*%
%ADD32RoundRect,0.250000X-1.125000X1.275000X-1.125000X-1.275000X1.125000X-1.275000X1.125000X1.275000X0*%
%TD*%
%TA.AperFunction,SMDPad,CuDef*%
%ADD33RoundRect,0.249997X-2.650003X2.950003X-2.650003X-2.950003X2.650003X-2.950003X2.650003X2.950003X0*%
%TD*%
%TA.AperFunction,SMDPad,CuDef*%
%ADD34R,2.000000X1.300000*%
%TD*%
%TA.AperFunction,SMDPad,CuDef*%
%ADD35R,11.500000X4.700000*%
%TD*%
%TA.AperFunction,ComponentPad*%
%ADD36R,3.500000X3.500000*%
%TD*%
%TA.AperFunction,ComponentPad*%
%ADD37RoundRect,0.750000X-0.750000X-1.000000X0.750000X-1.000000X0.750000X1.000000X-0.750000X1.000000X0*%
%TD*%
%TA.AperFunction,ComponentPad*%
%ADD38RoundRect,0.875000X-0.875000X-0.875000X0.875000X-0.875000X0.875000X0.875000X-0.875000X0.875000X0*%
%TD*%
%TA.AperFunction,SMDPad,CuDef*%
%ADD39RoundRect,0.250000X-0.325000X-0.450000X0.325000X-0.450000X0.325000X0.450000X-0.325000X0.450000X0*%
%TD*%
%TA.AperFunction,SMDPad,CuDef*%
%ADD40RoundRect,0.237500X-0.237500X0.300000X-0.237500X-0.300000X0.237500X-0.300000X0.237500X0.300000X0*%
%TD*%
%TA.AperFunction,ViaPad*%
%ADD41C,0.800000*%
%TD*%
%TA.AperFunction,ViaPad*%
%ADD42C,1.200000*%
%TD*%
%TA.AperFunction,Conductor*%
%ADD43C,1.500000*%
%TD*%
%TA.AperFunction,Conductor*%
%ADD44C,1.000000*%
%TD*%
%TA.AperFunction,Conductor*%
%ADD45C,0.200000*%
%TD*%
%TA.AperFunction,Conductor*%
%ADD46C,0.500000*%
%TD*%
%TA.AperFunction,Conductor*%
%ADD47C,0.359250*%
%TD*%
G04 APERTURE END LIST*
D10*
X122500000Y-138000000D03*
X120500000Y-138000000D03*
D11*
X144780000Y-152400000D03*
D12*
X147320000Y-152400000D03*
X149860000Y-152400000D03*
X152400000Y-152400000D03*
D13*
X131450000Y-152500000D03*
X134550000Y-152500000D03*
D14*
X122862500Y-111064000D03*
X122862500Y-112964000D03*
X125137500Y-112014000D03*
D15*
X134518400Y-111014000D03*
X134518400Y-113014000D03*
D16*
X159475000Y-152500000D03*
X160068109Y-151068109D03*
X160068109Y-153931891D03*
X161500000Y-150475000D03*
D17*
X161500000Y-152500000D03*
D16*
X161500000Y-154525000D03*
X162931891Y-151068109D03*
X162931891Y-153931891D03*
X163525000Y-152500000D03*
D18*
X103000000Y-139000000D03*
X103000000Y-134000000D03*
D16*
X101475000Y-152500000D03*
X102068109Y-151068109D03*
X102068109Y-153931891D03*
X103500000Y-150475000D03*
D17*
X103500000Y-152500000D03*
D16*
X103500000Y-154525000D03*
X104931891Y-151068109D03*
X104931891Y-153931891D03*
X105525000Y-152500000D03*
D19*
X119500000Y-149500000D03*
X119500000Y-147500000D03*
D15*
X132029200Y-111014000D03*
X132029200Y-113014000D03*
D20*
X135500000Y-135950000D03*
D21*
X133000000Y-135950000D03*
X130500000Y-135950000D03*
D22*
X137400000Y-142950000D03*
X128600000Y-142950000D03*
D23*
X109000000Y-141462500D03*
X109000000Y-143537500D03*
D19*
X144000000Y-111000000D03*
X144000000Y-109000000D03*
D15*
X127050800Y-111014000D03*
X127050800Y-113014000D03*
D24*
X159605000Y-120750000D03*
X161330000Y-120750000D03*
D19*
X115500000Y-124500000D03*
X115500000Y-122500000D03*
X156500000Y-111000000D03*
X156500000Y-109000000D03*
D25*
X156567500Y-137250000D03*
D26*
X154027500Y-134710000D03*
X154027500Y-139790000D03*
X159107500Y-134710000D03*
X159107500Y-139790000D03*
D19*
X151500000Y-111000000D03*
X151500000Y-109000000D03*
X146500000Y-111000000D03*
X146500000Y-109000000D03*
D27*
X114000000Y-110000000D03*
X116000000Y-110000000D03*
D28*
X109000000Y-149537500D03*
X109000000Y-147462500D03*
D16*
X159475000Y-103500000D03*
X160068109Y-102068109D03*
X160068109Y-104931891D03*
X161500000Y-101475000D03*
D17*
X161500000Y-103500000D03*
D16*
X161500000Y-105525000D03*
X162931891Y-102068109D03*
X162931891Y-104931891D03*
X163525000Y-103500000D03*
D15*
X137007600Y-111014000D03*
X137007600Y-113014000D03*
D29*
X108400000Y-104790000D03*
D30*
X108400000Y-102250000D03*
X110940000Y-104790000D03*
X110940000Y-102250000D03*
X113480000Y-104790000D03*
X113480000Y-102250000D03*
X116020000Y-104790000D03*
X116020000Y-102250000D03*
X118560000Y-104790000D03*
X118560000Y-102250000D03*
X121100000Y-104790000D03*
X121100000Y-102250000D03*
X123640000Y-104790000D03*
X123640000Y-102250000D03*
X126180000Y-104790000D03*
X126180000Y-102250000D03*
X128720000Y-104790000D03*
X128720000Y-102250000D03*
X131260000Y-104790000D03*
X131260000Y-102250000D03*
X133800000Y-104790000D03*
X133800000Y-102250000D03*
X136340000Y-104790000D03*
X136340000Y-102250000D03*
X138880000Y-104790000D03*
X138880000Y-102250000D03*
X141420000Y-104790000D03*
X141420000Y-102250000D03*
X143960000Y-104790000D03*
X143960000Y-102250000D03*
X146500000Y-104790000D03*
X146500000Y-102250000D03*
X149040000Y-104790000D03*
X149040000Y-102250000D03*
X151580000Y-104790000D03*
X151580000Y-102250000D03*
X154120000Y-104790000D03*
X154120000Y-102250000D03*
X156660000Y-104790000D03*
X156660000Y-102250000D03*
D31*
X116560000Y-142000000D03*
D32*
X115805000Y-146625000D03*
X112755000Y-146625000D03*
D33*
X114280000Y-148300000D03*
D32*
X115805000Y-149975000D03*
X112755000Y-149975000D03*
D31*
X112000000Y-142000000D03*
D19*
X154000000Y-111000000D03*
X154000000Y-109000000D03*
D34*
X156567500Y-130750000D03*
X156567500Y-128750000D03*
X156567500Y-126750000D03*
X156567500Y-124750000D03*
X156567500Y-122750000D03*
X156567500Y-120750000D03*
X156567500Y-118750000D03*
X156567500Y-116750000D03*
X121567500Y-116750000D03*
X121567500Y-118750000D03*
X121567500Y-120750000D03*
X121567500Y-122750000D03*
X121567500Y-124750000D03*
X121567500Y-126750000D03*
X121567500Y-128750000D03*
X121567500Y-130750000D03*
D35*
X142000000Y-122000000D03*
D18*
X162500000Y-127000000D03*
D36*
X108000000Y-112300000D03*
D37*
X102000000Y-112300000D03*
D38*
X105000000Y-117000000D03*
D19*
X114000000Y-118500000D03*
X114000000Y-116500000D03*
D39*
X120475000Y-140500000D03*
X122525000Y-140500000D03*
D19*
X112000000Y-124500000D03*
X112000000Y-122500000D03*
D24*
X159605000Y-122750000D03*
X161330000Y-122750000D03*
D40*
X116500000Y-116637500D03*
X116500000Y-118362500D03*
D27*
X120500000Y-143000000D03*
X122500000Y-143000000D03*
X120500000Y-145500000D03*
X122500000Y-145500000D03*
D40*
X118500000Y-116637500D03*
X118500000Y-118362500D03*
D19*
X149000000Y-111000000D03*
X149000000Y-109000000D03*
D15*
X129540000Y-111014000D03*
X129540000Y-113014000D03*
D18*
X103000000Y-129000000D03*
D16*
X101475000Y-103500000D03*
X102068109Y-102068109D03*
X102068109Y-104931891D03*
X103500000Y-101475000D03*
D17*
X103500000Y-103500000D03*
D16*
X103500000Y-105525000D03*
X104931891Y-102068109D03*
X104931891Y-104931891D03*
X105525000Y-103500000D03*
D41*
X112500000Y-112500000D03*
X147500000Y-127500000D03*
X135000000Y-137500000D03*
X122500000Y-132500000D03*
X152500000Y-145000000D03*
X157500000Y-133000000D03*
X162500000Y-115000000D03*
X157500000Y-134000000D03*
X115000000Y-132500000D03*
X140000000Y-112500000D03*
X154750000Y-128000000D03*
X130000000Y-137500000D03*
D42*
X136967500Y-120250000D03*
D41*
X155000000Y-147500000D03*
D42*
X146967500Y-120250000D03*
D41*
X155250000Y-136250000D03*
X158500000Y-131000000D03*
X102500000Y-122500000D03*
X115000000Y-130000000D03*
X162500000Y-110000000D03*
X152500000Y-147500000D03*
X117500000Y-110000000D03*
X140000000Y-147500000D03*
X137500000Y-135000000D03*
X127500000Y-137500000D03*
X162000000Y-124000000D03*
X142500000Y-110000000D03*
X147500000Y-130000000D03*
X107500000Y-125000000D03*
D42*
X119467500Y-130750000D03*
D41*
X145000000Y-145000000D03*
X162000000Y-134000000D03*
X155750000Y-132000000D03*
X142500000Y-107500000D03*
X142500000Y-115000000D03*
X157500000Y-145000000D03*
X150000000Y-117500000D03*
X125000000Y-147500000D03*
X162000000Y-131000000D03*
X162000000Y-137000000D03*
X157500000Y-132000000D03*
X152500000Y-130000000D03*
X147500000Y-125000000D03*
X150000000Y-132500000D03*
D42*
X146967500Y-123750000D03*
D41*
X160000000Y-110000000D03*
X127500000Y-127500000D03*
X160000000Y-129000000D03*
X158967500Y-137250000D03*
X115000000Y-137500000D03*
X150000000Y-115000000D03*
X157500000Y-135500000D03*
X140000000Y-107500000D03*
X137500000Y-137500000D03*
X127500000Y-135000000D03*
X150000000Y-130000000D03*
X105000000Y-120000000D03*
X155750000Y-133000000D03*
X105000000Y-107500000D03*
X154750000Y-130000000D03*
X107500000Y-107500000D03*
X158500000Y-130000000D03*
X158500000Y-128000000D03*
X133223000Y-107492800D03*
X154750000Y-132000000D03*
X142500000Y-145000000D03*
X140000000Y-115000000D03*
X118500000Y-120000000D03*
X107500000Y-120000000D03*
X158500000Y-129000000D03*
X162000000Y-140000000D03*
X117500000Y-132500000D03*
D42*
X136967500Y-123750000D03*
D41*
X155000000Y-145000000D03*
D42*
X141967500Y-120250000D03*
D41*
X125000000Y-135000000D03*
X122500000Y-147500000D03*
X142500000Y-112500000D03*
X142500000Y-117500000D03*
X115000000Y-135000000D03*
X105000000Y-125000000D03*
X102500000Y-115000000D03*
X120000000Y-115000000D03*
X125000000Y-132500000D03*
X160000000Y-117500000D03*
X105000000Y-122500000D03*
X160000000Y-115000000D03*
X155750000Y-134000000D03*
X127500000Y-147500000D03*
X162500000Y-112500000D03*
X142500000Y-147500000D03*
X125000000Y-130000000D03*
X132500000Y-147500000D03*
X137500000Y-140000000D03*
X158000000Y-136250000D03*
X145000000Y-125000000D03*
X105000000Y-110000000D03*
X107500000Y-122500000D03*
X105000000Y-112500000D03*
X117500000Y-130000000D03*
X120000000Y-112500000D03*
X117500000Y-137500000D03*
X137500000Y-147500000D03*
X145000000Y-127500000D03*
X120000000Y-135000000D03*
X140000000Y-117500000D03*
X150000000Y-127500000D03*
X147500000Y-145000000D03*
X102500000Y-107500000D03*
X120000000Y-110000000D03*
X145000000Y-132500000D03*
X160000000Y-107500000D03*
X117500000Y-112500000D03*
X158500000Y-132000000D03*
X112500000Y-127500000D03*
X135000000Y-140000000D03*
X102500000Y-125000000D03*
X150000000Y-120000000D03*
X130000000Y-147500000D03*
D42*
X125250000Y-113250000D03*
D41*
X150000000Y-125000000D03*
X117500000Y-122500000D03*
X102500000Y-117500000D03*
X162000000Y-119500000D03*
X116500000Y-120000000D03*
X162500000Y-117500000D03*
X137500000Y-117500000D03*
X140000000Y-110000000D03*
X102500000Y-120000000D03*
X155750000Y-135500000D03*
X117500000Y-135000000D03*
X135000000Y-142500000D03*
X140000000Y-145000000D03*
X154750000Y-129000000D03*
X102500000Y-110000000D03*
X154750000Y-131000000D03*
X127500000Y-130000000D03*
X160000000Y-112500000D03*
X152500000Y-132500000D03*
X112500000Y-110000000D03*
X122500000Y-135000000D03*
X147500000Y-147500000D03*
X162500000Y-107500000D03*
D42*
X141967500Y-123750000D03*
D41*
X127500000Y-132500000D03*
X153967500Y-137250000D03*
X151500000Y-107500000D03*
X123500000Y-120750000D03*
X123500000Y-118750000D03*
X123500000Y-122750000D03*
X123500000Y-124750000D03*
X123500000Y-126750000D03*
X145000000Y-129750000D03*
D42*
X141000000Y-146000000D03*
D41*
X146500000Y-107500000D03*
D42*
X127000000Y-139500000D03*
X134550000Y-147550000D03*
D41*
X153250000Y-114250000D03*
X154500000Y-120750000D03*
X154500000Y-118750000D03*
X154000000Y-112400000D03*
X154500000Y-124750000D03*
X146500000Y-115500000D03*
X144000000Y-115500000D03*
X123500000Y-128750000D03*
X128500000Y-108500000D03*
X122500000Y-109250000D03*
D43*
X107000000Y-149500000D02*
X108962500Y-149500000D01*
X109000000Y-149537500D02*
X119462500Y-149537500D01*
X119462500Y-149537500D02*
X119500000Y-149500000D01*
X103000000Y-145500000D02*
X107000000Y-149500000D01*
X108962500Y-149500000D02*
X109000000Y-149537500D01*
X103000000Y-139000000D02*
X103000000Y-145500000D01*
D44*
X161330000Y-123330000D02*
X162000000Y-124000000D01*
X161330000Y-120750000D02*
X161330000Y-120170000D01*
X161330000Y-122750000D02*
X161330000Y-123330000D01*
X161330000Y-120170000D02*
X162000000Y-119500000D01*
X114000000Y-108000000D02*
X126500000Y-108000000D01*
X128720000Y-105780000D02*
X128720000Y-104790000D01*
X108400000Y-106400000D02*
X110000000Y-108000000D01*
X114000000Y-110000000D02*
X114000000Y-108000000D01*
X110000000Y-108000000D02*
X114000000Y-108000000D01*
X126500000Y-108000000D02*
X128720000Y-105780000D01*
X108400000Y-104790000D02*
X108400000Y-106400000D01*
D45*
X150330000Y-103500000D02*
X146000000Y-103500000D01*
X146000000Y-103500000D02*
X145110000Y-104390000D01*
X151580000Y-102250000D02*
X150330000Y-103500000D01*
X145110000Y-104390000D02*
X145110000Y-106390000D01*
X144000000Y-107500000D02*
X144000000Y-109000000D01*
X145110000Y-106390000D02*
X144000000Y-107500000D01*
X153300000Y-106500000D02*
X151590000Y-104790000D01*
X155000000Y-106500000D02*
X153300000Y-106500000D01*
X156500000Y-108000000D02*
X155000000Y-106500000D01*
X151590000Y-104790000D02*
X151580000Y-104790000D01*
X156500000Y-109000000D02*
X156500000Y-108000000D01*
X154000000Y-109000000D02*
X154000000Y-108000000D01*
X154000000Y-108000000D02*
X152800000Y-106800000D01*
X150300000Y-104200000D02*
X151000000Y-103500000D01*
X152800000Y-106800000D02*
X151100000Y-106800000D01*
X150300000Y-106000000D02*
X150300000Y-104200000D01*
X151100000Y-106800000D02*
X150300000Y-106000000D01*
X152870000Y-103500000D02*
X154120000Y-102250000D01*
X151000000Y-103500000D02*
X152870000Y-103500000D01*
X151500000Y-109000000D02*
X151500000Y-107500000D01*
X121567500Y-120750000D02*
X123500000Y-120750000D01*
X121567500Y-118750000D02*
X123500000Y-118750000D01*
X149040000Y-108960000D02*
X149000000Y-109000000D01*
X149040000Y-104790000D02*
X149040000Y-108960000D01*
X121567500Y-122750000D02*
X123500000Y-122750000D01*
X121567500Y-124750000D02*
X123500000Y-124750000D01*
D46*
X121567500Y-124750000D02*
X115750000Y-124750000D01*
X115750000Y-124750000D02*
X115500000Y-124500000D01*
X112000000Y-125500000D02*
X112000000Y-124500000D01*
X121567500Y-126750000D02*
X113250000Y-126750000D01*
D45*
X121567500Y-126750000D02*
X123500000Y-126750000D01*
D46*
X113250000Y-126750000D02*
X112000000Y-125500000D01*
D45*
X134518400Y-124841000D02*
X139427400Y-129750000D01*
X134518400Y-113014000D02*
X134518400Y-124841000D01*
X139427400Y-129750000D02*
X145000000Y-129750000D01*
D46*
X141000000Y-146000000D02*
X140970000Y-145970000D01*
X140970000Y-145970000D02*
X140970000Y-136093200D01*
X129540000Y-113014000D02*
X127050800Y-113014000D01*
X140970000Y-136093200D02*
X129540000Y-124663200D01*
X129540000Y-124663200D02*
X129540000Y-113014000D01*
D45*
X146500000Y-109000000D02*
X146500000Y-107500000D01*
D47*
X156567500Y-130750000D02*
X156567500Y-137250000D01*
D44*
X112000000Y-118500000D02*
X114000000Y-118500000D01*
X112000000Y-118500000D02*
X112000000Y-120000000D01*
X112000000Y-115000000D02*
X112000000Y-118500000D01*
X112000000Y-120000000D02*
X112000000Y-122500000D01*
X115500000Y-120500000D02*
X115500000Y-122500000D01*
X115500000Y-120500000D02*
X115000000Y-120000000D01*
X116000000Y-110000000D02*
X116000000Y-111000000D01*
X115000000Y-120000000D02*
X112000000Y-120000000D01*
X116000000Y-111000000D02*
X112000000Y-115000000D01*
D46*
X120500000Y-145500000D02*
X119500000Y-145500000D01*
X119500000Y-142500000D02*
X119000000Y-142000000D01*
X119500000Y-147500000D02*
X119500000Y-145500000D01*
X119500000Y-145500000D02*
X119500000Y-143000000D01*
X119000000Y-142000000D02*
X116560000Y-142000000D01*
X120500000Y-143000000D02*
X119500000Y-143000000D01*
X119500000Y-143000000D02*
X119500000Y-142500000D01*
X131000000Y-140500000D02*
X133000000Y-138500000D01*
X126650000Y-141202944D02*
X127352944Y-140500000D01*
X133000000Y-138500000D02*
X133000000Y-135950000D01*
X126650000Y-142100000D02*
X126650000Y-141202944D01*
X127352944Y-140500000D02*
X131000000Y-140500000D01*
X125750000Y-143000000D02*
X126650000Y-142100000D01*
X122500000Y-143000000D02*
X125750000Y-143000000D01*
X126000000Y-140500000D02*
X127000000Y-139500000D01*
X134550000Y-147550000D02*
X134550000Y-152500000D01*
X122525000Y-140500000D02*
X126000000Y-140500000D01*
D44*
X156567500Y-122750000D02*
X159605000Y-122750000D01*
X159605000Y-122750000D02*
X159605000Y-120750000D01*
D47*
X120500000Y-140475000D02*
X120475000Y-140500000D01*
D46*
X120500000Y-138000000D02*
X120500000Y-140475000D01*
D45*
X154500000Y-120750000D02*
X156567500Y-120750000D01*
X156500000Y-113000000D02*
X155500000Y-114000000D01*
X155250000Y-114250000D02*
X153250000Y-114250000D01*
X156500000Y-111000000D02*
X156500000Y-113000000D01*
X155500000Y-114000000D02*
X155250000Y-114250000D01*
X154500000Y-118750000D02*
X156567500Y-118750000D01*
X154000000Y-111000000D02*
X154000000Y-112400000D01*
X151500000Y-111000000D02*
X151500000Y-114000000D01*
X154250000Y-116750000D02*
X156567500Y-116750000D01*
X151500000Y-114000000D02*
X154250000Y-116750000D01*
X153750000Y-126750000D02*
X156567500Y-126750000D01*
X149000000Y-111000000D02*
X149000000Y-122000000D01*
X149000000Y-122000000D02*
X153750000Y-126750000D01*
X154500000Y-124750000D02*
X156567500Y-124750000D01*
X146500000Y-111000000D02*
X146500000Y-115500000D01*
X144000000Y-111000000D02*
X144000000Y-115500000D01*
X123500000Y-128750000D02*
X121567500Y-128750000D01*
D44*
X114000000Y-116500000D02*
X116362500Y-116500000D01*
X118500000Y-116637500D02*
X121455000Y-116637500D01*
X118500000Y-116637500D02*
X116500000Y-116637500D01*
X116362500Y-116500000D02*
X116500000Y-116637500D01*
D45*
X134416800Y-109500000D02*
X136500000Y-109500000D01*
X134518400Y-109500000D02*
X134518400Y-111014000D01*
X130912200Y-109500000D02*
X134416800Y-109500000D01*
X137007600Y-110007600D02*
X137007600Y-111014000D01*
X129912200Y-108500000D02*
X130912200Y-109500000D01*
X128500000Y-108500000D02*
X129912200Y-108500000D01*
X136500000Y-109500000D02*
X137007600Y-110007600D01*
X134416800Y-109500000D02*
X134518400Y-109500000D01*
X129540000Y-111014000D02*
X132029200Y-111014000D01*
X121250000Y-110000000D02*
X121625000Y-109625000D01*
X122500000Y-109250000D02*
X122000000Y-109250000D01*
X122000000Y-110000000D02*
X121625000Y-109625000D01*
X121700000Y-112950000D02*
X122862500Y-112950000D01*
X128526000Y-110000000D02*
X122000000Y-110000000D01*
X129540000Y-111014000D02*
X128526000Y-110000000D01*
X121250000Y-110000000D02*
X121250000Y-112500000D01*
X121250000Y-112500000D02*
X121700000Y-112950000D01*
X121625000Y-109625000D02*
X122000000Y-109250000D01*
D46*
X127000800Y-111064000D02*
X127050800Y-111014000D01*
X122862500Y-111064000D02*
X127000800Y-111064000D01*
%TA.AperFunction,Conductor*%
G36*
X161750290Y-118019685D02*
G01*
X161775401Y-118041028D01*
X161894129Y-118172888D01*
X162034924Y-118275182D01*
X162077590Y-118330512D01*
X162083569Y-118400125D01*
X162050963Y-118461920D01*
X161990124Y-118496278D01*
X161962039Y-118499500D01*
X161901457Y-118499500D01*
X161708171Y-118537947D01*
X161708163Y-118537949D01*
X161526089Y-118613367D01*
X161526079Y-118613372D01*
X161362219Y-118722860D01*
X161362215Y-118722863D01*
X160985579Y-119099500D01*
X160692221Y-119392858D01*
X160692218Y-119392861D01*
X160637206Y-119447873D01*
X160552859Y-119532219D01*
X160443371Y-119696079D01*
X160443366Y-119696089D01*
X160406062Y-119786150D01*
X160362221Y-119840553D01*
X160295927Y-119862618D01*
X160228227Y-119845339D01*
X160226403Y-119844235D01*
X160218807Y-119839549D01*
X160218800Y-119839546D01*
X160055152Y-119785319D01*
X159954154Y-119775000D01*
X159855000Y-119775000D01*
X159855000Y-123724999D01*
X159954140Y-123724999D01*
X159954154Y-123724998D01*
X160055152Y-123714680D01*
X160218805Y-123660451D01*
X160226400Y-123655767D01*
X160293792Y-123637324D01*
X160360456Y-123658244D01*
X160405228Y-123711884D01*
X160406062Y-123713850D01*
X160443366Y-123803910D01*
X160443371Y-123803920D01*
X160552860Y-123967781D01*
X160552863Y-123967785D01*
X160696537Y-124111459D01*
X160696559Y-124111479D01*
X161362215Y-124777136D01*
X161362219Y-124777139D01*
X161526079Y-124886627D01*
X161526083Y-124886629D01*
X161526086Y-124886631D01*
X161708164Y-124962051D01*
X161898946Y-125000000D01*
X161901455Y-125000499D01*
X161901458Y-125000500D01*
X161901460Y-125000500D01*
X162098542Y-125000500D01*
X162098543Y-125000499D01*
X162291836Y-124962051D01*
X162473914Y-124886631D01*
X162637781Y-124777139D01*
X162777139Y-124637781D01*
X162886631Y-124473914D01*
X162962051Y-124291836D01*
X163000500Y-124098540D01*
X163000500Y-123901460D01*
X163000500Y-123901457D01*
X163000499Y-123901455D01*
X162991789Y-123857669D01*
X162962051Y-123708164D01*
X162886631Y-123526086D01*
X162886629Y-123526083D01*
X162886627Y-123526079D01*
X162777139Y-123362219D01*
X162777136Y-123362215D01*
X162404318Y-122989397D01*
X162370833Y-122928074D01*
X162367999Y-122901716D01*
X162367999Y-122463330D01*
X162367998Y-122463313D01*
X162357674Y-122362247D01*
X162303408Y-122198484D01*
X162212840Y-122051650D01*
X162090850Y-121929660D01*
X161970678Y-121855537D01*
X161923956Y-121803591D01*
X161912733Y-121734628D01*
X161940577Y-121670546D01*
X161970677Y-121644462D01*
X162090850Y-121570340D01*
X162212840Y-121448350D01*
X162303408Y-121301516D01*
X162357674Y-121137753D01*
X162368000Y-121036677D01*
X162367999Y-120598281D01*
X162387683Y-120531243D01*
X162404318Y-120510601D01*
X162777136Y-120137784D01*
X162777136Y-120137783D01*
X162777139Y-120137781D01*
X162886631Y-119973914D01*
X162962051Y-119791836D01*
X163000500Y-119598540D01*
X163000500Y-119401460D01*
X163000500Y-119401457D01*
X163000499Y-119401455D01*
X162976781Y-119282216D01*
X162962051Y-119208164D01*
X162886631Y-119026086D01*
X162886629Y-119026083D01*
X162886627Y-119026079D01*
X162777139Y-118862219D01*
X162777136Y-118862215D01*
X162637781Y-118722860D01*
X162495216Y-118627602D01*
X162450411Y-118573990D01*
X162441704Y-118504665D01*
X162471858Y-118441638D01*
X162531301Y-118404918D01*
X162564107Y-118400500D01*
X162594644Y-118400500D01*
X162594646Y-118400500D01*
X162779803Y-118361144D01*
X162952730Y-118284151D01*
X163105871Y-118172888D01*
X163224599Y-118041028D01*
X163284086Y-118004379D01*
X163316749Y-118000000D01*
X164494500Y-118000000D01*
X164561539Y-118019685D01*
X164607294Y-118072489D01*
X164618500Y-118124000D01*
X164618500Y-151045346D01*
X164598815Y-151112385D01*
X164546011Y-151158140D01*
X164476853Y-151168084D01*
X164413297Y-151139059D01*
X164385972Y-151105327D01*
X164235288Y-150832684D01*
X164214211Y-150794548D01*
X164129387Y-150675001D01*
X164006194Y-150501377D01*
X163766661Y-150233339D01*
X163498623Y-149993806D01*
X163498622Y-149993805D01*
X163205454Y-149785790D01*
X162890831Y-149611905D01*
X162804086Y-149575974D01*
X162558724Y-149474341D01*
X162558720Y-149474339D01*
X162558718Y-149474339D01*
X162213305Y-149374828D01*
X162213296Y-149374826D01*
X161858914Y-149314614D01*
X161858902Y-149314612D01*
X161500000Y-149294457D01*
X161141097Y-149314612D01*
X161141085Y-149314614D01*
X160786703Y-149374826D01*
X160786694Y-149374828D01*
X160441281Y-149474339D01*
X160109168Y-149611905D01*
X159794545Y-149785790D01*
X159501377Y-149993805D01*
X159233339Y-150233339D01*
X158993805Y-150501377D01*
X158785790Y-150794545D01*
X158611905Y-151109168D01*
X158474339Y-151441281D01*
X158374828Y-151786694D01*
X158374826Y-151786703D01*
X158314614Y-152141085D01*
X158314612Y-152141097D01*
X158294457Y-152500000D01*
X158314612Y-152858902D01*
X158314614Y-152858914D01*
X158374826Y-153213296D01*
X158374828Y-153213305D01*
X158465982Y-153529709D01*
X158474341Y-153558724D01*
X158568390Y-153785777D01*
X158607074Y-153879169D01*
X158611906Y-153890833D01*
X158641341Y-153944091D01*
X158785790Y-154205454D01*
X158918951Y-154393126D01*
X158993806Y-154498623D01*
X159233339Y-154766661D01*
X159501377Y-155006194D01*
X159677228Y-155130968D01*
X159794548Y-155214211D01*
X159964454Y-155308114D01*
X160105327Y-155385972D01*
X160154480Y-155435629D01*
X160168983Y-155503977D01*
X160144233Y-155569316D01*
X160088087Y-155610901D01*
X160045346Y-155618500D01*
X133624000Y-155618500D01*
X133556961Y-155598815D01*
X133511206Y-155546011D01*
X133500000Y-155494500D01*
X133500000Y-154500000D01*
X136000000Y-154500000D01*
X136000000Y-151302135D01*
X143229500Y-151302135D01*
X143229500Y-153497870D01*
X143229501Y-153497876D01*
X143235908Y-153557483D01*
X143286202Y-153692328D01*
X143286206Y-153692335D01*
X143372452Y-153807544D01*
X143372455Y-153807547D01*
X143487664Y-153893793D01*
X143487671Y-153893797D01*
X143622517Y-153944091D01*
X143622516Y-153944091D01*
X143629444Y-153944835D01*
X143682127Y-153950500D01*
X145877872Y-153950499D01*
X145937483Y-153944091D01*
X146072331Y-153893796D01*
X146187546Y-153807546D01*
X146265087Y-153703964D01*
X146321019Y-153662095D01*
X146390711Y-153657111D01*
X146429142Y-153672550D01*
X146613910Y-153785777D01*
X146839381Y-153879169D01*
X146839378Y-153879169D01*
X146839384Y-153879170D01*
X146839388Y-153879172D01*
X147076698Y-153936146D01*
X147320000Y-153955294D01*
X147563302Y-153936146D01*
X147800612Y-153879172D01*
X148026089Y-153785777D01*
X148234179Y-153658259D01*
X148419759Y-153499759D01*
X148495710Y-153410832D01*
X148554216Y-153372638D01*
X148624084Y-153372139D01*
X148683131Y-153409493D01*
X148684290Y-153410832D01*
X148758632Y-153497876D01*
X148760241Y-153499759D01*
X148795308Y-153529709D01*
X148945823Y-153658261D01*
X148945826Y-153658262D01*
X149153910Y-153785777D01*
X149379381Y-153879169D01*
X149379378Y-153879169D01*
X149379384Y-153879170D01*
X149379388Y-153879172D01*
X149616698Y-153936146D01*
X149860000Y-153955294D01*
X150103302Y-153936146D01*
X150340612Y-153879172D01*
X150566089Y-153785777D01*
X150774179Y-153658259D01*
X150959759Y-153499759D01*
X151035710Y-153410832D01*
X151094216Y-153372638D01*
X151164084Y-153372139D01*
X151223131Y-153409493D01*
X151224290Y-153410832D01*
X151298632Y-153497876D01*
X151300241Y-153499759D01*
X151335308Y-153529709D01*
X151485823Y-153658261D01*
X151485826Y-153658262D01*
X151693910Y-153785777D01*
X151919381Y-153879169D01*
X151919378Y-153879169D01*
X151919384Y-153879170D01*
X151919388Y-153879172D01*
X152156698Y-153936146D01*
X152400000Y-153955294D01*
X152643302Y-153936146D01*
X152880612Y-153879172D01*
X153106089Y-153785777D01*
X153314179Y-153658259D01*
X153499759Y-153499759D01*
X153658259Y-153314179D01*
X153785777Y-153106089D01*
X153879172Y-152880612D01*
X153936146Y-152643302D01*
X153955294Y-152400000D01*
X153936146Y-152156698D01*
X153879172Y-151919388D01*
X153879169Y-151919380D01*
X153785777Y-151693910D01*
X153658262Y-151485826D01*
X153658261Y-151485823D01*
X153608755Y-151427859D01*
X153499759Y-151300241D01*
X153333380Y-151158140D01*
X153314176Y-151141738D01*
X153314173Y-151141737D01*
X153106089Y-151014222D01*
X152880618Y-150920830D01*
X152880621Y-150920830D01*
X152774992Y-150895470D01*
X152643302Y-150863854D01*
X152643300Y-150863853D01*
X152643297Y-150863853D01*
X152400000Y-150844706D01*
X152156702Y-150863853D01*
X152156698Y-150863854D01*
X151980301Y-150906204D01*
X151919380Y-150920830D01*
X151693910Y-151014222D01*
X151485826Y-151141737D01*
X151485823Y-151141738D01*
X151300241Y-151300241D01*
X151224290Y-151389168D01*
X151165783Y-151427361D01*
X151095915Y-151427859D01*
X151036869Y-151390505D01*
X151035710Y-151389168D01*
X151017844Y-151368250D01*
X150959759Y-151300241D01*
X150793380Y-151158140D01*
X150774176Y-151141738D01*
X150774173Y-151141737D01*
X150566089Y-151014222D01*
X150340618Y-150920830D01*
X150340621Y-150920830D01*
X150234992Y-150895470D01*
X150103302Y-150863854D01*
X150103300Y-150863853D01*
X150103297Y-150863853D01*
X149860000Y-150844706D01*
X149616702Y-150863853D01*
X149616698Y-150863854D01*
X149440301Y-150906204D01*
X149379380Y-150920830D01*
X149153910Y-151014222D01*
X148945826Y-151141737D01*
X148945823Y-151141738D01*
X148760241Y-151300241D01*
X148684290Y-151389168D01*
X148625783Y-151427361D01*
X148555915Y-151427859D01*
X148496869Y-151390505D01*
X148495710Y-151389168D01*
X148477844Y-151368250D01*
X148419759Y-151300241D01*
X148253380Y-151158140D01*
X148234176Y-151141738D01*
X148234173Y-151141737D01*
X148026089Y-151014222D01*
X147800618Y-150920830D01*
X147800621Y-150920830D01*
X147694992Y-150895470D01*
X147563302Y-150863854D01*
X147563300Y-150863853D01*
X147563297Y-150863853D01*
X147320000Y-150844706D01*
X147076702Y-150863853D01*
X147076698Y-150863854D01*
X146900301Y-150906204D01*
X146839380Y-150920830D01*
X146613910Y-151014222D01*
X146429142Y-151127449D01*
X146361696Y-151145694D01*
X146295094Y-151124578D01*
X146265086Y-151096033D01*
X146187547Y-150992455D01*
X146187544Y-150992452D01*
X146072335Y-150906206D01*
X146072328Y-150906202D01*
X145937482Y-150855908D01*
X145937483Y-150855908D01*
X145877883Y-150849501D01*
X145877881Y-150849500D01*
X145877873Y-150849500D01*
X145877864Y-150849500D01*
X143682129Y-150849500D01*
X143682123Y-150849501D01*
X143622516Y-150855908D01*
X143487671Y-150906202D01*
X143487664Y-150906206D01*
X143372455Y-150992452D01*
X143372452Y-150992455D01*
X143286206Y-151107664D01*
X143286202Y-151107671D01*
X143235908Y-151242517D01*
X143229501Y-151302116D01*
X143229500Y-151302135D01*
X136000000Y-151302135D01*
X136000000Y-150500000D01*
X133500000Y-150500000D01*
X133500000Y-148624000D01*
X133519685Y-148556961D01*
X133572489Y-148511206D01*
X133624000Y-148500000D01*
X154750000Y-148500000D01*
X154813182Y-148436817D01*
X154874503Y-148403334D01*
X154900862Y-148400500D01*
X155094644Y-148400500D01*
X155094646Y-148400500D01*
X155279803Y-148361144D01*
X155452730Y-148284151D01*
X155605871Y-148172888D01*
X155732533Y-148032216D01*
X155827179Y-147868284D01*
X155885674Y-147688256D01*
X155905460Y-147500000D01*
X155896856Y-147418141D01*
X155909425Y-147349415D01*
X155932490Y-147317509D01*
X157313182Y-145936817D01*
X157374503Y-145903334D01*
X157400861Y-145900500D01*
X157594644Y-145900500D01*
X157594646Y-145900500D01*
X157779803Y-145861144D01*
X157952730Y-145784151D01*
X158105871Y-145672888D01*
X158232533Y-145532216D01*
X158327179Y-145368284D01*
X158385674Y-145188256D01*
X158405460Y-145000000D01*
X158396856Y-144918141D01*
X158409425Y-144849415D01*
X158432490Y-144817509D01*
X162493810Y-140756189D01*
X162508589Y-140743567D01*
X162605871Y-140672888D01*
X162732533Y-140532216D01*
X162827179Y-140368284D01*
X162885674Y-140188256D01*
X162905460Y-140000000D01*
X162885674Y-139811744D01*
X162827179Y-139631716D01*
X162732533Y-139467784D01*
X162682922Y-139412686D01*
X162605876Y-139327116D01*
X162605871Y-139327112D01*
X162551113Y-139287327D01*
X162508448Y-139231997D01*
X162500000Y-139187010D01*
X162500000Y-137812988D01*
X162519685Y-137745949D01*
X162551113Y-137712671D01*
X162605871Y-137672888D01*
X162732533Y-137532216D01*
X162827179Y-137368284D01*
X162885674Y-137188256D01*
X162905460Y-137000000D01*
X162885674Y-136811744D01*
X162827179Y-136631716D01*
X162732533Y-136467784D01*
X162682922Y-136412686D01*
X162605876Y-136327116D01*
X162605871Y-136327112D01*
X162551113Y-136287327D01*
X162508448Y-136231997D01*
X162500000Y-136187010D01*
X162500000Y-134812988D01*
X162519685Y-134745949D01*
X162551113Y-134712671D01*
X162605871Y-134672888D01*
X162732533Y-134532216D01*
X162827179Y-134368284D01*
X162885674Y-134188256D01*
X162905460Y-134000000D01*
X162885674Y-133811744D01*
X162827179Y-133631716D01*
X162732533Y-133467784D01*
X162671950Y-133400500D01*
X162605876Y-133327116D01*
X162605871Y-133327112D01*
X162551113Y-133287327D01*
X162508448Y-133231997D01*
X162500000Y-133187010D01*
X162500000Y-131812988D01*
X162519685Y-131745949D01*
X162551113Y-131712671D01*
X162605871Y-131672888D01*
X162732533Y-131532216D01*
X162827179Y-131368284D01*
X162885674Y-131188256D01*
X162905460Y-131000000D01*
X162885674Y-130811744D01*
X162827179Y-130631716D01*
X162732533Y-130467784D01*
X162605871Y-130327112D01*
X162605870Y-130327111D01*
X162452734Y-130215851D01*
X162452729Y-130215848D01*
X162279807Y-130138857D01*
X162279802Y-130138855D01*
X162136737Y-130108446D01*
X162075255Y-130075254D01*
X162074837Y-130074837D01*
X160925406Y-128925406D01*
X160891921Y-128864083D01*
X160889767Y-128850692D01*
X160885674Y-128811744D01*
X160827179Y-128631716D01*
X160732533Y-128467784D01*
X160605871Y-128327112D01*
X160605870Y-128327111D01*
X160452734Y-128215851D01*
X160452729Y-128215848D01*
X160279807Y-128138857D01*
X160279802Y-128138855D01*
X160136737Y-128108446D01*
X160075255Y-128075254D01*
X160074837Y-128074837D01*
X158999994Y-126999994D01*
X160994859Y-126999994D01*
X160994859Y-127000005D01*
X161015385Y-127247729D01*
X161015387Y-127247738D01*
X161076412Y-127488717D01*
X161176266Y-127716364D01*
X161276564Y-127869882D01*
X162017037Y-127129409D01*
X162034075Y-127192993D01*
X162099901Y-127307007D01*
X162192993Y-127400099D01*
X162307007Y-127465925D01*
X162370590Y-127482962D01*
X161629942Y-128223609D01*
X161676768Y-128260055D01*
X161676770Y-128260056D01*
X161895385Y-128378364D01*
X161895396Y-128378369D01*
X162130506Y-128459083D01*
X162375707Y-128500000D01*
X162624293Y-128500000D01*
X162869493Y-128459083D01*
X163104603Y-128378369D01*
X163104614Y-128378364D01*
X163323228Y-128260057D01*
X163323231Y-128260055D01*
X163370056Y-128223609D01*
X162629409Y-127482962D01*
X162692993Y-127465925D01*
X162807007Y-127400099D01*
X162900099Y-127307007D01*
X162965925Y-127192993D01*
X162982962Y-127129410D01*
X163723434Y-127869882D01*
X163823731Y-127716369D01*
X163923587Y-127488717D01*
X163984612Y-127247738D01*
X163984614Y-127247729D01*
X164005141Y-127000005D01*
X164005141Y-126999994D01*
X163984614Y-126752270D01*
X163984612Y-126752261D01*
X163923587Y-126511282D01*
X163823731Y-126283630D01*
X163723434Y-126130116D01*
X162982962Y-126870589D01*
X162965925Y-126807007D01*
X162900099Y-126692993D01*
X162807007Y-126599901D01*
X162692993Y-126534075D01*
X162629410Y-126517037D01*
X163370057Y-125776390D01*
X163370056Y-125776389D01*
X163323229Y-125739943D01*
X163104614Y-125621635D01*
X163104603Y-125621630D01*
X162869493Y-125540916D01*
X162624293Y-125500000D01*
X162375707Y-125500000D01*
X162130506Y-125540916D01*
X161895396Y-125621630D01*
X161895390Y-125621632D01*
X161676761Y-125739949D01*
X161629942Y-125776388D01*
X161629942Y-125776390D01*
X162370590Y-126517037D01*
X162307007Y-126534075D01*
X162192993Y-126599901D01*
X162099901Y-126692993D01*
X162034075Y-126807007D01*
X162017037Y-126870589D01*
X161276564Y-126130116D01*
X161176267Y-126283632D01*
X161076412Y-126511282D01*
X161015387Y-126752261D01*
X161015385Y-126752270D01*
X160994859Y-126999994D01*
X158999994Y-126999994D01*
X158536319Y-126536319D01*
X158502834Y-126474996D01*
X158500000Y-126448638D01*
X158500000Y-123523318D01*
X158519685Y-123456279D01*
X158572489Y-123410524D01*
X158641647Y-123400580D01*
X158705203Y-123429605D01*
X158721270Y-123446412D01*
X158722557Y-123448040D01*
X158844461Y-123569944D01*
X158844465Y-123569947D01*
X158991188Y-123660448D01*
X158991199Y-123660453D01*
X159154847Y-123714680D01*
X159255851Y-123724999D01*
X159355000Y-123724998D01*
X159355000Y-119774999D01*
X159255860Y-119775000D01*
X159255844Y-119775001D01*
X159154847Y-119785319D01*
X158991199Y-119839546D01*
X158991188Y-119839551D01*
X158844465Y-119930052D01*
X158844461Y-119930055D01*
X158722557Y-120051959D01*
X158721265Y-120053594D01*
X158720093Y-120054423D01*
X158717448Y-120057069D01*
X158716995Y-120056616D01*
X158664242Y-120093969D01*
X158594443Y-120097107D01*
X158534028Y-120062010D01*
X158502178Y-119999822D01*
X158500000Y-119976681D01*
X158500000Y-119051361D01*
X158519685Y-118984322D01*
X158536314Y-118963685D01*
X159280429Y-118219570D01*
X159341748Y-118186088D01*
X159411439Y-118191072D01*
X159440991Y-118206936D01*
X159547265Y-118284148D01*
X159547270Y-118284151D01*
X159720192Y-118361142D01*
X159720197Y-118361144D01*
X159905354Y-118400500D01*
X159905355Y-118400500D01*
X160094644Y-118400500D01*
X160094646Y-118400500D01*
X160279803Y-118361144D01*
X160452730Y-118284151D01*
X160605871Y-118172888D01*
X160724599Y-118041028D01*
X160784086Y-118004379D01*
X160816749Y-118000000D01*
X161683251Y-118000000D01*
X161750290Y-118019685D01*
G37*
%TD.AperFunction*%
%TA.AperFunction,Conductor*%
G36*
X113500000Y-142948638D02*
G01*
X113480315Y-143015677D01*
X113463681Y-143036319D01*
X113036319Y-143463681D01*
X112974996Y-143497166D01*
X112948638Y-143500000D01*
X111000000Y-143500000D01*
X110624000Y-143500000D01*
X110556961Y-143480315D01*
X110511206Y-143427511D01*
X110500000Y-143376000D01*
X110500000Y-143000000D01*
X110500000Y-140500000D01*
X113500000Y-140500000D01*
X113500000Y-142948638D01*
G37*
%TD.AperFunction*%
%TA.AperFunction,Conductor*%
G36*
X110000000Y-131000000D02*
G01*
X101551362Y-131000000D01*
X101484323Y-130980315D01*
X101463681Y-130963681D01*
X101036319Y-130536319D01*
X101002834Y-130474996D01*
X101000000Y-130448638D01*
X101000000Y-127551362D01*
X101019685Y-127484323D01*
X101036319Y-127463681D01*
X101463681Y-127036319D01*
X101525004Y-127002834D01*
X101551362Y-127000000D01*
X108000000Y-127000000D01*
X110000000Y-127000000D01*
X110000000Y-131000000D01*
G37*
%TD.AperFunction*%
%TA.AperFunction,Conductor*%
G36*
X107932016Y-148519685D02*
G01*
X107977771Y-148572489D01*
X107987715Y-148641647D01*
X107958690Y-148705203D01*
X107952658Y-148711681D01*
X107932684Y-148731654D01*
X107840643Y-148880875D01*
X107840641Y-148880880D01*
X107788743Y-149037500D01*
X110211256Y-149037500D01*
X110159358Y-148880880D01*
X110159356Y-148880875D01*
X110067315Y-148731654D01*
X110047342Y-148711681D01*
X110013857Y-148650358D01*
X110018841Y-148580666D01*
X110060713Y-148524733D01*
X110126177Y-148500316D01*
X110135023Y-148500000D01*
X110756000Y-148500000D01*
X110823039Y-148519685D01*
X110868794Y-148572489D01*
X110880000Y-148624000D01*
X110880000Y-149474999D01*
X110880002Y-149475000D01*
X112255000Y-149475000D01*
X112255000Y-148500000D01*
X113255000Y-148500000D01*
X113255000Y-149475000D01*
X113780000Y-149475000D01*
X113780000Y-148500000D01*
X114780000Y-148500000D01*
X114780000Y-149475000D01*
X115305000Y-149475000D01*
X115305000Y-148500000D01*
X116305000Y-148500000D01*
X116305000Y-149475000D01*
X117680000Y-149475000D01*
X117680000Y-148624000D01*
X117699685Y-148556961D01*
X117752489Y-148511206D01*
X117804000Y-148500000D01*
X118347555Y-148500000D01*
X118414594Y-148519685D01*
X118460349Y-148572489D01*
X118470293Y-148641647D01*
X118453094Y-148689097D01*
X118365643Y-148830875D01*
X118365641Y-148830880D01*
X118310495Y-148997298D01*
X118310494Y-148997305D01*
X118310219Y-149000000D01*
X120689780Y-149000000D01*
X120689505Y-148997305D01*
X120689504Y-148997298D01*
X120634358Y-148830880D01*
X120634356Y-148830875D01*
X120546906Y-148689097D01*
X120528466Y-148621705D01*
X120549388Y-148555041D01*
X120603030Y-148510271D01*
X120652445Y-148500000D01*
X132376000Y-148500000D01*
X132443039Y-148519685D01*
X132488794Y-148572489D01*
X132500000Y-148624000D01*
X132500000Y-150500000D01*
X130000000Y-150500000D01*
X130000000Y-154500000D01*
X132500000Y-154500000D01*
X132500000Y-155494500D01*
X132480315Y-155561539D01*
X132427511Y-155607294D01*
X132376000Y-155618500D01*
X106624000Y-155618500D01*
X106556961Y-155598815D01*
X106511206Y-155546011D01*
X106500000Y-155494500D01*
X106500000Y-153645335D01*
X106509439Y-153597882D01*
X106525659Y-153558724D01*
X106625173Y-153213300D01*
X106685387Y-152858907D01*
X106705543Y-152500000D01*
X106685387Y-152141093D01*
X106625173Y-151786700D01*
X106525659Y-151441276D01*
X106509437Y-151402114D01*
X106500000Y-151354664D01*
X106500000Y-151299988D01*
X110880001Y-151299988D01*
X110890494Y-151402699D01*
X110945640Y-151569120D01*
X110945642Y-151569125D01*
X111037683Y-151718346D01*
X111161653Y-151842316D01*
X111310874Y-151934357D01*
X111310879Y-151934359D01*
X111477302Y-151989506D01*
X111477300Y-151989506D01*
X111536134Y-151995516D01*
X111547124Y-152000000D01*
X111573701Y-152000000D01*
X111586304Y-152000642D01*
X111593461Y-152001373D01*
X111601419Y-152000000D01*
X111631375Y-152000000D01*
X111631384Y-151999999D01*
X112255000Y-151999999D01*
X113255000Y-151999999D01*
X113780000Y-151999999D01*
X114780000Y-151999999D01*
X115305000Y-151999999D01*
X116305000Y-151999999D01*
X116979974Y-151999999D01*
X116979988Y-151999998D01*
X117082699Y-151989505D01*
X117249120Y-151934359D01*
X117249125Y-151934357D01*
X117398346Y-151842316D01*
X117522316Y-151718346D01*
X117614357Y-151569125D01*
X117614359Y-151569120D01*
X117669505Y-151402698D01*
X117679999Y-151299988D01*
X117680000Y-151299975D01*
X117680000Y-150475000D01*
X116305000Y-150475000D01*
X116305000Y-151999999D01*
X115305000Y-151999999D01*
X115305000Y-150475000D01*
X114780000Y-150475000D01*
X114780000Y-151999999D01*
X113780000Y-151999999D01*
X113780000Y-150475000D01*
X113255000Y-150475000D01*
X113255000Y-151999999D01*
X112255000Y-151999999D01*
X112255000Y-150475000D01*
X110880001Y-150475000D01*
X110880001Y-151299988D01*
X106500000Y-151299988D01*
X106500000Y-150037500D01*
X107788743Y-150037500D01*
X107840641Y-150194119D01*
X107840643Y-150194124D01*
X107932684Y-150343345D01*
X108056654Y-150467315D01*
X108205875Y-150559356D01*
X108205880Y-150559358D01*
X108372302Y-150614505D01*
X108372309Y-150614506D01*
X108475019Y-150624999D01*
X109500000Y-150624999D01*
X109524972Y-150624999D01*
X109524986Y-150624998D01*
X109627697Y-150614505D01*
X109794119Y-150559358D01*
X109794124Y-150559356D01*
X109943345Y-150467315D01*
X110067315Y-150343345D01*
X110159356Y-150194124D01*
X110159358Y-150194119D01*
X110211257Y-150037500D01*
X109500000Y-150037500D01*
X109500000Y-150624999D01*
X108475019Y-150624999D01*
X108500000Y-150624998D01*
X108500000Y-150037500D01*
X107788743Y-150037500D01*
X106500000Y-150037500D01*
X106500000Y-150000000D01*
X118310219Y-150000000D01*
X118310494Y-150002694D01*
X118310495Y-150002701D01*
X118365641Y-150169119D01*
X118365643Y-150169124D01*
X118457684Y-150318345D01*
X118581654Y-150442315D01*
X118730875Y-150534356D01*
X118730880Y-150534358D01*
X118897302Y-150589505D01*
X118999999Y-150599997D01*
X119000000Y-150599996D01*
X119000000Y-150599995D01*
X120000000Y-150599995D01*
X120102695Y-150589506D01*
X120102698Y-150589505D01*
X120269119Y-150534358D01*
X120269124Y-150534356D01*
X120418345Y-150442315D01*
X120542315Y-150318345D01*
X120634356Y-150169124D01*
X120634358Y-150169119D01*
X120689504Y-150002701D01*
X120689505Y-150002694D01*
X120689781Y-150000000D01*
X120000000Y-150000000D01*
X120000000Y-150599995D01*
X119000000Y-150599995D01*
X119000000Y-150000000D01*
X118310219Y-150000000D01*
X106500000Y-150000000D01*
X106500000Y-149551362D01*
X106519685Y-149484323D01*
X106536319Y-149463681D01*
X107463681Y-148536319D01*
X107525004Y-148502834D01*
X107551362Y-148500000D01*
X107864977Y-148500000D01*
X107932016Y-148519685D01*
G37*
%TD.AperFunction*%
%TA.AperFunction,Conductor*%
G36*
X110015677Y-110019685D02*
G01*
X110036319Y-110036319D01*
X110463681Y-110463681D01*
X110497166Y-110525004D01*
X110500000Y-110551362D01*
X110500000Y-115000000D01*
X106709355Y-115000000D01*
X106646598Y-114982946D01*
X106550119Y-114926330D01*
X106470189Y-114879425D01*
X106379832Y-114845326D01*
X106251126Y-114796755D01*
X106251121Y-114796754D01*
X106021243Y-114752295D01*
X105968652Y-114749501D01*
X105968629Y-114749500D01*
X105968622Y-114749500D01*
X105800862Y-114749500D01*
X105733823Y-114729815D01*
X105713181Y-114713181D01*
X105536319Y-114536319D01*
X105502834Y-114474996D01*
X105500000Y-114448638D01*
X105500000Y-113312988D01*
X105519685Y-113245949D01*
X105551113Y-113212671D01*
X105605871Y-113172888D01*
X105732533Y-113032216D01*
X105827179Y-112868284D01*
X105885674Y-112688256D01*
X105905460Y-112500000D01*
X105885674Y-112311744D01*
X105827179Y-112131716D01*
X105732533Y-111967784D01*
X105682922Y-111912686D01*
X105605876Y-111827116D01*
X105605871Y-111827112D01*
X105551113Y-111787327D01*
X105508448Y-111731997D01*
X105500000Y-111687010D01*
X105500000Y-110812988D01*
X105519685Y-110745949D01*
X105551113Y-110712671D01*
X105605871Y-110672888D01*
X105732533Y-110532216D01*
X105827179Y-110368284D01*
X105885674Y-110188256D01*
X105889766Y-110149313D01*
X105916348Y-110084701D01*
X105925390Y-110074609D01*
X105963684Y-110036316D01*
X106025008Y-110002833D01*
X106051363Y-110000000D01*
X109948638Y-110000000D01*
X110015677Y-110019685D01*
G37*
%TD.AperFunction*%
%TA.AperFunction,Conductor*%
G36*
X132500000Y-154500000D02*
G01*
X130000000Y-154500000D01*
X130000000Y-150500000D01*
X132500000Y-150500000D01*
X132500000Y-154500000D01*
G37*
%TD.AperFunction*%
%TA.AperFunction,Conductor*%
G36*
X136000000Y-154500000D02*
G01*
X133500000Y-154500000D01*
X133500000Y-150500000D01*
X136000000Y-150500000D01*
X136000000Y-154500000D01*
G37*
%TD.AperFunction*%
%TA.AperFunction,Conductor*%
G36*
X110500000Y-127000000D02*
G01*
X113463681Y-129963681D01*
X113497166Y-130025004D01*
X113500000Y-130051362D01*
X113500000Y-140500000D01*
X112724825Y-140500000D01*
X112669124Y-140465643D01*
X112669119Y-140465641D01*
X112502697Y-140410494D01*
X112502690Y-140410493D01*
X112399986Y-140400000D01*
X112250000Y-140400000D01*
X112250000Y-140500000D01*
X111750000Y-140500000D01*
X111750000Y-140400000D01*
X111600027Y-140400000D01*
X111600012Y-140400001D01*
X111497302Y-140410494D01*
X111330880Y-140465641D01*
X111330875Y-140465643D01*
X111275174Y-140500000D01*
X110500000Y-140500000D01*
X110500000Y-143000000D01*
X110005511Y-142505511D01*
X109972026Y-142444188D01*
X109977010Y-142374496D01*
X110005511Y-142330148D01*
X110067317Y-142268342D01*
X110159356Y-142119124D01*
X110159358Y-142119119D01*
X110214505Y-141952697D01*
X110214506Y-141952690D01*
X110224999Y-141849986D01*
X110225000Y-141849973D01*
X110225000Y-141712500D01*
X107775001Y-141712500D01*
X107775001Y-141849986D01*
X107785494Y-141952698D01*
X107785854Y-141953784D01*
X107785878Y-141954495D01*
X107786911Y-141959319D01*
X107786050Y-141959503D01*
X107788254Y-142023613D01*
X107752521Y-142083654D01*
X107689999Y-142114844D01*
X107620540Y-142107282D01*
X107580466Y-142080466D01*
X107536319Y-142036319D01*
X107502834Y-141974996D01*
X107500000Y-141948638D01*
X107500000Y-141075013D01*
X107775000Y-141075013D01*
X107775000Y-141212500D01*
X108750000Y-141212500D01*
X109250000Y-141212500D01*
X110224999Y-141212500D01*
X110224999Y-141075028D01*
X110224998Y-141075013D01*
X110214505Y-140972302D01*
X110159358Y-140805880D01*
X110159356Y-140805875D01*
X110067315Y-140656654D01*
X109943345Y-140532684D01*
X109794124Y-140440643D01*
X109794119Y-140440641D01*
X109627697Y-140385494D01*
X109627690Y-140385493D01*
X109524986Y-140375000D01*
X109250000Y-140375000D01*
X109250000Y-141212500D01*
X108750000Y-141212500D01*
X108750000Y-140375000D01*
X108475029Y-140375000D01*
X108475012Y-140375001D01*
X108372302Y-140385494D01*
X108205880Y-140440641D01*
X108205875Y-140440643D01*
X108056654Y-140532684D01*
X107932684Y-140656654D01*
X107840643Y-140805875D01*
X107840641Y-140805880D01*
X107785494Y-140972302D01*
X107785493Y-140972309D01*
X107775000Y-141075013D01*
X107500000Y-141075013D01*
X107500000Y-140551362D01*
X107519685Y-140484323D01*
X107536319Y-140463681D01*
X107625000Y-140375000D01*
X108000000Y-140000000D01*
X108000000Y-131000000D01*
X110000000Y-131000000D01*
X110000000Y-127000000D01*
X108000000Y-127000000D01*
X108000000Y-125812988D01*
X108019685Y-125745949D01*
X108051113Y-125712671D01*
X108105871Y-125672888D01*
X108232533Y-125532216D01*
X108327179Y-125368284D01*
X108385674Y-125188256D01*
X108405460Y-125000000D01*
X108385674Y-124811744D01*
X108327179Y-124631716D01*
X108232533Y-124467784D01*
X108182922Y-124412686D01*
X108105876Y-124327116D01*
X108105871Y-124327112D01*
X108051113Y-124287327D01*
X108008448Y-124231997D01*
X108000000Y-124187010D01*
X108000000Y-123312988D01*
X108019685Y-123245949D01*
X108051113Y-123212671D01*
X108105871Y-123172888D01*
X108232533Y-123032216D01*
X108327179Y-122868284D01*
X108385674Y-122688256D01*
X108405460Y-122500000D01*
X108385674Y-122311744D01*
X108327179Y-122131716D01*
X108232533Y-121967784D01*
X108182922Y-121912686D01*
X108105876Y-121827116D01*
X108105871Y-121827112D01*
X108051113Y-121787327D01*
X108008448Y-121731997D01*
X108000000Y-121687010D01*
X108000000Y-120812988D01*
X108019685Y-120745949D01*
X108051113Y-120712671D01*
X108105871Y-120672888D01*
X108232533Y-120532216D01*
X108327179Y-120368284D01*
X108385674Y-120188256D01*
X108405460Y-120000000D01*
X108385674Y-119811744D01*
X108327179Y-119631716D01*
X108232533Y-119467784D01*
X108137481Y-119362218D01*
X108105876Y-119327116D01*
X108105871Y-119327112D01*
X108051113Y-119287327D01*
X108008448Y-119231997D01*
X108000000Y-119187010D01*
X108000000Y-115500000D01*
X107500000Y-115000000D01*
X110500000Y-115000000D01*
X110500000Y-127000000D01*
G37*
%TD.AperFunction*%
%TA.AperFunction,Conductor*%
G36*
X105958181Y-154604628D02*
G01*
X105991666Y-154665951D01*
X105994500Y-154692309D01*
X105994500Y-155494500D01*
X105974815Y-155561539D01*
X105922011Y-155607294D01*
X105870500Y-155618500D01*
X104953621Y-155618500D01*
X104886582Y-155598815D01*
X104840827Y-155546011D01*
X104830883Y-155476853D01*
X104859908Y-155413297D01*
X104893640Y-155385972D01*
X105205189Y-155213784D01*
X105205194Y-155213781D01*
X105498299Y-155005811D01*
X105498322Y-155005793D01*
X105579602Y-154933155D01*
X105579602Y-154933154D01*
X104790279Y-154143832D01*
X104882163Y-154181891D01*
X104981619Y-154181891D01*
X105073505Y-154143831D01*
X105143831Y-154073505D01*
X105181891Y-153981619D01*
X105181891Y-153882163D01*
X105143831Y-153790278D01*
X105958181Y-154604628D01*
G37*
%TD.AperFunction*%
%TA.AperFunction,Conductor*%
G36*
X105073503Y-153719950D02*
G01*
X104981619Y-153681891D01*
X104882163Y-153681891D01*
X104790277Y-153719951D01*
X104719951Y-153790277D01*
X104681891Y-153882163D01*
X104681891Y-153981619D01*
X104719949Y-154073502D01*
X104261718Y-153615270D01*
X104379466Y-153529722D01*
X104529722Y-153379466D01*
X104615270Y-153261717D01*
X105073503Y-153719950D01*
G37*
%TD.AperFunction*%
%TA.AperFunction,Conductor*%
G36*
X102738282Y-151384729D02*
G01*
X102620534Y-151470278D01*
X102470278Y-151620534D01*
X102384729Y-151738282D01*
X101926496Y-151280049D01*
X102018381Y-151318109D01*
X102117837Y-151318109D01*
X102209723Y-151280049D01*
X102280049Y-151209723D01*
X102318109Y-151117837D01*
X102318109Y-151018381D01*
X102280049Y-150926496D01*
X102738282Y-151384729D01*
G37*
%TD.AperFunction*%
%TA.AperFunction,Conductor*%
G36*
X139130000Y-106120633D02*
G01*
X139343483Y-106063433D01*
X139343492Y-106063429D01*
X139557578Y-105963600D01*
X139751082Y-105828105D01*
X139918105Y-105661082D01*
X140048119Y-105475405D01*
X140102696Y-105431781D01*
X140172195Y-105424588D01*
X140234549Y-105456110D01*
X140251269Y-105475405D01*
X140381505Y-105661401D01*
X140548599Y-105828495D01*
X140629571Y-105885192D01*
X140742165Y-105964032D01*
X140742167Y-105964033D01*
X140742170Y-105964035D01*
X140956337Y-106063903D01*
X140956343Y-106063904D01*
X140956344Y-106063905D01*
X140985940Y-106071835D01*
X141184592Y-106125063D01*
X141372918Y-106141539D01*
X141419999Y-106145659D01*
X141420000Y-106145659D01*
X141420001Y-106145659D01*
X141459234Y-106142226D01*
X141655408Y-106125063D01*
X141883663Y-106063903D01*
X142097830Y-105964035D01*
X142291401Y-105828495D01*
X142458495Y-105661401D01*
X142588425Y-105475842D01*
X142643002Y-105432217D01*
X142712500Y-105425023D01*
X142774855Y-105456546D01*
X142791575Y-105475842D01*
X142921281Y-105661082D01*
X142921505Y-105661401D01*
X143088599Y-105828495D01*
X143169571Y-105885192D01*
X143282165Y-105964032D01*
X143282167Y-105964033D01*
X143282170Y-105964035D01*
X143496337Y-106063903D01*
X143496343Y-106063904D01*
X143496344Y-106063905D01*
X143525940Y-106071835D01*
X143724592Y-106125063D01*
X143912918Y-106141539D01*
X143959999Y-106145659D01*
X143960000Y-106145659D01*
X143960001Y-106145659D01*
X143999234Y-106142226D01*
X144195408Y-106125063D01*
X144199587Y-106123943D01*
X144269436Y-106125602D01*
X144327301Y-106164761D01*
X144354808Y-106228988D01*
X144343225Y-106297891D01*
X144319367Y-106331397D01*
X143519481Y-107131282D01*
X143519479Y-107131284D01*
X143516284Y-107136819D01*
X143493006Y-107177139D01*
X143440423Y-107268215D01*
X143399499Y-107420943D01*
X143399499Y-107420945D01*
X143399499Y-107589046D01*
X143399500Y-107589059D01*
X143399500Y-107819699D01*
X143379815Y-107886738D01*
X143327011Y-107932493D01*
X143314507Y-107937403D01*
X143305399Y-107940422D01*
X143230668Y-107965185D01*
X143230663Y-107965187D01*
X143081342Y-108057289D01*
X142957289Y-108181342D01*
X142865187Y-108330663D01*
X142865185Y-108330668D01*
X142863194Y-108336677D01*
X142810001Y-108497203D01*
X142810001Y-108497204D01*
X142810000Y-108497204D01*
X142799500Y-108599983D01*
X142799500Y-109400001D01*
X142799501Y-109400019D01*
X142810000Y-109502796D01*
X142810001Y-109502799D01*
X142865185Y-109669331D01*
X142865187Y-109669336D01*
X142886603Y-109704057D01*
X142930862Y-109775813D01*
X142957289Y-109818657D01*
X143050951Y-109912319D01*
X143084436Y-109973642D01*
X143079452Y-110043334D01*
X143050951Y-110087681D01*
X142957289Y-110181342D01*
X142865187Y-110330663D01*
X142865185Y-110330668D01*
X142863233Y-110336559D01*
X142810001Y-110497203D01*
X142810001Y-110497204D01*
X142810000Y-110497204D01*
X142799500Y-110599983D01*
X142799500Y-111400001D01*
X142799501Y-111400019D01*
X142810000Y-111502796D01*
X142810001Y-111502799D01*
X142865185Y-111669331D01*
X142865187Y-111669336D01*
X142876090Y-111687013D01*
X142957288Y-111818656D01*
X143081344Y-111942712D01*
X143230666Y-112034814D01*
X143314505Y-112062595D01*
X143371948Y-112102366D01*
X143398772Y-112166882D01*
X143399500Y-112180300D01*
X143399500Y-114773547D01*
X143379815Y-114840586D01*
X143367650Y-114856519D01*
X143267466Y-114967785D01*
X143172821Y-115131715D01*
X143172818Y-115131722D01*
X143126417Y-115274531D01*
X143114326Y-115311744D01*
X143094540Y-115500000D01*
X143114326Y-115688256D01*
X143114327Y-115688259D01*
X143172818Y-115868277D01*
X143172821Y-115868284D01*
X143267467Y-116032216D01*
X143355346Y-116129815D01*
X143394129Y-116172888D01*
X143547265Y-116284148D01*
X143547270Y-116284151D01*
X143720192Y-116361142D01*
X143720197Y-116361144D01*
X143905354Y-116400500D01*
X143905355Y-116400500D01*
X144094644Y-116400500D01*
X144094646Y-116400500D01*
X144279803Y-116361144D01*
X144452730Y-116284151D01*
X144605871Y-116172888D01*
X144732533Y-116032216D01*
X144827179Y-115868284D01*
X144885674Y-115688256D01*
X144905460Y-115500000D01*
X144885674Y-115311744D01*
X144827179Y-115131716D01*
X144732533Y-114967784D01*
X144645654Y-114871295D01*
X144632350Y-114856519D01*
X144602120Y-114793527D01*
X144600500Y-114773547D01*
X144600500Y-112180300D01*
X144620185Y-112113261D01*
X144672989Y-112067506D01*
X144685482Y-112062599D01*
X144769334Y-112034814D01*
X144918656Y-111942712D01*
X145042712Y-111818656D01*
X145134814Y-111669334D01*
X145134817Y-111669322D01*
X145137615Y-111663325D01*
X145183785Y-111610884D01*
X145250977Y-111591728D01*
X145317859Y-111611940D01*
X145362385Y-111663325D01*
X145365184Y-111669330D01*
X145365186Y-111669334D01*
X145457288Y-111818656D01*
X145581344Y-111942712D01*
X145730666Y-112034814D01*
X145814505Y-112062595D01*
X145871948Y-112102366D01*
X145898772Y-112166882D01*
X145899500Y-112180300D01*
X145899500Y-114773547D01*
X145879815Y-114840586D01*
X145867650Y-114856519D01*
X145767466Y-114967785D01*
X145672821Y-115131715D01*
X145672818Y-115131722D01*
X145626417Y-115274531D01*
X145614326Y-115311744D01*
X145594540Y-115500000D01*
X145614326Y-115688256D01*
X145614327Y-115688259D01*
X145672818Y-115868277D01*
X145672821Y-115868284D01*
X145767467Y-116032216D01*
X145855346Y-116129815D01*
X145894129Y-116172888D01*
X146047265Y-116284148D01*
X146047270Y-116284151D01*
X146220192Y-116361142D01*
X146220197Y-116361144D01*
X146405354Y-116400500D01*
X146405355Y-116400500D01*
X146594644Y-116400500D01*
X146594646Y-116400500D01*
X146779803Y-116361144D01*
X146952730Y-116284151D01*
X147105871Y-116172888D01*
X147232533Y-116032216D01*
X147327179Y-115868284D01*
X147385674Y-115688256D01*
X147405460Y-115500000D01*
X147385674Y-115311744D01*
X147327179Y-115131716D01*
X147232533Y-114967784D01*
X147145654Y-114871295D01*
X147132350Y-114856519D01*
X147102120Y-114793527D01*
X147100500Y-114773547D01*
X147100500Y-112180300D01*
X147120185Y-112113261D01*
X147172989Y-112067506D01*
X147185482Y-112062599D01*
X147269334Y-112034814D01*
X147418656Y-111942712D01*
X147542712Y-111818656D01*
X147634814Y-111669334D01*
X147634817Y-111669322D01*
X147637615Y-111663325D01*
X147683785Y-111610884D01*
X147750977Y-111591728D01*
X147817859Y-111611940D01*
X147862385Y-111663325D01*
X147865184Y-111669330D01*
X147865186Y-111669334D01*
X147957288Y-111818656D01*
X148081344Y-111942712D01*
X148230666Y-112034814D01*
X148314505Y-112062595D01*
X148371948Y-112102366D01*
X148398772Y-112166882D01*
X148399500Y-112180300D01*
X148399500Y-121913330D01*
X148399499Y-121913348D01*
X148399499Y-122079054D01*
X148399498Y-122079054D01*
X148440423Y-122231785D01*
X148469358Y-122281900D01*
X148469359Y-122281904D01*
X148469360Y-122281904D01*
X148514388Y-122359897D01*
X148519479Y-122368714D01*
X148519481Y-122368717D01*
X148638349Y-122487585D01*
X148638355Y-122487590D01*
X153265139Y-127114374D01*
X153265149Y-127114385D01*
X153269479Y-127118715D01*
X153269480Y-127118716D01*
X153381284Y-127230520D01*
X153381286Y-127230521D01*
X153381290Y-127230524D01*
X153470821Y-127282214D01*
X153518216Y-127309577D01*
X153605453Y-127332952D01*
X153670942Y-127350500D01*
X153670943Y-127350500D01*
X154945149Y-127350500D01*
X155012188Y-127370185D01*
X155057943Y-127422989D01*
X155068439Y-127461248D01*
X155073408Y-127507483D01*
X155123702Y-127642328D01*
X155123704Y-127642331D01*
X155148987Y-127676105D01*
X155173405Y-127741568D01*
X155158554Y-127809841D01*
X155148988Y-127824726D01*
X155124149Y-127857906D01*
X155124145Y-127857913D01*
X155073903Y-127992620D01*
X155073901Y-127992627D01*
X155067500Y-128052155D01*
X155067500Y-128500000D01*
X158067500Y-128500000D01*
X158067500Y-128052172D01*
X158067499Y-128052155D01*
X158061098Y-127992627D01*
X158061096Y-127992620D01*
X158010854Y-127857913D01*
X158010852Y-127857910D01*
X157986012Y-127824728D01*
X157961594Y-127759264D01*
X157976445Y-127690990D01*
X157986005Y-127676114D01*
X158011296Y-127642331D01*
X158061591Y-127507483D01*
X158068000Y-127447873D01*
X158067999Y-127082244D01*
X158087683Y-127015207D01*
X158140487Y-126969452D01*
X158209646Y-126959508D01*
X158273201Y-126988533D01*
X158279680Y-126994565D01*
X159717717Y-128432602D01*
X159718068Y-128432952D01*
X159718241Y-128433124D01*
X159719522Y-128434397D01*
X159835114Y-128520071D01*
X159896596Y-128553263D01*
X160031639Y-128602900D01*
X160109992Y-128619553D01*
X160134635Y-128627560D01*
X160186684Y-128650735D01*
X160209126Y-128663692D01*
X160255222Y-128697182D01*
X160274483Y-128714525D01*
X160312599Y-128756857D01*
X160327837Y-128777830D01*
X160356321Y-128827167D01*
X160366864Y-128850847D01*
X160385650Y-128908663D01*
X160390335Y-128929308D01*
X160390412Y-128929296D01*
X160390603Y-128930487D01*
X160390636Y-128930630D01*
X160390681Y-128930968D01*
X160392836Y-128944370D01*
X160397971Y-128971531D01*
X160437351Y-129077111D01*
X160448255Y-129106344D01*
X160481740Y-129167667D01*
X160567964Y-129282848D01*
X160567968Y-129282852D01*
X160567973Y-129282858D01*
X161717717Y-130432602D01*
X161718068Y-130432952D01*
X161718241Y-130433124D01*
X161719522Y-130434397D01*
X161835114Y-130520071D01*
X161896596Y-130553263D01*
X162031639Y-130602900D01*
X162109992Y-130619553D01*
X162134635Y-130627560D01*
X162186684Y-130650735D01*
X162209126Y-130663692D01*
X162255222Y-130697182D01*
X162274480Y-130714522D01*
X162312599Y-130756857D01*
X162327836Y-130777829D01*
X162356320Y-130827165D01*
X162366864Y-130850847D01*
X162384468Y-130905027D01*
X162389858Y-130930385D01*
X162395812Y-130987039D01*
X162395812Y-131012959D01*
X162389858Y-131069613D01*
X162384468Y-131094971D01*
X162366864Y-131149151D01*
X162356320Y-131172833D01*
X162327836Y-131222169D01*
X162312598Y-131243142D01*
X162274484Y-131285471D01*
X162256236Y-131301905D01*
X162256241Y-131301911D01*
X162256140Y-131301991D01*
X162255246Y-131302797D01*
X162254014Y-131303692D01*
X162253996Y-131303706D01*
X162183600Y-131365590D01*
X162183599Y-131365591D01*
X162152172Y-131398868D01*
X162094434Y-131472649D01*
X162034663Y-131603525D01*
X162014976Y-131670570D01*
X161994500Y-131812989D01*
X161994500Y-133187013D01*
X162003182Y-133280296D01*
X162003182Y-133280298D01*
X162011631Y-133325290D01*
X162037388Y-133415391D01*
X162037389Y-133415392D01*
X162108139Y-133540676D01*
X162108143Y-133540682D01*
X162108145Y-133540684D01*
X162150803Y-133596005D01*
X162150812Y-133596015D01*
X162202705Y-133646447D01*
X162253983Y-133696282D01*
X162253985Y-133696284D01*
X162253988Y-133696286D01*
X162255216Y-133697178D01*
X162274482Y-133714525D01*
X162296287Y-133738742D01*
X162296291Y-133738746D01*
X162308132Y-133751897D01*
X162312597Y-133756855D01*
X162327836Y-133777829D01*
X162356320Y-133827165D01*
X162366864Y-133850847D01*
X162384468Y-133905027D01*
X162389858Y-133930385D01*
X162395812Y-133987039D01*
X162395812Y-134012959D01*
X162389858Y-134069613D01*
X162384468Y-134094971D01*
X162366864Y-134149151D01*
X162356320Y-134172833D01*
X162327836Y-134222169D01*
X162312598Y-134243142D01*
X162274484Y-134285471D01*
X162256236Y-134301905D01*
X162256241Y-134301911D01*
X162256140Y-134301991D01*
X162255246Y-134302797D01*
X162254014Y-134303692D01*
X162253996Y-134303706D01*
X162183600Y-134365590D01*
X162183599Y-134365591D01*
X162152172Y-134398868D01*
X162094434Y-134472649D01*
X162034663Y-134603525D01*
X162014976Y-134670570D01*
X161994500Y-134812989D01*
X161994500Y-136187013D01*
X162003182Y-136280296D01*
X162003182Y-136280298D01*
X162011631Y-136325290D01*
X162037388Y-136415391D01*
X162037389Y-136415392D01*
X162108139Y-136540676D01*
X162108143Y-136540682D01*
X162108145Y-136540684D01*
X162150803Y-136596005D01*
X162150812Y-136596015D01*
X162241482Y-136684133D01*
X162253983Y-136696282D01*
X162253985Y-136696284D01*
X162253988Y-136696286D01*
X162255216Y-136697178D01*
X162274484Y-136714527D01*
X162305674Y-136749168D01*
X162312601Y-136756861D01*
X162327837Y-136777831D01*
X162346695Y-136810494D01*
X162356320Y-136827165D01*
X162366863Y-136850845D01*
X162384468Y-136905026D01*
X162389858Y-136930385D01*
X162395812Y-136987039D01*
X162395812Y-137012959D01*
X162389858Y-137069613D01*
X162384468Y-137094971D01*
X162366864Y-137149151D01*
X162356320Y-137172833D01*
X162327836Y-137222169D01*
X162312598Y-137243142D01*
X162274484Y-137285471D01*
X162256236Y-137301905D01*
X162256241Y-137301911D01*
X162256140Y-137301991D01*
X162255246Y-137302797D01*
X162254014Y-137303692D01*
X162253996Y-137303706D01*
X162183600Y-137365590D01*
X162183599Y-137365591D01*
X162152172Y-137398868D01*
X162094434Y-137472649D01*
X162034663Y-137603525D01*
X162014976Y-137670570D01*
X161994500Y-137812989D01*
X161994500Y-139187013D01*
X162003182Y-139280296D01*
X162003182Y-139280298D01*
X162011631Y-139325290D01*
X162037388Y-139415391D01*
X162054724Y-139446089D01*
X162108139Y-139540676D01*
X162108143Y-139540682D01*
X162108145Y-139540684D01*
X162150803Y-139596005D01*
X162150812Y-139596015D01*
X162186713Y-139630905D01*
X162253983Y-139696282D01*
X162253985Y-139696284D01*
X162253988Y-139696286D01*
X162255216Y-139697178D01*
X162274484Y-139714527D01*
X162305674Y-139749168D01*
X162312601Y-139756861D01*
X162327837Y-139777831D01*
X162344270Y-139806293D01*
X162356320Y-139827165D01*
X162366863Y-139850845D01*
X162384468Y-139905026D01*
X162389858Y-139930385D01*
X162395812Y-139987039D01*
X162395812Y-140012959D01*
X162389858Y-140069613D01*
X162384468Y-140094971D01*
X162366864Y-140149151D01*
X162356320Y-140172833D01*
X162327836Y-140222169D01*
X162312598Y-140243142D01*
X162274483Y-140285472D01*
X162255222Y-140302815D01*
X162211475Y-140334600D01*
X162180294Y-140359180D01*
X162165516Y-140371801D01*
X162136364Y-140398749D01*
X158075059Y-144460055D01*
X158075052Y-144460063D01*
X158075048Y-144460067D01*
X158055633Y-144482853D01*
X158022823Y-144521360D01*
X158022810Y-144521377D01*
X157999766Y-144553254D01*
X157999756Y-144553269D01*
X157957936Y-144622064D01*
X157912173Y-144758470D01*
X157912172Y-144758474D01*
X157912172Y-144758475D01*
X157901034Y-144819380D01*
X157899603Y-144827202D01*
X157899546Y-144827833D01*
X157899513Y-144829567D01*
X157894124Y-144970983D01*
X157894124Y-144970985D01*
X157895812Y-144987046D01*
X157895812Y-145012963D01*
X157889858Y-145069614D01*
X157884468Y-145094971D01*
X157866864Y-145149151D01*
X157856320Y-145172833D01*
X157827836Y-145222169D01*
X157812599Y-145243141D01*
X157774488Y-145285468D01*
X157755221Y-145302816D01*
X157709124Y-145336306D01*
X157686677Y-145349265D01*
X157634639Y-145372434D01*
X157609986Y-145380445D01*
X157572790Y-145388352D01*
X157554263Y-145392290D01*
X157528482Y-145395000D01*
X157400859Y-145395000D01*
X157346810Y-145397897D01*
X157346809Y-145397897D01*
X157320476Y-145400729D01*
X157320449Y-145400732D01*
X157267059Y-145409384D01*
X157267053Y-145409385D01*
X157132246Y-145459665D01*
X157132239Y-145459668D01*
X157072880Y-145492080D01*
X157071406Y-145492850D01*
X157070923Y-145493148D01*
X156955741Y-145579373D01*
X156955729Y-145579384D01*
X155575059Y-146960055D01*
X155575052Y-146960063D01*
X155575048Y-146960067D01*
X155555633Y-146982853D01*
X155522823Y-147021360D01*
X155522810Y-147021377D01*
X155499766Y-147053254D01*
X155499756Y-147053269D01*
X155457936Y-147122064D01*
X155412173Y-147258470D01*
X155399603Y-147327202D01*
X155399546Y-147327833D01*
X155399513Y-147329567D01*
X155394124Y-147470983D01*
X155394124Y-147470985D01*
X155395812Y-147487046D01*
X155395812Y-147512963D01*
X155389858Y-147569614D01*
X155384468Y-147594971D01*
X155366864Y-147649151D01*
X155356320Y-147672833D01*
X155327836Y-147722169D01*
X155312599Y-147743141D01*
X155274488Y-147785468D01*
X155255221Y-147802816D01*
X155209124Y-147836306D01*
X155186677Y-147849265D01*
X155134639Y-147872434D01*
X155109986Y-147880445D01*
X155072790Y-147888352D01*
X155054263Y-147892290D01*
X155028482Y-147895000D01*
X154900861Y-147895000D01*
X154846811Y-147897897D01*
X154820482Y-147900728D01*
X154798526Y-147904285D01*
X154767056Y-147909385D01*
X154767054Y-147909385D01*
X154767052Y-147909386D01*
X154632246Y-147959665D01*
X154632240Y-147959668D01*
X154596226Y-147979333D01*
X154536801Y-147994500D01*
X135731910Y-147994500D01*
X135664871Y-147974815D01*
X135619116Y-147922011D01*
X135609172Y-147852853D01*
X135612644Y-147836566D01*
X135618780Y-147814997D01*
X135636397Y-147753083D01*
X135655215Y-147550000D01*
X135636397Y-147346917D01*
X135580582Y-147150750D01*
X135489673Y-146968179D01*
X135424579Y-146881980D01*
X135366762Y-146805418D01*
X135216041Y-146668019D01*
X135216039Y-146668017D01*
X135042642Y-146560655D01*
X135042635Y-146560651D01*
X134860006Y-146489901D01*
X134852456Y-146486976D01*
X134651976Y-146449500D01*
X134448024Y-146449500D01*
X134247544Y-146486976D01*
X134247541Y-146486976D01*
X134247541Y-146486977D01*
X134057364Y-146560651D01*
X134057357Y-146560655D01*
X133883960Y-146668017D01*
X133883958Y-146668019D01*
X133733237Y-146805418D01*
X133610327Y-146968178D01*
X133519422Y-147150739D01*
X133519417Y-147150752D01*
X133463602Y-147346917D01*
X133444785Y-147549999D01*
X133444785Y-147550000D01*
X133463602Y-147753082D01*
X133463603Y-147753084D01*
X133499919Y-147880721D01*
X133499332Y-147950588D01*
X133461066Y-148009047D01*
X133419813Y-148032309D01*
X133362500Y-148051384D01*
X133362496Y-148051386D01*
X133241462Y-148129171D01*
X133241451Y-148129179D01*
X133188659Y-148174923D01*
X133090093Y-148288672D01*
X133031314Y-148326446D01*
X132961445Y-148326445D01*
X132902667Y-148288670D01*
X132892065Y-148274507D01*
X132870826Y-148241458D01*
X132870820Y-148241451D01*
X132825076Y-148188659D01*
X132825072Y-148188656D01*
X132825070Y-148188653D01*
X132716336Y-148094433D01*
X132716333Y-148094431D01*
X132716331Y-148094430D01*
X132585465Y-148034664D01*
X132585460Y-148034662D01*
X132585459Y-148034662D01*
X132518420Y-148014977D01*
X132518422Y-148014977D01*
X132518417Y-148014976D01*
X132434236Y-148002873D01*
X132376000Y-147994500D01*
X132375998Y-147994500D01*
X120824500Y-147994500D01*
X120757461Y-147974815D01*
X120711706Y-147922011D01*
X120700500Y-147870500D01*
X120700499Y-147099998D01*
X120700498Y-147099980D01*
X120689999Y-146997203D01*
X120689998Y-146997200D01*
X120645695Y-146863503D01*
X120643293Y-146793675D01*
X120679025Y-146733633D01*
X120741545Y-146702440D01*
X120763401Y-146700499D01*
X120900002Y-146700499D01*
X120900008Y-146700499D01*
X121002797Y-146689999D01*
X121169334Y-146634814D01*
X121318656Y-146542712D01*
X121412675Y-146448692D01*
X121473994Y-146415210D01*
X121543686Y-146420194D01*
X121588034Y-146448695D01*
X121681654Y-146542315D01*
X121830875Y-146634356D01*
X121830880Y-146634358D01*
X121997302Y-146689505D01*
X121997309Y-146689506D01*
X122100019Y-146699999D01*
X122249999Y-146699999D01*
X122750000Y-146699999D01*
X122899972Y-146699999D01*
X122899986Y-146699998D01*
X123002697Y-146689505D01*
X123169119Y-146634358D01*
X123169124Y-146634356D01*
X123318345Y-146542315D01*
X123442315Y-146418345D01*
X123534356Y-146269124D01*
X123534358Y-146269119D01*
X123589505Y-146102697D01*
X123589506Y-146102690D01*
X123599999Y-145999986D01*
X123600000Y-145999973D01*
X123600000Y-145750000D01*
X122750000Y-145750000D01*
X122750000Y-146699999D01*
X122249999Y-146699999D01*
X122250000Y-146699998D01*
X122250000Y-145374000D01*
X122269685Y-145306961D01*
X122322489Y-145261206D01*
X122374000Y-145250000D01*
X123599999Y-145250000D01*
X123599999Y-145000028D01*
X123599998Y-145000013D01*
X123589505Y-144897302D01*
X123534358Y-144730880D01*
X123534356Y-144730875D01*
X123442315Y-144581654D01*
X123318345Y-144457684D01*
X123169115Y-144365638D01*
X123162715Y-144362654D01*
X123110275Y-144316482D01*
X123091123Y-144249289D01*
X123111338Y-144182408D01*
X123163014Y-144138342D01*
X123162791Y-144137864D01*
X123169326Y-144134816D01*
X123169334Y-144134814D01*
X123318656Y-144042712D01*
X123442712Y-143918656D01*
X123510099Y-143809402D01*
X123562047Y-143762679D01*
X123615638Y-143750500D01*
X125823920Y-143750500D01*
X125921462Y-143731096D01*
X125968913Y-143721658D01*
X126105495Y-143665084D01*
X126154729Y-143632186D01*
X126228416Y-143582952D01*
X126388322Y-143423045D01*
X126449642Y-143389563D01*
X126519333Y-143394547D01*
X126575267Y-143436418D01*
X126599684Y-143501883D01*
X126600000Y-143510729D01*
X126600000Y-144264182D01*
X126600001Y-144264197D01*
X126610400Y-144396332D01*
X126665377Y-144614519D01*
X126758428Y-144819374D01*
X126758431Y-144819380D01*
X126886559Y-145004323D01*
X126886569Y-145004335D01*
X127045664Y-145163430D01*
X127045676Y-145163440D01*
X127230619Y-145291568D01*
X127230625Y-145291571D01*
X127435480Y-145384622D01*
X127653667Y-145439599D01*
X127785810Y-145449999D01*
X128349999Y-145449999D01*
X128350000Y-145449998D01*
X128350000Y-143967904D01*
X128511358Y-144000000D01*
X128688642Y-144000000D01*
X128850000Y-143967904D01*
X128850000Y-145449999D01*
X129414182Y-145449999D01*
X129414197Y-145449998D01*
X129546332Y-145439599D01*
X129764519Y-145384622D01*
X129969374Y-145291571D01*
X129969380Y-145291568D01*
X130154323Y-145163440D01*
X130154335Y-145163430D01*
X130313430Y-145004335D01*
X130313440Y-145004323D01*
X130441568Y-144819380D01*
X130441571Y-144819374D01*
X130534622Y-144614519D01*
X130589599Y-144396332D01*
X130599999Y-144264196D01*
X130600000Y-144264184D01*
X130600000Y-143200000D01*
X129497741Y-143200000D01*
X129500000Y-143188642D01*
X129500000Y-142711358D01*
X129497741Y-142700000D01*
X130599999Y-142700000D01*
X130599999Y-141635817D01*
X130599998Y-141635803D01*
X135400000Y-141635803D01*
X135400000Y-142700000D01*
X136502259Y-142700000D01*
X136500000Y-142711358D01*
X136500000Y-143188642D01*
X136502259Y-143200000D01*
X135400001Y-143200000D01*
X135400001Y-144264197D01*
X135410400Y-144396332D01*
X135465377Y-144614519D01*
X135558428Y-144819374D01*
X135558431Y-144819380D01*
X135686559Y-145004323D01*
X135686569Y-145004335D01*
X135845664Y-145163430D01*
X135845676Y-145163440D01*
X136030619Y-145291568D01*
X136030625Y-145291571D01*
X136235480Y-145384622D01*
X136453667Y-145439599D01*
X136585810Y-145449999D01*
X137149999Y-145449999D01*
X137150000Y-145449998D01*
X137150000Y-143967904D01*
X137311358Y-144000000D01*
X137488642Y-144000000D01*
X137650000Y-143967904D01*
X137650000Y-145449999D01*
X138214182Y-145449999D01*
X138214197Y-145449998D01*
X138346332Y-145439599D01*
X138564519Y-145384622D01*
X138769374Y-145291571D01*
X138769380Y-145291568D01*
X138954323Y-145163440D01*
X138954335Y-145163430D01*
X139113430Y-145004335D01*
X139113440Y-145004323D01*
X139241568Y-144819380D01*
X139241571Y-144819374D01*
X139334622Y-144614519D01*
X139389599Y-144396332D01*
X139399999Y-144264196D01*
X139400000Y-144264184D01*
X139400000Y-143200000D01*
X138297741Y-143200000D01*
X138300000Y-143188642D01*
X138300000Y-142711358D01*
X138297741Y-142700000D01*
X139399999Y-142700000D01*
X139399999Y-141635817D01*
X139399998Y-141635802D01*
X139389599Y-141503667D01*
X139334622Y-141285480D01*
X139241571Y-141080625D01*
X139241568Y-141080619D01*
X139113440Y-140895676D01*
X139113430Y-140895664D01*
X138954335Y-140736569D01*
X138954323Y-140736559D01*
X138769380Y-140608431D01*
X138769374Y-140608428D01*
X138564519Y-140515377D01*
X138346332Y-140460400D01*
X138214196Y-140450000D01*
X137650000Y-140450000D01*
X137650000Y-141932095D01*
X137488642Y-141900000D01*
X137311358Y-141900000D01*
X137150000Y-141932095D01*
X137150000Y-140450000D01*
X136585817Y-140450000D01*
X136585802Y-140450001D01*
X136453667Y-140460400D01*
X136235480Y-140515377D01*
X136030625Y-140608428D01*
X136030619Y-140608431D01*
X135845676Y-140736559D01*
X135845664Y-140736569D01*
X135686569Y-140895664D01*
X135686559Y-140895676D01*
X135558431Y-141080619D01*
X135558428Y-141080625D01*
X135465377Y-141285480D01*
X135410400Y-141503667D01*
X135400000Y-141635803D01*
X130599998Y-141635803D01*
X130599998Y-141635802D01*
X130589599Y-141503667D01*
X130564687Y-141404798D01*
X130567395Y-141334981D01*
X130607419Y-141277711D01*
X130672052Y-141251170D01*
X130684929Y-141250500D01*
X131073920Y-141250500D01*
X131177906Y-141229815D01*
X131218913Y-141221658D01*
X131355495Y-141165084D01*
X131409460Y-141129026D01*
X131409460Y-141129025D01*
X131409462Y-141129025D01*
X131452930Y-141099981D01*
X131478416Y-141082952D01*
X133582951Y-138978416D01*
X133623200Y-138918179D01*
X133665084Y-138855495D01*
X133721658Y-138718913D01*
X133744755Y-138602799D01*
X133750500Y-138573920D01*
X133750500Y-137201198D01*
X133770185Y-137134159D01*
X133798337Y-137103345D01*
X133809096Y-137094971D01*
X133945978Y-136988431D01*
X134010969Y-136962790D01*
X134079509Y-136976356D01*
X134129834Y-137024825D01*
X134138320Y-137042953D01*
X134156645Y-137092086D01*
X134156649Y-137092093D01*
X134242809Y-137207187D01*
X134242812Y-137207190D01*
X134357906Y-137293350D01*
X134357913Y-137293354D01*
X134492620Y-137343596D01*
X134492627Y-137343598D01*
X134552155Y-137349999D01*
X134552172Y-137350000D01*
X135250000Y-137350000D01*
X135250000Y-136383012D01*
X135307007Y-136415925D01*
X135434174Y-136450000D01*
X135565826Y-136450000D01*
X135692993Y-136415925D01*
X135750000Y-136383012D01*
X135750000Y-137350000D01*
X136447828Y-137350000D01*
X136447844Y-137349999D01*
X136507372Y-137343598D01*
X136507379Y-137343596D01*
X136642086Y-137293354D01*
X136642093Y-137293350D01*
X136757187Y-137207190D01*
X136757190Y-137207187D01*
X136843350Y-137092093D01*
X136843354Y-137092086D01*
X136893596Y-136957379D01*
X136893598Y-136957372D01*
X136899999Y-136897844D01*
X136900000Y-136897827D01*
X136900000Y-136200000D01*
X135933012Y-136200000D01*
X135965925Y-136142993D01*
X136000000Y-136015826D01*
X136000000Y-135884174D01*
X135965925Y-135757007D01*
X135933012Y-135700000D01*
X136900000Y-135700000D01*
X136900000Y-135002172D01*
X136899999Y-135002155D01*
X136893598Y-134942627D01*
X136893596Y-134942620D01*
X136843354Y-134807913D01*
X136843350Y-134807906D01*
X136757190Y-134692812D01*
X136757187Y-134692809D01*
X136642093Y-134606649D01*
X136642086Y-134606645D01*
X136507379Y-134556403D01*
X136507372Y-134556401D01*
X136447844Y-134550000D01*
X135750000Y-134550000D01*
X135750000Y-135516988D01*
X135692993Y-135484075D01*
X135565826Y-135450000D01*
X135434174Y-135450000D01*
X135307007Y-135484075D01*
X135250000Y-135516988D01*
X135250000Y-134550000D01*
X134552155Y-134550000D01*
X134492627Y-134556401D01*
X134492620Y-134556403D01*
X134357913Y-134606645D01*
X134357906Y-134606649D01*
X134242812Y-134692809D01*
X134242809Y-134692812D01*
X134156649Y-134807906D01*
X134156646Y-134807911D01*
X134138320Y-134857047D01*
X134096448Y-134912980D01*
X134030984Y-134937397D01*
X133962711Y-134922545D01*
X133945976Y-134911566D01*
X133768634Y-134773535D01*
X133768628Y-134773531D01*
X133564504Y-134663064D01*
X133564495Y-134663061D01*
X133344984Y-134587702D01*
X133157404Y-134556401D01*
X133116049Y-134549500D01*
X132883951Y-134549500D01*
X132842596Y-134556401D01*
X132655015Y-134587702D01*
X132435504Y-134663061D01*
X132435495Y-134663064D01*
X132231371Y-134773531D01*
X132231365Y-134773535D01*
X132048222Y-134916081D01*
X132048219Y-134916084D01*
X132048216Y-134916086D01*
X132048216Y-134916087D01*
X132009692Y-134957936D01*
X131891015Y-135086854D01*
X131853808Y-135143804D01*
X131800662Y-135189161D01*
X131731430Y-135198584D01*
X131668095Y-135169082D01*
X131646192Y-135143804D01*
X131608984Y-135086854D01*
X131608982Y-135086852D01*
X131608979Y-135086847D01*
X131451784Y-134916087D01*
X131451779Y-134916083D01*
X131451777Y-134916081D01*
X131268634Y-134773535D01*
X131268628Y-134773531D01*
X131064504Y-134663064D01*
X131064495Y-134663061D01*
X130844984Y-134587702D01*
X130657404Y-134556401D01*
X130616049Y-134549500D01*
X130383951Y-134549500D01*
X130342596Y-134556401D01*
X130155015Y-134587702D01*
X129935504Y-134663061D01*
X129935495Y-134663064D01*
X129731371Y-134773531D01*
X129731365Y-134773535D01*
X129548222Y-134916081D01*
X129548219Y-134916084D01*
X129548216Y-134916086D01*
X129548216Y-134916087D01*
X129503200Y-134964988D01*
X129391016Y-135086852D01*
X129264075Y-135281151D01*
X129170842Y-135493699D01*
X129113866Y-135718691D01*
X129113864Y-135718702D01*
X129094700Y-135949993D01*
X129094700Y-135950006D01*
X129113864Y-136181297D01*
X129113866Y-136181308D01*
X129170842Y-136406300D01*
X129264075Y-136618848D01*
X129391016Y-136813147D01*
X129391019Y-136813151D01*
X129391021Y-136813153D01*
X129548216Y-136983913D01*
X129548219Y-136983915D01*
X129548222Y-136983918D01*
X129731365Y-137126464D01*
X129731371Y-137126468D01*
X129731374Y-137126470D01*
X129869459Y-137201198D01*
X129924306Y-137230880D01*
X129935497Y-137236936D01*
X130049487Y-137276068D01*
X130155015Y-137312297D01*
X130155017Y-137312297D01*
X130155019Y-137312298D01*
X130383951Y-137350500D01*
X130383952Y-137350500D01*
X130616048Y-137350500D01*
X130616049Y-137350500D01*
X130844981Y-137312298D01*
X131064503Y-137236936D01*
X131268626Y-137126470D01*
X131298339Y-137103344D01*
X131399220Y-137024825D01*
X131451784Y-136983913D01*
X131608979Y-136813153D01*
X131617899Y-136799500D01*
X131646191Y-136756196D01*
X131699337Y-136710839D01*
X131768569Y-136701415D01*
X131831904Y-136730917D01*
X131853809Y-136756196D01*
X131891016Y-136813147D01*
X131891019Y-136813151D01*
X131891021Y-136813153D01*
X132048216Y-136983913D01*
X132190904Y-137094971D01*
X132201662Y-137103344D01*
X132242475Y-137160055D01*
X132249500Y-137201198D01*
X132249500Y-138137770D01*
X132229815Y-138204809D01*
X132213181Y-138225451D01*
X130725451Y-139713181D01*
X130664128Y-139746666D01*
X130637770Y-139749500D01*
X128218117Y-139749500D01*
X128151078Y-139729815D01*
X128105323Y-139677011D01*
X128094646Y-139614059D01*
X128097415Y-139584182D01*
X128105215Y-139500000D01*
X128094815Y-139387769D01*
X128086397Y-139296917D01*
X128072024Y-139246402D01*
X128030582Y-139100750D01*
X128004522Y-139048415D01*
X127969667Y-138978416D01*
X127939673Y-138918179D01*
X127827271Y-138769334D01*
X127816762Y-138755418D01*
X127666041Y-138618019D01*
X127666039Y-138618017D01*
X127492642Y-138510655D01*
X127492635Y-138510651D01*
X127390998Y-138471277D01*
X127302456Y-138436976D01*
X127101976Y-138399500D01*
X126898024Y-138399500D01*
X126697544Y-138436976D01*
X126697541Y-138436976D01*
X126697541Y-138436977D01*
X126507364Y-138510651D01*
X126507357Y-138510655D01*
X126333960Y-138618017D01*
X126333958Y-138618019D01*
X126183237Y-138755418D01*
X126060327Y-138918178D01*
X125969422Y-139100739D01*
X125969417Y-139100752D01*
X125913603Y-139296917D01*
X125894437Y-139503745D01*
X125868651Y-139568682D01*
X125858648Y-139579984D01*
X125725449Y-139713182D01*
X125664129Y-139746666D01*
X125637770Y-139749500D01*
X123615638Y-139749500D01*
X123548599Y-139729815D01*
X123510099Y-139690597D01*
X123442712Y-139581344D01*
X123318656Y-139457288D01*
X123169334Y-139365186D01*
X123169333Y-139365185D01*
X123162791Y-139362136D01*
X123164123Y-139359277D01*
X123118218Y-139327098D01*
X123091771Y-139262427D01*
X123104486Y-139193724D01*
X123152326Y-139142802D01*
X123162722Y-139137341D01*
X123169124Y-139134356D01*
X123318345Y-139042315D01*
X123442315Y-138918345D01*
X123534356Y-138769124D01*
X123534358Y-138769119D01*
X123589505Y-138602697D01*
X123589506Y-138602690D01*
X123599999Y-138499986D01*
X123600000Y-138499973D01*
X123600000Y-138250000D01*
X122374000Y-138250000D01*
X122306961Y-138230315D01*
X122261206Y-138177511D01*
X122250000Y-138126000D01*
X122250000Y-137750000D01*
X122750000Y-137750000D01*
X123599999Y-137750000D01*
X123599999Y-137500028D01*
X123599998Y-137500013D01*
X123589505Y-137397302D01*
X123534358Y-137230880D01*
X123534356Y-137230875D01*
X123442315Y-137081654D01*
X123318345Y-136957684D01*
X123169124Y-136865643D01*
X123169119Y-136865641D01*
X123002697Y-136810494D01*
X123002690Y-136810493D01*
X122899986Y-136800000D01*
X122750000Y-136800000D01*
X122750000Y-137750000D01*
X122250000Y-137750000D01*
X122250000Y-136800000D01*
X122100027Y-136800000D01*
X122100012Y-136800001D01*
X121997302Y-136810494D01*
X121830880Y-136865641D01*
X121830875Y-136865643D01*
X121681657Y-136957682D01*
X121588034Y-137051305D01*
X121526710Y-137084789D01*
X121457019Y-137079805D01*
X121412672Y-137051304D01*
X121318657Y-136957289D01*
X121318656Y-136957288D01*
X121169334Y-136865186D01*
X121002797Y-136810001D01*
X121002795Y-136810000D01*
X120900010Y-136799500D01*
X120099998Y-136799500D01*
X120099980Y-136799501D01*
X119997203Y-136810000D01*
X119997200Y-136810001D01*
X119830668Y-136865185D01*
X119830663Y-136865187D01*
X119681342Y-136957289D01*
X119557289Y-137081342D01*
X119465187Y-137230663D01*
X119465185Y-137230668D01*
X119440983Y-137303706D01*
X119410001Y-137397203D01*
X119410001Y-137397204D01*
X119410000Y-137397204D01*
X119399500Y-137499983D01*
X119399500Y-138500001D01*
X119399501Y-138500019D01*
X119410000Y-138602796D01*
X119410001Y-138602799D01*
X119465185Y-138769331D01*
X119465187Y-138769336D01*
X119500069Y-138825888D01*
X119557288Y-138918656D01*
X119681344Y-139042712D01*
X119690591Y-139048416D01*
X119737318Y-139100360D01*
X119749500Y-139153957D01*
X119749500Y-139346042D01*
X119729815Y-139413081D01*
X119690598Y-139451580D01*
X119681344Y-139457287D01*
X119557289Y-139581342D01*
X119465187Y-139730663D01*
X119465185Y-139730668D01*
X119442719Y-139798468D01*
X119410001Y-139897203D01*
X119410001Y-139897204D01*
X119410000Y-139897204D01*
X119399500Y-139999983D01*
X119399500Y-141000001D01*
X119399501Y-141000019D01*
X119410000Y-141102796D01*
X119410001Y-141102799D01*
X119422568Y-141140722D01*
X119424970Y-141210550D01*
X119389238Y-141270592D01*
X119326718Y-141301785D01*
X119257411Y-141294288D01*
X119236146Y-141285480D01*
X119218913Y-141278342D01*
X119218911Y-141278341D01*
X119218907Y-141278340D01*
X119073920Y-141249500D01*
X119073918Y-141249500D01*
X117784499Y-141249500D01*
X117717460Y-141229815D01*
X117671705Y-141177011D01*
X117660499Y-141125500D01*
X117660499Y-141099998D01*
X117660498Y-141099981D01*
X117649999Y-140997203D01*
X117649998Y-140997200D01*
X117616352Y-140895664D01*
X117594814Y-140830666D01*
X117502712Y-140681344D01*
X117378656Y-140557288D01*
X117229334Y-140465186D01*
X117062797Y-140410001D01*
X117062795Y-140410000D01*
X116960010Y-140399500D01*
X116159998Y-140399500D01*
X116159980Y-140399501D01*
X116057203Y-140410000D01*
X116057200Y-140410001D01*
X115890668Y-140465185D01*
X115890663Y-140465187D01*
X115741342Y-140557289D01*
X115617289Y-140681342D01*
X115525187Y-140830663D01*
X115525186Y-140830666D01*
X115470001Y-140997203D01*
X115470001Y-140997204D01*
X115470000Y-140997204D01*
X115459500Y-141099983D01*
X115459500Y-142900001D01*
X115459501Y-142900018D01*
X115470000Y-143002796D01*
X115470001Y-143002799D01*
X115499247Y-143091055D01*
X115525186Y-143169334D01*
X115617288Y-143318656D01*
X115741344Y-143442712D01*
X115890666Y-143534814D01*
X116057203Y-143589999D01*
X116159991Y-143600500D01*
X116960008Y-143600499D01*
X116960016Y-143600498D01*
X116960019Y-143600498D01*
X117016302Y-143594748D01*
X117062797Y-143589999D01*
X117229334Y-143534814D01*
X117378656Y-143442712D01*
X117502712Y-143318656D01*
X117594814Y-143169334D01*
X117649999Y-143002797D01*
X117660500Y-142900009D01*
X117660500Y-142874500D01*
X117680185Y-142807461D01*
X117732989Y-142761706D01*
X117784500Y-142750500D01*
X118625500Y-142750500D01*
X118692539Y-142770185D01*
X118738294Y-142822989D01*
X118749500Y-142874500D01*
X118749500Y-146384362D01*
X118729815Y-146451401D01*
X118690598Y-146489899D01*
X118622288Y-146532033D01*
X118581342Y-146557289D01*
X118457289Y-146681342D01*
X118365187Y-146830663D01*
X118365185Y-146830668D01*
X118337349Y-146914670D01*
X118310001Y-146997203D01*
X118310001Y-146997204D01*
X118310000Y-146997204D01*
X118299500Y-147099983D01*
X118299500Y-147099991D01*
X118299500Y-147487046D01*
X118299501Y-147870500D01*
X118279817Y-147937539D01*
X118227013Y-147983294D01*
X118175501Y-147994500D01*
X117804500Y-147994500D01*
X117737461Y-147974815D01*
X117691706Y-147922011D01*
X117680500Y-147870500D01*
X117680500Y-145299993D01*
X117680499Y-145299980D01*
X117679640Y-145291568D01*
X117669999Y-145197200D01*
X117614815Y-145030664D01*
X117614811Y-145030658D01*
X117614810Y-145030655D01*
X117522714Y-144881346D01*
X117522711Y-144881342D01*
X117398657Y-144757288D01*
X117398653Y-144757285D01*
X117249344Y-144665189D01*
X117249338Y-144665186D01*
X117249336Y-144665185D01*
X117249333Y-144665184D01*
X117082801Y-144610001D01*
X116980019Y-144599500D01*
X116980012Y-144599500D01*
X111579988Y-144599500D01*
X111579980Y-144599500D01*
X111477198Y-144610001D01*
X111310666Y-144665184D01*
X111310655Y-144665189D01*
X111161346Y-144757285D01*
X111161342Y-144757288D01*
X111037288Y-144881342D01*
X111037285Y-144881346D01*
X110945189Y-145030655D01*
X110945184Y-145030666D01*
X110890001Y-145197198D01*
X110879500Y-145299980D01*
X110879500Y-147870500D01*
X110859815Y-147937539D01*
X110807011Y-147983294D01*
X110755500Y-147994500D01*
X110347549Y-147994500D01*
X110280510Y-147974815D01*
X110234755Y-147922011D01*
X110224191Y-147857895D01*
X110224999Y-147849981D01*
X110225000Y-147849973D01*
X110225000Y-147712500D01*
X107775001Y-147712500D01*
X107775001Y-147849986D01*
X107775810Y-147857898D01*
X107763041Y-147926591D01*
X107715160Y-147977475D01*
X107652452Y-147994500D01*
X107551360Y-147994500D01*
X107497311Y-147997397D01*
X107497310Y-147997397D01*
X107470977Y-148000229D01*
X107470950Y-148000232D01*
X107417554Y-148008885D01*
X107417550Y-148008886D01*
X107390106Y-148019122D01*
X107320415Y-148024105D01*
X107259094Y-147990620D01*
X106343487Y-147075013D01*
X107775000Y-147075013D01*
X107775000Y-147212500D01*
X108750000Y-147212500D01*
X109250000Y-147212500D01*
X110224999Y-147212500D01*
X110224999Y-147075028D01*
X110224998Y-147075013D01*
X110214505Y-146972302D01*
X110159358Y-146805880D01*
X110159356Y-146805875D01*
X110067315Y-146656654D01*
X109943345Y-146532684D01*
X109794124Y-146440643D01*
X109794119Y-146440641D01*
X109627697Y-146385494D01*
X109627690Y-146385493D01*
X109524986Y-146375000D01*
X109250000Y-146375000D01*
X109250000Y-147212500D01*
X108750000Y-147212500D01*
X108750000Y-146375000D01*
X108475029Y-146375000D01*
X108475012Y-146375001D01*
X108372302Y-146385494D01*
X108205880Y-146440641D01*
X108205875Y-146440643D01*
X108056654Y-146532684D01*
X107932684Y-146656654D01*
X107840643Y-146805875D01*
X107840641Y-146805880D01*
X107785494Y-146972302D01*
X107785493Y-146972309D01*
X107775000Y-147075013D01*
X106343487Y-147075013D01*
X104286819Y-145018345D01*
X104253334Y-144957022D01*
X104250500Y-144930664D01*
X104250500Y-143924986D01*
X107775001Y-143924986D01*
X107785494Y-144027697D01*
X107840641Y-144194119D01*
X107840643Y-144194124D01*
X107932684Y-144343345D01*
X108056654Y-144467315D01*
X108205875Y-144559356D01*
X108205880Y-144559358D01*
X108372302Y-144614505D01*
X108372309Y-144614506D01*
X108475019Y-144624999D01*
X108749999Y-144624999D01*
X108750000Y-144624998D01*
X108750000Y-143787500D01*
X107775001Y-143787500D01*
X107775001Y-143924986D01*
X104250500Y-143924986D01*
X104250500Y-139866289D01*
X104270185Y-139799250D01*
X104270691Y-139798468D01*
X104314986Y-139730668D01*
X104324173Y-139716607D01*
X104424063Y-139488881D01*
X104485108Y-139247821D01*
X104494891Y-139129762D01*
X104505643Y-139000005D01*
X104505643Y-138999994D01*
X104485109Y-138752187D01*
X104485107Y-138752175D01*
X104424063Y-138511118D01*
X104324173Y-138283393D01*
X104188166Y-138075217D01*
X104068018Y-137944702D01*
X104019744Y-137892262D01*
X103823509Y-137739526D01*
X103823507Y-137739525D01*
X103823506Y-137739524D01*
X103604811Y-137621172D01*
X103604802Y-137621169D01*
X103369616Y-137540429D01*
X103124335Y-137499500D01*
X102875665Y-137499500D01*
X102630383Y-137540429D01*
X102395197Y-137621169D01*
X102395188Y-137621172D01*
X102176493Y-137739524D01*
X101980257Y-137892261D01*
X101811833Y-138075217D01*
X101675826Y-138283393D01*
X101575936Y-138511118D01*
X101514892Y-138752175D01*
X101514890Y-138752187D01*
X101494357Y-138999994D01*
X101494357Y-139000005D01*
X101514890Y-139247812D01*
X101514892Y-139247824D01*
X101575936Y-139488881D01*
X101675826Y-139716606D01*
X101729309Y-139798468D01*
X101749496Y-139865357D01*
X101749500Y-139866289D01*
X101749500Y-145598422D01*
X101780290Y-145792826D01*
X101841117Y-145980030D01*
X101903616Y-146102690D01*
X101930476Y-146155405D01*
X102046172Y-146314646D01*
X102046174Y-146314648D01*
X105282836Y-149551310D01*
X105316321Y-149612633D01*
X105311337Y-149682325D01*
X105269465Y-149738258D01*
X105204001Y-149762675D01*
X105135728Y-149747823D01*
X105135174Y-149747519D01*
X104890613Y-149612355D01*
X104890609Y-149612353D01*
X104558552Y-149474812D01*
X104213194Y-149375316D01*
X104213185Y-149375314D01*
X103858858Y-149315112D01*
X103858846Y-149315110D01*
X103500000Y-149294958D01*
X103141153Y-149315110D01*
X103141141Y-149315112D01*
X102786814Y-149375314D01*
X102786805Y-149375316D01*
X102441447Y-149474812D01*
X102109390Y-149612353D01*
X102109386Y-149612355D01*
X101794810Y-149786215D01*
X101794805Y-149786218D01*
X101501693Y-149994193D01*
X101420397Y-150066844D01*
X102209721Y-150856168D01*
X102117837Y-150818109D01*
X102018381Y-150818109D01*
X101926495Y-150856169D01*
X101856169Y-150926495D01*
X101818109Y-151018381D01*
X101818109Y-151117837D01*
X101856168Y-151209721D01*
X101066844Y-150420397D01*
X100994193Y-150501693D01*
X100786218Y-150794805D01*
X100786215Y-150794810D01*
X100614028Y-151106360D01*
X100564371Y-151155513D01*
X100496023Y-151170016D01*
X100430684Y-151145266D01*
X100389099Y-151089119D01*
X100381500Y-151046379D01*
X100381500Y-133999994D01*
X101494859Y-133999994D01*
X101494859Y-134000005D01*
X101515385Y-134247729D01*
X101515387Y-134247738D01*
X101576412Y-134488717D01*
X101676266Y-134716364D01*
X101776564Y-134869882D01*
X102517037Y-134129409D01*
X102534075Y-134192993D01*
X102599901Y-134307007D01*
X102692993Y-134400099D01*
X102807007Y-134465925D01*
X102870590Y-134482962D01*
X102129942Y-135223609D01*
X102176768Y-135260055D01*
X102176770Y-135260056D01*
X102395385Y-135378364D01*
X102395396Y-135378369D01*
X102630506Y-135459083D01*
X102875707Y-135500000D01*
X103124293Y-135500000D01*
X103369493Y-135459083D01*
X103604603Y-135378369D01*
X103604614Y-135378364D01*
X103823228Y-135260057D01*
X103823231Y-135260055D01*
X103870056Y-135223609D01*
X103129409Y-134482962D01*
X103192993Y-134465925D01*
X103307007Y-134400099D01*
X103400099Y-134307007D01*
X103465925Y-134192993D01*
X103482962Y-134129410D01*
X104223434Y-134869882D01*
X104323731Y-134716369D01*
X104423587Y-134488717D01*
X104484612Y-134247738D01*
X104484614Y-134247729D01*
X104505141Y-134000005D01*
X104505141Y-133999994D01*
X104484614Y-133752270D01*
X104484612Y-133752261D01*
X104423587Y-133511282D01*
X104323731Y-133283630D01*
X104223434Y-133130116D01*
X103482962Y-133870589D01*
X103465925Y-133807007D01*
X103400099Y-133692993D01*
X103307007Y-133599901D01*
X103192993Y-133534075D01*
X103129410Y-133517037D01*
X103870057Y-132776390D01*
X103870056Y-132776389D01*
X103823229Y-132739943D01*
X103604614Y-132621635D01*
X103604603Y-132621630D01*
X103369493Y-132540916D01*
X103124293Y-132500000D01*
X102875707Y-132500000D01*
X102630506Y-132540916D01*
X102395396Y-132621630D01*
X102395390Y-132621632D01*
X102176761Y-132739949D01*
X102129942Y-132776388D01*
X102129942Y-132776390D01*
X102870590Y-133517037D01*
X102807007Y-133534075D01*
X102692993Y-133599901D01*
X102599901Y-133692993D01*
X102534075Y-133807007D01*
X102517037Y-133870589D01*
X101776564Y-133130116D01*
X101676267Y-133283632D01*
X101576412Y-133511282D01*
X101515387Y-133752261D01*
X101515385Y-133752270D01*
X101494859Y-133999994D01*
X100381500Y-133999994D01*
X100381500Y-130869072D01*
X100401185Y-130802033D01*
X100453989Y-130756278D01*
X100523147Y-130746334D01*
X100586703Y-130775359D01*
X100604767Y-130794762D01*
X100678870Y-130893753D01*
X100678886Y-130893771D01*
X100934267Y-131149151D01*
X101106239Y-131321123D01*
X101106255Y-131321137D01*
X101106262Y-131321144D01*
X101146480Y-131357271D01*
X101146492Y-131357281D01*
X101146500Y-131357288D01*
X101167142Y-131373922D01*
X101211026Y-131405567D01*
X101341903Y-131465338D01*
X101408942Y-131485023D01*
X101408946Y-131485024D01*
X101551362Y-131505500D01*
X107370500Y-131505500D01*
X107437539Y-131525185D01*
X107483294Y-131577989D01*
X107494500Y-131629500D01*
X107494500Y-139739254D01*
X107474815Y-139806293D01*
X107458181Y-139826935D01*
X107178892Y-140106223D01*
X107178855Y-140106262D01*
X107142728Y-140146480D01*
X107142718Y-140146492D01*
X107126076Y-140167143D01*
X107094433Y-140211025D01*
X107034663Y-140341899D01*
X107014976Y-140408944D01*
X106994500Y-140551363D01*
X106994500Y-141948640D01*
X106997397Y-142002688D01*
X106997397Y-142002689D01*
X107000229Y-142029022D01*
X107000232Y-142029049D01*
X107008885Y-142082445D01*
X107008885Y-142082447D01*
X107009627Y-142084436D01*
X107059168Y-142217257D01*
X107092653Y-142278580D01*
X107178877Y-142393761D01*
X107178881Y-142393765D01*
X107178886Y-142393771D01*
X107214765Y-142429649D01*
X107223024Y-142437908D01*
X107299340Y-142500583D01*
X107339414Y-142527399D01*
X107426466Y-142574043D01*
X107565830Y-142609813D01*
X107635289Y-142617375D01*
X107779075Y-142612434D01*
X107779076Y-142612433D01*
X107779847Y-142612407D01*
X107847523Y-142629778D01*
X107895065Y-142680979D01*
X107907378Y-142749755D01*
X107889645Y-142801430D01*
X107840645Y-142880871D01*
X107840641Y-142880880D01*
X107785494Y-143047302D01*
X107785493Y-143047309D01*
X107775000Y-143150013D01*
X107775000Y-143287500D01*
X109126000Y-143287500D01*
X109193039Y-143307185D01*
X109238794Y-143359989D01*
X109250000Y-143411500D01*
X109250000Y-144624999D01*
X109524972Y-144624999D01*
X109524986Y-144624998D01*
X109627697Y-144614505D01*
X109794119Y-144559358D01*
X109794124Y-144559356D01*
X109943345Y-144467315D01*
X110067315Y-144343345D01*
X110159356Y-144194124D01*
X110159359Y-144194117D01*
X110215265Y-144025402D01*
X110255037Y-143967957D01*
X110319553Y-143941133D01*
X110384483Y-143951610D01*
X110414541Y-143965338D01*
X110481580Y-143985023D01*
X110481584Y-143985024D01*
X110624000Y-144005500D01*
X110624003Y-144005500D01*
X112948640Y-144005500D01*
X112958786Y-144004955D01*
X113002678Y-144002603D01*
X113002686Y-144002602D01*
X113002688Y-144002602D01*
X113002689Y-144002602D01*
X113009682Y-144001849D01*
X113029036Y-143999769D01*
X113029046Y-143999767D01*
X113029049Y-143999767D01*
X113038648Y-143998211D01*
X113082448Y-143991114D01*
X113217257Y-143940832D01*
X113278580Y-143907347D01*
X113393761Y-143821123D01*
X113821123Y-143393761D01*
X113857288Y-143353500D01*
X113873922Y-143332858D01*
X113905567Y-143288974D01*
X113965338Y-143158097D01*
X113985023Y-143091058D01*
X113985024Y-143091054D01*
X114005500Y-142948638D01*
X114005500Y-140500000D01*
X114005500Y-131447844D01*
X120067500Y-131447844D01*
X120073901Y-131507372D01*
X120073903Y-131507379D01*
X120124145Y-131642086D01*
X120124149Y-131642093D01*
X120210309Y-131757187D01*
X120210312Y-131757190D01*
X120325406Y-131843350D01*
X120325413Y-131843354D01*
X120460120Y-131893596D01*
X120460127Y-131893598D01*
X120519655Y-131899999D01*
X120519672Y-131900000D01*
X121317500Y-131900000D01*
X121817500Y-131900000D01*
X122615328Y-131900000D01*
X122615344Y-131899999D01*
X122674872Y-131893598D01*
X122674879Y-131893596D01*
X122809586Y-131843354D01*
X122809593Y-131843350D01*
X122924687Y-131757190D01*
X122924690Y-131757187D01*
X123010850Y-131642093D01*
X123010854Y-131642086D01*
X123061096Y-131507379D01*
X123061098Y-131507372D01*
X123067499Y-131447844D01*
X123067500Y-131447827D01*
X123067500Y-131000000D01*
X121817500Y-131000000D01*
X121817500Y-131900000D01*
X121317500Y-131900000D01*
X121317500Y-131000000D01*
X120067500Y-131000000D01*
X120067500Y-131447844D01*
X114005500Y-131447844D01*
X114005500Y-130051362D01*
X114002603Y-129997322D01*
X114002097Y-129992620D01*
X113999770Y-129970977D01*
X113999767Y-129970950D01*
X113991114Y-129917554D01*
X113991114Y-129917552D01*
X113968867Y-129857906D01*
X113940832Y-129782743D01*
X113907347Y-129721420D01*
X113821123Y-129606239D01*
X113821118Y-129606234D01*
X113821113Y-129606228D01*
X111041819Y-126826934D01*
X111008334Y-126765611D01*
X111005500Y-126739253D01*
X111005500Y-125618105D01*
X111025185Y-125551066D01*
X111077989Y-125505311D01*
X111147147Y-125495367D01*
X111194591Y-125512563D01*
X111197281Y-125514222D01*
X111244008Y-125566167D01*
X111253807Y-125595572D01*
X111278340Y-125718907D01*
X111278342Y-125718913D01*
X111334916Y-125855495D01*
X111336359Y-125857654D01*
X111336364Y-125857671D01*
X111336369Y-125857669D01*
X111408652Y-125965851D01*
X111417051Y-125978420D01*
X111417052Y-125978421D01*
X112771583Y-127332951D01*
X112771586Y-127332954D01*
X112797846Y-127350499D01*
X112845270Y-127382186D01*
X112894505Y-127415084D01*
X112894506Y-127415084D01*
X112894507Y-127415085D01*
X112894509Y-127415086D01*
X113005955Y-127461248D01*
X113031087Y-127471658D01*
X113031091Y-127471658D01*
X113031092Y-127471659D01*
X113176079Y-127500500D01*
X113176082Y-127500500D01*
X113176083Y-127500500D01*
X113323917Y-127500500D01*
X119984709Y-127500500D01*
X120051748Y-127520185D01*
X120097503Y-127572989D01*
X120100891Y-127581167D01*
X120123702Y-127642328D01*
X120123703Y-127642330D01*
X120148676Y-127675690D01*
X120173092Y-127741155D01*
X120158240Y-127809428D01*
X120148676Y-127824310D01*
X120123703Y-127857669D01*
X120123702Y-127857671D01*
X120073408Y-127992517D01*
X120067001Y-128052116D01*
X120067000Y-128052135D01*
X120067000Y-129447870D01*
X120067001Y-129447876D01*
X120073408Y-129507483D01*
X120123702Y-129642328D01*
X120123704Y-129642331D01*
X120148987Y-129676105D01*
X120173405Y-129741568D01*
X120158554Y-129809841D01*
X120148988Y-129824726D01*
X120124149Y-129857906D01*
X120124145Y-129857913D01*
X120073903Y-129992620D01*
X120073901Y-129992627D01*
X120067500Y-130052155D01*
X120067500Y-130500000D01*
X123067500Y-130500000D01*
X123067500Y-130052172D01*
X123067499Y-130052155D01*
X123061098Y-129992627D01*
X123061096Y-129992620D01*
X123010854Y-129857913D01*
X123010852Y-129857910D01*
X122986012Y-129824728D01*
X122961594Y-129759264D01*
X122976445Y-129690990D01*
X122986005Y-129676114D01*
X123011296Y-129642331D01*
X123011296Y-129642330D01*
X123016612Y-129635230D01*
X123017750Y-129636082D01*
X123060453Y-129593381D01*
X123128726Y-129578530D01*
X123170314Y-129588934D01*
X123220197Y-129611144D01*
X123405354Y-129650500D01*
X123405355Y-129650500D01*
X123594644Y-129650500D01*
X123594646Y-129650500D01*
X123779803Y-129611144D01*
X123952730Y-129534151D01*
X124105871Y-129422888D01*
X124232533Y-129282216D01*
X124327179Y-129118284D01*
X124385674Y-128938256D01*
X124405460Y-128750000D01*
X124385674Y-128561744D01*
X124327179Y-128381716D01*
X124232533Y-128217784D01*
X124105871Y-128077112D01*
X124071544Y-128052172D01*
X123952734Y-127965851D01*
X123952729Y-127965848D01*
X123779807Y-127888857D01*
X123779800Y-127888855D01*
X123697161Y-127871290D01*
X123635679Y-127838098D01*
X123601902Y-127776935D01*
X123606554Y-127707221D01*
X123648158Y-127651088D01*
X123697161Y-127628710D01*
X123703201Y-127627426D01*
X123779803Y-127611144D01*
X123952730Y-127534151D01*
X124105871Y-127422888D01*
X124232533Y-127282216D01*
X124327179Y-127118284D01*
X124385674Y-126938256D01*
X124405460Y-126750000D01*
X124385674Y-126561744D01*
X124327179Y-126381716D01*
X124232533Y-126217784D01*
X124105871Y-126077112D01*
X124105870Y-126077111D01*
X123952734Y-125965851D01*
X123952729Y-125965848D01*
X123779807Y-125888857D01*
X123779800Y-125888855D01*
X123697161Y-125871290D01*
X123635679Y-125838098D01*
X123601902Y-125776935D01*
X123606554Y-125707221D01*
X123648158Y-125651088D01*
X123697161Y-125628710D01*
X123703201Y-125627426D01*
X123779803Y-125611144D01*
X123952730Y-125534151D01*
X124105871Y-125422888D01*
X124232533Y-125282216D01*
X124327179Y-125118284D01*
X124385674Y-124938256D01*
X124405460Y-124750000D01*
X124385674Y-124561744D01*
X124327179Y-124381716D01*
X124232533Y-124217784D01*
X124105871Y-124077112D01*
X124105870Y-124077111D01*
X123952734Y-123965851D01*
X123952729Y-123965848D01*
X123779807Y-123888857D01*
X123779800Y-123888855D01*
X123697161Y-123871290D01*
X123635679Y-123838098D01*
X123601902Y-123776935D01*
X123606554Y-123707221D01*
X123648158Y-123651088D01*
X123697161Y-123628710D01*
X123703201Y-123627426D01*
X123779803Y-123611144D01*
X123952730Y-123534151D01*
X124105871Y-123422888D01*
X124232533Y-123282216D01*
X124327179Y-123118284D01*
X124385674Y-122938256D01*
X124405460Y-122750000D01*
X124385674Y-122561744D01*
X124327179Y-122381716D01*
X124232533Y-122217784D01*
X124105871Y-122077112D01*
X124105870Y-122077111D01*
X123952734Y-121965851D01*
X123952729Y-121965848D01*
X123779807Y-121888857D01*
X123779800Y-121888855D01*
X123697161Y-121871290D01*
X123635679Y-121838098D01*
X123601902Y-121776935D01*
X123606554Y-121707221D01*
X123648158Y-121651088D01*
X123697161Y-121628710D01*
X123703201Y-121627426D01*
X123779803Y-121611144D01*
X123952730Y-121534151D01*
X124105871Y-121422888D01*
X124232533Y-121282216D01*
X124327179Y-121118284D01*
X124385674Y-120938256D01*
X124405460Y-120750000D01*
X124385674Y-120561744D01*
X124327179Y-120381716D01*
X124232533Y-120217784D01*
X124105871Y-120077112D01*
X124105870Y-120077111D01*
X123952734Y-119965851D01*
X123952729Y-119965848D01*
X123779807Y-119888857D01*
X123779800Y-119888855D01*
X123697161Y-119871290D01*
X123635679Y-119838098D01*
X123601902Y-119776935D01*
X123606554Y-119707221D01*
X123648158Y-119651088D01*
X123697161Y-119628710D01*
X123703201Y-119627426D01*
X123779803Y-119611144D01*
X123952730Y-119534151D01*
X124105871Y-119422888D01*
X124232533Y-119282216D01*
X124327179Y-119118284D01*
X124385674Y-118938256D01*
X124405460Y-118750000D01*
X124385674Y-118561744D01*
X124327179Y-118381716D01*
X124232533Y-118217784D01*
X124105871Y-118077112D01*
X124105870Y-118077111D01*
X123952734Y-117965851D01*
X123952729Y-117965848D01*
X123779807Y-117888857D01*
X123779802Y-117888855D01*
X123633074Y-117857668D01*
X123594646Y-117849500D01*
X123405354Y-117849500D01*
X123372897Y-117856398D01*
X123220197Y-117888855D01*
X123220191Y-117888857D01*
X123170312Y-117911065D01*
X123101062Y-117920349D01*
X123037786Y-117890720D01*
X123016901Y-117864550D01*
X123016610Y-117864769D01*
X123011297Y-117857671D01*
X123011296Y-117857669D01*
X122986322Y-117824308D01*
X122961906Y-117758847D01*
X122976757Y-117690574D01*
X122986323Y-117675690D01*
X123011296Y-117642331D01*
X123012188Y-117639941D01*
X123043015Y-117557288D01*
X123061591Y-117507483D01*
X123068000Y-117447873D01*
X123067999Y-116052128D01*
X123061591Y-115992517D01*
X123056458Y-115978756D01*
X123011297Y-115857671D01*
X123011293Y-115857664D01*
X122925047Y-115742455D01*
X122925044Y-115742452D01*
X122809835Y-115656206D01*
X122809828Y-115656202D01*
X122674982Y-115605908D01*
X122674983Y-115605908D01*
X122615383Y-115599501D01*
X122615381Y-115599500D01*
X122615373Y-115599500D01*
X122615364Y-115599500D01*
X120519629Y-115599500D01*
X120519623Y-115599501D01*
X120460016Y-115605908D01*
X120397619Y-115629182D01*
X120354286Y-115637000D01*
X118989768Y-115637000D01*
X118950764Y-115630706D01*
X118946165Y-115629182D01*
X118887753Y-115609826D01*
X118887751Y-115609825D01*
X118786678Y-115599500D01*
X118213330Y-115599500D01*
X118213312Y-115599501D01*
X118112247Y-115609825D01*
X118066384Y-115625023D01*
X118049234Y-115630706D01*
X118010232Y-115637000D01*
X116989768Y-115637000D01*
X116950764Y-115630706D01*
X116887754Y-115609826D01*
X116887747Y-115609825D01*
X116826321Y-115603549D01*
X116791474Y-115594753D01*
X116771515Y-115586486D01*
X116701024Y-115557288D01*
X116654336Y-115537949D01*
X116654328Y-115537947D01*
X116557688Y-115518724D01*
X116461044Y-115499500D01*
X116461041Y-115499500D01*
X114860132Y-115499500D01*
X114795036Y-115481039D01*
X114769334Y-115465186D01*
X114602797Y-115410001D01*
X114602795Y-115410000D01*
X114500010Y-115399500D01*
X113499998Y-115399500D01*
X113499980Y-115399501D01*
X113397203Y-115410000D01*
X113397199Y-115410001D01*
X113307150Y-115439841D01*
X113237321Y-115442243D01*
X113177279Y-115406511D01*
X113146087Y-115343990D01*
X113153648Y-115274531D01*
X113180462Y-115234457D01*
X116777139Y-111637782D01*
X116792695Y-111614501D01*
X116886632Y-111473914D01*
X116962051Y-111291835D01*
X116998816Y-111107007D01*
X117000500Y-111098543D01*
X117000500Y-110860132D01*
X117018960Y-110795036D01*
X117034814Y-110769334D01*
X117089999Y-110602797D01*
X117100500Y-110500009D01*
X117100499Y-109499992D01*
X117100233Y-109497392D01*
X117089999Y-109397203D01*
X117089998Y-109397200D01*
X117070652Y-109338818D01*
X117034814Y-109230666D01*
X117009481Y-109189595D01*
X116991042Y-109122204D01*
X117011965Y-109055541D01*
X117065607Y-109010771D01*
X117115021Y-109000500D01*
X121100903Y-109000500D01*
X121167942Y-109020185D01*
X121213697Y-109072989D01*
X121223641Y-109142147D01*
X121194616Y-109205703D01*
X121188586Y-109212178D01*
X121020949Y-109379815D01*
X120881286Y-109519478D01*
X120769481Y-109631282D01*
X120769479Y-109631285D01*
X120762873Y-109642728D01*
X120727465Y-109704057D01*
X120690423Y-109768215D01*
X120649499Y-109920943D01*
X120649499Y-109920945D01*
X120649499Y-110089046D01*
X120649500Y-110089059D01*
X120649500Y-112413330D01*
X120649499Y-112413348D01*
X120649499Y-112579054D01*
X120649498Y-112579054D01*
X120668281Y-112649151D01*
X120690423Y-112731785D01*
X120718986Y-112781257D01*
X120719358Y-112781900D01*
X120719359Y-112781904D01*
X120719360Y-112781904D01*
X120769479Y-112868714D01*
X120769481Y-112868717D01*
X120888349Y-112987585D01*
X120888355Y-112987590D01*
X121215139Y-113314374D01*
X121215149Y-113314385D01*
X121219479Y-113318715D01*
X121219480Y-113318716D01*
X121331284Y-113430520D01*
X121331286Y-113430521D01*
X121331290Y-113430524D01*
X121417886Y-113480520D01*
X121417887Y-113480520D01*
X121468215Y-113509577D01*
X121620943Y-113550500D01*
X121779057Y-113550500D01*
X121815192Y-113550500D01*
X121882231Y-113570185D01*
X121902874Y-113586820D01*
X121948129Y-113632076D01*
X121948133Y-113632079D01*
X121948135Y-113632081D01*
X122089602Y-113715744D01*
X122125801Y-113726261D01*
X122247426Y-113761597D01*
X122247429Y-113761597D01*
X122247431Y-113761598D01*
X122284306Y-113764500D01*
X122284314Y-113764500D01*
X123440686Y-113764500D01*
X123440694Y-113764500D01*
X123477569Y-113761598D01*
X123477571Y-113761597D01*
X123477573Y-113761597D01*
X123519191Y-113749505D01*
X123635398Y-113715744D01*
X123776865Y-113632081D01*
X123893081Y-113515865D01*
X123976744Y-113374398D01*
X124022598Y-113216569D01*
X124025500Y-113179694D01*
X124025500Y-112781257D01*
X124045185Y-112714218D01*
X124097989Y-112668463D01*
X124167147Y-112658519D01*
X124215855Y-112679188D01*
X124216729Y-112677712D01*
X124364803Y-112765282D01*
X124364806Y-112765283D01*
X124522504Y-112811099D01*
X124522510Y-112811100D01*
X124559350Y-112813999D01*
X124559366Y-112814000D01*
X124887500Y-112814000D01*
X124887500Y-112264000D01*
X123977704Y-112264000D01*
X123953440Y-112290248D01*
X123893479Y-112326114D01*
X123823645Y-112323869D01*
X123783987Y-112299468D01*
X123783031Y-112300702D01*
X123776862Y-112295917D01*
X123635396Y-112212255D01*
X123635393Y-112212254D01*
X123477573Y-112166402D01*
X123477567Y-112166401D01*
X123440701Y-112163500D01*
X123440694Y-112163500D01*
X122284306Y-112163500D01*
X122284298Y-112163500D01*
X122247432Y-112166401D01*
X122247426Y-112166402D01*
X122089606Y-112212254D01*
X122089605Y-112212254D01*
X122037620Y-112242998D01*
X121969896Y-112260180D01*
X121903634Y-112238019D01*
X121859871Y-112183553D01*
X121850500Y-112136265D01*
X121850500Y-111891734D01*
X121870185Y-111824695D01*
X121922989Y-111778940D01*
X121992147Y-111768996D01*
X122037616Y-111785000D01*
X122089602Y-111815744D01*
X122089603Y-111815744D01*
X122089606Y-111815746D01*
X122247426Y-111861597D01*
X122247429Y-111861597D01*
X122247431Y-111861598D01*
X122284306Y-111864500D01*
X122284314Y-111864500D01*
X123440686Y-111864500D01*
X123440694Y-111864500D01*
X123477569Y-111861598D01*
X123477571Y-111861597D01*
X123477573Y-111861597D01*
X123622733Y-111819424D01*
X123657328Y-111814500D01*
X125263500Y-111814500D01*
X125330539Y-111834185D01*
X125376294Y-111886989D01*
X125387500Y-111938500D01*
X125387500Y-112814000D01*
X125715634Y-112814000D01*
X125715650Y-112813999D01*
X125716542Y-112813929D01*
X125716684Y-112813958D01*
X125718080Y-112813904D01*
X125718093Y-112814254D01*
X125784922Y-112828276D01*
X125834691Y-112877316D01*
X125850300Y-112937544D01*
X125850300Y-113414001D01*
X125850301Y-113414019D01*
X125860800Y-113516796D01*
X125860801Y-113516799D01*
X125915985Y-113683331D01*
X125915987Y-113683336D01*
X125935977Y-113715745D01*
X126008088Y-113832656D01*
X126132144Y-113956712D01*
X126281466Y-114048814D01*
X126448003Y-114103999D01*
X126550791Y-114114500D01*
X127550808Y-114114499D01*
X127550816Y-114114498D01*
X127550819Y-114114498D01*
X127607102Y-114108748D01*
X127653597Y-114103999D01*
X127820134Y-114048814D01*
X127969456Y-113956712D01*
X128093512Y-113832656D01*
X128099220Y-113823402D01*
X128151168Y-113776678D01*
X128204758Y-113764500D01*
X128386042Y-113764500D01*
X128453081Y-113784185D01*
X128491580Y-113823402D01*
X128497288Y-113832656D01*
X128621344Y-113956712D01*
X128730597Y-114024099D01*
X128777321Y-114076047D01*
X128789500Y-114129638D01*
X128789500Y-124737118D01*
X128789500Y-124737120D01*
X128789499Y-124737120D01*
X128818340Y-124882107D01*
X128818343Y-124882117D01*
X128874914Y-125018692D01*
X128907812Y-125067927D01*
X128907813Y-125067930D01*
X128957046Y-125141614D01*
X128957052Y-125141621D01*
X140183181Y-136367749D01*
X140216666Y-136429072D01*
X140219500Y-136455430D01*
X140219500Y-145167610D01*
X140199815Y-145234649D01*
X140186441Y-145250583D01*
X140187099Y-145251183D01*
X140183238Y-145255417D01*
X140060327Y-145418178D01*
X139969422Y-145600739D01*
X139969417Y-145600752D01*
X139913602Y-145796917D01*
X139894785Y-145999999D01*
X139894785Y-146000000D01*
X139913602Y-146203082D01*
X139969417Y-146399247D01*
X139969422Y-146399260D01*
X140060327Y-146581821D01*
X140183237Y-146744581D01*
X140333958Y-146881980D01*
X140333960Y-146881982D01*
X140433141Y-146943392D01*
X140507363Y-146989348D01*
X140697544Y-147063024D01*
X140898024Y-147100500D01*
X140898026Y-147100500D01*
X141101974Y-147100500D01*
X141101976Y-147100500D01*
X141302456Y-147063024D01*
X141492637Y-146989348D01*
X141666041Y-146881981D01*
X141816764Y-146744579D01*
X141939673Y-146581821D01*
X142030582Y-146399250D01*
X142086397Y-146203083D01*
X142105215Y-146000000D01*
X142105212Y-145999973D01*
X142086397Y-145796917D01*
X142073048Y-145750000D01*
X142030582Y-145600750D01*
X142029420Y-145598417D01*
X141977003Y-145493148D01*
X141939673Y-145418179D01*
X141816764Y-145255421D01*
X141816760Y-145255417D01*
X141816757Y-145255413D01*
X141760961Y-145204548D01*
X141724680Y-145144837D01*
X141720500Y-145112912D01*
X141720500Y-139790000D01*
X152397475Y-139790000D01*
X152417542Y-140044989D01*
X152477252Y-140293702D01*
X152575134Y-140530012D01*
X152575136Y-140530015D01*
X152708777Y-140748098D01*
X152708784Y-140748107D01*
X152712033Y-140751912D01*
X153273384Y-140190560D01*
X153274240Y-140192626D01*
X153367262Y-140331844D01*
X153485656Y-140450238D01*
X153624874Y-140543260D01*
X153626937Y-140544114D01*
X153065587Y-141105465D01*
X153069397Y-141108719D01*
X153287484Y-141242363D01*
X153287487Y-141242365D01*
X153523797Y-141340247D01*
X153772511Y-141399957D01*
X153772510Y-141399957D01*
X154027500Y-141420024D01*
X154282489Y-141399957D01*
X154531202Y-141340247D01*
X154767512Y-141242365D01*
X154767515Y-141242363D01*
X154985595Y-141108724D01*
X154985610Y-141108713D01*
X154989411Y-141105466D01*
X154989411Y-141105464D01*
X154428062Y-140544114D01*
X154430126Y-140543260D01*
X154569344Y-140450238D01*
X154687738Y-140331844D01*
X154780760Y-140192626D01*
X154781614Y-140190561D01*
X155342964Y-140751911D01*
X155342966Y-140751911D01*
X155346213Y-140748110D01*
X155346224Y-140748095D01*
X155479863Y-140530015D01*
X155479865Y-140530012D01*
X155577747Y-140293702D01*
X155637457Y-140044989D01*
X155657524Y-139790000D01*
X157477475Y-139790000D01*
X157497542Y-140044989D01*
X157557252Y-140293702D01*
X157655134Y-140530012D01*
X157655136Y-140530015D01*
X157788777Y-140748098D01*
X157788784Y-140748107D01*
X157792033Y-140751912D01*
X158353384Y-140190560D01*
X158354240Y-140192626D01*
X158447262Y-140331844D01*
X158565656Y-140450238D01*
X158704874Y-140543260D01*
X158706937Y-140544114D01*
X158145587Y-141105465D01*
X158149397Y-141108719D01*
X158367484Y-141242363D01*
X158367487Y-141242365D01*
X158603797Y-141340247D01*
X158852511Y-141399957D01*
X158852510Y-141399957D01*
X159107500Y-141420024D01*
X159362489Y-141399957D01*
X159611202Y-141340247D01*
X159847512Y-141242365D01*
X159847515Y-141242363D01*
X160065595Y-141108724D01*
X160065610Y-141108713D01*
X160069411Y-141105466D01*
X160069411Y-141105464D01*
X159508062Y-140544114D01*
X159510126Y-140543260D01*
X159649344Y-140450238D01*
X159767738Y-140331844D01*
X159860760Y-140192626D01*
X159861614Y-140190562D01*
X160422964Y-140751911D01*
X160422966Y-140751911D01*
X160426213Y-140748110D01*
X160426224Y-140748095D01*
X160559863Y-140530015D01*
X160559865Y-140530012D01*
X160657747Y-140293702D01*
X160717457Y-140044989D01*
X160737524Y-139790000D01*
X160717457Y-139535010D01*
X160657747Y-139286297D01*
X160559865Y-139049987D01*
X160559863Y-139049984D01*
X160426219Y-138831897D01*
X160422965Y-138828087D01*
X159861614Y-139389437D01*
X159860760Y-139387374D01*
X159767738Y-139248156D01*
X159649344Y-139129762D01*
X159510126Y-139036740D01*
X159508061Y-139035884D01*
X160069412Y-138474533D01*
X160065607Y-138471284D01*
X160065598Y-138471277D01*
X159847515Y-138337636D01*
X159847512Y-138337634D01*
X159611202Y-138239752D01*
X159362488Y-138180042D01*
X159362489Y-138180042D01*
X159107500Y-138159975D01*
X158852510Y-138180042D01*
X158603797Y-138239752D01*
X158367487Y-138337634D01*
X158367484Y-138337636D01*
X158149393Y-138471282D01*
X158145586Y-138474532D01*
X158706938Y-139035884D01*
X158704874Y-139036740D01*
X158565656Y-139129762D01*
X158447262Y-139248156D01*
X158354240Y-139387374D01*
X158353384Y-139389438D01*
X157792032Y-138828086D01*
X157788782Y-138831893D01*
X157655136Y-139049984D01*
X157655134Y-139049987D01*
X157557252Y-139286297D01*
X157497542Y-139535010D01*
X157477475Y-139790000D01*
X155657524Y-139790000D01*
X155637457Y-139535010D01*
X155577747Y-139286297D01*
X155479865Y-139049987D01*
X155479863Y-139049984D01*
X155346219Y-138831897D01*
X155342965Y-138828087D01*
X154781614Y-139389437D01*
X154780760Y-139387374D01*
X154687738Y-139248156D01*
X154569344Y-139129762D01*
X154430126Y-139036740D01*
X154428061Y-139035884D01*
X154989412Y-138474533D01*
X154985607Y-138471284D01*
X154985598Y-138471277D01*
X154767515Y-138337636D01*
X154767512Y-138337634D01*
X154531202Y-138239752D01*
X154282488Y-138180042D01*
X154282489Y-138180042D01*
X154027500Y-138159975D01*
X153772510Y-138180042D01*
X153523797Y-138239752D01*
X153287487Y-138337634D01*
X153287484Y-138337636D01*
X153069393Y-138471282D01*
X153065586Y-138474532D01*
X153626938Y-139035884D01*
X153624874Y-139036740D01*
X153485656Y-139129762D01*
X153367262Y-139248156D01*
X153274240Y-139387374D01*
X153273384Y-139389438D01*
X152712032Y-138828086D01*
X152708782Y-138831893D01*
X152575136Y-139049984D01*
X152575134Y-139049987D01*
X152477252Y-139286297D01*
X152417542Y-139535010D01*
X152397475Y-139790000D01*
X141720500Y-139790000D01*
X141720500Y-136019279D01*
X141691659Y-135874292D01*
X141691658Y-135874291D01*
X141691658Y-135874287D01*
X141686612Y-135862105D01*
X141635086Y-135737709D01*
X141635085Y-135737707D01*
X141622386Y-135718702D01*
X141602186Y-135688470D01*
X141591122Y-135671911D01*
X141552956Y-135614789D01*
X141552952Y-135614784D01*
X140648168Y-134710000D01*
X152397475Y-134710000D01*
X152417542Y-134964989D01*
X152477252Y-135213702D01*
X152575134Y-135450012D01*
X152575136Y-135450015D01*
X152708777Y-135668098D01*
X152708784Y-135668107D01*
X152712033Y-135671912D01*
X153273384Y-135110560D01*
X153274240Y-135112626D01*
X153367262Y-135251844D01*
X153485656Y-135370238D01*
X153624874Y-135463260D01*
X153626937Y-135464114D01*
X153065587Y-136025465D01*
X153069397Y-136028719D01*
X153287484Y-136162363D01*
X153287487Y-136162365D01*
X153523797Y-136260247D01*
X153772511Y-136319957D01*
X153772510Y-136319957D01*
X154027500Y-136340024D01*
X154282489Y-136319957D01*
X154531202Y-136260247D01*
X154767512Y-136162365D01*
X154767515Y-136162363D01*
X154985595Y-136028724D01*
X154985610Y-136028713D01*
X154989411Y-136025466D01*
X154989411Y-136025464D01*
X154428062Y-135464114D01*
X154430126Y-135463260D01*
X154569344Y-135370238D01*
X154687738Y-135251844D01*
X154780760Y-135112626D01*
X154781614Y-135110561D01*
X155342964Y-135671911D01*
X155342966Y-135671911D01*
X155346213Y-135668110D01*
X155346224Y-135668095D01*
X155479863Y-135450015D01*
X155479865Y-135450012D01*
X155577747Y-135213702D01*
X155637457Y-134964988D01*
X155639757Y-134935770D01*
X155664641Y-134870481D01*
X155720872Y-134829010D01*
X155790597Y-134824523D01*
X155851680Y-134858445D01*
X155884726Y-134920005D01*
X155887375Y-134945498D01*
X155887375Y-135808189D01*
X155867690Y-135875228D01*
X155828165Y-135913917D01*
X155668060Y-136012028D01*
X155485473Y-136167973D01*
X155329526Y-136350563D01*
X155204065Y-136555297D01*
X155112178Y-136777134D01*
X155112174Y-136777146D01*
X155056123Y-137010617D01*
X155037283Y-137250000D01*
X155056123Y-137489382D01*
X155112174Y-137722853D01*
X155112178Y-137722865D01*
X155204065Y-137944702D01*
X155322377Y-138137770D01*
X155329528Y-138149439D01*
X155485473Y-138332027D01*
X155668061Y-138487972D01*
X155668063Y-138487973D01*
X155872797Y-138613434D01*
X155969547Y-138653508D01*
X156094637Y-138705323D01*
X156328121Y-138761377D01*
X156567500Y-138780217D01*
X156806879Y-138761377D01*
X157040363Y-138705323D01*
X157233865Y-138625171D01*
X157262202Y-138613434D01*
X157279562Y-138602796D01*
X157466939Y-138487972D01*
X157649527Y-138332027D01*
X157805472Y-138149439D01*
X157930933Y-137944704D01*
X158022823Y-137722863D01*
X158078877Y-137489379D01*
X158097717Y-137250000D01*
X158078877Y-137010621D01*
X158022823Y-136777137D01*
X157957257Y-136618848D01*
X157930934Y-136555297D01*
X157805473Y-136350563D01*
X157805472Y-136350561D01*
X157649527Y-136167973D01*
X157466939Y-136012028D01*
X157306834Y-135913916D01*
X157259960Y-135862105D01*
X157247625Y-135808189D01*
X157247625Y-134945498D01*
X157267310Y-134878459D01*
X157320114Y-134832704D01*
X157389272Y-134822760D01*
X157452828Y-134851785D01*
X157490602Y-134910563D01*
X157495243Y-134935770D01*
X157497542Y-134964988D01*
X157557252Y-135213702D01*
X157655134Y-135450012D01*
X157655136Y-135450015D01*
X157788777Y-135668098D01*
X157788784Y-135668107D01*
X157792033Y-135671912D01*
X158353384Y-135110560D01*
X158354240Y-135112626D01*
X158447262Y-135251844D01*
X158565656Y-135370238D01*
X158704874Y-135463260D01*
X158706937Y-135464114D01*
X158145587Y-136025465D01*
X158149397Y-136028719D01*
X158367484Y-136162363D01*
X158367487Y-136162365D01*
X158603797Y-136260247D01*
X158852511Y-136319957D01*
X158852510Y-136319957D01*
X159107500Y-136340024D01*
X159362489Y-136319957D01*
X159611202Y-136260247D01*
X159847512Y-136162365D01*
X159847515Y-136162363D01*
X160065595Y-136028724D01*
X160065610Y-136028713D01*
X160069411Y-136025466D01*
X160069411Y-136025464D01*
X159508062Y-135464114D01*
X159510126Y-135463260D01*
X159649344Y-135370238D01*
X159767738Y-135251844D01*
X159860760Y-135112626D01*
X159861614Y-135110561D01*
X160422964Y-135671911D01*
X160422966Y-135671911D01*
X160426213Y-135668110D01*
X160426224Y-135668095D01*
X160559863Y-135450015D01*
X160559865Y-135450012D01*
X160657747Y-135213702D01*
X160717457Y-134964989D01*
X160737524Y-134710000D01*
X160717457Y-134455010D01*
X160657747Y-134206297D01*
X160559865Y-133969987D01*
X160559863Y-133969984D01*
X160426219Y-133751897D01*
X160422965Y-133748087D01*
X159861614Y-134309437D01*
X159860760Y-134307374D01*
X159767738Y-134168156D01*
X159649344Y-134049762D01*
X159510126Y-133956740D01*
X159508061Y-133955884D01*
X160069412Y-133394533D01*
X160065607Y-133391284D01*
X160065598Y-133391277D01*
X159847515Y-133257636D01*
X159847512Y-133257634D01*
X159611202Y-133159752D01*
X159362488Y-133100042D01*
X159362489Y-133100042D01*
X159107500Y-133079975D01*
X158852510Y-133100042D01*
X158603797Y-133159752D01*
X158367487Y-133257634D01*
X158367484Y-133257636D01*
X158149393Y-133391282D01*
X158145586Y-133394532D01*
X158706938Y-133955884D01*
X158704874Y-133956740D01*
X158565656Y-134049762D01*
X158447262Y-134168156D01*
X158354240Y-134307374D01*
X158353384Y-134309438D01*
X157792032Y-133748086D01*
X157788782Y-133751893D01*
X157655136Y-133969984D01*
X157655134Y-133969987D01*
X157557252Y-134206297D01*
X157497542Y-134455011D01*
X157495243Y-134484230D01*
X157470359Y-134549518D01*
X157414128Y-134590989D01*
X157344403Y-134595476D01*
X157283320Y-134561554D01*
X157250274Y-134499994D01*
X157247625Y-134474501D01*
X157247625Y-132024499D01*
X157267310Y-131957460D01*
X157320114Y-131911705D01*
X157371625Y-131900499D01*
X157615371Y-131900499D01*
X157615372Y-131900499D01*
X157674983Y-131894091D01*
X157809831Y-131843796D01*
X157925046Y-131757546D01*
X158011296Y-131642331D01*
X158061591Y-131507483D01*
X158068000Y-131447873D01*
X158067999Y-130052128D01*
X158061591Y-129992517D01*
X158053552Y-129970964D01*
X158011297Y-129857672D01*
X158011296Y-129857669D01*
X157986009Y-129823891D01*
X157961594Y-129758430D01*
X157976445Y-129690157D01*
X157986012Y-129675271D01*
X158010851Y-129642090D01*
X158061097Y-129507376D01*
X158061098Y-129507372D01*
X158067499Y-129447844D01*
X158067500Y-129447827D01*
X158067500Y-129000000D01*
X155067500Y-129000000D01*
X155067500Y-129447844D01*
X155073901Y-129507372D01*
X155073903Y-129507379D01*
X155124145Y-129642086D01*
X155124146Y-129642088D01*
X155148988Y-129675273D01*
X155173404Y-129740738D01*
X155158552Y-129809011D01*
X155148988Y-129823892D01*
X155123705Y-129857665D01*
X155123702Y-129857671D01*
X155073408Y-129992517D01*
X155067082Y-130051362D01*
X155067001Y-130052123D01*
X155067000Y-130052135D01*
X155067000Y-131447870D01*
X155067001Y-131447876D01*
X155073408Y-131507483D01*
X155123702Y-131642328D01*
X155123706Y-131642335D01*
X155209952Y-131757544D01*
X155209955Y-131757547D01*
X155325164Y-131843793D01*
X155325171Y-131843797D01*
X155370118Y-131860561D01*
X155460017Y-131894091D01*
X155519627Y-131900500D01*
X155763375Y-131900499D01*
X155830414Y-131920183D01*
X155876169Y-131972987D01*
X155887375Y-132024499D01*
X155887375Y-134474501D01*
X155867690Y-134541540D01*
X155814886Y-134587295D01*
X155745728Y-134597239D01*
X155682172Y-134568214D01*
X155644398Y-134509436D01*
X155639757Y-134484230D01*
X155637457Y-134455011D01*
X155577747Y-134206297D01*
X155479865Y-133969987D01*
X155479863Y-133969984D01*
X155346219Y-133751897D01*
X155342965Y-133748087D01*
X154781614Y-134309437D01*
X154780760Y-134307374D01*
X154687738Y-134168156D01*
X154569344Y-134049762D01*
X154430126Y-133956740D01*
X154428061Y-133955884D01*
X154989412Y-133394533D01*
X154985607Y-133391284D01*
X154985598Y-133391277D01*
X154767515Y-133257636D01*
X154767512Y-133257634D01*
X154531202Y-133159752D01*
X154282488Y-133100042D01*
X154282489Y-133100042D01*
X154027500Y-133079975D01*
X153772510Y-133100042D01*
X153523797Y-133159752D01*
X153287487Y-133257634D01*
X153287484Y-133257636D01*
X153069393Y-133391282D01*
X153065586Y-133394532D01*
X153626938Y-133955884D01*
X153624874Y-133956740D01*
X153485656Y-134049762D01*
X153367262Y-134168156D01*
X153274240Y-134307374D01*
X153273384Y-134309438D01*
X152712032Y-133748086D01*
X152708782Y-133751893D01*
X152575136Y-133969984D01*
X152575134Y-133969987D01*
X152477252Y-134206297D01*
X152417542Y-134455010D01*
X152397475Y-134710000D01*
X140648168Y-134710000D01*
X130326819Y-124388651D01*
X130293334Y-124327328D01*
X130290500Y-124300970D01*
X130290500Y-114129638D01*
X130310185Y-114062599D01*
X130349401Y-114024100D01*
X130458656Y-113956712D01*
X130582712Y-113832656D01*
X130674814Y-113683334D01*
X130674815Y-113683331D01*
X130678605Y-113677187D01*
X130680995Y-113678661D01*
X130718640Y-113635884D01*
X130785828Y-113616715D01*
X130852715Y-113636913D01*
X130888701Y-113678423D01*
X130891051Y-113676975D01*
X130986884Y-113832345D01*
X131110854Y-113956315D01*
X131260075Y-114048356D01*
X131260080Y-114048358D01*
X131426502Y-114103505D01*
X131426509Y-114103506D01*
X131529219Y-114113999D01*
X131779199Y-114113999D01*
X131779200Y-114113998D01*
X131779200Y-112888000D01*
X131798885Y-112820961D01*
X131851689Y-112775206D01*
X131903200Y-112764000D01*
X132155200Y-112764000D01*
X132222239Y-112783685D01*
X132267994Y-112836489D01*
X132279200Y-112888000D01*
X132279200Y-114113999D01*
X132529172Y-114113999D01*
X132529186Y-114113998D01*
X132631897Y-114103505D01*
X132798319Y-114048358D01*
X132798324Y-114048356D01*
X132947545Y-113956315D01*
X133071515Y-113832345D01*
X133167349Y-113676975D01*
X133169797Y-113678485D01*
X133207271Y-113635893D01*
X133274457Y-113616715D01*
X133341347Y-113636904D01*
X133377501Y-113678601D01*
X133379795Y-113677187D01*
X133383585Y-113683331D01*
X133383586Y-113683334D01*
X133475688Y-113832656D01*
X133599744Y-113956712D01*
X133749066Y-114048814D01*
X133832905Y-114076595D01*
X133890348Y-114116366D01*
X133917172Y-114180882D01*
X133917900Y-114194300D01*
X133917900Y-124754330D01*
X133917899Y-124754348D01*
X133917899Y-124920054D01*
X133917898Y-124920054D01*
X133958824Y-125072789D01*
X133958825Y-125072790D01*
X133985091Y-125118283D01*
X133985092Y-125118285D01*
X134037875Y-125209709D01*
X134037881Y-125209717D01*
X134156749Y-125328585D01*
X134156755Y-125328590D01*
X138942539Y-130114374D01*
X138942549Y-130114385D01*
X138946879Y-130118715D01*
X138946880Y-130118716D01*
X139058684Y-130230520D01*
X139058686Y-130230521D01*
X139058690Y-130230524D01*
X139148221Y-130282214D01*
X139195616Y-130309577D01*
X139307419Y-130339534D01*
X139348342Y-130350500D01*
X139348343Y-130350500D01*
X144273742Y-130350500D01*
X144340781Y-130370185D01*
X144365891Y-130391527D01*
X144394128Y-130422887D01*
X144394135Y-130422893D01*
X144547265Y-130534148D01*
X144547270Y-130534151D01*
X144720192Y-130611142D01*
X144720197Y-130611144D01*
X144905354Y-130650500D01*
X144905355Y-130650500D01*
X145094644Y-130650500D01*
X145094646Y-130650500D01*
X145279803Y-130611144D01*
X145452730Y-130534151D01*
X145605871Y-130422888D01*
X145732533Y-130282216D01*
X145827179Y-130118284D01*
X145885674Y-129938256D01*
X145905460Y-129750000D01*
X145885674Y-129561744D01*
X145827179Y-129381716D01*
X145732533Y-129217784D01*
X145605871Y-129077112D01*
X145605863Y-129077106D01*
X145452734Y-128965851D01*
X145452729Y-128965848D01*
X145279807Y-128888857D01*
X145279802Y-128888855D01*
X145134001Y-128857865D01*
X145094646Y-128849500D01*
X144905354Y-128849500D01*
X144872897Y-128856398D01*
X144720197Y-128888855D01*
X144720192Y-128888857D01*
X144547270Y-128965848D01*
X144547265Y-128965851D01*
X144394135Y-129077106D01*
X144394128Y-129077112D01*
X144365891Y-129108473D01*
X144306405Y-129145121D01*
X144273742Y-129149500D01*
X139727497Y-129149500D01*
X139660458Y-129129815D01*
X139639816Y-129113181D01*
X135155219Y-124628584D01*
X135121734Y-124567261D01*
X135118900Y-124540903D01*
X135118900Y-114194300D01*
X135138585Y-114127261D01*
X135191389Y-114081506D01*
X135203882Y-114076599D01*
X135287734Y-114048814D01*
X135437056Y-113956712D01*
X135561112Y-113832656D01*
X135653214Y-113683334D01*
X135653215Y-113683331D01*
X135657005Y-113677187D01*
X135659395Y-113678661D01*
X135697040Y-113635884D01*
X135764228Y-113616715D01*
X135831115Y-113636913D01*
X135867101Y-113678423D01*
X135869451Y-113676975D01*
X135965284Y-113832345D01*
X136089254Y-113956315D01*
X136238475Y-114048356D01*
X136238480Y-114048358D01*
X136404902Y-114103505D01*
X136404909Y-114103506D01*
X136507619Y-114113999D01*
X136757599Y-114113999D01*
X137257600Y-114113999D01*
X137507572Y-114113999D01*
X137507586Y-114113998D01*
X137610297Y-114103505D01*
X137776719Y-114048358D01*
X137776724Y-114048356D01*
X137925945Y-113956315D01*
X138049915Y-113832345D01*
X138141956Y-113683124D01*
X138141958Y-113683119D01*
X138197105Y-113516697D01*
X138197106Y-113516690D01*
X138207599Y-113413986D01*
X138207600Y-113413973D01*
X138207600Y-113264000D01*
X137257600Y-113264000D01*
X137257600Y-114113999D01*
X136757599Y-114113999D01*
X136757600Y-114113998D01*
X136757600Y-112888000D01*
X136777285Y-112820961D01*
X136830089Y-112775206D01*
X136881600Y-112764000D01*
X138207599Y-112764000D01*
X138207599Y-112614028D01*
X138207598Y-112614013D01*
X138197105Y-112511302D01*
X138141958Y-112344880D01*
X138141956Y-112344875D01*
X138049915Y-112195654D01*
X137956295Y-112102034D01*
X137922810Y-112040711D01*
X137927794Y-111971019D01*
X137956291Y-111926676D01*
X138050312Y-111832656D01*
X138142414Y-111683334D01*
X138197599Y-111516797D01*
X138208100Y-111414009D01*
X138208099Y-110613992D01*
X138206955Y-110602797D01*
X138197599Y-110511203D01*
X138197598Y-110511200D01*
X138184260Y-110470950D01*
X138142414Y-110344666D01*
X138050312Y-110195344D01*
X137926256Y-110071288D01*
X137776934Y-109979186D01*
X137670006Y-109943753D01*
X137612562Y-109903981D01*
X137589237Y-109858145D01*
X137567177Y-109775815D01*
X137488120Y-109638884D01*
X136980521Y-109131285D01*
X136980520Y-109131284D01*
X136868716Y-109019480D01*
X136769245Y-108962051D01*
X136769244Y-108962050D01*
X136731783Y-108940422D01*
X136663303Y-108922073D01*
X136579057Y-108899499D01*
X136420943Y-108899499D01*
X136413347Y-108899499D01*
X136413331Y-108899500D01*
X131212298Y-108899500D01*
X131145259Y-108879815D01*
X131124617Y-108863181D01*
X130399790Y-108138355D01*
X130399788Y-108138352D01*
X130280917Y-108019481D01*
X130280916Y-108019480D01*
X130186875Y-107965186D01*
X130186874Y-107965185D01*
X130143983Y-107940422D01*
X130077074Y-107922494D01*
X129991257Y-107899499D01*
X129833143Y-107899499D01*
X129825547Y-107899499D01*
X129825531Y-107899500D01*
X129226258Y-107899500D01*
X129159219Y-107879815D01*
X129134109Y-107858473D01*
X129105871Y-107827112D01*
X129105864Y-107827106D01*
X128952734Y-107715851D01*
X128952729Y-107715848D01*
X128779807Y-107638857D01*
X128779802Y-107638855D01*
X128628693Y-107606736D01*
X128594646Y-107599500D01*
X128594645Y-107599500D01*
X128588289Y-107598149D01*
X128588885Y-107595342D01*
X128535857Y-107573494D01*
X128495902Y-107516176D01*
X128493278Y-107446355D01*
X128525800Y-107389118D01*
X129357778Y-106557141D01*
X129357782Y-106557139D01*
X129497139Y-106417782D01*
X129606632Y-106253914D01*
X129615992Y-106231318D01*
X129630915Y-106195289D01*
X129682051Y-106071835D01*
X129703494Y-105964034D01*
X129720500Y-105878543D01*
X129720500Y-105750758D01*
X129740185Y-105683719D01*
X129756819Y-105663077D01*
X129758495Y-105661401D01*
X129888425Y-105475842D01*
X129943002Y-105432217D01*
X130012500Y-105425023D01*
X130074855Y-105456546D01*
X130091575Y-105475842D01*
X130221281Y-105661082D01*
X130221505Y-105661401D01*
X130388599Y-105828495D01*
X130469571Y-105885192D01*
X130582165Y-105964032D01*
X130582167Y-105964033D01*
X130582170Y-105964035D01*
X130796337Y-106063903D01*
X130796343Y-106063904D01*
X130796344Y-106063905D01*
X130825940Y-106071835D01*
X131024592Y-106125063D01*
X131212918Y-106141539D01*
X131259999Y-106145659D01*
X131260000Y-106145659D01*
X131260001Y-106145659D01*
X131299234Y-106142226D01*
X131495408Y-106125063D01*
X131723663Y-106063903D01*
X131937830Y-105964035D01*
X132131401Y-105828495D01*
X132298495Y-105661401D01*
X132428425Y-105475842D01*
X132483002Y-105432217D01*
X132552500Y-105425023D01*
X132614855Y-105456546D01*
X132631575Y-105475842D01*
X132761281Y-105661082D01*
X132761505Y-105661401D01*
X132928599Y-105828495D01*
X133009571Y-105885192D01*
X133122165Y-105964032D01*
X133122167Y-105964033D01*
X133122170Y-105964035D01*
X133336337Y-106063903D01*
X133336343Y-106063904D01*
X133336344Y-106063905D01*
X133365940Y-106071835D01*
X133564592Y-106125063D01*
X133752918Y-106141539D01*
X133799999Y-106145659D01*
X133800000Y-106145659D01*
X133800001Y-106145659D01*
X133839234Y-106142226D01*
X134035408Y-106125063D01*
X134263663Y-106063903D01*
X134477830Y-105964035D01*
X134671401Y-105828495D01*
X134838495Y-105661401D01*
X134968425Y-105475842D01*
X135023002Y-105432217D01*
X135092500Y-105425023D01*
X135154855Y-105456546D01*
X135171575Y-105475842D01*
X135301281Y-105661082D01*
X135301505Y-105661401D01*
X135468599Y-105828495D01*
X135549571Y-105885192D01*
X135662165Y-105964032D01*
X135662167Y-105964033D01*
X135662170Y-105964035D01*
X135876337Y-106063903D01*
X135876343Y-106063904D01*
X135876344Y-106063905D01*
X135905940Y-106071835D01*
X136104592Y-106125063D01*
X136292918Y-106141539D01*
X136339999Y-106145659D01*
X136340000Y-106145659D01*
X136340001Y-106145659D01*
X136379234Y-106142226D01*
X136575408Y-106125063D01*
X136803663Y-106063903D01*
X137017830Y-105964035D01*
X137211401Y-105828495D01*
X137378495Y-105661401D01*
X137508730Y-105475405D01*
X137563307Y-105431781D01*
X137632805Y-105424587D01*
X137695160Y-105456110D01*
X137711879Y-105475405D01*
X137841890Y-105661078D01*
X138008917Y-105828105D01*
X138202421Y-105963600D01*
X138416507Y-106063429D01*
X138416516Y-106063433D01*
X138630000Y-106120634D01*
X138630000Y-105223012D01*
X138687007Y-105255925D01*
X138814174Y-105290000D01*
X138945826Y-105290000D01*
X139072993Y-105255925D01*
X139130000Y-105223012D01*
X139130000Y-106120633D01*
G37*
%TD.AperFunction*%
%TA.AperFunction,Conductor*%
G36*
X160113418Y-100401185D02*
G01*
X160159173Y-100453989D01*
X160169117Y-100523147D01*
X160140092Y-100586703D01*
X160106360Y-100614028D01*
X159794810Y-100786215D01*
X159794805Y-100786218D01*
X159501693Y-100994193D01*
X159420397Y-101066844D01*
X160209721Y-101856168D01*
X160117837Y-101818109D01*
X160018381Y-101818109D01*
X159926495Y-101856169D01*
X159856169Y-101926495D01*
X159818109Y-102018381D01*
X159818109Y-102117837D01*
X159856168Y-102209721D01*
X159066844Y-101420397D01*
X158994193Y-101501693D01*
X158786218Y-101794805D01*
X158786215Y-101794810D01*
X158612355Y-102109386D01*
X158612353Y-102109390D01*
X158474812Y-102441447D01*
X158375316Y-102786805D01*
X158375314Y-102786814D01*
X158315112Y-103141141D01*
X158315110Y-103141153D01*
X158294958Y-103500000D01*
X158315110Y-103858846D01*
X158315112Y-103858858D01*
X158375314Y-104213185D01*
X158375316Y-104213194D01*
X158474812Y-104558552D01*
X158612353Y-104890609D01*
X158612355Y-104890613D01*
X158786215Y-105205189D01*
X158786218Y-105205194D01*
X158994193Y-105498306D01*
X159066844Y-105579601D01*
X160384728Y-104261717D01*
X160470278Y-104379466D01*
X160620534Y-104529722D01*
X160738281Y-104615270D01*
X160280050Y-105073501D01*
X160318109Y-104981619D01*
X160318109Y-104882163D01*
X160280049Y-104790277D01*
X160209723Y-104719951D01*
X160117837Y-104681891D01*
X160018381Y-104681891D01*
X159926495Y-104719951D01*
X159856169Y-104790277D01*
X159818109Y-104882163D01*
X159818109Y-104981619D01*
X159856169Y-105073505D01*
X159926495Y-105143831D01*
X160018381Y-105181891D01*
X160117837Y-105181891D01*
X160209719Y-105143832D01*
X159420397Y-105933154D01*
X159501693Y-106005806D01*
X159794805Y-106213781D01*
X159794810Y-106213784D01*
X160109386Y-106387644D01*
X160109390Y-106387646D01*
X160441447Y-106525187D01*
X160786805Y-106624683D01*
X160786814Y-106624685D01*
X161141141Y-106684887D01*
X161141153Y-106684889D01*
X161500000Y-106705041D01*
X161858846Y-106684889D01*
X161858858Y-106684887D01*
X162213185Y-106624685D01*
X162213194Y-106624683D01*
X162558552Y-106525187D01*
X162890609Y-106387646D01*
X162890613Y-106387644D01*
X163205189Y-106213784D01*
X163205194Y-106213781D01*
X163498299Y-106005811D01*
X163498322Y-106005793D01*
X163579602Y-105933155D01*
X163579602Y-105933154D01*
X162790279Y-105143832D01*
X162882163Y-105181891D01*
X162981619Y-105181891D01*
X163073505Y-105143831D01*
X163143831Y-105073505D01*
X163181891Y-104981619D01*
X163181891Y-104882163D01*
X163143832Y-104790279D01*
X163933154Y-105579602D01*
X163933155Y-105579602D01*
X164005793Y-105498322D01*
X164005811Y-105498299D01*
X164213781Y-105205194D01*
X164213784Y-105205189D01*
X164385972Y-104893639D01*
X164435629Y-104844486D01*
X164503977Y-104829983D01*
X164569316Y-104854733D01*
X164610901Y-104910879D01*
X164618500Y-104953620D01*
X164618500Y-117370500D01*
X164598815Y-117437539D01*
X164546011Y-117483294D01*
X164494500Y-117494500D01*
X163316749Y-117494500D01*
X163249580Y-117498983D01*
X163249555Y-117498985D01*
X163216917Y-117503361D01*
X163216908Y-117503362D01*
X163150934Y-117516730D01*
X163150930Y-117516731D01*
X163018941Y-117573997D01*
X163018935Y-117574000D01*
X162959448Y-117610649D01*
X162848940Y-117702781D01*
X162774482Y-117785473D01*
X162755220Y-117802816D01*
X162709132Y-117836302D01*
X162686679Y-117849265D01*
X162634637Y-117872435D01*
X162609985Y-117880445D01*
X162539766Y-117895371D01*
X162522280Y-117897802D01*
X162519291Y-117898003D01*
X162496634Y-117899522D01*
X162463836Y-117903939D01*
X162451139Y-117906524D01*
X162381520Y-117900605D01*
X162339988Y-117873939D01*
X162332061Y-117866235D01*
X162332056Y-117866231D01*
X162332050Y-117866225D01*
X162244781Y-117802821D01*
X162225522Y-117785479D01*
X162151065Y-117702787D01*
X162151066Y-117702787D01*
X162138499Y-117690574D01*
X162102775Y-117655857D01*
X162102770Y-117655853D01*
X162102758Y-117655841D01*
X162077677Y-117634524D01*
X162077664Y-117634514D01*
X162045815Y-117610908D01*
X162023590Y-117594435D01*
X162023589Y-117594434D01*
X161892713Y-117534663D01*
X161825668Y-117514976D01*
X161773544Y-117507482D01*
X161683251Y-117494500D01*
X160816749Y-117494500D01*
X160749580Y-117498983D01*
X160749555Y-117498985D01*
X160716917Y-117503361D01*
X160716908Y-117503362D01*
X160650934Y-117516730D01*
X160650930Y-117516731D01*
X160518941Y-117573997D01*
X160518935Y-117574000D01*
X160459448Y-117610649D01*
X160348940Y-117702781D01*
X160274482Y-117785473D01*
X160255220Y-117802816D01*
X160209132Y-117836302D01*
X160186679Y-117849265D01*
X160134637Y-117872435D01*
X160109986Y-117880445D01*
X160072790Y-117888352D01*
X160054263Y-117892290D01*
X160028482Y-117895000D01*
X159971516Y-117895000D01*
X159945735Y-117892290D01*
X159944949Y-117892123D01*
X159890013Y-117880446D01*
X159865356Y-117872434D01*
X159813312Y-117849261D01*
X159790866Y-117836302D01*
X159738115Y-117797977D01*
X159680079Y-117761551D01*
X159650529Y-117745688D01*
X159588093Y-117717444D01*
X159588085Y-117717441D01*
X159447505Y-117686861D01*
X159447498Y-117686860D01*
X159377807Y-117681876D01*
X159234301Y-117692139D01*
X159234298Y-117692139D01*
X159234298Y-117692140D01*
X159099490Y-117742419D01*
X159099484Y-117742422D01*
X159040127Y-117774833D01*
X159038653Y-117775603D01*
X159038170Y-117775901D01*
X158922988Y-117862126D01*
X158922976Y-117862137D01*
X158279680Y-118505434D01*
X158218357Y-118538919D01*
X158148665Y-118533935D01*
X158092732Y-118492063D01*
X158068315Y-118426599D01*
X158067999Y-118417753D01*
X158067999Y-118052129D01*
X158067998Y-118052123D01*
X158067997Y-118052116D01*
X158061591Y-117992517D01*
X158052679Y-117968622D01*
X158011297Y-117857670D01*
X158001038Y-117843966D01*
X157986323Y-117824310D01*
X157961906Y-117758849D01*
X157976757Y-117690575D01*
X157986323Y-117675690D01*
X158011296Y-117642331D01*
X158012188Y-117639941D01*
X158043015Y-117557288D01*
X158061591Y-117507483D01*
X158068000Y-117447873D01*
X158067999Y-116052128D01*
X158061591Y-115992517D01*
X158056458Y-115978756D01*
X158011297Y-115857671D01*
X158011293Y-115857664D01*
X157925047Y-115742455D01*
X157925044Y-115742452D01*
X157809835Y-115656206D01*
X157809828Y-115656202D01*
X157674982Y-115605908D01*
X157674983Y-115605908D01*
X157615383Y-115599501D01*
X157615381Y-115599500D01*
X157615373Y-115599500D01*
X157615364Y-115599500D01*
X155519629Y-115599500D01*
X155519623Y-115599501D01*
X155460016Y-115605908D01*
X155325171Y-115656202D01*
X155325164Y-115656206D01*
X155209955Y-115742452D01*
X155209952Y-115742455D01*
X155123706Y-115857664D01*
X155123702Y-115857671D01*
X155078540Y-115978759D01*
X155073409Y-115992517D01*
X155068437Y-116038757D01*
X155041701Y-116103306D01*
X154984309Y-116143154D01*
X154945149Y-116149500D01*
X154550097Y-116149500D01*
X154483058Y-116129815D01*
X154462416Y-116113181D01*
X153609342Y-115260107D01*
X153575857Y-115198784D01*
X153580841Y-115129092D01*
X153622713Y-115073159D01*
X153646578Y-115059151D01*
X153702730Y-115034151D01*
X153855871Y-114922888D01*
X153884109Y-114891527D01*
X153943595Y-114854879D01*
X153976258Y-114850500D01*
X155163331Y-114850500D01*
X155163347Y-114850501D01*
X155170943Y-114850501D01*
X155329054Y-114850501D01*
X155329057Y-114850501D01*
X155481785Y-114809577D01*
X155535473Y-114778580D01*
X155618716Y-114730520D01*
X155730520Y-114618716D01*
X155730520Y-114618714D01*
X155740721Y-114608514D01*
X155740724Y-114608509D01*
X155980519Y-114368716D01*
X155980518Y-114368716D01*
X156039087Y-114310147D01*
X156980520Y-113368716D01*
X157059577Y-113231784D01*
X157100501Y-113079057D01*
X157100501Y-112920942D01*
X157100501Y-112913347D01*
X157100500Y-112913329D01*
X157100500Y-112180300D01*
X157120185Y-112113261D01*
X157172989Y-112067506D01*
X157185482Y-112062599D01*
X157269334Y-112034814D01*
X157418656Y-111942712D01*
X157542712Y-111818656D01*
X157634814Y-111669334D01*
X157689999Y-111502797D01*
X157700500Y-111400009D01*
X157700499Y-110599992D01*
X157695531Y-110551362D01*
X157689999Y-110497203D01*
X157689998Y-110497200D01*
X157689489Y-110495664D01*
X157634814Y-110330666D01*
X157542712Y-110181344D01*
X157449049Y-110087681D01*
X157415564Y-110026358D01*
X157420548Y-109956666D01*
X157449049Y-109912319D01*
X157484187Y-109877181D01*
X157542712Y-109818656D01*
X157634814Y-109669334D01*
X157689999Y-109502797D01*
X157700500Y-109400009D01*
X157700499Y-108599992D01*
X157689999Y-108497203D01*
X157634814Y-108330666D01*
X157542712Y-108181344D01*
X157418656Y-108057288D01*
X157325888Y-108000069D01*
X157269336Y-107965187D01*
X157269331Y-107965185D01*
X157194601Y-107940422D01*
X157160523Y-107929129D01*
X157103079Y-107889357D01*
X157079754Y-107843518D01*
X157059577Y-107768216D01*
X157039278Y-107733057D01*
X156980524Y-107631290D01*
X156980521Y-107631286D01*
X156980520Y-107631284D01*
X156868716Y-107519480D01*
X156868715Y-107519479D01*
X156864385Y-107515149D01*
X156864374Y-107515139D01*
X155487590Y-106138355D01*
X155487588Y-106138352D01*
X155368717Y-106019481D01*
X155368709Y-106019475D01*
X155272683Y-105964035D01*
X155272681Y-105964034D01*
X155231790Y-105940425D01*
X155231789Y-105940424D01*
X155204657Y-105933154D01*
X155161379Y-105921557D01*
X155101719Y-105885192D01*
X155071191Y-105822345D01*
X155079486Y-105752970D01*
X155105791Y-105714104D01*
X155158495Y-105661401D01*
X155288730Y-105475405D01*
X155343307Y-105431781D01*
X155412805Y-105424587D01*
X155475160Y-105456110D01*
X155491879Y-105475405D01*
X155621890Y-105661078D01*
X155788917Y-105828105D01*
X155982421Y-105963600D01*
X156196507Y-106063429D01*
X156196516Y-106063433D01*
X156410000Y-106120634D01*
X156410000Y-105223012D01*
X156467007Y-105255925D01*
X156594174Y-105290000D01*
X156725826Y-105290000D01*
X156852993Y-105255925D01*
X156910000Y-105223012D01*
X156910000Y-106120633D01*
X157123483Y-106063433D01*
X157123492Y-106063429D01*
X157337578Y-105963600D01*
X157531082Y-105828105D01*
X157698105Y-105661082D01*
X157833600Y-105467578D01*
X157933429Y-105253492D01*
X157933432Y-105253486D01*
X157990636Y-105040000D01*
X157093012Y-105040000D01*
X157125925Y-104982993D01*
X157160000Y-104855826D01*
X157160000Y-104724174D01*
X157125925Y-104597007D01*
X157093012Y-104540000D01*
X157990636Y-104540000D01*
X157990635Y-104539999D01*
X157933432Y-104326513D01*
X157933429Y-104326507D01*
X157833600Y-104112422D01*
X157833599Y-104112420D01*
X157698113Y-103918926D01*
X157698108Y-103918920D01*
X157531078Y-103751890D01*
X157345405Y-103621879D01*
X157301780Y-103567302D01*
X157294588Y-103497804D01*
X157326110Y-103435449D01*
X157345406Y-103418730D01*
X157346279Y-103418119D01*
X157531401Y-103288495D01*
X157698495Y-103121401D01*
X157834035Y-102927830D01*
X157933903Y-102713663D01*
X157995063Y-102485408D01*
X158015659Y-102250000D01*
X157995063Y-102014592D01*
X157933903Y-101786337D01*
X157834035Y-101572171D01*
X157828731Y-101564595D01*
X157698494Y-101378597D01*
X157531402Y-101211506D01*
X157531395Y-101211501D01*
X157337834Y-101075967D01*
X157337830Y-101075965D01*
X157318270Y-101066844D01*
X157123663Y-100976097D01*
X157123659Y-100976096D01*
X157123655Y-100976094D01*
X156895413Y-100914938D01*
X156895403Y-100914936D01*
X156660001Y-100894341D01*
X156659999Y-100894341D01*
X156424596Y-100914936D01*
X156424586Y-100914938D01*
X156196344Y-100976094D01*
X156196335Y-100976098D01*
X155982171Y-101075964D01*
X155982169Y-101075965D01*
X155788597Y-101211505D01*
X155621505Y-101378597D01*
X155491575Y-101564158D01*
X155436998Y-101607783D01*
X155367500Y-101614977D01*
X155305145Y-101583454D01*
X155288425Y-101564158D01*
X155158494Y-101378597D01*
X154991402Y-101211506D01*
X154991395Y-101211501D01*
X154797834Y-101075967D01*
X154797830Y-101075965D01*
X154778270Y-101066844D01*
X154583663Y-100976097D01*
X154583659Y-100976096D01*
X154583655Y-100976094D01*
X154355413Y-100914938D01*
X154355403Y-100914936D01*
X154120001Y-100894341D01*
X154119999Y-100894341D01*
X153884596Y-100914936D01*
X153884586Y-100914938D01*
X153656344Y-100976094D01*
X153656335Y-100976098D01*
X153442171Y-101075964D01*
X153442169Y-101075965D01*
X153248597Y-101211505D01*
X153081505Y-101378597D01*
X152951575Y-101564158D01*
X152896998Y-101607783D01*
X152827500Y-101614977D01*
X152765145Y-101583454D01*
X152748425Y-101564158D01*
X152618494Y-101378597D01*
X152451402Y-101211506D01*
X152451395Y-101211501D01*
X152257834Y-101075967D01*
X152257830Y-101075965D01*
X152238270Y-101066844D01*
X152043663Y-100976097D01*
X152043659Y-100976096D01*
X152043655Y-100976094D01*
X151815413Y-100914938D01*
X151815403Y-100914936D01*
X151580001Y-100894341D01*
X151579999Y-100894341D01*
X151344596Y-100914936D01*
X151344586Y-100914938D01*
X151116344Y-100976094D01*
X151116335Y-100976098D01*
X150902171Y-101075964D01*
X150902169Y-101075965D01*
X150708597Y-101211505D01*
X150541508Y-101378594D01*
X150411269Y-101564595D01*
X150356692Y-101608219D01*
X150287193Y-101615412D01*
X150224839Y-101583890D01*
X150208119Y-101564594D01*
X150078113Y-101378926D01*
X150078108Y-101378920D01*
X149911082Y-101211894D01*
X149717578Y-101076399D01*
X149503492Y-100976570D01*
X149503486Y-100976567D01*
X149290000Y-100919364D01*
X149290000Y-101816988D01*
X149232993Y-101784075D01*
X149105826Y-101750000D01*
X148974174Y-101750000D01*
X148847007Y-101784075D01*
X148790000Y-101816988D01*
X148790000Y-100919364D01*
X148789999Y-100919364D01*
X148576513Y-100976567D01*
X148576507Y-100976570D01*
X148362422Y-101076399D01*
X148362420Y-101076400D01*
X148168926Y-101211886D01*
X148168920Y-101211891D01*
X148001891Y-101378920D01*
X148001890Y-101378922D01*
X147871880Y-101564595D01*
X147817303Y-101608219D01*
X147747804Y-101615412D01*
X147685450Y-101583890D01*
X147668730Y-101564594D01*
X147538494Y-101378597D01*
X147371402Y-101211506D01*
X147371395Y-101211501D01*
X147177834Y-101075967D01*
X147177830Y-101075965D01*
X147158270Y-101066844D01*
X146963663Y-100976097D01*
X146963659Y-100976096D01*
X146963655Y-100976094D01*
X146735413Y-100914938D01*
X146735403Y-100914936D01*
X146500001Y-100894341D01*
X146499999Y-100894341D01*
X146264596Y-100914936D01*
X146264586Y-100914938D01*
X146036344Y-100976094D01*
X146036335Y-100976098D01*
X145822171Y-101075964D01*
X145822169Y-101075965D01*
X145628597Y-101211505D01*
X145461508Y-101378594D01*
X145331269Y-101564595D01*
X145276692Y-101608219D01*
X145207193Y-101615412D01*
X145144839Y-101583890D01*
X145128119Y-101564594D01*
X144998113Y-101378926D01*
X144998108Y-101378920D01*
X144831082Y-101211894D01*
X144637578Y-101076399D01*
X144423492Y-100976570D01*
X144423486Y-100976567D01*
X144210000Y-100919364D01*
X144210000Y-101816988D01*
X144152993Y-101784075D01*
X144025826Y-101750000D01*
X143894174Y-101750000D01*
X143767007Y-101784075D01*
X143710000Y-101816988D01*
X143710000Y-100919364D01*
X143709999Y-100919364D01*
X143496513Y-100976567D01*
X143496507Y-100976570D01*
X143282422Y-101076399D01*
X143282420Y-101076400D01*
X143088926Y-101211886D01*
X143088920Y-101211891D01*
X142921891Y-101378920D01*
X142921890Y-101378922D01*
X142791880Y-101564595D01*
X142737303Y-101608219D01*
X142667804Y-101615412D01*
X142605450Y-101583890D01*
X142588730Y-101564594D01*
X142458494Y-101378597D01*
X142291402Y-101211506D01*
X142291395Y-101211501D01*
X142097834Y-101075967D01*
X142097830Y-101075965D01*
X142078270Y-101066844D01*
X141883663Y-100976097D01*
X141883659Y-100976096D01*
X141883655Y-100976094D01*
X141655413Y-100914938D01*
X141655403Y-100914936D01*
X141420001Y-100894341D01*
X141419999Y-100894341D01*
X141184596Y-100914936D01*
X141184586Y-100914938D01*
X140956344Y-100976094D01*
X140956335Y-100976098D01*
X140742171Y-101075964D01*
X140742169Y-101075965D01*
X140548597Y-101211505D01*
X140381505Y-101378597D01*
X140251575Y-101564158D01*
X140196998Y-101607783D01*
X140127500Y-101614977D01*
X140065145Y-101583454D01*
X140048425Y-101564158D01*
X139918494Y-101378597D01*
X139751402Y-101211506D01*
X139751395Y-101211501D01*
X139557834Y-101075967D01*
X139557830Y-101075965D01*
X139538270Y-101066844D01*
X139343663Y-100976097D01*
X139343659Y-100976096D01*
X139343655Y-100976094D01*
X139115413Y-100914938D01*
X139115403Y-100914936D01*
X138880001Y-100894341D01*
X138879999Y-100894341D01*
X138644596Y-100914936D01*
X138644586Y-100914938D01*
X138416344Y-100976094D01*
X138416335Y-100976098D01*
X138202171Y-101075964D01*
X138202169Y-101075965D01*
X138008597Y-101211505D01*
X137841505Y-101378597D01*
X137711575Y-101564158D01*
X137656998Y-101607783D01*
X137587500Y-101614977D01*
X137525145Y-101583454D01*
X137508425Y-101564158D01*
X137378494Y-101378597D01*
X137211402Y-101211506D01*
X137211395Y-101211501D01*
X137017834Y-101075967D01*
X137017830Y-101075965D01*
X136998270Y-101066844D01*
X136803663Y-100976097D01*
X136803659Y-100976096D01*
X136803655Y-100976094D01*
X136575413Y-100914938D01*
X136575403Y-100914936D01*
X136340001Y-100894341D01*
X136339999Y-100894341D01*
X136104596Y-100914936D01*
X136104586Y-100914938D01*
X135876344Y-100976094D01*
X135876335Y-100976098D01*
X135662171Y-101075964D01*
X135662169Y-101075965D01*
X135468597Y-101211505D01*
X135301505Y-101378597D01*
X135171575Y-101564158D01*
X135116998Y-101607783D01*
X135047500Y-101614977D01*
X134985145Y-101583454D01*
X134968425Y-101564158D01*
X134838494Y-101378597D01*
X134671402Y-101211506D01*
X134671395Y-101211501D01*
X134477834Y-101075967D01*
X134477830Y-101075965D01*
X134458270Y-101066844D01*
X134263663Y-100976097D01*
X134263659Y-100976096D01*
X134263655Y-100976094D01*
X134035413Y-100914938D01*
X134035403Y-100914936D01*
X133800001Y-100894341D01*
X133799999Y-100894341D01*
X133564596Y-100914936D01*
X133564586Y-100914938D01*
X133336344Y-100976094D01*
X133336335Y-100976098D01*
X133122171Y-101075964D01*
X133122169Y-101075965D01*
X132928597Y-101211505D01*
X132761508Y-101378594D01*
X132631269Y-101564595D01*
X132576692Y-101608219D01*
X132507193Y-101615412D01*
X132444839Y-101583890D01*
X132428119Y-101564594D01*
X132298113Y-101378926D01*
X132298108Y-101378920D01*
X132131082Y-101211894D01*
X131937578Y-101076399D01*
X131723492Y-100976570D01*
X131723486Y-100976567D01*
X131510000Y-100919364D01*
X131510000Y-101816988D01*
X131452993Y-101784075D01*
X131325826Y-101750000D01*
X131194174Y-101750000D01*
X131067007Y-101784075D01*
X131010000Y-101816988D01*
X131010000Y-100919364D01*
X131009999Y-100919364D01*
X130796513Y-100976567D01*
X130796507Y-100976570D01*
X130582422Y-101076399D01*
X130582420Y-101076400D01*
X130388926Y-101211886D01*
X130388920Y-101211891D01*
X130221891Y-101378920D01*
X130221890Y-101378922D01*
X130091880Y-101564595D01*
X130037303Y-101608219D01*
X129967804Y-101615412D01*
X129905450Y-101583890D01*
X129888730Y-101564594D01*
X129758494Y-101378597D01*
X129591402Y-101211506D01*
X129591395Y-101211501D01*
X129397834Y-101075967D01*
X129397830Y-101075965D01*
X129378270Y-101066844D01*
X129183663Y-100976097D01*
X129183659Y-100976096D01*
X129183655Y-100976094D01*
X128955413Y-100914938D01*
X128955403Y-100914936D01*
X128720001Y-100894341D01*
X128719999Y-100894341D01*
X128484596Y-100914936D01*
X128484586Y-100914938D01*
X128256344Y-100976094D01*
X128256335Y-100976098D01*
X128042171Y-101075964D01*
X128042169Y-101075965D01*
X127848597Y-101211505D01*
X127681505Y-101378597D01*
X127551575Y-101564158D01*
X127496998Y-101607783D01*
X127427500Y-101614977D01*
X127365145Y-101583454D01*
X127348425Y-101564158D01*
X127218494Y-101378597D01*
X127051402Y-101211506D01*
X127051395Y-101211501D01*
X126857834Y-101075967D01*
X126857830Y-101075965D01*
X126838270Y-101066844D01*
X126643663Y-100976097D01*
X126643659Y-100976096D01*
X126643655Y-100976094D01*
X126415413Y-100914938D01*
X126415403Y-100914936D01*
X126180001Y-100894341D01*
X126179999Y-100894341D01*
X125944596Y-100914936D01*
X125944586Y-100914938D01*
X125716344Y-100976094D01*
X125716335Y-100976098D01*
X125502171Y-101075964D01*
X125502169Y-101075965D01*
X125308597Y-101211505D01*
X125141508Y-101378594D01*
X125011269Y-101564595D01*
X124956692Y-101608219D01*
X124887193Y-101615412D01*
X124824839Y-101583890D01*
X124808119Y-101564594D01*
X124678113Y-101378926D01*
X124678108Y-101378920D01*
X124511082Y-101211894D01*
X124317578Y-101076399D01*
X124103492Y-100976570D01*
X124103486Y-100976567D01*
X123890000Y-100919364D01*
X123890000Y-101816988D01*
X123832993Y-101784075D01*
X123705826Y-101750000D01*
X123574174Y-101750000D01*
X123447007Y-101784075D01*
X123390000Y-101816988D01*
X123390000Y-100919364D01*
X123389999Y-100919364D01*
X123176513Y-100976567D01*
X123176507Y-100976570D01*
X122962422Y-101076399D01*
X122962420Y-101076400D01*
X122768926Y-101211886D01*
X122768920Y-101211891D01*
X122601891Y-101378920D01*
X122601890Y-101378922D01*
X122471880Y-101564595D01*
X122417303Y-101608219D01*
X122347804Y-101615412D01*
X122285450Y-101583890D01*
X122268730Y-101564594D01*
X122138494Y-101378597D01*
X121971402Y-101211506D01*
X121971395Y-101211501D01*
X121777834Y-101075967D01*
X121777830Y-101075965D01*
X121758270Y-101066844D01*
X121563663Y-100976097D01*
X121563659Y-100976096D01*
X121563655Y-100976094D01*
X121335413Y-100914938D01*
X121335403Y-100914936D01*
X121100001Y-100894341D01*
X121099999Y-100894341D01*
X120864596Y-100914936D01*
X120864586Y-100914938D01*
X120636344Y-100976094D01*
X120636335Y-100976098D01*
X120422171Y-101075964D01*
X120422169Y-101075965D01*
X120228597Y-101211505D01*
X120061505Y-101378597D01*
X119931575Y-101564158D01*
X119876998Y-101607783D01*
X119807500Y-101614977D01*
X119745145Y-101583454D01*
X119728425Y-101564158D01*
X119598494Y-101378597D01*
X119431402Y-101211506D01*
X119431395Y-101211501D01*
X119237834Y-101075967D01*
X119237830Y-101075965D01*
X119218270Y-101066844D01*
X119023663Y-100976097D01*
X119023659Y-100976096D01*
X119023655Y-100976094D01*
X118795413Y-100914938D01*
X118795403Y-100914936D01*
X118560001Y-100894341D01*
X118559999Y-100894341D01*
X118324596Y-100914936D01*
X118324586Y-100914938D01*
X118096344Y-100976094D01*
X118096335Y-100976098D01*
X117882171Y-101075964D01*
X117882169Y-101075965D01*
X117688597Y-101211505D01*
X117521505Y-101378597D01*
X117391575Y-101564158D01*
X117336998Y-101607783D01*
X117267500Y-101614977D01*
X117205145Y-101583454D01*
X117188425Y-101564158D01*
X117058494Y-101378597D01*
X116891402Y-101211506D01*
X116891395Y-101211501D01*
X116697834Y-101075967D01*
X116697830Y-101075965D01*
X116678270Y-101066844D01*
X116483663Y-100976097D01*
X116483659Y-100976096D01*
X116483655Y-100976094D01*
X116255413Y-100914938D01*
X116255403Y-100914936D01*
X116020001Y-100894341D01*
X116019999Y-100894341D01*
X115784596Y-100914936D01*
X115784586Y-100914938D01*
X115556344Y-100976094D01*
X115556335Y-100976098D01*
X115342171Y-101075964D01*
X115342169Y-101075965D01*
X115148597Y-101211505D01*
X114981508Y-101378594D01*
X114851269Y-101564595D01*
X114796692Y-101608219D01*
X114727193Y-101615412D01*
X114664839Y-101583890D01*
X114648119Y-101564594D01*
X114518113Y-101378926D01*
X114518108Y-101378920D01*
X114351082Y-101211894D01*
X114157578Y-101076399D01*
X113943492Y-100976570D01*
X113943486Y-100976567D01*
X113730000Y-100919364D01*
X113730000Y-101816988D01*
X113672993Y-101784075D01*
X113545826Y-101750000D01*
X113414174Y-101750000D01*
X113287007Y-101784075D01*
X113230000Y-101816988D01*
X113230000Y-100919364D01*
X113229999Y-100919364D01*
X113016513Y-100976567D01*
X113016507Y-100976570D01*
X112802422Y-101076399D01*
X112802420Y-101076400D01*
X112608926Y-101211886D01*
X112608920Y-101211891D01*
X112441891Y-101378920D01*
X112441890Y-101378922D01*
X112311880Y-101564595D01*
X112257303Y-101608219D01*
X112187804Y-101615412D01*
X112125450Y-101583890D01*
X112108730Y-101564594D01*
X111978494Y-101378597D01*
X111811402Y-101211506D01*
X111811395Y-101211501D01*
X111617834Y-101075967D01*
X111617830Y-101075965D01*
X111598270Y-101066844D01*
X111403663Y-100976097D01*
X111403659Y-100976096D01*
X111403655Y-100976094D01*
X111175413Y-100914938D01*
X111175403Y-100914936D01*
X110940001Y-100894341D01*
X110939999Y-100894341D01*
X110704596Y-100914936D01*
X110704586Y-100914938D01*
X110476344Y-100976094D01*
X110476335Y-100976098D01*
X110262171Y-101075964D01*
X110262169Y-101075965D01*
X110068597Y-101211505D01*
X109901505Y-101378597D01*
X109771575Y-101564158D01*
X109716998Y-101607783D01*
X109647500Y-101614977D01*
X109585145Y-101583454D01*
X109568425Y-101564158D01*
X109438494Y-101378597D01*
X109271402Y-101211506D01*
X109271395Y-101211501D01*
X109077834Y-101075967D01*
X109077830Y-101075965D01*
X109058270Y-101066844D01*
X108863663Y-100976097D01*
X108863659Y-100976096D01*
X108863655Y-100976094D01*
X108635413Y-100914938D01*
X108635403Y-100914936D01*
X108400001Y-100894341D01*
X108399999Y-100894341D01*
X108164596Y-100914936D01*
X108164586Y-100914938D01*
X107936344Y-100976094D01*
X107936335Y-100976098D01*
X107722171Y-101075964D01*
X107722169Y-101075965D01*
X107528597Y-101211505D01*
X107361505Y-101378597D01*
X107225965Y-101572169D01*
X107225964Y-101572171D01*
X107126098Y-101786335D01*
X107126094Y-101786344D01*
X107064938Y-102014586D01*
X107064936Y-102014596D01*
X107044341Y-102249999D01*
X107044341Y-102250000D01*
X107064936Y-102485403D01*
X107064938Y-102485413D01*
X107126094Y-102713655D01*
X107126096Y-102713659D01*
X107126097Y-102713663D01*
X107220500Y-102916110D01*
X107225965Y-102927830D01*
X107225967Y-102927834D01*
X107263741Y-102981780D01*
X107361504Y-103121400D01*
X107361506Y-103121402D01*
X107483430Y-103243326D01*
X107516915Y-103304649D01*
X107511931Y-103374341D01*
X107470059Y-103430274D01*
X107439083Y-103447189D01*
X107307669Y-103496203D01*
X107307664Y-103496206D01*
X107192455Y-103582452D01*
X107192452Y-103582455D01*
X107106206Y-103697664D01*
X107106202Y-103697671D01*
X107055908Y-103832517D01*
X107049501Y-103892116D01*
X107049500Y-103892135D01*
X107049500Y-105687870D01*
X107049501Y-105687876D01*
X107055908Y-105747483D01*
X107106202Y-105882328D01*
X107106206Y-105882335D01*
X107192452Y-105997544D01*
X107192455Y-105997547D01*
X107307665Y-106083794D01*
X107307667Y-106083794D01*
X107307669Y-106083796D01*
X107318830Y-106087958D01*
X107374764Y-106129826D01*
X107399184Y-106195289D01*
X107399500Y-106204141D01*
X107399500Y-106498541D01*
X107399500Y-106498543D01*
X107399499Y-106498543D01*
X107437947Y-106691829D01*
X107437950Y-106691839D01*
X107513364Y-106873907D01*
X107513371Y-106873920D01*
X107622859Y-107037780D01*
X107622860Y-107037781D01*
X107622861Y-107037782D01*
X107762218Y-107177139D01*
X107762219Y-107177139D01*
X107769286Y-107184206D01*
X107769285Y-107184206D01*
X107769289Y-107184209D01*
X109362215Y-108777137D01*
X109362219Y-108777140D01*
X109526079Y-108886628D01*
X109526088Y-108886633D01*
X109557152Y-108899500D01*
X109708165Y-108962052D01*
X109869389Y-108994121D01*
X109901457Y-109000499D01*
X109901458Y-109000500D01*
X109901459Y-109000500D01*
X109901460Y-109000500D01*
X110098540Y-109000500D01*
X112875500Y-109000500D01*
X112942539Y-109020185D01*
X112988294Y-109072989D01*
X112999500Y-109124500D01*
X112999500Y-109139867D01*
X112981040Y-109204961D01*
X112965187Y-109230663D01*
X112965186Y-109230665D01*
X112965186Y-109230666D01*
X112910001Y-109397203D01*
X112910001Y-109397204D01*
X112910000Y-109397204D01*
X112899500Y-109499983D01*
X112899500Y-110500001D01*
X112899501Y-110500019D01*
X112910000Y-110602796D01*
X112910001Y-110602799D01*
X112965185Y-110769331D01*
X112965186Y-110769334D01*
X113057288Y-110918656D01*
X113181344Y-111042712D01*
X113330666Y-111134814D01*
X113497203Y-111189999D01*
X113599991Y-111200500D01*
X114085218Y-111200499D01*
X114152256Y-111220183D01*
X114198011Y-111272987D01*
X114207955Y-111342146D01*
X114178930Y-111405702D01*
X114172898Y-111412180D01*
X112764118Y-112820961D01*
X111362220Y-114222859D01*
X111362218Y-114222861D01*
X111283666Y-114301413D01*
X111218553Y-114366526D01*
X111216942Y-114364915D01*
X111167580Y-114398523D01*
X111097735Y-114400377D01*
X111037975Y-114364176D01*
X111007274Y-114301413D01*
X111005500Y-114280515D01*
X111005500Y-110551359D01*
X111003347Y-110511200D01*
X111002603Y-110497322D01*
X111002590Y-110497204D01*
X110999770Y-110470977D01*
X110999767Y-110470950D01*
X110991114Y-110417554D01*
X110991114Y-110417552D01*
X110963927Y-110344663D01*
X110940832Y-110282743D01*
X110907347Y-110221420D01*
X110821123Y-110106239D01*
X110821118Y-110106234D01*
X110821113Y-110106228D01*
X110393776Y-109678892D01*
X110393761Y-109678877D01*
X110393737Y-109678855D01*
X110353519Y-109642728D01*
X110353507Y-109642718D01*
X110348749Y-109638884D01*
X110339320Y-109631285D01*
X110332856Y-109626076D01*
X110288974Y-109594433D01*
X110158100Y-109534663D01*
X110091055Y-109514976D01*
X110043582Y-109508150D01*
X109948638Y-109494500D01*
X106051363Y-109494500D01*
X106051358Y-109494500D01*
X105997361Y-109497392D01*
X105970981Y-109500228D01*
X105917571Y-109508882D01*
X105917570Y-109508882D01*
X105917566Y-109508883D01*
X105917563Y-109508884D01*
X105782768Y-109559155D01*
X105782759Y-109559159D01*
X105723397Y-109591571D01*
X105721912Y-109592346D01*
X105721430Y-109592644D01*
X105606251Y-109678864D01*
X105606236Y-109678877D01*
X105567947Y-109717166D01*
X105548909Y-109737276D01*
X105539854Y-109747383D01*
X105521987Y-109768456D01*
X105448867Y-109892369D01*
X105448866Y-109892371D01*
X105422289Y-109956968D01*
X105422281Y-109956988D01*
X105422279Y-109956994D01*
X105398738Y-110050160D01*
X105396448Y-110058099D01*
X105366864Y-110149149D01*
X105356321Y-110172829D01*
X105327837Y-110222167D01*
X105312598Y-110243142D01*
X105274484Y-110285471D01*
X105256236Y-110301905D01*
X105256241Y-110301911D01*
X105256140Y-110301991D01*
X105255246Y-110302797D01*
X105254014Y-110303692D01*
X105253996Y-110303706D01*
X105183600Y-110365590D01*
X105183599Y-110365591D01*
X105152172Y-110398868D01*
X105094434Y-110472649D01*
X105034663Y-110603525D01*
X105014976Y-110670570D01*
X104994500Y-110812989D01*
X104994500Y-111687013D01*
X105003182Y-111780296D01*
X105003182Y-111780298D01*
X105011631Y-111825290D01*
X105037388Y-111915391D01*
X105058857Y-111953407D01*
X105108139Y-112040676D01*
X105108143Y-112040682D01*
X105108145Y-112040684D01*
X105150803Y-112096005D01*
X105150812Y-112096015D01*
X105220252Y-112163500D01*
X105253983Y-112196282D01*
X105253985Y-112196284D01*
X105253988Y-112196286D01*
X105255216Y-112197178D01*
X105274484Y-112214527D01*
X105300854Y-112243815D01*
X105307259Y-112250928D01*
X105307264Y-112250934D01*
X105307613Y-112251322D01*
X105312601Y-112256861D01*
X105327837Y-112277831D01*
X105341042Y-112300702D01*
X105356320Y-112327165D01*
X105366863Y-112350845D01*
X105384468Y-112405026D01*
X105389858Y-112430385D01*
X105395812Y-112487039D01*
X105395812Y-112512959D01*
X105389858Y-112569613D01*
X105384468Y-112594971D01*
X105366864Y-112649151D01*
X105356320Y-112672833D01*
X105327836Y-112722169D01*
X105312598Y-112743142D01*
X105274484Y-112785471D01*
X105256236Y-112801905D01*
X105256241Y-112801911D01*
X105256140Y-112801991D01*
X105255246Y-112802797D01*
X105254014Y-112803692D01*
X105253996Y-112803706D01*
X105183600Y-112865590D01*
X105183599Y-112865591D01*
X105152172Y-112898868D01*
X105094434Y-112972649D01*
X105034663Y-113103525D01*
X105014976Y-113170570D01*
X105012011Y-113191191D01*
X104996296Y-113300500D01*
X104994500Y-113312989D01*
X104994500Y-114448640D01*
X104997397Y-114502688D01*
X104997397Y-114502689D01*
X105000229Y-114529022D01*
X105000232Y-114529049D01*
X105008885Y-114582445D01*
X105010446Y-114588341D01*
X105009243Y-114588659D01*
X105013766Y-114651854D01*
X104980283Y-114713178D01*
X104918961Y-114746665D01*
X104892599Y-114749500D01*
X104031378Y-114749500D01*
X104031370Y-114749500D01*
X104031347Y-114749501D01*
X103978756Y-114752295D01*
X103978755Y-114752295D01*
X103748878Y-114796754D01*
X103748876Y-114796754D01*
X103748874Y-114796755D01*
X103678775Y-114823209D01*
X103529810Y-114879425D01*
X103327868Y-114997929D01*
X103327861Y-114997934D01*
X103148858Y-115148856D01*
X103148856Y-115148858D01*
X102997934Y-115327861D01*
X102997929Y-115327868D01*
X102879425Y-115529810D01*
X102838974Y-115637000D01*
X102796755Y-115748874D01*
X102796754Y-115748876D01*
X102796754Y-115748878D01*
X102752295Y-115978755D01*
X102752295Y-115978756D01*
X102749501Y-116031347D01*
X102749500Y-116031386D01*
X102749500Y-117968613D01*
X102749501Y-117968652D01*
X102752295Y-118021243D01*
X102752295Y-118021244D01*
X102790307Y-118217784D01*
X102796755Y-118251126D01*
X102845326Y-118379832D01*
X102879425Y-118470189D01*
X102997929Y-118672131D01*
X102997934Y-118672138D01*
X103148856Y-118851141D01*
X103148858Y-118851143D01*
X103327861Y-119002065D01*
X103327868Y-119002070D01*
X103529810Y-119120574D01*
X103748874Y-119203245D01*
X103978759Y-119247705D01*
X104031378Y-119250500D01*
X104031386Y-119250500D01*
X105968614Y-119250500D01*
X105968622Y-119250500D01*
X106021241Y-119247705D01*
X106251126Y-119203245D01*
X106470190Y-119120574D01*
X106672132Y-119002070D01*
X106851142Y-118851142D01*
X106936418Y-118750000D01*
X107002065Y-118672138D01*
X107002065Y-118672137D01*
X107002070Y-118672132D01*
X107120574Y-118470190D01*
X107203245Y-118251126D01*
X107241731Y-118052129D01*
X107248518Y-118017039D01*
X107250103Y-118017345D01*
X107275114Y-117959412D01*
X107333092Y-117920420D01*
X107402946Y-117918963D01*
X107462499Y-117955504D01*
X107492843Y-118018440D01*
X107494500Y-118038643D01*
X107494500Y-119187013D01*
X107503182Y-119280296D01*
X107503182Y-119280298D01*
X107511631Y-119325290D01*
X107537388Y-119415391D01*
X107555730Y-119447870D01*
X107608139Y-119540676D01*
X107608143Y-119540682D01*
X107608145Y-119540684D01*
X107650803Y-119596005D01*
X107650812Y-119596015D01*
X107732795Y-119675690D01*
X107753983Y-119696282D01*
X107754860Y-119696919D01*
X107755220Y-119697181D01*
X107774481Y-119714524D01*
X107812600Y-119756859D01*
X107827837Y-119777831D01*
X107836468Y-119792780D01*
X107856322Y-119827168D01*
X107866864Y-119850847D01*
X107884468Y-119905027D01*
X107889858Y-119930385D01*
X107895812Y-119987039D01*
X107895812Y-120012959D01*
X107889858Y-120069613D01*
X107884468Y-120094971D01*
X107866864Y-120149151D01*
X107856320Y-120172833D01*
X107827836Y-120222169D01*
X107812598Y-120243142D01*
X107774484Y-120285471D01*
X107756236Y-120301905D01*
X107756241Y-120301911D01*
X107756140Y-120301991D01*
X107755246Y-120302797D01*
X107754014Y-120303692D01*
X107753996Y-120303706D01*
X107683600Y-120365590D01*
X107683599Y-120365591D01*
X107652172Y-120398868D01*
X107594434Y-120472649D01*
X107534663Y-120603525D01*
X107514976Y-120670570D01*
X107494500Y-120812989D01*
X107494500Y-121687011D01*
X107503182Y-121780296D01*
X107503182Y-121780298D01*
X107511631Y-121825290D01*
X107537388Y-121915391D01*
X107568184Y-121969925D01*
X107608139Y-122040676D01*
X107608143Y-122040682D01*
X107608145Y-122040684D01*
X107650803Y-122096005D01*
X107650812Y-122096015D01*
X107709813Y-122153355D01*
X107753983Y-122196282D01*
X107753985Y-122196284D01*
X107753988Y-122196286D01*
X107755216Y-122197178D01*
X107774484Y-122214527D01*
X107805674Y-122249168D01*
X107812601Y-122256861D01*
X107827837Y-122277831D01*
X107856320Y-122327165D01*
X107866863Y-122350845D01*
X107884468Y-122405026D01*
X107889858Y-122430385D01*
X107895812Y-122487039D01*
X107895812Y-122512959D01*
X107889858Y-122569613D01*
X107884468Y-122594971D01*
X107866864Y-122649151D01*
X107856320Y-122672833D01*
X107827836Y-122722169D01*
X107812598Y-122743142D01*
X107774484Y-122785471D01*
X107756236Y-122801905D01*
X107756241Y-122801911D01*
X107756140Y-122801991D01*
X107755246Y-122802797D01*
X107754014Y-122803692D01*
X107753996Y-122803706D01*
X107683600Y-122865590D01*
X107683599Y-122865591D01*
X107652172Y-122898868D01*
X107594434Y-122972649D01*
X107534663Y-123103525D01*
X107514976Y-123170570D01*
X107494500Y-123312989D01*
X107494500Y-124187013D01*
X107503182Y-124280296D01*
X107503182Y-124280298D01*
X107511631Y-124325290D01*
X107537388Y-124415391D01*
X107553168Y-124443334D01*
X107608139Y-124540676D01*
X107608143Y-124540682D01*
X107608145Y-124540684D01*
X107650803Y-124596005D01*
X107650812Y-124596015D01*
X107741482Y-124684133D01*
X107753983Y-124696282D01*
X107753985Y-124696284D01*
X107753988Y-124696286D01*
X107755216Y-124697178D01*
X107774484Y-124714527D01*
X107805674Y-124749168D01*
X107812601Y-124756861D01*
X107827837Y-124777831D01*
X107856320Y-124827165D01*
X107866863Y-124850845D01*
X107884468Y-124905026D01*
X107889858Y-124930385D01*
X107895812Y-124987039D01*
X107895812Y-125012959D01*
X107889858Y-125069613D01*
X107884468Y-125094971D01*
X107866864Y-125149151D01*
X107856320Y-125172833D01*
X107827836Y-125222169D01*
X107812598Y-125243142D01*
X107774484Y-125285471D01*
X107756236Y-125301905D01*
X107756241Y-125301911D01*
X107756140Y-125301991D01*
X107755246Y-125302797D01*
X107754014Y-125303692D01*
X107753996Y-125303706D01*
X107683600Y-125365590D01*
X107683599Y-125365591D01*
X107652172Y-125398868D01*
X107594434Y-125472649D01*
X107534663Y-125603525D01*
X107514976Y-125670570D01*
X107494500Y-125812989D01*
X107494500Y-126370500D01*
X107474815Y-126437539D01*
X107422011Y-126483294D01*
X107370500Y-126494500D01*
X101551360Y-126494500D01*
X101497311Y-126497397D01*
X101497310Y-126497397D01*
X101470977Y-126500229D01*
X101470950Y-126500232D01*
X101417554Y-126508885D01*
X101417552Y-126508885D01*
X101282747Y-126559166D01*
X101282744Y-126559167D01*
X101282743Y-126559168D01*
X101272404Y-126564813D01*
X101221422Y-126592651D01*
X101106240Y-126678876D01*
X101106228Y-126678886D01*
X100678892Y-127106223D01*
X100678855Y-127106262D01*
X100642728Y-127146480D01*
X100642718Y-127146492D01*
X100626083Y-127167134D01*
X100614731Y-127182877D01*
X100606076Y-127194879D01*
X100550901Y-127237741D01*
X100481309Y-127243968D01*
X100419398Y-127211583D01*
X100384824Y-127150868D01*
X100381500Y-127122351D01*
X100381500Y-114455736D01*
X100401185Y-114388697D01*
X100453989Y-114342942D01*
X100523147Y-114332998D01*
X100576117Y-114353808D01*
X100630625Y-114391571D01*
X100835480Y-114484622D01*
X101053667Y-114539599D01*
X101185810Y-114549999D01*
X101749999Y-114549999D01*
X101750000Y-114549998D01*
X101750000Y-113733012D01*
X101807007Y-113765925D01*
X101934174Y-113800000D01*
X102065826Y-113800000D01*
X102192993Y-113765925D01*
X102250000Y-113733012D01*
X102250000Y-114549999D01*
X102814182Y-114549999D01*
X102814197Y-114549998D01*
X102946332Y-114539599D01*
X103164519Y-114484622D01*
X103369374Y-114391571D01*
X103369380Y-114391568D01*
X103554323Y-114263440D01*
X103554335Y-114263430D01*
X103713430Y-114104335D01*
X103713440Y-114104323D01*
X103841568Y-113919380D01*
X103841571Y-113919374D01*
X103934622Y-113714519D01*
X103989599Y-113496332D01*
X103999999Y-113364196D01*
X104000000Y-113364184D01*
X104000000Y-112550000D01*
X102500000Y-112550000D01*
X102500000Y-112050000D01*
X103999999Y-112050000D01*
X103999999Y-111235817D01*
X103999998Y-111235802D01*
X103989599Y-111103667D01*
X103934622Y-110885480D01*
X103841571Y-110680625D01*
X103841568Y-110680619D01*
X103713440Y-110495676D01*
X103713430Y-110495664D01*
X103554335Y-110336569D01*
X103554323Y-110336559D01*
X103369380Y-110208431D01*
X103369374Y-110208428D01*
X103164519Y-110115377D01*
X102946332Y-110060400D01*
X102814196Y-110050000D01*
X102250000Y-110050000D01*
X102250000Y-110866988D01*
X102192993Y-110834075D01*
X102065826Y-110800000D01*
X101934174Y-110800000D01*
X101807007Y-110834075D01*
X101750000Y-110866988D01*
X101750000Y-110050000D01*
X101185817Y-110050000D01*
X101185802Y-110050001D01*
X101053667Y-110060400D01*
X100835480Y-110115377D01*
X100630625Y-110208428D01*
X100630621Y-110208430D01*
X100576115Y-110246192D01*
X100509799Y-110268188D01*
X100442117Y-110250840D01*
X100394559Y-110199654D01*
X100381500Y-110144263D01*
X100381500Y-104953620D01*
X100401185Y-104886581D01*
X100453989Y-104840826D01*
X100523147Y-104830882D01*
X100586703Y-104859907D01*
X100614028Y-104893639D01*
X100786215Y-105205189D01*
X100786218Y-105205194D01*
X100994193Y-105498306D01*
X101066844Y-105579601D01*
X102384728Y-104261717D01*
X102470278Y-104379466D01*
X102620534Y-104529722D01*
X102738281Y-104615270D01*
X102280050Y-105073501D01*
X102318109Y-104981619D01*
X102318109Y-104882163D01*
X102280049Y-104790277D01*
X102209723Y-104719951D01*
X102117837Y-104681891D01*
X102018381Y-104681891D01*
X101926495Y-104719951D01*
X101856169Y-104790277D01*
X101818109Y-104882163D01*
X101818109Y-104981619D01*
X101856169Y-105073505D01*
X101926495Y-105143831D01*
X102018381Y-105181891D01*
X102117837Y-105181891D01*
X102209719Y-105143832D01*
X101420397Y-105933154D01*
X101501693Y-106005806D01*
X101794805Y-106213781D01*
X101794810Y-106213784D01*
X102109386Y-106387644D01*
X102109390Y-106387646D01*
X102441447Y-106525187D01*
X102786805Y-106624683D01*
X102786814Y-106624685D01*
X103141141Y-106684887D01*
X103141153Y-106684889D01*
X103500000Y-106705041D01*
X103858846Y-106684889D01*
X103858858Y-106684887D01*
X104213185Y-106624685D01*
X104213194Y-106624683D01*
X104558552Y-106525187D01*
X104890609Y-106387646D01*
X104890613Y-106387644D01*
X105205189Y-106213784D01*
X105205194Y-106213781D01*
X105498299Y-106005811D01*
X105498322Y-106005793D01*
X105579602Y-105933155D01*
X105579602Y-105933154D01*
X104790279Y-105143832D01*
X104882163Y-105181891D01*
X104981619Y-105181891D01*
X105073505Y-105143831D01*
X105143831Y-105073505D01*
X105181891Y-104981619D01*
X105181891Y-104882163D01*
X105143832Y-104790279D01*
X105933154Y-105579602D01*
X105933155Y-105579602D01*
X106005793Y-105498322D01*
X106005811Y-105498299D01*
X106213781Y-105205194D01*
X106213784Y-105205189D01*
X106387644Y-104890613D01*
X106387646Y-104890609D01*
X106525187Y-104558552D01*
X106624683Y-104213194D01*
X106624685Y-104213185D01*
X106684887Y-103858858D01*
X106684889Y-103858846D01*
X106705041Y-103500000D01*
X106684889Y-103141153D01*
X106684887Y-103141141D01*
X106624685Y-102786814D01*
X106624683Y-102786805D01*
X106525187Y-102441447D01*
X106387646Y-102109390D01*
X106387644Y-102109386D01*
X106213784Y-101794810D01*
X106213781Y-101794805D01*
X106005806Y-101501693D01*
X105933154Y-101420397D01*
X105143832Y-102209718D01*
X105181891Y-102117837D01*
X105181891Y-102018381D01*
X105143831Y-101926495D01*
X105073505Y-101856169D01*
X104981619Y-101818109D01*
X104882163Y-101818109D01*
X104790277Y-101856169D01*
X104719951Y-101926495D01*
X104681891Y-102018381D01*
X104681891Y-102117837D01*
X104719951Y-102209723D01*
X104790277Y-102280049D01*
X104882163Y-102318109D01*
X104981619Y-102318109D01*
X105073500Y-102280050D01*
X104615270Y-102738281D01*
X104529722Y-102620534D01*
X104379466Y-102470278D01*
X104261717Y-102384728D01*
X105579601Y-101066844D01*
X105579602Y-101066844D01*
X105498306Y-100994193D01*
X105205194Y-100786218D01*
X105205189Y-100786215D01*
X104893640Y-100614028D01*
X104844487Y-100564371D01*
X104829984Y-100496023D01*
X104854734Y-100430684D01*
X104910881Y-100389099D01*
X104953621Y-100381500D01*
X160046379Y-100381500D01*
X160113418Y-100401185D01*
G37*
%TD.AperFunction*%
%TA.AperFunction,Conductor*%
G36*
X150317859Y-111611940D02*
G01*
X150362385Y-111663325D01*
X150365184Y-111669330D01*
X150365186Y-111669334D01*
X150457288Y-111818656D01*
X150581344Y-111942712D01*
X150730666Y-112034814D01*
X150814505Y-112062595D01*
X150871948Y-112102366D01*
X150898772Y-112166882D01*
X150899500Y-112180300D01*
X150899500Y-113913330D01*
X150899499Y-113913348D01*
X150899499Y-114079054D01*
X150899498Y-114079054D01*
X150940423Y-114231786D01*
X150948716Y-114246148D01*
X150950940Y-114250000D01*
X151016859Y-114364176D01*
X151019479Y-114368714D01*
X151019481Y-114368717D01*
X151138349Y-114487585D01*
X151138355Y-114487590D01*
X153765139Y-117114374D01*
X153765149Y-117114385D01*
X153769479Y-117118715D01*
X153769480Y-117118716D01*
X153881284Y-117230520D01*
X153958813Y-117275281D01*
X154018215Y-117309577D01*
X154170942Y-117350500D01*
X154170943Y-117350500D01*
X154945149Y-117350500D01*
X155012188Y-117370185D01*
X155057943Y-117422989D01*
X155068439Y-117461248D01*
X155073408Y-117507483D01*
X155123702Y-117642328D01*
X155123703Y-117642330D01*
X155148676Y-117675690D01*
X155173092Y-117741155D01*
X155158240Y-117809428D01*
X155148676Y-117824310D01*
X155123703Y-117857669D01*
X155123701Y-117857674D01*
X155110852Y-117892123D01*
X155068980Y-117948056D01*
X155003516Y-117972472D01*
X154944235Y-117962067D01*
X154829685Y-117911065D01*
X154779806Y-117888857D01*
X154779802Y-117888855D01*
X154633074Y-117857668D01*
X154594646Y-117849500D01*
X154405354Y-117849500D01*
X154372897Y-117856398D01*
X154220197Y-117888855D01*
X154220192Y-117888857D01*
X154047270Y-117965848D01*
X154047265Y-117965851D01*
X153894129Y-118077111D01*
X153767466Y-118217785D01*
X153672821Y-118381715D01*
X153672818Y-118381722D01*
X153621742Y-118538919D01*
X153614326Y-118561744D01*
X153594540Y-118750000D01*
X153614326Y-118938256D01*
X153614327Y-118938259D01*
X153672818Y-119118277D01*
X153672821Y-119118284D01*
X153767467Y-119282216D01*
X153887379Y-119415391D01*
X153894129Y-119422888D01*
X154047265Y-119534148D01*
X154047270Y-119534151D01*
X154220192Y-119611142D01*
X154220197Y-119611144D01*
X154302839Y-119628710D01*
X154364321Y-119661902D01*
X154398097Y-119723065D01*
X154393445Y-119792780D01*
X154351840Y-119848912D01*
X154302839Y-119871290D01*
X154220197Y-119888855D01*
X154220192Y-119888857D01*
X154047270Y-119965848D01*
X154047265Y-119965851D01*
X153894129Y-120077111D01*
X153767466Y-120217785D01*
X153672821Y-120381715D01*
X153672818Y-120381722D01*
X153623273Y-120534207D01*
X153614326Y-120561744D01*
X153594540Y-120750000D01*
X153614326Y-120938256D01*
X153614327Y-120938259D01*
X153672818Y-121118277D01*
X153672821Y-121118284D01*
X153767467Y-121282216D01*
X153894129Y-121422888D01*
X154047265Y-121534148D01*
X154047270Y-121534151D01*
X154220192Y-121611142D01*
X154220197Y-121611144D01*
X154405354Y-121650500D01*
X154405355Y-121650500D01*
X154594644Y-121650500D01*
X154594646Y-121650500D01*
X154779803Y-121611144D01*
X154944235Y-121537932D01*
X155013485Y-121528648D01*
X155076761Y-121558276D01*
X155110852Y-121607877D01*
X155123701Y-121642325D01*
X155123703Y-121642330D01*
X155148676Y-121675690D01*
X155173092Y-121741155D01*
X155158240Y-121809428D01*
X155148676Y-121824310D01*
X155123703Y-121857669D01*
X155123702Y-121857671D01*
X155073408Y-121992517D01*
X155067001Y-122052116D01*
X155067000Y-122052135D01*
X155067000Y-123447870D01*
X155067001Y-123447876D01*
X155073408Y-123507483D01*
X155123702Y-123642328D01*
X155123703Y-123642330D01*
X155148676Y-123675690D01*
X155173092Y-123741155D01*
X155158240Y-123809428D01*
X155148676Y-123824310D01*
X155123703Y-123857669D01*
X155123701Y-123857674D01*
X155110852Y-123892123D01*
X155068980Y-123948056D01*
X155003516Y-123972472D01*
X154944235Y-123962067D01*
X154871878Y-123929851D01*
X154779806Y-123888857D01*
X154779802Y-123888855D01*
X154623396Y-123855611D01*
X154594646Y-123849500D01*
X154405354Y-123849500D01*
X154376604Y-123855611D01*
X154220197Y-123888855D01*
X154220192Y-123888857D01*
X154047270Y-123965848D01*
X154047265Y-123965851D01*
X153894129Y-124077111D01*
X153767466Y-124217785D01*
X153672821Y-124381715D01*
X153672818Y-124381722D01*
X153614327Y-124561740D01*
X153614326Y-124561744D01*
X153594540Y-124750000D01*
X153614326Y-124938256D01*
X153614327Y-124938259D01*
X153672818Y-125118277D01*
X153672820Y-125118281D01*
X153672821Y-125118284D01*
X153767467Y-125282216D01*
X153894129Y-125422888D01*
X154047265Y-125534148D01*
X154047270Y-125534151D01*
X154220192Y-125611142D01*
X154220197Y-125611144D01*
X154405354Y-125650500D01*
X154405355Y-125650500D01*
X154594644Y-125650500D01*
X154594646Y-125650500D01*
X154779803Y-125611144D01*
X154944235Y-125537932D01*
X155013485Y-125528648D01*
X155076761Y-125558276D01*
X155110852Y-125607877D01*
X155123701Y-125642325D01*
X155123703Y-125642330D01*
X155148676Y-125675690D01*
X155173092Y-125741155D01*
X155158240Y-125809428D01*
X155148676Y-125824310D01*
X155123704Y-125857669D01*
X155078147Y-125979815D01*
X155073409Y-125992517D01*
X155068437Y-126038757D01*
X155041701Y-126103306D01*
X154984309Y-126143154D01*
X154945149Y-126149500D01*
X154050097Y-126149500D01*
X153983058Y-126129815D01*
X153962416Y-126113181D01*
X149636819Y-121787584D01*
X149603334Y-121726261D01*
X149600500Y-121699903D01*
X149600500Y-112180300D01*
X149620185Y-112113261D01*
X149672989Y-112067506D01*
X149685482Y-112062599D01*
X149769334Y-112034814D01*
X149918656Y-111942712D01*
X150042712Y-111818656D01*
X150134814Y-111669334D01*
X150134817Y-111669322D01*
X150137615Y-111663325D01*
X150183785Y-111610884D01*
X150250977Y-111591728D01*
X150317859Y-111611940D01*
G37*
%TD.AperFunction*%
%TA.AperFunction,Conductor*%
G36*
X161380177Y-121884832D02*
G01*
X161433820Y-121929601D01*
X161449072Y-121961426D01*
X161460301Y-121997203D01*
X161468102Y-122022057D01*
X161548110Y-122141628D01*
X161548115Y-122141635D01*
X161548183Y-122141711D01*
X161548198Y-122141742D01*
X161550835Y-122145132D01*
X161550098Y-122145705D01*
X161578387Y-122204712D01*
X161580000Y-122224645D01*
X161580000Y-123724999D01*
X161679140Y-123724999D01*
X161679154Y-123724998D01*
X161780152Y-123714680D01*
X161943800Y-123660453D01*
X161943811Y-123660448D01*
X162090534Y-123569947D01*
X162090538Y-123569944D01*
X162092579Y-123567904D01*
X162094324Y-123566951D01*
X162096201Y-123565467D01*
X162096454Y-123565787D01*
X162153902Y-123534419D01*
X162223594Y-123539403D01*
X162267941Y-123567904D01*
X162375850Y-123675813D01*
X162391271Y-123694604D01*
X162431876Y-123755374D01*
X162443335Y-123776811D01*
X162471302Y-123844329D01*
X162478358Y-123867589D01*
X162492617Y-123939267D01*
X162495000Y-123963460D01*
X162495000Y-124036539D01*
X162492617Y-124060733D01*
X162478358Y-124132410D01*
X162471302Y-124155668D01*
X162443335Y-124223187D01*
X162431876Y-124244625D01*
X162391275Y-124305389D01*
X162375854Y-124324180D01*
X162324180Y-124375854D01*
X162305390Y-124391275D01*
X162244628Y-124431875D01*
X162223191Y-124443334D01*
X162155667Y-124471304D01*
X162132405Y-124478360D01*
X162083393Y-124488109D01*
X162060731Y-124492617D01*
X162036541Y-124495000D01*
X161963459Y-124495000D01*
X161939269Y-124492617D01*
X161903630Y-124485528D01*
X161867588Y-124478358D01*
X161844330Y-124471302D01*
X161776816Y-124443337D01*
X161755378Y-124431878D01*
X161694605Y-124391271D01*
X161675814Y-124375850D01*
X161116319Y-123816353D01*
X161082834Y-123755030D01*
X161080000Y-123728672D01*
X161080000Y-122231268D01*
X161099685Y-122164229D01*
X161106377Y-122154810D01*
X161107507Y-122153365D01*
X161107517Y-122153355D01*
X161183050Y-122030896D01*
X161183054Y-122030887D01*
X161210889Y-121966824D01*
X161210889Y-121966821D01*
X161210893Y-121966814D01*
X161211161Y-121965834D01*
X161211340Y-121965543D01*
X161212359Y-121962649D01*
X161212658Y-121962754D01*
X161212659Y-121962752D01*
X161212690Y-121962765D01*
X161212988Y-121962870D01*
X161247839Y-121906368D01*
X161310846Y-121876171D01*
X161380177Y-121884832D01*
G37*
%TD.AperFunction*%
%TA.AperFunction,Conductor*%
G36*
X115587501Y-117520185D02*
G01*
X115633256Y-117572989D01*
X115643200Y-117642147D01*
X115626000Y-117689597D01*
X115589551Y-117748688D01*
X115589546Y-117748699D01*
X115535319Y-117912347D01*
X115525000Y-118013345D01*
X115525000Y-118112500D01*
X119474999Y-118112500D01*
X119474999Y-118013360D01*
X119474998Y-118013345D01*
X119464680Y-117912347D01*
X119427785Y-117801004D01*
X119425383Y-117731176D01*
X119461115Y-117671134D01*
X119523635Y-117639941D01*
X119545491Y-117638000D01*
X120040426Y-117638000D01*
X120107465Y-117657685D01*
X120153220Y-117710489D01*
X120163164Y-117779647D01*
X120139692Y-117836312D01*
X120123704Y-117857668D01*
X120123702Y-117857671D01*
X120073408Y-117992517D01*
X120067325Y-118049106D01*
X120067001Y-118052123D01*
X120067000Y-118052135D01*
X120067000Y-119447870D01*
X120067001Y-119447876D01*
X120073408Y-119507483D01*
X120123702Y-119642328D01*
X120123703Y-119642330D01*
X120148676Y-119675690D01*
X120173092Y-119741155D01*
X120158240Y-119809428D01*
X120148676Y-119824310D01*
X120123703Y-119857669D01*
X120123702Y-119857671D01*
X120073408Y-119992517D01*
X120067001Y-120052116D01*
X120067000Y-120052135D01*
X120067000Y-121447870D01*
X120067001Y-121447876D01*
X120073408Y-121507483D01*
X120123702Y-121642328D01*
X120123703Y-121642330D01*
X120148676Y-121675690D01*
X120173092Y-121741155D01*
X120158240Y-121809428D01*
X120148676Y-121824310D01*
X120123703Y-121857669D01*
X120123702Y-121857671D01*
X120073408Y-121992517D01*
X120067001Y-122052116D01*
X120067000Y-122052135D01*
X120067000Y-123447870D01*
X120067001Y-123447876D01*
X120073408Y-123507483D01*
X120123702Y-123642328D01*
X120123703Y-123642330D01*
X120148676Y-123675690D01*
X120173092Y-123741155D01*
X120158240Y-123809428D01*
X120148676Y-123824310D01*
X120123703Y-123857669D01*
X120123702Y-123857671D01*
X120100891Y-123918833D01*
X120059020Y-123974767D01*
X119993556Y-123999184D01*
X119984709Y-123999500D01*
X116780301Y-123999500D01*
X116713262Y-123979815D01*
X116667507Y-123927011D01*
X116662595Y-123914504D01*
X116655179Y-123892123D01*
X116634814Y-123830666D01*
X116542712Y-123681344D01*
X116449049Y-123587681D01*
X116415564Y-123526358D01*
X116420548Y-123456666D01*
X116449049Y-123412319D01*
X116494500Y-123366868D01*
X116542712Y-123318656D01*
X116634814Y-123169334D01*
X116689999Y-123002797D01*
X116700500Y-122900009D01*
X116700499Y-122099992D01*
X116698360Y-122079057D01*
X116689999Y-121997203D01*
X116689998Y-121997200D01*
X116679508Y-121965543D01*
X116634814Y-121830666D01*
X116542712Y-121681344D01*
X116536819Y-121675451D01*
X116503334Y-121614128D01*
X116500500Y-121587770D01*
X116500500Y-120401456D01*
X116481056Y-120303709D01*
X116476752Y-120282071D01*
X116462051Y-120208164D01*
X116442741Y-120161546D01*
X116437762Y-120149525D01*
X116437750Y-120149498D01*
X116386635Y-120026093D01*
X116386634Y-120026092D01*
X116386632Y-120026086D01*
X116355567Y-119979594D01*
X116277139Y-119862217D01*
X116134686Y-119719764D01*
X116134655Y-119719735D01*
X116016046Y-119601126D01*
X115982561Y-119539803D01*
X115987545Y-119470111D01*
X116029417Y-119414178D01*
X116094881Y-119389761D01*
X116116331Y-119390087D01*
X116213353Y-119399999D01*
X116250000Y-119399999D01*
X116750000Y-119399999D01*
X116786640Y-119399999D01*
X116786654Y-119399998D01*
X116887652Y-119389680D01*
X117051300Y-119335453D01*
X117051311Y-119335448D01*
X117198034Y-119244947D01*
X117198038Y-119244944D01*
X117319943Y-119123039D01*
X117394461Y-119002228D01*
X117446409Y-118955504D01*
X117515372Y-118944282D01*
X117579454Y-118972125D01*
X117605539Y-119002228D01*
X117680056Y-119123039D01*
X117801961Y-119244944D01*
X117801965Y-119244947D01*
X117948688Y-119335448D01*
X117948699Y-119335453D01*
X118112347Y-119389680D01*
X118213352Y-119399999D01*
X118250000Y-119399999D01*
X118750000Y-119399999D01*
X118786640Y-119399999D01*
X118786654Y-119399998D01*
X118887652Y-119389680D01*
X119051300Y-119335453D01*
X119051311Y-119335448D01*
X119198034Y-119244947D01*
X119198038Y-119244944D01*
X119319944Y-119123038D01*
X119319947Y-119123034D01*
X119410448Y-118976311D01*
X119410453Y-118976300D01*
X119464680Y-118812652D01*
X119474999Y-118711654D01*
X119475000Y-118711641D01*
X119475000Y-118612500D01*
X118750000Y-118612500D01*
X118750000Y-119399999D01*
X118250000Y-119399999D01*
X118250000Y-118612500D01*
X116750000Y-118612500D01*
X116750000Y-119399999D01*
X116250000Y-119399999D01*
X116250000Y-118612500D01*
X115525001Y-118612500D01*
X115525001Y-118711654D01*
X115535319Y-118812653D01*
X115575330Y-118933401D01*
X115577731Y-119003229D01*
X115541999Y-119063271D01*
X115479479Y-119094463D01*
X115410171Y-119086965D01*
X115352968Y-119063271D01*
X115315886Y-119047911D01*
X115291836Y-119037949D01*
X115291834Y-119037948D01*
X115287314Y-119036577D01*
X115228877Y-118998276D01*
X115200424Y-118934463D01*
X115199959Y-118905301D01*
X115200499Y-118900019D01*
X115200499Y-118900018D01*
X115200500Y-118900009D01*
X115200499Y-118099992D01*
X115195608Y-118052116D01*
X115189999Y-117997203D01*
X115189998Y-117997200D01*
X115179609Y-117965848D01*
X115134814Y-117830666D01*
X115130894Y-117824311D01*
X115047802Y-117689596D01*
X115029362Y-117622204D01*
X115050285Y-117555541D01*
X115103927Y-117510771D01*
X115153341Y-117500500D01*
X115520462Y-117500500D01*
X115587501Y-117520185D01*
G37*
%TD.AperFunction*%
%TA.AperFunction,Conductor*%
G36*
X162151469Y-119000508D02*
G01*
X162186064Y-119022479D01*
X162214377Y-119047911D01*
X162214380Y-119047913D01*
X162305394Y-119108727D01*
X162324185Y-119124148D01*
X162375850Y-119175813D01*
X162391271Y-119194604D01*
X162431876Y-119255374D01*
X162443335Y-119276810D01*
X162471302Y-119344327D01*
X162478357Y-119367583D01*
X162480993Y-119380831D01*
X162480994Y-119380837D01*
X162492617Y-119439267D01*
X162495000Y-119463459D01*
X162495000Y-119536539D01*
X162492617Y-119560733D01*
X162478358Y-119632410D01*
X162471302Y-119655668D01*
X162443335Y-119723187D01*
X162431876Y-119744625D01*
X162391324Y-119805318D01*
X162391279Y-119805385D01*
X162375857Y-119824176D01*
X162267939Y-119932094D01*
X162206616Y-119965579D01*
X162136924Y-119960595D01*
X162096258Y-119934460D01*
X162096201Y-119934533D01*
X162095458Y-119933945D01*
X162092577Y-119932094D01*
X162090538Y-119930055D01*
X162090534Y-119930052D01*
X161943811Y-119839551D01*
X161943800Y-119839546D01*
X161780152Y-119785319D01*
X161679154Y-119775000D01*
X161580000Y-119775000D01*
X161580000Y-121268729D01*
X161560315Y-121335768D01*
X161553627Y-121345181D01*
X161552489Y-121346633D01*
X161476957Y-121469087D01*
X161476949Y-121469101D01*
X161449110Y-121533173D01*
X161449100Y-121533198D01*
X161449097Y-121533206D01*
X161448828Y-121534191D01*
X161448694Y-121534406D01*
X161447985Y-121536522D01*
X161447796Y-121536458D01*
X161447796Y-121536459D01*
X161447789Y-121536456D01*
X161447491Y-121536356D01*
X161412133Y-121593650D01*
X161349118Y-121623830D01*
X161279790Y-121615151D01*
X161226159Y-121570368D01*
X161210924Y-121538569D01*
X161191896Y-121477940D01*
X161143744Y-121405980D01*
X161111883Y-121358363D01*
X161111879Y-121358358D01*
X161111799Y-121358269D01*
X161111781Y-121358232D01*
X161109167Y-121354872D01*
X161109898Y-121354302D01*
X161081608Y-121295259D01*
X161080000Y-121275354D01*
X161080000Y-119771324D01*
X161099685Y-119704285D01*
X161116314Y-119683648D01*
X161343021Y-119456942D01*
X161343022Y-119456942D01*
X161675828Y-119124133D01*
X161694595Y-119108731D01*
X161755381Y-119068116D01*
X161776796Y-119056669D01*
X161844340Y-119028691D01*
X161867589Y-119021639D01*
X161912596Y-119012687D01*
X161939270Y-119007382D01*
X161960280Y-119005313D01*
X161960277Y-119005221D01*
X161960271Y-119005101D01*
X161960274Y-119005100D01*
X161960273Y-119005050D01*
X161962015Y-119005000D01*
X161962039Y-119005000D01*
X162019654Y-119001706D01*
X162047739Y-118998484D01*
X162082055Y-118992545D01*
X162151469Y-119000508D01*
G37*
%TD.AperFunction*%
%TA.AperFunction,Conductor*%
G36*
X118810000Y-106120633D02*
G01*
X119023483Y-106063433D01*
X119023492Y-106063429D01*
X119237578Y-105963600D01*
X119431082Y-105828105D01*
X119598105Y-105661082D01*
X119728119Y-105475405D01*
X119782696Y-105431781D01*
X119852195Y-105424588D01*
X119914549Y-105456110D01*
X119931269Y-105475405D01*
X120061505Y-105661401D01*
X120228599Y-105828495D01*
X120309571Y-105885192D01*
X120422165Y-105964032D01*
X120422167Y-105964033D01*
X120422170Y-105964035D01*
X120636337Y-106063903D01*
X120636343Y-106063904D01*
X120636344Y-106063905D01*
X120665940Y-106071835D01*
X120864592Y-106125063D01*
X121052918Y-106141539D01*
X121099999Y-106145659D01*
X121100000Y-106145659D01*
X121100001Y-106145659D01*
X121139234Y-106142226D01*
X121335408Y-106125063D01*
X121563663Y-106063903D01*
X121777830Y-105964035D01*
X121971401Y-105828495D01*
X122138495Y-105661401D01*
X122268425Y-105475842D01*
X122323002Y-105432217D01*
X122392500Y-105425023D01*
X122454855Y-105456546D01*
X122471575Y-105475842D01*
X122601281Y-105661082D01*
X122601505Y-105661401D01*
X122768599Y-105828495D01*
X122849571Y-105885192D01*
X122962165Y-105964032D01*
X122962167Y-105964033D01*
X122962170Y-105964035D01*
X123176337Y-106063903D01*
X123176343Y-106063904D01*
X123176344Y-106063905D01*
X123205940Y-106071835D01*
X123404592Y-106125063D01*
X123592918Y-106141539D01*
X123639999Y-106145659D01*
X123640000Y-106145659D01*
X123640001Y-106145659D01*
X123679234Y-106142226D01*
X123875408Y-106125063D01*
X124103663Y-106063903D01*
X124317830Y-105964035D01*
X124511401Y-105828495D01*
X124678495Y-105661401D01*
X124808425Y-105475842D01*
X124863002Y-105432217D01*
X124932500Y-105425023D01*
X124994855Y-105456546D01*
X125011575Y-105475842D01*
X125141281Y-105661082D01*
X125141505Y-105661401D01*
X125308599Y-105828495D01*
X125389571Y-105885192D01*
X125502165Y-105964032D01*
X125502167Y-105964033D01*
X125502170Y-105964035D01*
X125716337Y-106063903D01*
X125716343Y-106063904D01*
X125716344Y-106063905D01*
X125745940Y-106071835D01*
X125944592Y-106125063D01*
X126132918Y-106141539D01*
X126179999Y-106145659D01*
X126180000Y-106145659D01*
X126180001Y-106145659D01*
X126219234Y-106142226D01*
X126415408Y-106125063D01*
X126643663Y-106063903D01*
X126713675Y-106031255D01*
X126782750Y-106020763D01*
X126846535Y-106049282D01*
X126884775Y-106107758D01*
X126885330Y-106177625D01*
X126853760Y-106231318D01*
X126121899Y-106963181D01*
X126060576Y-106996666D01*
X126034218Y-106999500D01*
X110465783Y-106999500D01*
X110398744Y-106979815D01*
X110378102Y-106963181D01*
X110014421Y-106599500D01*
X109597170Y-106182250D01*
X109563686Y-106120928D01*
X109568670Y-106051237D01*
X109602932Y-106005467D01*
X109601278Y-106003813D01*
X109607538Y-105997551D01*
X109607546Y-105997546D01*
X109693796Y-105882331D01*
X109742810Y-105750916D01*
X109784681Y-105694984D01*
X109850145Y-105670566D01*
X109918418Y-105685417D01*
X109946673Y-105706569D01*
X110068599Y-105828495D01*
X110149571Y-105885192D01*
X110262165Y-105964032D01*
X110262167Y-105964033D01*
X110262170Y-105964035D01*
X110476337Y-106063903D01*
X110476343Y-106063904D01*
X110476344Y-106063905D01*
X110505940Y-106071835D01*
X110704592Y-106125063D01*
X110892918Y-106141539D01*
X110939999Y-106145659D01*
X110940000Y-106145659D01*
X110940001Y-106145659D01*
X110979234Y-106142226D01*
X111175408Y-106125063D01*
X111403663Y-106063903D01*
X111617830Y-105964035D01*
X111811401Y-105828495D01*
X111978495Y-105661401D01*
X112108425Y-105475842D01*
X112163002Y-105432217D01*
X112232500Y-105425023D01*
X112294855Y-105456546D01*
X112311575Y-105475842D01*
X112441281Y-105661082D01*
X112441505Y-105661401D01*
X112608599Y-105828495D01*
X112689571Y-105885192D01*
X112802165Y-105964032D01*
X112802167Y-105964033D01*
X112802170Y-105964035D01*
X113016337Y-106063903D01*
X113016343Y-106063904D01*
X113016344Y-106063905D01*
X113045940Y-106071835D01*
X113244592Y-106125063D01*
X113432918Y-106141539D01*
X113479999Y-106145659D01*
X113480000Y-106145659D01*
X113480001Y-106145659D01*
X113519234Y-106142226D01*
X113715408Y-106125063D01*
X113943663Y-106063903D01*
X114157830Y-105964035D01*
X114351401Y-105828495D01*
X114518495Y-105661401D01*
X114648425Y-105475842D01*
X114703002Y-105432217D01*
X114772500Y-105425023D01*
X114834855Y-105456546D01*
X114851575Y-105475842D01*
X114981281Y-105661082D01*
X114981505Y-105661401D01*
X115148599Y-105828495D01*
X115229571Y-105885192D01*
X115342165Y-105964032D01*
X115342167Y-105964033D01*
X115342170Y-105964035D01*
X115556337Y-106063903D01*
X115556343Y-106063904D01*
X115556344Y-106063905D01*
X115585940Y-106071835D01*
X115784592Y-106125063D01*
X115972918Y-106141539D01*
X116019999Y-106145659D01*
X116020000Y-106145659D01*
X116020001Y-106145659D01*
X116059234Y-106142226D01*
X116255408Y-106125063D01*
X116483663Y-106063903D01*
X116697830Y-105964035D01*
X116891401Y-105828495D01*
X117058495Y-105661401D01*
X117188730Y-105475405D01*
X117243307Y-105431781D01*
X117312805Y-105424587D01*
X117375160Y-105456110D01*
X117391879Y-105475405D01*
X117521890Y-105661078D01*
X117688917Y-105828105D01*
X117882421Y-105963600D01*
X118096507Y-106063429D01*
X118096516Y-106063433D01*
X118310000Y-106120634D01*
X118310000Y-105223012D01*
X118367007Y-105255925D01*
X118494174Y-105290000D01*
X118625826Y-105290000D01*
X118752993Y-105255925D01*
X118810000Y-105223012D01*
X118810000Y-106120633D01*
G37*
%TD.AperFunction*%
%TA.AperFunction,Conductor*%
G36*
X105073502Y-104719949D02*
G01*
X104981619Y-104681891D01*
X104882163Y-104681891D01*
X104790277Y-104719951D01*
X104719951Y-104790277D01*
X104681891Y-104882163D01*
X104681891Y-104981619D01*
X104719949Y-105073502D01*
X104261718Y-104615270D01*
X104379466Y-104529722D01*
X104529722Y-104379466D01*
X104615270Y-104261718D01*
X105073502Y-104719949D01*
G37*
%TD.AperFunction*%
%TA.AperFunction,Conductor*%
G36*
X163073502Y-104719949D02*
G01*
X162981619Y-104681891D01*
X162882163Y-104681891D01*
X162790277Y-104719951D01*
X162719951Y-104790277D01*
X162681891Y-104882163D01*
X162681891Y-104981619D01*
X162719949Y-105073502D01*
X162261718Y-104615270D01*
X162379466Y-104529722D01*
X162529722Y-104379466D01*
X162615270Y-104261718D01*
X163073502Y-104719949D01*
G37*
%TD.AperFunction*%
%TA.AperFunction,Conductor*%
G36*
X160738282Y-102384729D02*
G01*
X160620534Y-102470278D01*
X160470278Y-102620534D01*
X160384729Y-102738282D01*
X159926496Y-102280049D01*
X160018381Y-102318109D01*
X160117837Y-102318109D01*
X160209723Y-102280049D01*
X160280049Y-102209723D01*
X160318109Y-102117837D01*
X160318109Y-102018381D01*
X160280049Y-101926496D01*
X160738282Y-102384729D01*
G37*
%TD.AperFunction*%
M02*
